<?xml version="1.0" encoding="UTF-8" standalone="no"?>
<!-- Created with Inkscape (http://www.inkscape.org/) -->

<svg
   version="1.1"
   id="svg2"
   xml:space="preserve"
   width="1331.7067"
   height="265.23999"
   viewBox="0 0 1331.7067 265.23999"
   sodipodi:docname="Buildertrend_Horiz_2c.eps"
   xmlns:inkscape="http://www.inkscape.org/namespaces/inkscape"
   xmlns:sodipodi="http://sodipodi.sourceforge.net/DTD/sodipodi-0.dtd"
   xmlns="http://www.w3.org/2000/svg"
   xmlns:svg="http://www.w3.org/2000/svg"><defs
     id="defs6" /><sodipodi:namedview
     id="namedview4"
     pagecolor="#ffffff"
     bordercolor="#666666"
     borderopacity="1.0"
     inkscape:pageshadow="2"
     inkscape:pageopacity="0.0"
     inkscape:pagecheckerboard="0" /><g
     id="g8"
     inkscape:groupmode="layer"
     inkscape:label="ink_ext_XXXXXX"
     transform="matrix(1.3333333,0,0,-1.3333333,0,265.24)"><g
       id="g10"
       transform="scale(0.1)"><path
         d="m 6949.78,566.09 c -17.09,1.629 -32.97,8.14 -47.62,20.351 -14.65,12.207 -21.98,27.27 -21.98,45.579 v 295.46 h 199.01 v 162.79 h -199.01 v 204.7 l -186.39,-53.31 v -151.39 h -117.2 V 927.48 h 117.2 V 630.801 c 0,-201.551 141.55,-245 256.8,-245 42.33,0 88.31,6.918 137.96,20.758 v 176.023 c -42.1,-14.031 -78.54,-18.121 -108.25,-18.121 -3.26,0 -13.44,0.41 -30.52,1.629"
         style="fill:#001a43;fill-opacity:1;fill-rule:nonzero;stroke:none"
         id="path12" /><path
         d="m 774.793,1165.71 c 23.305,0 46.008,-2.41 68.191,-6.32 l 197.736,342.49 c -83.04,30.41 -172.318,47.85 -265.853,47.85 -1.09,0 -2.148,-0.1 -3.238,-0.1 H 383.77 v 439.63 L 0,1989.26 V 774.871 C 0,691.852 13.0234,612.078 37.4414,537.199 82.6445,396.43 167.281,273.57 278.004,180.801 l 197.742,342.508 c -57.238,67.992 -91.855,155.671 -91.855,251.5 0,215.89 175.011,390.901 390.902,390.901"
         style="fill:#001a43;fill-opacity:1;fill-rule:nonzero;stroke:none"
         id="path14" /><path
         d="m 1255.35,1381.93 -196.07,-339.6 c 65.8,-69.959 106.41,-163.889 106.41,-267.521 0,-215.887 -175.01,-390.899 -390.897,-390.899 -30.844,0 -60.699,3.949 -89.48,10.699 L 489.188,54.9102 C 577.637,19.7813 673.871,0 774.867,0 c 427.723,0 774.863,346.738 774.863,774.871 0,246.109 -115.3,465.089 -294.38,607.059"
         style="fill:#00d8d8;fill-opacity:1;fill-rule:nonzero;stroke:none"
         id="path16" /><path
         d="m 2670.1,604.75 c -19.54,-19.121 -44.77,-28.891 -76.11,-28.891 H 2340.05 V 775.27 h 253.94 c 31.34,0 56.57,-9.758 76.11,-29.301 19.53,-19.528 29.3,-43.141 29.3,-70.809 0,-28.082 -9.77,-51.281 -29.3,-70.41 z m -330.05,531.1 h 227.9 c 30.93,0 56.57,-9.77 76.1,-29.71 19.53,-19.94 29.3,-43.96 29.3,-71.63 0,-28.08 -9.77,-51.682 -29.3,-71.619 -19.53,-19.95 -45.17,-30.121 -76.1,-30.121 h -227.9 z m 411.44,-270.639 c 32.97,21.57 59.42,50.469 78.95,86.687 19.54,35.813 29.3,74.882 29.3,116.392 0,69.59 -26.04,127.38 -78.13,173.78 -52.09,46.39 -121.28,69.59 -207.15,69.59 H 2151.22 V 400.051 h 455.8 c 89.12,0 160.34,23.187 212.84,70 52.5,46.39 78.95,104.59 78.95,174.988 0,45.992 -12.2,88.723 -36.62,128.199 -24.42,39.473 -61.45,70.403 -110.7,91.973"
         style="fill:#001a43;fill-opacity:1;fill-rule:nonzero;stroke:none"
         id="path18" /><path
         d="m 3482.82,733.762 c 0,-48.024 -14.25,-87.903 -42.33,-120.461 -28.49,-32.563 -65.52,-48.84 -111.51,-48.84 -38.25,0 -70.4,13.43 -96.86,40.289 -26.45,26.859 -39.89,61.859 -39.89,105.41 v 380.11 H 3003.41 V 662.141 c 0,-82.621 28.07,-148.95 84.64,-198.602 56.57,-50.059 123.72,-74.891 201.86,-74.891 76.51,0 140.81,24.832 192.91,75.293 v -63.89 h 188.82 V 1090.27 H 3482.82 V 733.762"
         style="fill:#001a43;fill-opacity:1;fill-rule:nonzero;stroke:none"
         id="path20" /><path
         d="m 3812.46,400.051 h 188.83 V 1090.27 H 3812.46 V 400.051"
         style="fill:#001a43;fill-opacity:1;fill-rule:nonzero;stroke:none"
         id="path22" /><path
         d="m 3908.91,1369.04 c -32.15,0 -59.82,-10.58 -82.21,-32.56 -22.38,-21.57 -33.78,-48.02 -33.78,-79.35 0,-31.34 11.4,-57.39 33.78,-78.96 22.39,-21.16 50.06,-31.74 82.21,-31.74 32.15,0 59.42,10.99 81.8,32.55 22.79,20.76 33.78,46.81 33.78,78.15 0,31.33 -10.99,57.78 -33.78,79.35 -22.38,21.98 -49.65,32.56 -81.8,32.56"
         style="fill:#001a43;fill-opacity:1;fill-rule:nonzero;stroke:none"
         id="path24" /><path
         d="m 4139.25,400.051 h 188.84 V 1311.66 H 4139.25 V 400.051"
         style="fill:#001a43;fill-opacity:1;fill-rule:nonzero;stroke:none"
         id="path26" /><path
         d="m 4908.83,615.738 c -36.22,-37.027 -79.77,-55.34 -130.23,-55.34 -52.09,0 -95.64,18.313 -130.64,54.532 -35.4,36.629 -52.9,80.172 -52.9,130.23 0,50.461 17.5,94.012 52.9,131.039 35,37.039 78.55,55.352 130.64,55.352 50.46,0 94.01,-18.719 130.23,-56.16 36.63,-37.039 54.94,-80.582 54.94,-130.231 0,-49.25 -18.31,-92.379 -54.94,-129.422 z m 41.92,415.922 c -52.91,47.22 -116.39,70.41 -190.06,70.41 -94.01,0 -174.18,-34.19 -240.92,-102.965 -67.15,-69.183 -100.52,-153.835 -100.52,-253.945 0,-96.051 33.78,-179.48 100.93,-249.879 67.14,-70.41 147.31,-105.402 240.51,-105.402 74.48,0 137.97,22.383 190.06,67.551 v -57.379 h 188.83 v 911.609 h -188.83 v -280"
         style="fill:#001a43;fill-opacity:1;fill-rule:nonzero;stroke:none"
         id="path28" /><path
         d="m 5431.78,818.41 c 10.58,32.969 30.52,60.641 60.64,83.02 29.71,22.8 65.53,34.191 107.44,34.191 41.52,0 77.32,-11.391 106.62,-34.191 29.71,-22.379 49.65,-50.051 59.83,-83.02 z m 393.54,203.08 c -65.52,53.72 -140,80.58 -224.24,80.58 -97.26,0 -180.69,-34.19 -249.88,-102.965 -70.4,-69.183 -105.4,-153.835 -105.4,-253.945 0,-97.269 34.18,-180.699 103.37,-250.699 69.18,-69.59 153.02,-104.582 251.91,-104.582 65.93,0 130.23,16.269 192.91,48.832 62.26,32.559 107.03,75.699 133.89,129.418 l -164.01,46.801 c -42.32,-39.071 -96.86,-58.61 -162.79,-58.61 -41.5,0 -77.73,10.18 -107.85,30.93 -30.52,20.352 -50.87,49.648 -61.45,87.91 h 518.48 c 4.89,21.57 7.73,43.949 7.73,67.559 0,24.41 -3.25,49.652 -8.95,75.691 -17.5,81.399 -59.01,149.36 -123.72,203.08"
         style="fill:#001a43;fill-opacity:1;fill-rule:nonzero;stroke:none"
         id="path30" /><path
         d="m 7873.58,818.41 c 10.17,32.969 30.52,60.641 60.23,83.02 30.12,22.8 65.93,34.191 107.85,34.191 41.51,0 76.92,-11.391 106.62,-34.191 29.3,-22.379 49.25,-50.051 59.83,-83.02 z m 393.13,203.08 c -65.11,53.72 -139.59,80.58 -223.83,80.58 -97.27,0 -180.7,-34.19 -250.29,-102.965 -69.99,-69.183 -105.4,-153.835 -105.4,-253.945 0,-97.269 34.59,-180.699 103.37,-250.699 69.18,-69.59 153.02,-104.582 252.32,-104.582 65.93,0 130.23,16.269 192.5,48.832 62.67,32.559 107.44,75.699 134.29,129.418 l -164,46.801 c -42.74,-39.071 -96.86,-58.61 -162.79,-58.61 -41.92,0 -77.73,10.18 -108.25,30.93 -30.53,20.352 -50.88,49.648 -61.05,87.91 h 518.07 c 5.29,21.57 7.73,43.949 7.73,67.559 0,24.41 -2.84,49.652 -8.95,75.691 -17.5,81.399 -58.6,149.36 -123.72,203.08"
         style="fill:#001a43;fill-opacity:1;fill-rule:nonzero;stroke:none"
         id="path32" /><path
         d="m 9085.94,1027.19 c -56.57,50.05 -123.72,74.88 -201.85,74.88 -76.52,0 -140.41,-25.23 -192.5,-75.29 v 63.49 H 8502.75 V 400.051 h 188.84 v 356.91 c 0,48.019 13.83,87.91 42.32,120.461 28.08,32.558 65.12,48.84 111.1,48.84 38.26,0 70.41,-13.43 97.27,-40.293 26.45,-26.86 39.47,-62.27 39.47,-105.41 V 400.051 h 188.84 V 828.59 c 0,82.609 -28.09,148.949 -84.65,198.6"
         style="fill:#001a43;fill-opacity:1;fill-rule:nonzero;stroke:none"
         id="path34" /><path
         d="m 9757.44,615.738 c -36.63,-37.027 -79.77,-55.34 -130.23,-55.34 -52.09,0 -95.64,18.313 -131.05,54.532 -35,36.629 -52.49,80.172 -52.49,130.23 0,50.461 17.49,94.012 52.49,131.039 35.41,37.039 78.96,55.352 131.05,55.352 50.46,0 93.6,-18.719 130.23,-56.16 36.62,-37.039 54.53,-80.582 54.53,-130.231 0,-49.25 -17.91,-92.379 -54.53,-129.422 z m 41.51,695.922 v -280 c -52.91,47.22 -115.99,70.41 -190.06,70.41 -93.6,0 -174.18,-34.19 -240.92,-102.965 -66.74,-69.183 -100.12,-153.835 -100.12,-253.945 0,-96.051 33.38,-179.48 100.93,-249.879 67.15,-70.41 147.32,-105.402 240.11,-105.402 74.88,0 137.97,22.383 190.06,67.551 v -57.379 h 188.83 v 911.609 h -188.83"
         style="fill:#001a43;fill-opacity:1;fill-rule:nonzero;stroke:none"
         id="path36" /><path
         d="m 6438.69,1098.39 c -84.19,0.02 -147.3,-33.76 -188.82,-100.452 l 0.02,92.302 -188.8,0.05 -0.18,-690.2 188.79,-0.051 0.01,345.93 c 0.03,120.422 104.74,181.492 188.94,181.472 19.2,-0.011 39.1,-2.121 59.8,-5.32 l 0.05,170.949 c -20.7,3.21 -40.6,5.31 -59.81,5.32"
         style="fill:#001a43;fill-opacity:1;fill-rule:nonzero;stroke:none"
         id="path38" /><path
         d="m 7579.48,1098.39 c -84.2,0.02 -147.31,-33.76 -188.83,-100.452 l 0.02,92.302 -188.79,0.05 -0.19,-690.2 188.8,-0.051 v 345.93 c 0.03,120.422 104.74,181.492 188.94,181.472 19.2,-0.011 39.1,-2.121 59.8,-5.32 l 0.05,170.949 c -20.7,3.21 -40.6,5.31 -59.8,5.32"
         style="fill:#001a43;fill-opacity:1;fill-rule:nonzero;stroke:none"
         id="path40" /></g></g></svg>
