<svg width="2189" height="532" viewBox="0 0 2189 532" fill="none" xmlns="http://www.w3.org/2000/svg">
<path d="M8.70873 211.503L5.44165 213.953L3.80811 215.587V231.105L4.62488 236.006L25.0441 245.807L28.3112 246.624L53.6311 232.739L54.4479 204.152H48.7305L27.4945 211.503H8.70873Z" fill="#1E1E1E"/>
<path d="M142.66 129.825L185.948 169.846L142.66 180.464L102.638 188.632L76.5011 146.16L19.3271 199.25L32.3955 134.725L79.7682 138.809H81.4017L83.852 137.176H87.9359L142.66 129.825Z" fill="#1E1E1E"/>
<path d="M217.802 54.6821L183.498 79.1852L236.588 125.741L240.672 118.39L248.84 98.7877L255.374 83.2691L257.007 72.6511L257.824 71.8343V69.384L259.458 71.0175L265.992 92.2536L269.259 100.421V102.872V103.688L268.442 104.505L252.107 115.123L241.489 122.474L238.222 124.924L237.405 126.558L249.656 138.81L265.175 146.977L278.243 203.334L182.681 169.03L255.374 272.76L266.809 241.723L316.632 306.247L317.448 303.797L307.647 263.775L295.396 221.303L272.526 137.176L274.976 136.359L273.343 134.726L278.243 121.657L282.327 104.505L281.51 85.7194L268.442 75.1014L245.572 56.3157L217.802 54.6821Z" fill="#1E1E1E"/>
<path d="M102.397 188.273L104.642 191.639L113.571 203.922L115.181 206.322C117.975 210.485 120.776 214.644 123.597 218.789C125.522 221.62 127.426 224.467 129.329 227.314C132.649 232.283 135.983 237.24 139.389 242.148C143.093 247.484 146.705 252.882 150.306 258.29C153.263 262.729 156.255 267.143 159.266 271.545C162.509 276.306 165.75 281.067 168.886 285.902L162.657 285.058L156.204 283.365L144.479 280.541L132.977 277.437C132.977 277.437 119.204 274.8 112.216 272.358C111.763 268.706 111.392 261.943 110.941 258.29C110.788 257.055 110.635 255.82 110.481 254.585C109.643 247.832 108.827 241.078 108.069 234.315C107.097 225.651 105.991 217.006 104.886 208.359C104.624 206.313 104.365 204.268 104.106 202.222C104.028 201.613 103.949 201.005 103.868 200.378C103.359 196.35 102.698 192.323 102.397 188.273Z" fill="#F3F3F3"/>
<path d="M259.278 279.165C260.822 281.006 262.047 282.8 263.14 284.938C263.433 285.507 263.726 286.076 264.028 286.663C264.335 287.267 264.643 287.871 264.959 288.493C265.613 289.764 266.267 291.036 266.921 292.307C267.242 292.934 267.564 293.562 267.896 294.208C269.157 296.66 270.44 299.1 271.727 301.538C271.952 301.966 272.177 302.394 272.409 302.834C273.534 304.971 274.664 307.103 275.804 309.231C278.64 314.546 281.32 319.916 283.893 325.364C285.898 329.604 289.973 331.486 292.128 335.651C297.971 332.894 289.629 341.84 289.857 342.287C290.053 342.666 290.217 343.019 290.418 343.409C290.835 344.426 289.857 342.287 290.979 344.293C291.35 344.478 290.526 343.409 291.54 344.812C291.821 345.2 291.104 344.293 291.821 345.373C289.455 347.359 287.716 348.389 285.651 350.686C280.646 356.178 275.316 361.356 270.044 366.589C267.993 368.625 265.944 370.663 263.896 372.702C263.434 373.159 262.972 373.616 262.497 374.087C260.122 376.452 257.842 378.851 255.682 381.414C254.215 383.041 252.557 384.387 250.862 385.771C251.096 378.211 251.412 370.663 251.949 363.117C252.012 362.221 252.012 362.221 252.076 361.306C252.315 358.065 252.606 354.833 252.943 351.6C253.647 344.823 254.118 338.041 254.544 331.241C254.65 329.567 254.756 327.893 254.864 326.22C254.93 325.192 254.995 324.164 255.059 323.136C255.231 320.449 255.473 317.783 255.784 315.108C255.962 313.492 256.071 311.874 256.172 310.25C256.215 309.576 256.258 308.901 256.303 308.206C256.37 307.145 256.37 307.145 256.438 306.062C256.796 300.578 257.163 295.094 257.595 289.615C257.654 288.807 257.654 288.807 257.715 287.982C257.964 284.929 258.449 282.116 259.278 279.165Z" fill="#2A2A2A"/>
<path d="M171.247 285.031C169.596 290.168 167.629 295.181 165.678 300.211C165.007 301.943 164.337 303.676 163.667 305.409C163.501 305.837 163.335 306.266 163.164 306.707C162.029 309.645 160.912 312.59 159.803 315.539C158.377 319.329 156.902 323.098 155.4 326.859C153.173 332.468 151.087 338.115 149.121 343.82C148.726 343.82 148.332 343.82 147.925 343.82C147.055 342.847 146.228 341.838 145.421 340.813C143.438 338.341 141.416 336.074 139.084 333.926C138.357 333.131 138.768 333.539 138.058 332.834C137.46 332.24 137.456 332.24 137.161 331.943C136.192 330.967 136.192 330.967 135.105 329.679C133.589 327.891 133.589 327.891 131.945 326.221C131.181 325.411 131.48 325.708 130.882 325.114C130.583 324.817 130.283 324.52 129.985 324.223C129.104 323.345 129.104 323.345 128.086 322.133C125.962 319.653 123.753 317.274 121.501 314.908C118.33 311.565 115.181 308.204 112.057 304.818C110.184 302.797 108.265 300.844 106.248 298.965C105.348 297.962 104.856 296.925 104.271 295.72C117.206 293.344 117.206 293.344 123.288 292.452C125.627 292.091 127.955 291.681 130.284 291.266C133.788 290.645 137.293 290.068 140.812 289.54C144.045 289.051 147.274 288.546 150.504 288.037C151.153 287.935 151.803 287.833 152.473 287.727C156.915 287.02 161.332 286.229 165.741 285.337C167.613 285.038 169.354 284.974 171.247 285.031Z" fill="#2C2C2C"/>
<path d="M41.0168 274.458C41.5302 274.645 42.0436 274.832 42.5726 275.025C44.1307 275.605 45.6757 276.211 47.2189 276.829C49.2784 277.648 51.3477 278.442 53.4154 279.24C54.3319 279.594 55.2484 279.949 56.1648 280.303C57.112 280.669 58.0593 281.035 59.0066 281.401C59.4898 281.588 59.9731 281.774 60.4711 281.967C66.3264 284.226 72.1788 286.477 78.1417 288.441C80.387 289.19 82.4279 290.105 84.5371 291.194C87.7172 292.723 91.0398 293.955 94.3198 295.253C95.0724 295.553 95.8249 295.852 96.5773 296.153C100.113 297.56 103.654 298.951 107.225 300.268C107.225 300.453 107.225 300.638 107.225 300.829C104.225 300.919 101.502 300.594 98.5608 300.029C98.1141 299.946 97.6673 299.863 97.207 299.778C96.2559 299.602 95.3052 299.425 94.3546 299.246C87.3443 297.931 80.4704 297.786 73.2216 296.153C69.8431 295.721 66.5364 294.812 63.1796 294.236C56.7956 293.146 50.3976 292.152 43.9959 291.173C42.8379 290.995 41.68 290.817 40.5223 290.639C38.8719 290.384 37.2212 290.132 35.5703 289.881C35.0803 289.805 34.5903 289.729 34.0855 289.651C30.6073 289.126 27.0713 289.271 23.5656 288.985C23.7564 288.604 23.3805 289.356 23.5656 288.985C23.3805 286.023 22.6917 283.682 22.501 280.63C24.6308 279.372 26.7694 278.137 28.9184 276.912C29.5183 276.555 30.1183 276.198 30.7364 275.83C34.629 273.639 36.8459 272.732 41.0168 274.458Z" fill="#C9CCCE"/>
<path d="M57.5117 48C59.2797 48.8012 62.0876 50.2676 63.6837 51.3665C67.1928 53.7821 71.5354 55.5376 75.2785 57.5719C78.7048 59.4342 82.0182 61.3905 85.2798 63.527C90.9094 67.2116 96.7188 70.5936 102.63 73.805C104.372 74.7651 105.932 75.6406 107.225 77.1748C105.993 79.0231 105.347 79.3422 103.403 80.2958C99.4583 82.3623 95.8885 85.5935 92.299 88.3981C91.8422 87.8101 91.3622 87.3148 90.8963 86.7149C89.4622 84.9597 88.2401 83.0341 86.6881 81.3845C84.1393 78.6495 82.0177 76.1639 79.6746 73.2488C78.2458 71.4843 76.6574 69.6473 75.1859 67.9185C73.2649 65.6602 72.0018 64.3316 70.1361 62.0271L67.0502 58.3801L64.4536 55.2941C64.4536 55.2941 59.0346 50.6528 57.5117 48Z" fill="#5F5F5F"/>
<path d="M121.25 152.921C123.865 153.815 125.967 155.232 128.229 156.779C128.589 157.023 128.95 157.266 129.321 157.517C130.032 157.998 130.741 158.479 131.45 158.961C132.907 159.95 134.372 160.924 135.838 161.899C134.351 163.633 132.585 164.492 130.569 165.528C130.22 165.709 129.87 165.889 129.51 166.075C128.772 166.456 128.032 166.835 127.292 167.212C126.17 167.785 125.05 168.362 123.931 168.941C120.645 170.63 117.365 172.255 113.956 173.682C114.662 170.689 115.689 167.795 116.656 164.88C116.849 164.29 117.042 163.7 117.24 163.092C118.397 159.606 119.677 156.241 121.25 152.921Z" fill="#F8F8F8"/>
<path d="M43.2604 152.921C44.3825 152.921 44.3825 152.921 45.6099 154.079C46.1375 154.627 46.6633 155.176 47.188 155.727C47.8636 156.419 48.5416 157.108 49.2219 157.796C49.5416 158.122 49.8613 158.448 50.1906 158.784C51.185 159.768 51.185 159.768 52.7988 160.777C52.2377 162.46 52.2377 162.46 51.0943 163.2C50.6015 163.442 50.1088 163.685 49.6011 163.935C49.0611 164.203 48.5212 164.471 47.9649 164.747C47.3961 165.022 46.8272 165.297 46.2411 165.581C45.6831 165.858 45.1251 166.136 44.5502 166.421C41.9075 167.721 39.3396 168.863 36.5273 169.754C38.7717 164.143 41.016 158.532 43.2604 152.921Z" fill="#F7F7F7"/>
<path d="M69.9663 306.248C73.1155 308.589 76.1014 311.09 79.0608 313.675C81.4803 315.788 90.4149 315.255 92.8792 317.312C98.318 321.857 101.526 318.88 106.872 323.539C109.25 325.609 108.217 331.673 110.637 333.691C112.802 335.515 118.538 337.69 120.671 339.552C122.445 341.099 130.215 345.188 132.041 346.669C131.694 349.526 120.44 355.232 119.369 357.872C119.197 358.303 119.026 358.734 118.849 359.178C118.291 360.578 117.728 361.976 117.164 363.374C116.778 364.339 116.392 365.304 116.006 366.269C115.421 367.731 114.836 369.193 114.25 370.655C113.03 373.695 111.826 376.742 110.637 379.795C110.35 380.529 110.062 381.263 109.775 381.998C109.245 383.352 108.718 384.708 108.194 386.065C107.959 386.662 107.725 387.259 107.483 387.874C107.281 388.392 107.08 388.91 106.872 389.444C106.305 390.61 106.305 390.61 105.169 391.192C100.926 381.606 96.7839 371.996 92.8792 362.258C91.9229 359.893 90.9523 357.534 89.981 355.175C88.3592 351.235 86.7488 347.291 85.1481 343.343C80.9162 332.916 76.6666 322.509 72.0718 312.243C71.7913 311.614 71.5107 310.985 71.2217 310.337C70.9775 309.795 70.7333 309.254 70.4817 308.696C69.9663 307.412 69.9663 307.412 69.9663 306.248Z" fill="#313131"/>
<path d="M258.008 68.7588C259.521 70.2717 259.93 72.0045 260.575 73.9949C260.712 74.4102 260.849 74.8256 260.991 75.2536C261.438 76.6061 261.88 77.9601 262.321 79.3142C262.625 80.2381 262.929 81.1618 263.234 82.0855C263.688 83.4637 264.141 84.8421 264.594 86.2209C265.443 88.812 266.304 91.399 267.18 93.9813C267.365 94.5253 267.549 95.0694 267.739 95.6299C268.07 96.6037 268.402 97.577 268.736 98.5496C269.32 100.281 269.791 101.706 269.791 103.546C268.555 104.515 268.555 104.515 266.845 105.58C264.411 107.142 262.066 108.738 259.761 110.489C256.413 113.03 253.008 115.481 249.579 117.91C248.788 118.469 247.999 119.03 247.209 119.591C245.9 120.521 244.59 121.449 243.279 122.377C242.865 122.672 242.45 122.967 242.022 123.27C241.636 123.543 241.249 123.817 240.851 124.098C240.507 124.341 240.164 124.585 239.809 124.836C238.931 125.428 238.931 125.428 237.809 125.989C238.586 128.321 240.222 129.078 242.192 130.373C243.012 130.923 243.831 131.474 244.649 132.025C245.086 132.319 245.523 132.612 245.973 132.914C248.823 134.845 251.629 136.841 254.442 138.825C255.1 139.288 255.1 139.288 255.772 139.76C256.216 140.081 256.66 140.401 257.118 140.731C258.58 141.747 258.58 141.747 260.302 142.588C263.588 144.382 265.518 145.959 266.725 149.496C267.357 151.683 267.864 153.89 268.353 156.113C268.58 157.054 268.81 157.994 269.043 158.934C269.597 161.202 270.124 163.476 270.64 165.754C271.011 167.379 271.407 168.999 271.805 170.618C272.368 172.918 272.909 175.223 273.439 177.531C274.553 182.325 275.794 187.089 277.061 191.845C278.134 195.873 279.15 199.875 279.89 203.98C272.886 201.708 265.99 199.183 259.094 196.604C252.245 194.044 245.392 191.517 238.475 189.147C232.522 187.103 226.604 184.981 220.703 182.792C220.335 182.656 219.966 182.519 219.587 182.378C219.201 182.236 218.816 182.093 218.418 181.945C215.071 180.709 211.712 179.507 208.351 178.308C205.814 177.402 203.279 176.488 200.745 175.572C198.92 174.912 197.094 174.257 195.265 173.612C193.189 172.878 191.119 172.128 189.049 171.376C188.423 171.158 187.798 170.94 187.153 170.716C183.376 169.325 180.917 167.791 178.334 164.704C176.612 162.936 174.832 161.273 172.986 159.636C169.957 156.916 167.075 154.069 164.21 151.177C163.416 150.38 162.622 149.582 161.828 148.785C160.456 147.407 159.085 146.026 157.714 144.646C156.066 142.986 154.418 141.328 152.768 139.671C151.746 138.645 150.726 137.618 149.707 136.589C146.244 133.049 146.244 133.049 142.424 129.917C140.564 129.923 139.17 130.099 137.375 130.478C136.767 130.589 136.159 130.7 135.532 130.815C133.747 131.143 131.966 131.484 130.185 131.831C123.276 133.176 116.366 134.372 109.388 135.314C105.812 135.808 102.348 136.516 98.8384 137.356C95.694 138.059 92.5178 138.527 89.3318 139C88.6831 139.099 80.5147 139.736 80.5147 139.736L79.3926 139L80.5147 135.808C80.8523 135.117 81.2879 133.969 81.6369 133.284C82.007 132.525 82.3916 131.799 82.7591 131.039C82.9462 130.655 83.1274 129.752 83.3202 129.356C84.6041 126.656 83.3011 123.983 84.4423 121.22C85.2236 119.331 86.7398 118.057 87.5283 116.17C87.6896 115.785 88.2038 114.604 88.3699 114.207C92.8962 103.39 99.1827 93.8821 104.044 83.2122C104.205 82.8573 104.367 82.5025 104.533 82.1368C104.97 81.1765 105.325 80.0987 105.764 79.1389C106.464 77.6102 106.547 77.7281 107.076 76.0529C116.465 76.0136 125.854 75.9839 135.242 75.9657C139.602 75.957 143.961 75.9452 148.32 75.9259C152.12 75.9091 155.92 75.8983 159.72 75.8945C161.731 75.8923 163.743 75.8872 165.755 75.8749C168.001 75.8614 170.247 75.861 172.493 75.8618C173.493 75.8527 173.493 75.8527 174.514 75.8435C175.127 75.8458 175.739 75.8481 176.371 75.8505C177.168 75.8481 177.168 75.8481 177.981 75.8458C180.43 76.1895 182.202 77.5921 184.037 79.1761C184.508 79.5806 184.508 79.5806 184.988 79.9932C185.478 80.4209 185.478 80.4209 185.979 80.8572C186.322 81.1542 186.666 81.4513 187.02 81.7573C189.689 84.0734 192.31 86.4384 194.914 88.8263C196.469 90.245 198.051 91.6296 199.64 93.0104C200.965 94.1723 202.274 95.3515 203.583 96.5325C206.556 99.2127 209.549 101.865 212.606 104.449C216.942 108.124 221.131 111.923 225.272 115.815C230.053 119.207 232.712 122.39 236.687 125.428C236.766 125.097 236.846 124.766 236.928 124.425C238.243 119.279 240.113 114.366 241.982 109.402C242.307 108.532 242.632 107.661 242.956 106.791C245.458 100.094 245.458 100.094 246.791 96.8152C247.789 94.3498 248.71 91.8585 249.625 89.3611C249.778 88.9429 249.932 88.5246 250.09 88.0937C250.728 86.3548 251.365 84.6158 251.998 82.8749C253.759 78.0331 255.522 73.2884 258.008 68.7588Z" fill="#313131"/>
<path d="M256.19 273.577C255.284 276.071 253.993 278.292 252.626 280.559C252.381 280.97 252.135 281.38 251.882 281.803C249.278 286.131 246.591 290.408 243.902 294.685C242.208 297.38 240.533 300.087 238.865 302.797C236.289 306.976 233.677 311.132 231.048 315.278C230.097 316.781 229.149 318.287 228.202 319.792C225.005 324.868 221.808 329.94 218.505 334.95C216.167 338.496 213.916 342.087 211.697 345.707C209.827 348.754 207.912 351.771 205.978 354.779C203.689 358.344 201.458 361.937 199.274 365.566C196.809 369.661 194.285 373.714 191.723 377.75C185.259 387.941 178.944 398.217 172.847 408.628C170.186 413.164 167.464 417.663 164.729 422.156C160.591 428.955 156.519 435.789 152.5 442.658C152.251 443.081 152.001 443.504 151.744 443.94C151.444 444.454 151.145 444.969 150.836 445.5C150.577 445.906 150.317 446.313 150.05 446.733C149.864 446.733 149.677 446.733 149.485 446.733C149.287 433.201 149.138 419.669 149.047 406.137C149.003 399.853 148.943 393.57 148.846 387.287C148.762 381.809 148.707 376.333 148.689 370.855C148.678 367.954 148.652 365.056 148.59 362.156C148.532 359.425 148.515 356.695 148.527 353.963C148.525 352.963 148.508 351.962 148.476 350.962C148.248 343.601 148.248 343.601 150.316 341.394C152.353 339.811 154.575 338.724 156.943 337.71C158.339 337.08 159.577 336.266 160.839 335.406C161.268 335.121 161.697 334.836 162.139 334.542C162.575 334.25 163.01 333.959 163.459 333.658C164.471 332.985 165.483 332.312 166.495 331.64C167.027 331.286 167.558 330.932 168.106 330.567C170.915 328.699 173.733 326.844 176.55 324.988C178.178 323.915 179.806 322.841 181.435 321.767C192.757 314.299 204.079 306.831 215.402 299.363C215.978 298.983 216.553 298.603 217.147 298.212C218.337 297.427 219.527 296.642 220.717 295.858C224.372 293.449 224.372 293.449 228.019 291.028C232.626 287.963 237.295 285.004 241.987 282.069C245.561 279.828 249.098 277.541 252.582 275.166C254.941 273.577 254.941 273.577 256.19 273.577Z" fill="#474747"/>
<path d="M183.073 169.135C184.219 170.28 184.219 170.28 185.36 171.924C185.679 172.375 185.679 172.375 186.004 172.835C186.473 173.499 186.937 174.166 187.397 174.835C188.165 175.952 188.946 177.059 189.731 178.164C191.169 180.194 192.597 182.231 194.022 184.27C195.434 186.289 196.852 188.303 198.27 190.318C198.835 191.12 199.399 191.923 199.963 192.725C201.074 194.304 202.185 195.882 203.297 197.46C207.983 204.114 212.638 210.789 217.29 217.467C220.698 222.357 224.107 227.246 227.54 232.119C232.638 239.359 237.713 246.616 242.706 253.931C245.174 257.54 247.688 261.117 250.208 264.69C250.462 265.05 250.716 265.411 250.977 265.782C251.501 266.518 254.839 270.399 255.374 271.126V272.76C255.374 272.76 250.379 270.148 248.333 269.088C248.008 268.92 247.684 268.752 247.349 268.578C246.292 268.03 245.235 267.48 244.179 266.93C243.816 266.74 243.452 266.551 243.077 266.356C237.856 263.641 232.673 260.865 227.522 258.019C223.895 256.018 220.238 254.083 216.564 252.172C210.766 249.155 205.03 246.033 199.305 242.881C196.503 241.343 193.692 239.821 190.883 238.297C174.247 229.258 174.247 229.258 166.986 224.923C163.546 222.879 160.052 220.946 156.544 219.024C152.308 216.7 148.106 214.319 143.907 211.93C140.707 210.11 137.499 208.307 134.279 206.523C125.491 201.642 116.748 196.656 108.106 191.518C107.471 191.141 106.836 190.764 106.182 190.375C104.834 189.47 104.834 189.47 104.271 188.341C106.15 187.646 107.994 187.121 109.957 186.754C114.469 185.866 118.936 184.779 123.409 183.716C123.882 183.603 124.356 183.491 124.844 183.375C131.322 181.836 137.765 180.208 144.183 178.432C148.894 177.133 153.632 175.984 158.387 174.86C163.104 173.737 167.766 172.458 172.429 171.132C174.061 170.672 175.698 170.233 177.339 169.805C177.842 169.674 178.344 169.542 178.863 169.406C180.387 169.11 181.531 168.891 183.073 169.135Z" fill="#252525"/>
<path d="M267.133 241.011C269.797 243.496 271.925 246.312 274.112 249.217C274.506 249.737 274.9 250.258 275.306 250.794C278.208 254.634 281.069 258.505 283.915 262.388C286.699 266.18 289.551 269.918 292.417 273.648C293.786 275.431 295.14 277.224 296.485 279.025C301.682 285.972 306.907 292.905 312.329 299.679C313.834 301.572 315.193 303.511 316.509 305.536C313.084 304.596 310.129 302.858 307.04 301.153C305.826 300.488 304.612 299.824 303.398 299.16C302.779 298.821 302.16 298.481 301.522 298.131C298.668 296.568 295.806 295.021 292.943 293.473C291.822 292.865 290.7 292.257 289.579 291.649C287.329 290.43 285.077 289.215 282.824 288.002C277.09 284.913 271.375 281.793 265.696 278.604C265.165 278.308 264.634 278.012 264.088 277.706C261.232 276.093 258.003 274.722 255.374 272.76C255.718 270.306 256.853 267.786 257.696 265.458C257.939 264.78 258.183 264.102 258.434 263.404C258.692 262.696 258.95 261.988 259.208 261.28C259.459 260.584 259.71 259.887 259.969 259.17C261.212 255.726 262.471 252.29 263.767 248.866C264.017 248.202 264.267 247.537 264.525 246.852C264.761 246.232 264.997 245.613 265.24 244.974C265.478 244.344 265.717 243.714 265.963 243.065C266.572 241.572 266.572 241.572 267.133 241.011Z" fill="#2A2A2A"/>
<path d="M78.551 141.139L102.397 188.27L58.0714 204.261C55.1133 204.042 53.1743 205.041 50.2162 204.822C47.6913 205.103 42.6846 207.943 39.8361 207.067L15.7095 201.736L78.551 141.139Z" fill="white"/>
<path d="M78.551 141.139L102.397 188.27L58.0714 204.261C55.1133 204.042 53.1743 205.041 50.2162 204.822C47.6913 205.103 42.6846 207.943 39.8361 207.067L15.7095 201.736L78.551 141.139Z" fill="white"/>
<path d="M0 211.835L15.9909 201.455C16.1019 200.809 30.5235 204.484 42.923 207.066L27.2126 211.835H0Z" fill="white"/>
<path d="M52.7246 270.3V204.437L102.225 188.177L115.725 273.677H64.0472L59.9827 272.833L56.2085 272.27L52.7246 270.3Z" fill="white"/>
<path d="M52.7412 271.312V231.475L115.583 273.556L61.438 274.678L52.7412 271.312Z" fill="#F4F4F4"/>
<path d="M32.7565 262.359L31.0331 261.775L26.7246 245.425L52.8629 231.677L53.7246 271.677L35.3416 263.392L32.7565 262.359Z" fill="white"/>
<path d="M7.04765 274.116L0 232.596L27.6033 245.754L31.4208 261.835L7.04765 274.116Z" fill="white"/>
<path d="M27.4941 134.967L106.607 77.4561L79.3945 138.895L27.4941 134.967Z" fill="#444444"/>
<path d="M46.0088 365.295L49.5479 299.714L69.9671 306.248L73.2342 308.698L49.3753 369.223L46.0088 365.295Z" fill="#262626"/>
<path d="M182.409 169.192C182.595 169.563 182.78 169.933 182.971 170.315C182.6 170.5 182.23 170.685 181.848 170.876C181.577 171.929 181.577 171.929 181.469 173.23C181.382 174.007 181.382 174.007 181.294 174.8C181.234 175.38 181.174 175.959 181.112 176.557C180.969 177.839 180.825 179.121 180.68 180.403C180.6 181.116 180.52 181.828 180.438 182.563C179.985 186.51 179.46 190.449 178.947 194.389C177.978 201.838 177.053 209.289 176.215 216.754C175.763 220.743 175.235 224.709 174.554 228.667C172.583 227.92 170.773 227.051 168.939 226.013C168.393 225.706 167.847 225.398 167.285 225.081C166.698 224.749 166.111 224.416 165.507 224.073C164.239 223.359 162.97 222.644 161.702 221.93C161.375 221.746 161.048 221.561 160.711 221.371C157.176 219.379 153.626 217.413 150.077 215.447C144.864 212.555 139.665 209.641 134.479 206.701C131.079 204.774 127.671 202.863 124.258 200.959C119.534 198.323 114.814 195.682 110.135 192.968C109.753 192.75 109.37 192.531 108.977 192.306C107.007 191.153 104.165 190.333 102.637 188.632C104.509 187.943 107.569 187.058 109.525 186.693C114.023 185.811 118.258 184.394 122.717 183.337C123.189 183.226 123.878 183.452 124.365 183.337C130.823 181.808 137.245 180.192 143.643 178.427C148.339 177.137 153.062 175.995 157.802 174.879C162.504 173.764 167.15 172.493 171.799 171.176C173.426 170.72 175.058 170.283 176.693 169.859C177.195 169.728 177.696 169.597 178.212 169.462C179.645 169.184 180.953 169.143 182.409 169.192Z" fill="#3E3E3E"/>
<path d="M147.565 343.131C148.896 344.236 150.226 345.341 151.597 346.48C152.493 347.183 153.392 347.881 154.297 348.573C156.522 350.285 158.711 352.034 160.886 353.805C162.721 355.298 164.563 356.765 166.502 358.13C169.12 359.987 171.536 362.068 173.986 364.125C175.701 365.558 177.412 366.957 179.247 368.245C181.524 369.849 183.658 371.606 185.8 373.373C186.336 373.811 186.336 373.811 186.882 374.259C187.219 374.538 187.555 374.818 187.902 375.106C188.204 375.356 188.507 375.607 188.818 375.865C189.616 376.616 189.616 376.616 190.768 378.291C190.438 378.809 190.107 379.327 189.767 379.86C185.609 386.404 185.905 395.199 181.864 401.81C178.195 407.812 170.145 411.601 166.432 417.576C161.102 426.155 155.818 434.755 150.641 443.422C150.386 443.845 150.131 444.267 149.869 444.703C149.411 445.474 149.411 445.474 148.943 446.261C148.678 446.668 148.414 447.074 148.141 447.493C147.951 447.493 147.761 447.493 147.565 447.493C137.759 411.612 136.942 378.291 147.565 343.131Z" fill="#2B2B2B"/>
<path d="M64.5242 55.0147L92.8362 88.1702L34.0287 131.459L27.4945 127.375L26.3704 120.381L23.0039 112.806L23.565 79.1414L58.3522 51.3677L64.5242 55.0147Z" fill="#292929"/>
<path d="M31.0791 261.806L12.2007 271.568L23.6919 277.262L22.0503 280.515L24.5127 279.702L29.4375 277.262L34.3624 274.821H39.2872L78.6857 289.463L106.593 300.852L31.0791 289.463L40.108 295.158L39.2872 298.411L41.7496 300.852L35.1832 322.001L28.6167 343.151L45.8536 361.047L49.1368 330.949L50.7784 301.665L69.6569 306.546L120.547 347.218V350.472L106.593 387.077L72.1193 308.986L49.9576 365.114L97.5641 415.548L145.171 465.168L148.454 448.086L147.633 342.197L108.235 295.971L168.153 286.21L115.622 273.194L58.9864 274.008L45.0328 267.5L31.0791 261.806Z" fill="#1E1E1E"/>
<path d="M147.905 446.189L254.399 273.922L147.905 343.318L168.384 285.352L102.03 188.196L251.123 269.839L316.658 304.13L319.116 311.477L289.625 341.685L259.315 278.82L251.123 380.874L155.277 476.396L143.809 464.966L147.905 446.189Z" fill="#1E1E1E"/>
<path d="M556.985 402.999C550.586 402.999 543.387 402.333 535.388 401C527.656 399.933 520.191 397.4 512.992 393.401C505.793 389.135 499.927 382.869 495.394 374.603C490.861 366.338 488.595 355.006 488.595 340.608V170.232C488.595 157.701 490.462 147.302 494.194 139.037C497.927 130.505 502.86 123.839 508.992 119.039C515.391 114.24 522.324 110.907 529.789 109.041C537.522 106.908 545.12 105.841 552.586 105.841C571.25 105.841 588.048 106.108 602.979 106.641C617.91 107.175 631.508 107.708 643.773 108.241C656.305 108.774 667.903 109.441 678.568 110.241V151.435H566.984C557.919 151.435 550.72 153.701 545.387 158.234C540.321 162.767 537.788 169.832 537.788 179.431V231.824L660.571 234.623V273.418L537.788 276.217V327.01C537.788 335.009 539.121 341.141 541.788 345.407C544.72 349.673 548.32 352.606 552.586 354.206C557.119 355.806 561.785 356.606 566.584 356.606H678.568V397.8C666.836 398.866 654.038 399.8 640.174 400.6C626.309 401.133 612.178 401.533 597.78 401.799C583.648 402.333 570.05 402.733 556.985 402.999ZM799.251 401.799C785.12 401.799 773.255 399.4 763.656 394.6C754.324 389.801 747.258 382.335 742.459 372.204C737.926 362.072 735.66 348.607 735.66 331.809V95.8428H785.253V325.01C785.253 334.609 786.186 342.075 788.053 347.407C790.186 352.74 793.119 356.606 796.851 359.005C800.584 361.138 805.117 362.605 810.449 363.405L828.447 365.805V401.799H799.251ZM869.907 401V186.63H910.301L919.5 209.027C929.365 202.094 940.163 196.095 951.895 191.029C963.893 185.697 978.025 183.03 994.289 183.03C1007.62 183.03 1018.82 185.963 1027.88 191.829C1037.22 197.428 1044.15 204.761 1048.68 213.826C1054.81 209.027 1062.15 204.361 1070.68 199.828C1079.48 195.029 1088.81 191.029 1098.67 187.83C1108.54 184.63 1118.27 183.03 1127.87 183.03C1144.4 183.03 1157.6 186.363 1167.46 193.029C1177.6 199.428 1184.8 208.493 1189.06 220.225C1193.33 231.69 1195.46 245.022 1195.46 260.219V401H1145.87V264.219C1145.87 256.487 1144.4 249.954 1141.47 244.622C1138.54 239.289 1134.4 235.156 1129.07 232.223C1124 229.291 1117.74 227.824 1110.27 227.824C1100.67 227.824 1090.94 229.69 1081.08 233.423C1071.48 237.156 1062.68 241.689 1054.68 247.021C1055.75 249.688 1056.41 252.621 1056.68 255.82C1057.21 259.02 1057.48 262.219 1057.48 265.419V401H1007.89V264.219C1007.89 256.487 1006.42 249.954 1003.49 244.622C1000.55 239.289 996.422 235.156 991.089 232.223C986.023 229.291 979.758 227.824 972.292 227.824C965.36 227.824 958.827 228.491 952.695 229.824C946.829 231.157 941.23 233.157 935.897 235.823C930.565 238.489 925.099 241.689 919.5 245.422V401H869.907ZM1296.86 401L1237.26 186.63H1288.06L1328.45 355.006L1374.84 186.63H1416.44L1462.83 355.006L1500.83 186.63H1551.62L1492.83 401H1438.04L1394.84 255.82L1350.45 401H1296.86ZM1631.56 403.399C1615.56 403.399 1602.5 398.6 1592.36 389.001C1582.23 379.403 1577.17 366.204 1577.17 349.407V331.409C1577.17 314.878 1582.76 301.414 1593.96 291.015C1605.43 280.617 1622.89 275.417 1646.36 275.417H1707.55V256.62C1707.55 249.154 1706.21 242.889 1703.55 237.823C1700.88 232.757 1696.08 229.024 1689.15 226.624C1682.22 223.958 1671.69 222.625 1657.55 222.625H1592.76V193.829C1602.63 191.163 1614.23 188.896 1627.56 187.03C1640.89 184.897 1656.75 183.83 1675.15 183.83C1692.75 183.564 1707.68 185.697 1719.95 190.229C1732.21 194.495 1741.41 201.694 1747.54 211.826C1753.94 221.958 1757.14 235.823 1757.14 253.42V401H1718.35L1709.95 377.803C1708.08 379.403 1704.75 381.536 1699.95 384.202C1695.15 386.868 1689.15 389.801 1681.95 393.001C1674.75 395.934 1666.75 398.467 1657.95 400.6C1649.42 402.466 1640.62 403.399 1631.56 403.399ZM1655.55 368.604C1659.02 368.604 1662.89 368.204 1667.15 367.404C1671.69 366.338 1676.22 365.271 1680.75 364.205C1685.28 362.872 1689.42 361.672 1693.15 360.605C1697.15 359.272 1700.35 358.072 1702.75 357.006C1705.41 355.939 1707.01 355.273 1707.55 355.006V299.014L1661.15 301.414C1648.89 302.48 1639.96 305.68 1634.36 311.012C1629.03 316.345 1626.36 323.411 1626.36 332.209V341.008C1626.36 347.674 1627.69 353.14 1630.36 357.406C1633.29 361.405 1636.89 364.205 1641.16 365.805C1645.69 367.404 1650.49 368.337 1655.55 368.604ZM1818.27 401V186.63H1856.67L1867.87 221.025C1876.4 210.627 1885.86 201.828 1896.26 194.629C1906.66 187.43 1919.06 183.83 1933.46 183.83C1936.39 183.83 1939.45 184.097 1942.65 184.63C1945.85 184.897 1948.79 185.43 1951.45 186.23V236.623C1947.72 236.09 1943.72 235.69 1939.45 235.423C1935.19 235.156 1931.06 235.023 1927.06 235.023C1918.79 235.023 1911.19 235.956 1904.26 237.823C1897.59 239.689 1891.33 242.622 1885.46 246.621C1879.6 250.354 1873.73 255.154 1867.87 261.019V401H1818.27ZM2085.41 402.999C2062.22 402.999 2043.68 399.8 2029.82 393.401C2016.22 387.001 2006.36 375.936 2000.22 360.205C1994.09 344.208 1991.03 322.077 1991.03 293.815C1991.03 265.019 1993.96 242.755 1999.82 227.024C2005.69 211.026 2015.42 199.828 2029.02 193.429C2042.62 187.03 2061.02 183.83 2084.21 183.83C2104.74 183.83 2121.14 185.963 2133.41 190.229C2145.94 194.229 2155 201.561 2160.6 212.226C2166.47 222.625 2169.4 237.423 2169.4 256.62C2169.4 270.218 2166.73 281.15 2161.4 289.415C2156.07 297.414 2148.34 303.147 2138.2 306.613C2128.34 310.079 2116.61 311.812 2103.01 311.812H2040.22C2040.75 325.144 2042.49 335.809 2045.42 343.808C2048.62 351.54 2054.22 357.139 2062.22 360.605C2070.48 364.071 2082.48 365.805 2098.21 365.805H2163V395C2152.07 397.133 2140.47 399 2128.21 400.6C2116.21 402.199 2101.94 402.999 2085.41 402.999ZM2039.82 281.816H2098.21C2107.54 281.816 2114.34 280.083 2118.61 276.617C2123.14 272.884 2125.41 266.219 2125.41 256.62C2125.41 247.288 2124.07 239.956 2121.41 234.623C2118.74 229.291 2114.34 225.558 2108.21 223.425C2102.08 221.025 2094.08 219.825 2084.21 219.825C2073.01 219.825 2064.22 221.558 2057.82 225.024C2051.42 228.491 2046.75 234.756 2043.82 243.822C2041.15 252.621 2039.82 265.285 2039.82 281.816Z" fill="white"/>
</svg>
