<svg width="1840" height="423" viewBox="0 0 1840 423" fill="none" xmlns="http://www.w3.org/2000/svg">
<path d="M547.366 320.272C542.066 320.272 536.448 319.848 530.512 319C524.576 317.94 518.852 315.926 513.34 312.958C508.04 309.778 503.694 305.008 500.302 298.648C496.91 292.288 495.214 283.702 495.214 272.89V133.606C495.214 124.278 496.592 116.434 499.348 110.074C502.316 103.714 506.132 98.732 510.796 95.128C515.46 91.312 520.654 88.662 526.378 87.178C532.314 85.482 538.144 84.634 543.868 84.634C557.648 84.846 570.262 85.164 581.71 85.588C593.37 85.8 604.182 86.118 614.146 86.542C624.11 86.966 633.65 87.39 642.766 87.814V114.208H552.454C544.61 114.208 538.462 116.222 534.01 120.25C529.558 124.278 527.332 130.638 527.332 139.33V187.984L628.456 189.892V214.696L527.332 216.922V264.94C527.332 272.148 528.498 277.554 530.83 281.158C533.374 284.762 536.554 287.2 540.37 288.472C544.398 289.744 548.638 290.38 553.09 290.38H642.766V316.774C633.014 317.41 622.732 318.046 611.92 318.682C601.108 319.106 590.19 319.424 579.166 319.636C568.354 320.06 557.754 320.272 547.366 320.272ZM738.752 319.318C728.364 319.318 719.566 317.516 712.358 313.912C705.362 310.308 700.062 304.584 696.458 296.74C693.066 288.684 691.37 277.872 691.37 264.304V76.366H723.17V260.17C723.17 269.074 724.018 275.964 725.714 280.84C727.622 285.504 730.166 288.79 733.346 290.698C736.738 292.606 740.66 293.878 745.112 294.514L761.012 296.422V319.318H738.752ZM796.248 319V148.87H821.688L828.048 167.314C836.316 161.59 845.432 156.608 855.396 152.368C865.36 148.128 876.808 146.008 889.74 146.008C900.34 146.008 909.35 148.34 916.77 153.004C924.19 157.668 929.808 163.604 933.624 170.812C938.712 166.996 944.86 163.18 952.068 159.364C959.276 155.548 967.014 152.368 975.282 149.824C983.55 147.28 991.5 146.008 999.132 146.008C1011.85 146.008 1022.13 148.658 1029.98 153.958C1038.03 159.046 1043.76 166.148 1047.15 175.264C1050.75 184.168 1052.56 194.344 1052.56 205.792V319H1020.76V208.336C1020.76 201.552 1019.38 195.722 1016.62 190.846C1014.08 185.758 1010.37 181.836 1005.49 179.08C1000.83 176.324 995.104 174.946 988.32 174.946C979.84 174.946 971.148 176.642 962.244 180.034C953.34 183.214 945.178 187.136 937.758 191.8C938.606 194.556 939.242 197.418 939.666 200.386C940.09 203.142 940.302 205.898 940.302 208.654V319H908.502V208.336C908.502 201.552 907.124 195.722 904.368 190.846C901.824 185.758 898.22 181.836 893.556 179.08C888.892 176.324 883.168 174.946 876.384 174.946C870.024 174.946 864.088 175.582 858.576 176.854C853.276 178.126 848.188 179.928 843.312 182.26C838.436 184.38 833.348 187.03 828.048 190.21V319H796.248ZM1138.53 319L1088.92 148.87H1121.68L1158.88 289.426L1198.95 148.87H1225.98L1266.05 289.426L1301.66 148.87H1334.42L1285.45 319H1250.15L1211.99 192.754L1173.19 319H1138.53ZM1399.33 320.908C1386.82 320.908 1376.44 317.198 1368.17 309.778C1360.11 302.146 1356.08 291.652 1356.08 278.296V264.94C1356.08 251.796 1360.54 241.09 1369.44 232.822C1378.56 224.342 1392.23 220.102 1410.46 220.102H1463.57V202.294C1463.57 195.722 1462.4 190.21 1460.07 185.758C1457.95 181.094 1453.92 177.596 1447.99 175.264C1442.05 172.932 1433.25 171.766 1421.59 171.766H1369.44V153.004C1377.07 151.308 1385.98 149.824 1396.15 148.552C1406.54 147.28 1418.62 146.538 1432.4 146.326C1446.4 146.326 1458.06 148.128 1467.38 151.732C1476.92 155.124 1484.03 160.848 1488.69 168.904C1493.35 176.748 1495.69 187.242 1495.69 200.386V319H1470.56L1465.16 300.238C1463.89 301.086 1461.24 302.676 1457.21 305.008C1453.18 307.128 1447.99 309.46 1441.63 312.004C1435.48 314.548 1428.69 316.668 1421.27 318.364C1414.07 320.06 1406.75 320.908 1399.33 320.908ZM1413.96 297.694C1417.14 297.906 1420.85 297.588 1425.09 296.74C1429.54 295.892 1433.89 294.938 1438.13 293.878C1442.58 292.606 1446.61 291.334 1450.21 290.062C1454.03 288.79 1457.1 287.73 1459.43 286.882C1461.98 285.822 1463.36 285.186 1463.57 284.974V236.002L1419.05 237.91C1408.02 238.546 1400.07 241.302 1395.2 246.178C1390.53 251.054 1388.2 257.414 1388.2 265.258V272.89C1388.2 279.038 1389.47 284.02 1392.02 287.836C1394.56 291.44 1397.74 293.984 1401.56 295.468C1405.59 296.952 1409.72 297.694 1413.96 297.694ZM1548.44 319V148.87H1572.93L1580.24 177.49C1587.45 168.798 1595.51 161.484 1604.41 155.548C1613.31 149.612 1623.7 146.644 1635.57 146.644C1638.33 146.644 1640.98 146.856 1643.52 147.28C1646.07 147.492 1648.51 147.916 1650.84 148.552V181.306C1647.87 180.882 1644.8 180.564 1641.62 180.352C1638.44 179.928 1635.15 179.716 1631.76 179.716C1624.55 179.716 1618.08 180.564 1612.36 182.26C1606.64 183.956 1601.12 186.606 1595.82 190.21C1590.74 193.602 1585.54 197.842 1580.24 202.93V319H1548.44ZM1757.37 320.908C1739.35 320.908 1724.94 318.258 1714.13 312.958C1703.53 307.658 1695.89 298.754 1691.23 286.246C1686.78 273.526 1684.55 256.036 1684.55 233.776C1684.55 211.092 1686.78 193.496 1691.23 180.988C1695.89 168.268 1703.53 159.364 1714.13 154.276C1724.73 149.188 1739.04 146.644 1757.06 146.644C1772.74 146.644 1785.36 148.34 1794.9 151.732C1804.65 154.912 1811.75 160.742 1816.2 169.222C1820.87 177.49 1823.2 189.044 1823.2 203.884C1823.2 214.272 1821.08 222.54 1816.84 228.688C1812.81 234.836 1806.98 239.288 1799.35 242.044C1791.93 244.8 1783.03 246.178 1772.64 246.178H1716.35C1716.56 258.474 1717.94 268.332 1720.49 275.752C1723.24 282.96 1728.01 288.26 1734.8 291.652C1741.79 294.832 1751.97 296.422 1765.32 296.422H1818.43V315.502C1809.31 316.774 1799.99 317.94 1790.45 319C1780.91 320.272 1769.88 320.908 1757.37 320.908ZM1716.03 226.144H1769.78C1778.26 226.144 1784.51 224.554 1788.54 221.374C1792.57 218.194 1794.58 212.364 1794.58 203.884C1794.58 195.404 1793.31 188.726 1790.76 183.85C1788.43 178.974 1784.51 175.476 1779 173.356C1773.49 171.236 1766.17 170.176 1757.06 170.176C1746.67 170.176 1738.4 171.766 1732.25 174.946C1726.32 178.126 1722.08 183.744 1719.53 191.8C1717.2 199.856 1716.03 211.304 1716.03 226.144Z" fill="white"/>
<path d="M530.512 319L529.985 321.953L530.036 321.962L530.088 321.97L530.512 319ZM513.34 312.958L511.797 315.53L511.856 315.566L511.918 315.599L513.34 312.958ZM500.302 298.648L497.655 300.06L497.655 300.06L500.302 298.648ZM499.348 110.074L496.629 108.805L496.612 108.843L496.595 108.881L499.348 110.074ZM510.796 95.128L512.63 97.5018L512.663 97.4763L512.696 97.4499L510.796 95.128ZM526.378 87.178L527.131 90.082L527.167 90.0727L527.202 90.0626L526.378 87.178ZM543.868 84.634L543.914 81.6343L543.891 81.634H543.868V84.634ZM581.71 85.588L581.599 88.5859L581.627 88.587L581.655 88.5875L581.71 85.588ZM614.146 86.542L614.018 89.5393L614.018 89.5393L614.146 86.542ZM642.766 87.814H645.766V84.9503L642.905 84.8172L642.766 87.814ZM642.766 114.208V117.208H645.766V114.208H642.766ZM534.01 120.25L536.023 122.475L536.023 122.475L534.01 120.25ZM527.332 187.984H524.332V190.928L527.275 190.983L527.332 187.984ZM628.456 189.892H631.456V186.948L628.513 186.893L628.456 189.892ZM628.456 214.696L628.522 217.695L631.456 217.631V214.696H628.456ZM527.332 216.922L527.266 213.923L524.332 213.987V216.922H527.332ZM530.83 281.158L528.311 282.788L528.344 282.839L528.379 282.888L530.83 281.158ZM540.37 288.472L539.421 291.318L539.444 291.326L539.467 291.333L540.37 288.472ZM642.766 290.38H645.766V287.38H642.766V290.38ZM642.766 316.774L642.961 319.768L645.766 319.585V316.774H642.766ZM611.92 318.682L612.038 321.68L612.067 321.679L612.096 321.677L611.92 318.682ZM579.166 319.636L579.108 316.637L579.078 316.637L579.048 316.638L579.166 319.636ZM547.366 317.272C542.225 317.272 536.75 316.861 530.936 316.03L530.088 321.97C536.146 322.835 541.907 323.272 547.366 323.272V317.272ZM531.039 316.047C525.428 315.045 520.005 313.14 514.762 310.317L511.918 315.599C517.699 318.712 523.724 320.835 529.985 321.953L531.039 316.047ZM514.883 310.386C510.122 307.529 506.128 303.197 502.949 297.236L497.655 300.06C501.26 306.819 505.958 312.027 511.797 315.53L514.883 310.386ZM502.949 297.236C499.876 291.474 498.214 283.436 498.214 272.89H492.214C492.214 283.968 493.944 293.102 497.655 300.06L502.949 297.236ZM498.214 272.89V133.606H492.214V272.89H498.214ZM498.214 133.606C498.214 124.554 499.554 117.144 502.101 111.267L496.595 108.881C493.63 115.724 492.214 124.002 492.214 133.606H498.214ZM502.067 111.343C504.871 105.334 508.411 100.762 512.63 97.5018L508.962 92.7541C503.853 96.7016 499.761 102.094 496.629 108.805L502.067 111.343ZM512.696 97.4499C517.031 93.9031 521.835 91.455 527.131 90.082L525.625 84.274C519.473 85.869 513.889 88.7209 508.896 92.8061L512.696 97.4499ZM527.202 90.0626C532.891 88.4372 538.444 87.634 543.868 87.634V81.634C537.844 81.634 531.737 82.5268 525.554 84.2934L527.202 90.0626ZM543.822 87.6336C557.584 87.8454 570.176 88.1629 581.599 88.5859L581.821 82.59C570.348 82.1651 557.712 81.8466 543.914 81.6343L543.822 87.6336ZM581.655 88.5875C593.295 88.7991 604.082 89.1165 614.018 89.5393L614.274 83.5447C604.282 83.1195 593.445 82.8009 581.765 82.5885L581.655 88.5875ZM614.018 89.5393C623.979 89.9631 633.515 90.3869 642.627 90.8107L642.905 84.8172C633.785 84.393 624.241 83.9689 614.274 83.5447L614.018 89.5393ZM639.766 87.814V114.208H645.766V87.814H639.766ZM642.766 111.208H552.454V117.208H642.766V111.208ZM552.454 111.208C544.1 111.208 537.153 113.361 531.997 118.025L536.023 122.475C539.771 119.083 545.12 117.208 552.454 117.208V111.208ZM531.997 118.025C526.678 122.838 524.332 130.177 524.332 139.33H530.332C530.332 131.099 532.438 125.718 536.023 122.475L531.997 118.025ZM524.332 139.33V187.984H530.332V139.33H524.332ZM527.275 190.983L628.399 192.891L628.513 186.893L527.389 184.985L527.275 190.983ZM625.456 189.892V214.696H631.456V189.892H625.456ZM628.39 211.697L527.266 213.923L527.398 219.921L628.522 217.695L628.39 211.697ZM524.332 216.922V264.94H530.332V216.922H524.332ZM524.332 264.94C524.332 272.376 525.517 278.47 528.311 282.788L533.349 279.528C531.479 276.638 530.332 271.92 530.332 264.94H524.332ZM528.379 282.888C531.254 286.961 534.939 289.824 539.421 291.318L541.319 285.626C538.169 284.576 535.494 282.563 533.281 279.428L528.379 282.888ZM539.467 291.333C543.802 292.702 548.348 293.38 553.09 293.38V287.38C548.928 287.38 544.994 286.786 541.273 285.611L539.467 291.333ZM553.09 293.38H642.766V287.38H553.09V293.38ZM639.766 290.38V316.774H645.766V290.38H639.766ZM642.571 313.78C632.826 314.416 622.55 315.052 611.744 315.687L612.096 321.677C622.914 321.04 633.202 320.404 642.961 319.768L642.571 313.78ZM611.802 315.684C601.011 316.108 590.113 316.425 579.108 316.637L579.224 322.635C590.267 322.423 601.205 322.104 612.038 321.68L611.802 315.684ZM579.048 316.638C568.274 317.061 557.713 317.272 547.366 317.272V323.272C557.795 323.272 568.434 323.059 579.284 322.634L579.048 316.638ZM712.358 313.912L710.984 316.579L711.001 316.587L711.017 316.595L712.358 313.912ZM696.458 296.74L693.693 297.904L693.712 297.949L693.732 297.993L696.458 296.74ZM691.37 76.366V73.366H688.37V76.366H691.37ZM723.17 76.366H726.17V73.366H723.17V76.366ZM725.714 280.84L722.881 281.826L722.907 281.901L722.938 281.976L725.714 280.84ZM733.346 290.698L731.803 293.27L731.839 293.292L731.876 293.313L733.346 290.698ZM745.112 294.514L744.688 297.484L744.721 297.489L744.755 297.493L745.112 294.514ZM761.012 296.422H764.012V293.76L761.37 293.443L761.012 296.422ZM761.012 319.318V322.318H764.012V319.318H761.012ZM738.752 316.318C728.7 316.318 720.389 314.573 713.7 311.229L711.017 316.595C718.744 320.459 728.029 322.318 738.752 322.318V316.318ZM713.732 311.245C707.391 307.978 702.537 302.785 699.184 295.487L693.732 297.993C697.587 306.383 703.334 312.638 710.984 316.579L713.732 311.245ZM699.223 295.576C696.048 288.035 694.37 277.67 694.37 264.304H688.37C688.37 278.074 690.085 289.333 693.693 297.904L699.223 295.576ZM694.37 264.304V76.366H688.37V264.304H694.37ZM691.37 79.366H723.17V73.366H691.37V79.366ZM720.17 76.366V260.17H726.17V76.366H720.17ZM720.17 260.17C720.17 269.203 721.023 276.484 722.881 281.826L728.548 279.854C727.014 275.444 726.17 268.945 726.17 260.17H720.17ZM722.938 281.976C725.004 287.027 727.899 290.928 731.803 293.27L734.89 288.126C732.434 286.652 730.24 283.981 728.491 279.704L722.938 281.976ZM731.876 293.313C735.638 295.429 739.925 296.803 744.688 297.484L745.537 291.544C741.396 290.953 737.839 289.783 734.817 288.083L731.876 293.313ZM744.755 297.493L760.655 299.401L761.37 293.443L745.47 291.535L744.755 297.493ZM758.012 296.422V319.318H764.012V296.422H758.012ZM761.012 316.318H738.752V322.318H761.012V316.318ZM796.248 319H793.248V322H796.248V319ZM796.248 148.87V145.87H793.248V148.87H796.248ZM821.688 148.87L824.524 147.892L823.827 145.87H821.688V148.87ZM828.048 167.314L825.212 168.292L826.502 172.033L829.756 169.781L828.048 167.314ZM855.396 152.368L854.222 149.608L854.222 149.608L855.396 152.368ZM933.624 170.812L930.973 172.216L932.616 175.319L935.424 173.212L933.624 170.812ZM952.068 159.364L950.665 156.713L950.665 156.713L952.068 159.364ZM975.282 149.824L976.164 152.691L976.164 152.691L975.282 149.824ZM1029.98 153.958L1028.3 156.444L1028.34 156.47L1028.38 156.494L1029.98 153.958ZM1047.15 175.264L1044.34 176.31L1044.35 176.35L1044.37 176.39L1047.15 175.264ZM1052.56 319V322H1055.56V319H1052.56ZM1020.76 319H1017.76V322H1020.76V319ZM1016.62 190.846L1013.94 192.188L1013.97 192.256L1014.01 192.322L1016.62 190.846ZM1005.49 179.08L1003.97 181.663L1003.99 181.677L1004.02 181.692L1005.49 179.08ZM962.244 180.034L963.253 182.859L963.283 182.849L963.312 182.837L962.244 180.034ZM937.758 191.8L936.162 189.26L934.214 190.484L934.891 192.682L937.758 191.8ZM939.666 200.386L936.696 200.81L936.699 200.826L936.701 200.842L939.666 200.386ZM940.302 319V322H943.302V319H940.302ZM908.502 319H905.502V322H908.502V319ZM904.368 190.846L901.685 192.188L901.719 192.256L901.757 192.322L904.368 190.846ZM893.556 179.08L895.082 176.497L895.082 176.497L893.556 179.08ZM858.576 176.854L857.902 173.931L857.889 173.934L857.876 173.937L858.576 176.854ZM843.312 182.26L844.508 185.011L844.558 184.99L844.607 184.966L843.312 182.26ZM828.048 190.21L826.505 187.638L825.048 188.511V190.21H828.048ZM828.048 319V322H831.048V319H828.048ZM799.248 319V148.87H793.248V319H799.248ZM796.248 151.87H821.688V145.87H796.248V151.87ZM818.852 149.848L825.212 168.292L830.884 166.336L824.524 147.892L818.852 149.848ZM829.756 169.781C837.844 164.181 846.78 159.295 856.571 155.128L854.222 149.608C844.085 153.921 834.788 158.999 826.341 164.847L829.756 169.781ZM856.571 155.128C866.099 151.074 877.135 149.008 889.74 149.008V143.008C876.481 143.008 864.622 145.182 854.222 149.608L856.571 155.128ZM889.74 149.008C899.894 149.008 908.324 151.238 915.174 155.544L918.367 150.464C910.377 145.442 900.786 143.008 889.74 143.008V149.008ZM915.174 155.544C922.183 159.95 927.421 165.507 930.973 172.216L936.276 169.408C932.195 161.701 926.197 155.386 918.367 150.464L915.174 155.544ZM935.424 173.212C940.358 169.512 946.366 165.777 953.472 162.015L950.665 156.713C943.355 160.583 937.067 164.48 931.824 168.412L935.424 173.212ZM953.472 162.015C960.504 158.293 968.066 155.183 976.164 152.691L974.4 146.957C965.963 149.553 958.049 152.803 950.665 156.713L953.472 162.015ZM976.164 152.691C984.184 150.224 991.836 149.008 999.132 149.008V143.008C991.164 143.008 982.916 144.336 974.4 146.957L976.164 152.691ZM999.132 149.008C1011.45 149.008 1021.09 151.576 1028.3 156.444L1031.66 151.472C1023.17 145.74 1012.25 143.008 999.132 143.008V149.008ZM1028.38 156.494C1035.86 161.224 1041.17 167.796 1044.34 176.31L1049.96 174.218C1046.35 164.5 1040.2 156.868 1031.58 151.422L1028.38 156.494ZM1044.37 176.39C1047.8 184.874 1049.56 194.657 1049.56 205.792H1055.56C1055.56 194.031 1053.7 183.462 1049.93 174.138L1044.37 176.39ZM1049.56 205.792V319H1055.56V205.792H1049.56ZM1052.56 316H1020.76V322H1052.56V316ZM1023.76 319V208.336H1017.76V319H1023.76ZM1023.76 208.336C1023.76 201.144 1022.29 194.782 1019.23 189.37L1014.01 192.322C1016.46 196.662 1017.76 201.96 1017.76 208.336H1023.76ZM1019.31 189.504C1016.5 183.891 1012.37 179.523 1006.97 176.468L1004.02 181.692C1008.36 184.149 1011.66 187.625 1013.94 192.188L1019.31 189.504ZM1007.02 176.497C1001.79 173.407 995.507 171.946 988.32 171.946V177.946C994.701 177.946 999.867 179.241 1003.97 181.663L1007.02 176.497ZM988.32 171.946C979.433 171.946 970.379 173.725 961.176 177.231L963.312 182.837C971.917 179.559 980.247 177.946 988.32 177.946V171.946ZM961.235 177.209C952.142 180.456 943.78 184.471 936.162 189.26L939.355 194.34C946.576 189.801 954.539 185.972 963.253 182.859L961.235 177.209ZM934.891 192.682C935.691 195.283 936.294 197.991 936.696 200.81L942.636 199.962C942.191 196.845 941.521 193.829 940.626 190.918L934.891 192.682ZM936.701 200.842C937.102 203.449 937.302 206.053 937.302 208.654H943.302C943.302 205.743 943.078 202.835 942.631 199.93L936.701 200.842ZM937.302 208.654V319H943.302V208.654H937.302ZM940.302 316H908.502V322H940.302V316ZM911.502 319V208.336H905.502V319H911.502ZM911.502 208.336C911.502 201.144 910.039 194.782 906.98 189.37L901.757 192.322C904.209 196.662 905.502 201.96 905.502 208.336H911.502ZM907.051 189.504C904.263 183.927 900.269 179.562 895.082 176.497L892.03 181.663C896.171 184.11 899.386 187.589 901.685 192.188L907.051 189.504ZM895.082 176.497C889.853 173.407 883.571 171.946 876.384 171.946V177.946C882.765 177.946 887.931 179.241 892.03 181.663L895.082 176.497ZM876.384 171.946C869.825 171.946 863.66 172.602 857.902 173.931L859.251 179.777C864.516 178.562 870.224 177.946 876.384 177.946V171.946ZM857.876 173.937C852.373 175.258 847.086 177.13 842.018 179.554L844.607 184.966C849.291 182.726 854.18 180.994 859.276 179.771L857.876 173.937ZM842.116 179.509C837.103 181.688 831.899 184.401 826.505 187.638L829.592 192.782C834.797 189.659 839.769 187.072 844.508 185.011L842.116 179.509ZM825.048 190.21V319H831.048V190.21H825.048ZM828.048 316H796.248V322H828.048V316ZM1138.53 319L1135.65 319.84L1136.28 322H1138.53V319ZM1088.92 148.87V145.87H1084.92L1086.04 149.71L1088.92 148.87ZM1121.68 148.87L1124.58 148.102L1123.99 145.87H1121.68V148.87ZM1158.88 289.426L1155.98 290.194L1158.78 300.745L1161.77 290.248L1158.88 289.426ZM1198.95 148.87V145.87H1196.69L1196.07 148.048L1198.95 148.87ZM1225.98 148.87L1228.87 148.048L1228.24 145.87H1225.98V148.87ZM1266.05 289.426L1263.16 290.248L1266.22 300.967L1268.96 290.163L1266.05 289.426ZM1301.66 148.87V145.87H1299.33L1298.76 148.133L1301.66 148.87ZM1334.42 148.87L1337.3 149.7L1338.4 145.87H1334.42V148.87ZM1285.45 319V322H1287.7L1288.33 319.83L1285.45 319ZM1250.15 319L1247.28 319.868L1247.92 322H1250.15V319ZM1211.99 192.754L1214.86 191.886L1212.01 182.464L1209.12 191.873L1211.99 192.754ZM1173.19 319V322H1175.41L1176.06 319.881L1173.19 319ZM1141.41 318.16L1091.8 148.03L1086.04 149.71L1135.65 319.84L1141.41 318.16ZM1088.92 151.87H1121.68V145.87H1088.92V151.87ZM1118.78 149.638L1155.98 290.194L1161.78 288.658L1124.58 148.102L1118.78 149.638ZM1161.77 290.248L1201.84 149.692L1196.07 148.048L1156 288.604L1161.77 290.248ZM1198.95 151.87H1225.98V145.87H1198.95V151.87ZM1223.1 149.692L1263.16 290.248L1268.93 288.604L1228.87 148.048L1223.1 149.692ZM1268.96 290.163L1304.57 149.607L1298.76 148.133L1263.14 288.689L1268.96 290.163ZM1301.66 151.87H1334.42V145.87H1301.66V151.87ZM1331.54 148.04L1282.56 318.17L1288.33 319.83L1337.3 149.7L1331.54 148.04ZM1285.45 316H1250.15V322H1285.45V316ZM1253.02 318.132L1214.86 191.886L1209.12 193.622L1247.28 319.868L1253.02 318.132ZM1209.12 191.873L1170.32 318.119L1176.06 319.881L1214.86 193.635L1209.12 191.873ZM1173.19 316H1138.53V322H1173.19V316ZM1368.17 309.778L1366.11 311.956L1366.13 311.984L1366.16 312.011L1368.17 309.778ZM1369.44 232.822L1371.48 235.02L1371.48 235.019L1369.44 232.822ZM1463.57 220.102V223.102H1466.57V220.102H1463.57ZM1460.07 185.758L1457.34 186.999L1457.37 187.076L1457.41 187.15L1460.07 185.758ZM1369.44 171.766H1366.44V174.766H1369.44V171.766ZM1369.44 153.004L1368.79 150.075L1366.44 150.597V153.004H1369.44ZM1396.15 148.552L1395.79 145.574L1395.78 145.575L1396.15 148.552ZM1432.4 146.326V143.326H1432.38L1432.36 143.326L1432.4 146.326ZM1467.38 151.732L1466.3 154.53L1466.34 154.545L1466.38 154.559L1467.38 151.732ZM1488.69 168.904L1486.09 170.407L1486.1 170.422L1486.11 170.437L1488.69 168.904ZM1495.69 319V322H1498.69V319H1495.69ZM1470.56 319L1467.68 319.831L1468.31 322H1470.56V319ZM1465.16 300.238L1468.04 299.407L1466.91 295.467L1463.49 297.742L1465.16 300.238ZM1457.21 305.008L1458.61 307.663L1458.66 307.635L1458.71 307.604L1457.21 305.008ZM1441.63 312.004L1440.51 309.219L1440.5 309.225L1440.48 309.232L1441.63 312.004ZM1421.27 318.364L1420.61 315.439L1420.6 315.442L1420.59 315.444L1421.27 318.364ZM1413.96 297.694L1414.16 294.701L1414.06 294.694H1413.96V297.694ZM1425.09 296.74L1424.53 293.793L1424.52 293.796L1424.5 293.798L1425.09 296.74ZM1438.13 293.878L1438.86 296.788L1438.9 296.776L1438.95 296.763L1438.13 293.878ZM1450.21 290.062L1449.26 287.216L1449.24 287.224L1449.21 287.233L1450.21 290.062ZM1459.43 286.882L1460.46 289.701L1460.52 289.678L1460.59 289.651L1459.43 286.882ZM1463.57 284.974L1465.69 287.095L1466.57 286.217V284.974H1463.57ZM1463.57 236.002H1466.57V232.871L1463.44 233.005L1463.57 236.002ZM1419.05 237.91L1418.92 234.913L1418.9 234.914L1418.88 234.915L1419.05 237.91ZM1395.2 246.178L1393.08 244.057L1393.05 244.08L1393.03 244.104L1395.2 246.178ZM1392.02 287.836L1389.52 289.5L1389.54 289.533L1389.57 289.566L1392.02 287.836ZM1401.56 295.468L1400.47 298.264L1400.5 298.274L1400.52 298.283L1401.56 295.468ZM1399.33 317.908C1387.46 317.908 1377.82 314.408 1370.17 307.545L1366.16 312.011C1375.05 319.988 1386.19 323.908 1399.33 323.908V317.908ZM1370.23 307.6C1362.89 300.648 1359.08 291.009 1359.08 278.296H1353.08C1353.08 292.295 1357.33 303.644 1366.11 311.956L1370.23 307.6ZM1359.08 278.296V264.94H1353.08V278.296H1359.08ZM1359.08 264.94C1359.08 252.554 1363.24 242.671 1371.48 235.02L1367.4 230.624C1357.83 239.509 1353.08 251.038 1353.08 264.94H1359.08ZM1371.48 235.019C1379.83 227.251 1392.64 223.102 1410.46 223.102V217.102C1391.82 217.102 1377.28 221.433 1367.4 230.625L1371.48 235.019ZM1410.46 223.102H1463.57V217.102H1410.46V223.102ZM1466.57 220.102V202.294H1460.57V220.102H1466.57ZM1466.57 202.294C1466.57 195.381 1465.34 189.359 1462.73 184.366L1457.41 187.15C1459.46 191.061 1460.57 196.063 1460.57 202.294H1466.57ZM1462.8 184.517C1460.28 178.979 1455.56 175.015 1449.08 172.472L1446.89 178.056C1452.29 180.177 1455.62 183.209 1457.34 186.999L1462.8 184.517ZM1449.08 172.472C1442.62 169.932 1433.37 168.766 1421.59 168.766V174.766C1433.14 174.766 1441.48 175.932 1446.89 178.056L1449.08 172.472ZM1421.59 168.766H1369.44V174.766H1421.59V168.766ZM1372.44 171.766V153.004H1366.44V171.766H1372.44ZM1370.09 155.933C1377.61 154.262 1386.42 152.792 1396.52 151.529L1395.78 145.575C1385.54 146.855 1376.54 148.354 1368.79 150.075L1370.09 155.933ZM1396.52 151.53C1406.77 150.274 1418.75 149.536 1432.45 149.326L1432.36 143.326C1418.5 143.539 1406.31 144.286 1395.79 145.574L1396.52 151.53ZM1432.4 149.326C1446.16 149.326 1457.43 151.101 1466.3 154.53L1468.47 148.934C1458.69 145.155 1446.63 143.326 1432.4 143.326V149.326ZM1466.38 154.559C1475.31 157.735 1481.82 163.023 1486.09 170.407L1491.29 167.401C1486.23 158.673 1478.54 152.513 1468.39 148.905L1466.38 154.559ZM1486.11 170.437C1490.4 177.657 1492.69 187.558 1492.69 200.386H1498.69C1498.69 186.926 1496.3 175.839 1491.27 167.371L1486.11 170.437ZM1492.69 200.386V319H1498.69V200.386H1492.69ZM1495.69 316H1470.56V322H1495.69V316ZM1473.45 318.169L1468.04 299.407L1462.28 301.069L1467.68 319.831L1473.45 318.169ZM1463.49 297.742C1462.31 298.528 1459.75 300.071 1455.71 302.412L1458.71 307.604C1462.73 305.281 1465.46 303.644 1466.82 302.734L1463.49 297.742ZM1455.81 302.353C1451.91 304.407 1446.82 306.696 1440.51 309.219L1442.74 314.789C1449.15 312.224 1454.45 309.849 1458.61 307.663L1455.81 302.353ZM1440.48 309.232C1434.51 311.703 1427.89 313.776 1420.61 315.439L1421.94 321.289C1429.5 319.56 1436.45 317.393 1442.77 314.776L1440.48 309.232ZM1420.59 315.444C1413.61 317.087 1406.52 317.908 1399.33 317.908V323.908C1406.98 323.908 1414.53 323.033 1421.96 321.284L1420.59 315.444ZM1413.76 300.687C1417.28 300.922 1421.27 300.564 1425.68 299.682L1424.5 293.798C1420.44 294.612 1417 294.89 1414.16 294.701L1413.76 300.687ZM1425.65 299.687C1430.16 298.829 1434.56 297.863 1438.86 296.788L1437.4 290.968C1433.22 292.013 1428.93 292.955 1424.53 293.793L1425.65 299.687ZM1438.95 296.763C1443.45 295.477 1447.54 294.187 1451.21 292.891L1449.21 287.233C1445.68 288.481 1441.71 289.735 1437.3 290.993L1438.95 296.763ZM1451.16 292.908C1454.99 291.632 1458.09 290.562 1460.46 289.701L1458.41 284.063C1456.11 284.898 1453.07 285.948 1449.26 287.216L1451.16 292.908ZM1460.59 289.651C1461.87 289.116 1462.89 288.675 1463.63 288.334C1464 288.165 1464.33 288.005 1464.6 287.86C1464.73 287.791 1465.27 287.517 1465.69 287.095L1461.45 282.853C1461.58 282.724 1461.68 282.642 1461.73 282.608C1461.78 282.569 1461.82 282.544 1461.83 282.537C1461.85 282.523 1461.84 282.531 1461.78 282.565C1461.65 282.632 1461.44 282.737 1461.12 282.886C1460.48 283.181 1459.54 283.588 1458.28 284.113L1460.59 289.651ZM1466.57 284.974V236.002H1460.57V284.974H1466.57ZM1463.44 233.005L1418.92 234.913L1419.18 240.907L1463.7 238.999L1463.44 233.005ZM1418.88 234.915C1407.54 235.569 1398.71 238.426 1393.08 244.057L1397.32 248.299C1401.44 244.178 1408.51 241.523 1419.22 240.905L1418.88 234.915ZM1393.03 244.104C1387.75 249.629 1385.2 256.776 1385.2 265.258H1391.2C1391.2 258.052 1393.32 252.479 1397.37 248.252L1393.03 244.104ZM1385.2 265.258V272.89H1391.2V265.258H1385.2ZM1385.2 272.89C1385.2 279.433 1386.56 285.049 1389.52 289.5L1394.51 286.172C1392.39 282.991 1391.2 278.643 1391.2 272.89H1385.2ZM1389.57 289.566C1392.42 293.613 1396.06 296.55 1400.47 298.264L1402.65 292.672C1399.42 291.418 1396.7 289.267 1394.47 286.106L1389.57 289.566ZM1400.52 298.283C1404.88 299.888 1409.36 300.694 1413.96 300.694V294.694C1410.08 294.694 1406.3 294.016 1402.6 292.653L1400.52 298.283ZM1548.44 319H1545.44V322H1548.44V319ZM1548.44 148.87V145.87H1545.44V148.87H1548.44ZM1572.93 148.87L1575.83 148.127L1575.26 145.87H1572.93V148.87ZM1580.24 177.49L1577.34 178.233L1578.79 183.937L1582.55 179.405L1580.24 177.49ZM1604.41 155.548L1606.07 158.044L1606.07 158.044L1604.41 155.548ZM1643.52 147.28L1643.03 150.239L1643.15 150.259L1643.28 150.27L1643.52 147.28ZM1650.84 148.552H1653.84V146.261L1651.63 145.658L1650.84 148.552ZM1650.84 181.306L1650.41 184.276L1653.84 184.765V181.306H1650.84ZM1641.62 180.352L1641.22 183.326L1641.32 183.339L1641.42 183.345L1641.62 180.352ZM1612.36 182.26L1613.21 185.136L1613.21 185.136L1612.36 182.26ZM1595.82 190.21L1597.49 192.706L1597.5 192.699L1597.51 192.691L1595.82 190.21ZM1580.24 202.93L1578.16 200.766L1577.24 201.651V202.93H1580.24ZM1580.24 319V322H1583.24V319H1580.24ZM1551.44 319V148.87H1545.44V319H1551.44ZM1548.44 151.87H1572.93V145.87H1548.44V151.87ZM1570.02 149.613L1577.34 178.233L1583.15 176.747L1575.83 148.127L1570.02 149.613ZM1582.55 179.405C1589.58 170.925 1597.43 163.81 1606.07 158.044L1602.75 153.052C1593.59 159.158 1585.32 166.671 1577.93 175.575L1582.55 179.405ZM1606.07 158.044C1614.43 152.472 1624.23 149.644 1635.57 149.644V143.644C1623.18 143.644 1612.2 146.752 1602.75 153.052L1606.07 158.044ZM1635.57 149.644C1638.18 149.644 1640.66 149.844 1643.03 150.239L1644.02 144.321C1641.3 143.868 1638.48 143.644 1635.57 143.644V149.644ZM1643.28 150.27C1645.65 150.467 1647.9 150.861 1650.05 151.446L1651.63 145.658C1649.11 144.971 1646.49 144.517 1643.77 144.29L1643.28 150.27ZM1647.84 148.552V181.306H1653.84V148.552H1647.84ZM1651.26 178.336C1648.22 177.901 1645.07 177.575 1641.82 177.359L1641.42 183.345C1644.53 183.553 1647.53 183.863 1650.41 184.276L1651.26 178.336ZM1642.01 177.378C1638.69 176.936 1635.28 176.716 1631.76 176.716V182.716C1635.03 182.716 1638.18 182.92 1641.22 183.326L1642.01 177.378ZM1631.76 176.716C1624.32 176.716 1617.56 177.591 1611.51 179.384L1613.21 185.136C1618.61 183.537 1624.78 182.716 1631.76 182.716V176.716ZM1611.51 179.384C1605.47 181.174 1599.67 183.964 1594.14 187.729L1597.51 192.691C1602.57 189.248 1607.81 186.738 1613.21 185.136L1611.51 179.384ZM1594.16 187.714C1588.9 191.221 1583.57 195.579 1578.16 200.766L1582.32 205.094C1587.52 200.105 1592.57 195.983 1597.49 192.706L1594.16 187.714ZM1577.24 202.93V319H1583.24V202.93H1577.24ZM1580.24 316H1548.44V322H1580.24V316ZM1714.13 312.958L1712.78 315.641L1712.79 315.647L1712.8 315.652L1714.13 312.958ZM1691.23 286.246L1688.4 287.237L1688.41 287.266L1688.42 287.294L1691.23 286.246ZM1691.23 180.988L1688.41 179.955L1688.41 179.969L1688.4 179.982L1691.23 180.988ZM1714.13 154.276L1715.42 156.981L1715.42 156.981L1714.13 154.276ZM1794.9 151.732L1793.89 154.559L1793.93 154.572L1793.97 154.584L1794.9 151.732ZM1816.2 169.222L1813.55 170.616L1813.57 170.657L1813.59 170.696L1816.2 169.222ZM1816.84 228.688L1814.37 226.985L1814.35 227.014L1814.33 227.044L1816.84 228.688ZM1799.35 242.044L1798.33 239.222L1798.32 239.227L1798.3 239.232L1799.35 242.044ZM1716.35 246.178V243.178H1713.3L1713.35 246.23L1716.35 246.178ZM1720.49 275.752L1717.65 276.725L1717.66 276.775L1717.68 276.823L1720.49 275.752ZM1734.8 291.652L1733.45 294.335L1733.5 294.36L1733.55 294.383L1734.8 291.652ZM1818.43 296.422H1821.43V293.422H1818.43V296.422ZM1818.43 315.502L1818.84 318.473L1821.43 318.112V315.502H1818.43ZM1790.45 319L1790.11 316.018L1790.08 316.022L1790.05 316.026L1790.45 319ZM1716.03 226.144H1713.03V229.144H1716.03V226.144ZM1788.54 221.374L1790.4 223.729L1790.4 223.729L1788.54 221.374ZM1790.76 183.85L1788.06 185.144L1788.08 185.191L1788.1 185.238L1790.76 183.85ZM1779 173.356L1780.07 170.556L1780.07 170.556L1779 173.356ZM1732.25 174.946L1730.87 172.281L1730.85 172.291L1730.83 172.302L1732.25 174.946ZM1719.53 191.8L1716.67 190.897L1716.66 190.931L1716.65 190.966L1719.53 191.8ZM1757.37 317.908C1739.6 317.908 1725.69 315.288 1715.45 310.264L1712.8 315.652C1724.18 321.228 1739.1 323.908 1757.37 323.908V317.908ZM1715.47 310.275C1705.63 305.358 1698.48 297.092 1694.04 285.198L1688.42 287.294C1693.31 300.416 1701.42 309.958 1712.78 315.641L1715.47 310.275ZM1694.06 285.255C1689.77 272.994 1687.55 255.889 1687.55 233.776H1681.55C1681.55 256.183 1683.79 274.058 1688.4 287.237L1694.06 285.255ZM1687.55 233.776C1687.55 211.228 1689.77 194.029 1694.06 181.994L1688.4 179.982C1683.78 192.963 1681.55 210.956 1681.55 233.776H1687.55ZM1694.05 182.021C1698.49 169.914 1705.64 161.679 1715.42 156.981L1712.83 151.571C1701.41 157.049 1693.3 166.622 1688.41 179.955L1694.05 182.021ZM1715.42 156.981C1725.46 152.163 1739.27 149.644 1757.06 149.644V143.644C1738.8 143.644 1723.99 146.213 1712.83 151.571L1715.42 156.981ZM1757.06 149.644C1772.57 149.644 1784.8 151.326 1793.89 154.559L1795.9 148.905C1785.91 145.354 1772.92 143.644 1757.06 143.644V149.644ZM1793.97 154.584C1803.03 157.541 1809.49 162.881 1813.55 170.616L1818.86 167.827C1814.02 158.603 1806.26 152.283 1795.83 148.88L1793.97 154.584ZM1813.59 170.696C1817.9 178.329 1820.2 189.296 1820.2 203.884H1826.2C1826.2 188.792 1823.84 176.651 1818.82 167.748L1813.59 170.696ZM1820.2 203.884C1820.2 213.894 1818.15 221.499 1814.37 226.985L1819.31 230.391C1824.01 223.581 1826.2 214.65 1826.2 203.884H1820.2ZM1814.33 227.044C1810.7 232.592 1805.42 236.663 1798.33 239.222L1800.37 244.866C1808.54 241.913 1814.93 237.08 1819.35 230.332L1814.33 227.044ZM1798.3 239.232C1791.31 241.832 1782.77 243.178 1772.64 243.178V249.178C1783.28 249.178 1792.55 247.768 1800.39 244.856L1798.3 239.232ZM1772.64 243.178H1716.35V249.178H1772.64V243.178ZM1713.35 246.23C1713.57 258.683 1714.96 268.889 1717.65 276.725L1723.32 274.779C1720.92 267.775 1719.56 258.265 1719.35 246.126L1713.35 246.23ZM1717.68 276.823C1720.7 284.719 1725.99 290.601 1733.45 294.335L1736.14 288.969C1730.04 285.919 1725.78 281.201 1723.29 274.681L1717.68 276.823ZM1733.55 294.383C1741.13 297.826 1751.81 299.422 1765.32 299.422V293.422C1752.12 293.422 1742.46 291.838 1736.04 288.921L1733.55 294.383ZM1765.32 299.422H1818.43V293.422H1765.32V299.422ZM1815.43 296.422V315.502H1821.43V296.422H1815.43ZM1818.01 312.531C1808.93 313.799 1799.63 314.961 1790.11 316.018L1790.78 321.982C1800.34 320.919 1809.7 319.749 1818.84 318.473L1818.01 312.531ZM1790.05 316.026C1780.67 317.277 1769.79 317.908 1757.37 317.908V323.908C1769.98 323.908 1781.14 323.267 1790.84 321.974L1790.05 316.026ZM1716.03 229.144H1769.78V223.144H1716.03V229.144ZM1769.78 229.144C1778.53 229.144 1785.59 227.522 1790.4 223.729L1786.68 219.019C1783.43 221.586 1777.99 223.144 1769.78 223.144V229.144ZM1790.4 223.729C1795.51 219.694 1797.58 212.692 1797.58 203.884H1791.58C1791.58 212.036 1789.62 216.694 1786.68 219.019L1790.4 223.729ZM1797.58 203.884C1797.58 195.159 1796.28 187.937 1793.42 182.462L1788.1 185.238C1790.34 189.515 1791.58 195.649 1791.58 203.884H1797.58ZM1793.47 182.556C1790.77 176.921 1786.23 172.923 1780.07 170.556L1777.92 176.156C1782.79 178.029 1786.09 181.027 1788.06 185.144L1793.47 182.556ZM1780.07 170.556C1774.08 168.252 1766.36 167.176 1757.06 167.176V173.176C1765.98 173.176 1772.89 174.22 1777.92 176.156L1780.07 170.556ZM1757.06 167.176C1746.41 167.176 1737.61 168.798 1730.87 172.281L1733.63 177.611C1739.19 174.734 1746.93 173.176 1757.06 173.176V167.176ZM1730.83 172.302C1724.04 175.94 1719.39 182.294 1716.67 190.897L1722.39 192.703C1724.76 185.194 1728.59 180.312 1733.67 177.59L1730.83 172.302ZM1716.65 190.966C1714.2 199.425 1713.03 211.203 1713.03 226.144H1719.03C1719.03 211.405 1720.2 200.287 1722.41 192.634L1716.65 190.966Z" fill="white"/>
<rect y="397" width="372" height="372" rx="130" transform="rotate(-90 0 397)" fill="url(#paint0_linear_58_7)"/>
<path d="M180.588 84.5252C179.193 85.0243 174.311 87.2206 169.629 89.4169C148.805 99.2002 142.23 102.295 109.849 117.569C89.2254 127.252 74.2805 134.939 72.4871 136.636L69.4982 139.531L69.1993 210.81L69 281.989L71.0923 284.684C72.9853 287.08 87.432 295.266 89.9228 295.266C90.6202 295.266 90.9191 272.505 90.9191 225.884C90.9191 152.11 90.8195 153.608 95.5022 149.315C96.5981 148.416 105.665 143.924 115.827 139.232C125.99 134.64 146.215 125.356 160.861 118.667C192.644 104.092 191.747 104.192 191.348 116.87L191.05 125.056L154.883 141.528C132.167 151.91 117.82 158.998 116.026 160.795L113.336 163.491L113.037 234.969L112.838 306.347L123.3 311.339C129.078 314.034 135.549 316.33 136.047 316.33C136.047 315.881 136.047 297.912 136.047 267.813C136.047 220.693 136.047 230.976 136.047 228.28C136.047 225.585 136.047 225.136 136.047 223.339C136.047 222.559 136.047 220.394 136.047 221.192C136.047 221.991 136.047 217.499 136.047 218.397C136.047 219.295 136.047 217.499 136.047 215.252C136.047 213.905 136.047 213.455 136.047 210.311C136.047 208.514 135.748 207.066 136.047 191.892L136.252 174.472L139.241 171.577C140.934 169.98 147.211 166.386 153.189 163.69C159.267 160.995 177.599 152.509 194.038 145.022C210.478 137.435 225.821 130.447 228.113 129.449C235.087 126.254 236.681 128.251 236.183 139.432C235.984 143.824 235.386 146.12 234.39 146.619C233.592 147.119 217.452 154.506 198.522 163.091C176.204 173.174 163.053 179.663 161.16 181.56L158.171 184.455L157.872 256.233L157.673 327.911L161.204 329.807C163.45 330.706 166.595 332.053 167.494 332.503C168.841 332.952 171.721 334.1 175.009 335.597C185.57 340.389 185.769 340.289 226.519 321.122C298.852 287.18 297.158 287.979 299.449 284.784C301.641 281.789 301.641 281.689 301.94 212.407C302.139 163.591 301.841 142.227 301.044 140.43C300.446 138.933 299.051 136.836 297.855 135.738C295.962 134.141 266.67 120.065 204.002 90.7146C190.751 84.625 184.972 83.0277 180.588 84.5252ZM277.5 154.5C278.422 156.344 278.5 157.5 280 161C284.071 170.5 282.014 170.878 241.762 189.147L205.994 205.319L205.695 218.996C205.496 229.678 205.695 232.473 206.692 232.074C207.389 231.874 222.633 224.986 240.567 216.9C258.899 208.614 273.844 202.424 274.741 202.724C275.936 203.223 276.235 205.12 276.235 211.808C276.235 216.5 275.737 221.392 275.139 222.79C274.242 224.786 267.368 228.28 239.969 240.659L205.994 256.133L205.695 268.212C205.596 274.901 205.795 280.292 206.194 280.292C206.493 280.292 208.684 279.393 210.876 278.395C213.168 277.397 229.009 270.109 246.246 262.322C282.512 245.751 280.719 245.95 280.021 259.427C279.423 269.909 277.929 271.706 265.176 277.496C259.497 279.992 244.751 286.681 232.397 292.271C220.043 297.862 205.297 304.55 199.518 307.146C193.74 309.841 188.16 312.237 186.965 312.637C184.374 313.435 181.784 311.439 181.584 308.244C181.485 306.846 181.385 281.19 181.485 251.042L183 196.5L184.872 193.04C187.164 190.644 194.437 186.851 210.478 179.663C222.832 174.073 242.36 165.288 253.818 160.096C265.375 154.905 275.239 150.613 275.936 150.613C276.534 150.513 277 153.5 277.5 154.5ZM293.471 208.414C292.176 208.913 291.18 209.912 291.18 210.511C291.18 211.209 292.68 211.509 292.381 211.209C291.185 210.111 292.634 210.211 294.627 210.311C296.719 210.311 295.663 207.516 293.471 208.414ZM297.158 215.901C295.763 217.598 296.873 218.996 296.873 217.499C296.873 216.9 295.627 217.948 296.424 217.948C297.221 217.948 297.158 214.604 297.257 213.605C297.257 212.507 295.127 216.7 295.525 217.499C295.824 218.197 297.756 215.103 297.158 215.901ZM131.768 217.998C132.033 219.295 131.64 219.645 131.106 221.092C128.914 223.189 129.576 223.389 131.469 221.092C132.167 220.294 132.167 218.297 131.768 217.998C131.469 217.599 127.388 215.768 127.961 216.151C128.41 216.451 130.656 217.499 131.768 217.998Z" fill="white"/>
<defs>
<linearGradient id="paint0_linear_58_7" x1="63" y1="659.5" x2="306.951" y2="505.607" gradientUnits="userSpaceOnUse">
<stop offset="0.14924" stop-color="#35B1A1"/>
<stop offset="0.378037" stop-color="#0078B5"/>
<stop offset="0.619704" stop-color="#404BC1"/>
<stop offset="0.857725" stop-color="#EB07E0"/>
</linearGradient>
</defs>
</svg>
