<svg width="1926" height="445" viewBox="0 0 1926 445" fill="none" xmlns="http://www.w3.org/2000/svg">
<path d="M115.318 106.332C110.763 107.442 104.876 109.552 102.209 110.773C94.8779 114.326 87.1018 122.542 83.1028 131.092C77.6596 142.306 76.4377 151.855 76.3266 180.945C76.3266 202.374 75.9933 207.038 74.4381 210.258C72.3275 214.81 64.4404 220.25 58.8861 221.139C56.8866 221.472 53.4429 222.027 51.2212 222.36L47.3333 222.915L47.6665 234.796C47.8887 244.678 48.333 246.676 49.6661 246.343C50.888 246.121 50.888 246.454 49.4439 247.564C46.2224 250.118 47.1111 251.673 51.8878 251.673C62.663 251.673 74.4381 259.445 75.6601 267.439C75.9933 269.438 76.4377 283.539 76.6598 298.861C76.9931 321.512 77.4374 327.729 79.1037 332.726C82.4363 343.163 87.1019 351.046 92.9894 356.376C103.32 365.702 114.54 369.367 133.758 369.589C145.533 369.7 146.31 369.589 148.31 367.146C150.421 364.481 152.976 364.814 152.976 367.812C152.976 368.7 153.531 369.367 154.086 369.367C155.642 369.367 155.419 368.034 153.42 364.925C152.198 362.927 152.531 363.149 154.864 365.591L157.974 369.144L166.861 367.59C199.964 361.816 222.959 345.828 234.179 320.957C242.621 301.97 245.176 284.538 245.176 244.678C245.176 187.163 249.509 166.289 264.616 151.078C271.059 144.527 280.946 139.419 293.499 136.088C300.83 134.09 305.718 133.645 320.715 133.534C337.488 133.423 339.377 133.645 343.487 135.866C349.041 138.864 352.263 142.306 354.818 147.858C356.373 151.633 356.817 157.184 357.373 182.278C358.039 209.258 358.262 212.811 360.372 217.253C364.704 226.912 371.036 232.131 382.367 235.684C385.033 236.461 386.144 237.238 385.144 237.571C369.814 242.568 366.704 244.9 361.816 254.337L357.928 261.999L357.262 292.088C356.595 325.176 356.262 326.952 349.375 333.503C341.71 340.831 340.821 341.053 299.497 341.386L262.284 341.72L258.618 347.937C256.507 351.379 251.953 357.486 248.398 361.705C244.732 365.813 241.844 369.478 241.844 369.811C241.844 371.032 259.507 370.477 260.173 369.367C260.617 368.7 261.839 368.478 263.061 368.811C265.394 369.589 266.061 367.701 263.839 366.813C262.728 366.369 262.728 366.147 263.839 366.147C264.728 366.036 265.616 367.035 265.949 368.256C266.505 370.477 267.172 370.588 303.385 370.144C327.602 369.811 342.265 369.255 346.264 368.367C360.816 364.925 373.369 356.154 378.812 345.384C384.811 333.503 385.366 329.728 386.144 297.196C386.922 264.996 387.255 262.887 392.587 258.112C395.808 255.226 402.362 252.783 409.361 251.895L415.693 251.117L416.026 237.127C416.359 221.472 416.47 221.694 407.583 221.694C399.363 221.694 389.365 214.588 387.366 207.26C386.81 205.15 386.255 192.604 386.255 179.502C386.255 156.407 385.222 142.221 383 140C383.022 139.415 382.855 137.801 381.833 136C381.833 131.892 376.146 122.986 370.148 117.435C360.039 108.108 346.264 104 324.603 104C301.386 104 281.724 107.886 265.727 115.658C242.177 127.095 228.291 145.526 221.293 174.838C219.405 182.278 217.556 191.723 219.333 193.5C221.555 196.054 223.515 189.161 221.293 187.274C219.96 186.164 219.516 186.275 219.071 187.496C218.738 188.384 218.516 189.606 218.627 190.161C218.738 190.716 218.627 194.38 218.183 198.377C217.738 202.374 217.183 221.583 216.85 241.124C216.294 277.765 215.628 285.759 211.851 298.528C209.629 305.745 209.629 306.189 211.518 309.076L213.406 312.185L210.74 309.964C208.518 308.077 208.185 307.966 208.852 309.631C209.185 310.742 209.185 311.519 208.74 311.519C206.63 311.186 206.297 311.852 207.519 314.073C208.629 316.071 208.518 316.293 206.963 315.738C205.741 315.294 203.408 316.959 199.409 321.179C187.745 333.503 172.526 339.166 145.533 341.164C126.426 342.497 114.207 338.055 109.208 327.841C107.986 325.398 106.542 319.18 105.875 313.962C105.209 308.743 104.209 303.747 103.654 302.858C102.987 301.748 102.987 301.526 103.876 302.081C104.876 302.636 105.098 297.418 104.876 281.984C104.653 262.665 104.431 260.666 101.987 255.226C100.543 252.117 97.655 247.897 95.4333 246.01C91.212 242.346 82.9917 238.349 79.548 238.349C75.549 238.349 77.4374 236.572 83.436 234.685C90.8787 232.242 98.5437 225.691 101.876 218.696C103.876 214.588 104.542 210.702 104.987 201.93C105.32 193.936 105.098 190.605 104.209 190.605C103.543 190.605 102.987 190.05 102.987 189.384C102.987 188.828 103.431 188.495 103.987 188.828C104.431 189.162 105.098 181.278 105.431 171.174C105.875 153.631 106.097 152.743 109.208 146.525C111.652 141.751 113.762 139.308 117.873 136.754C123.316 133.423 123.649 133.423 140.645 133.09C155.086 132.757 158.197 132.424 159.418 130.87C160.64 129.315 160.752 129.315 160.752 130.981C160.752 132.646 162.64 132.868 180.525 132.868L200.187 132.757L205.075 124.985C207.741 120.655 212.628 114.104 216.072 110.551L222.071 104L172.86 104.111C127.648 104.111 122.871 104.333 115.318 106.332ZM279.058 131.536C278.169 132.424 276.28 130.426 276.28 128.649C276.28 127.206 268.193 130.07 269.526 131.958C270.415 133.068 277.833 133 279.058 131.536ZM261.833 147C262.944 149.887 273.059 138.975 271.17 136.643C269.504 134.645 269.504 134.645 270.06 137.199C270.393 139.086 270.282 139.53 269.393 138.642C268.06 137.31 268.949 133.979 270.615 133.979C265.727 131.536 237.619 159.649 261.833 147ZM267.394 138.975C268.838 140.529 269.504 141.751 268.838 141.751C268.171 141.751 266.838 140.529 265.838 138.975C264.839 137.421 264.172 136.199 264.394 136.199C264.616 136.199 265.949 137.421 267.394 138.975ZM380.812 139.752C383.367 143.416 383.367 143.416 380.923 141.307C378.479 139.197 378.479 139.197 378.479 141.307C378.479 143.083 378.257 143.083 377.368 141.751C376.813 140.863 376.035 140.529 375.591 140.974C375.146 141.418 375.369 142.417 376.035 143.083C376.813 143.86 377.368 145.082 377.368 145.97C377.368 146.969 376.591 146.525 375.258 144.971C372.925 142.084 379.279 151 382.5 151C383.5 151 383.944 144.499 383.5 143.5C382.5 140.835 378.146 135.977 380.812 139.752ZM264.061 145.193C264.061 146.081 263.283 145.748 261.95 144.416C260.84 143.305 260.173 141.973 260.395 141.418C261.062 140.307 264.061 143.416 264.061 145.193ZM102.765 191.715C103.543 192.937 103.765 193.936 103.209 193.936C102.765 193.936 101.765 192.937 100.988 191.715C100.21 190.494 99.9878 189.495 100.543 189.495C100.988 189.495 101.987 190.494 102.765 191.715ZM97.4328 195.157C99.0991 198.266 97.9882 197.711 95.7665 194.38C94.7668 192.715 94.4335 191.826 95.1 192.159C95.7665 192.603 96.8774 193.936 97.4328 195.157ZM100.765 195.379C100.765 195.934 100.321 195.934 99.6545 195.601C99.0991 195.268 98.5437 194.047 98.5437 193.048C98.5437 191.382 98.7658 191.382 99.6545 192.826C100.21 193.714 100.765 194.935 100.765 195.379ZM94.1002 201.597C94.1002 202.374 93.2116 201.93 91.9896 200.487C90.7677 199.043 90.1012 197.378 90.4344 196.934C91.1009 195.823 93.9892 199.487 94.1002 201.597ZM52.9986 242.235C54.1095 243.567 54.1095 243.9 52.6654 243.9C51.7767 243.9 50.7769 243.123 50.3326 242.235C49.9993 241.347 50.1104 240.569 50.6658 240.569C51.2212 240.569 52.221 241.347 52.9986 242.235ZM387.5 243.123C373.503 245.001 393.698 245.011 392.698 245.011C391.587 245.011 390.698 244.233 390.698 243.123C390.698 242.124 391.032 241.791 391.587 242.346C392.031 242.901 388.524 239.501 387.5 243.123ZM370 266C371.666 269.109 382.367 256.558 380.145 253.227C379.146 251.562 378.812 250.673 379.479 251.006C380.145 251.45 372.5 248 370 266ZM377.368 258.557C377.368 259.223 376.591 259.112 375.702 258.334C374.813 257.557 374.036 256.447 374.036 255.892C374.036 255.226 374.813 255.337 375.702 256.114C376.591 256.891 377.368 258.001 377.368 258.557ZM222.848 300.86C222.959 301.415 222.515 301.415 221.849 301.082C221.293 300.749 220.738 299.305 220.849 297.973C220.849 295.641 220.96 295.641 221.849 297.751C222.404 298.972 222.848 300.416 222.848 300.86ZM103.098 305.19C104.32 307.522 104.32 307.633 102.654 306.189C101.543 305.412 100.765 304.302 100.765 303.747C100.765 302.081 101.765 302.636 103.098 305.19ZM99.6545 311.297C99.5434 312.407 95.3222 306.967 95.2111 305.634C95.2111 305.079 96.2109 305.967 97.4328 307.522C98.6547 309.076 99.6545 310.742 99.6545 311.297ZM94.2113 314.073C95.1 315.738 95.1 316.071 94.2113 315.627C93.5448 315.183 92.434 313.85 91.7674 312.518C90.8788 310.853 90.8788 310.52 91.7674 310.964C92.434 311.408 93.5448 312.74 94.2113 314.073ZM166.861 355.488C166.972 357.153 166.417 357.819 165.528 357.486C163.751 356.82 163.64 354.932 165.306 354.932C165.973 354.932 166.195 354.155 165.861 353.045C165.417 351.934 165.528 351.49 165.973 352.046C166.417 352.49 166.861 354.044 166.861 355.488ZM279.724 353.711C278.391 354.599 278.391 355.043 279.502 356.487C280.391 357.597 280.502 358.263 279.835 358.263C279.169 358.263 278.28 357.708 277.947 357.153C276.947 355.488 278.169 352.712 279.835 352.712C280.946 352.712 280.835 353.045 279.724 353.711ZM160.418 364.259C159.641 366.147 156.308 366.702 156.308 364.925C156.308 364.37 157.086 364.148 157.974 364.481C159.863 365.258 160.307 363.26 158.53 362.149C157.974 361.816 157.419 360.928 157.419 360.151C157.419 359.374 158.197 359.596 159.196 360.706C160.196 361.705 160.752 363.371 160.418 364.259ZM268.616 366.258C269.504 367.923 269.504 368.256 268.616 367.812C267.949 367.368 266.838 366.036 266.172 364.703C265.283 363.038 265.283 362.705 266.172 363.149C266.838 363.593 267.949 364.925 268.616 366.258Z" fill="white"/>
<path d="M280 350L292.99 359H267.01L280 350Z" fill="white"/>
<rect x="253" y="362" width="29" height="8" fill="white"/>
<ellipse cx="155.5" cy="359" rx="17.5" ry="10" fill="white"/>
<path d="M163.354 365.772C163.367 366.763 161.61 367.736 158.462 368.484C155.313 369.231 151.025 369.692 146.524 369.768C142.023 369.843 137.669 369.526 134.402 368.886C131.135 368.246 129.216 367.334 129.06 366.346C128.904 365.358 130.523 364.374 133.568 363.606C136.613 362.839 140.839 362.349 145.336 362.242C149.832 362.135 154.237 362.421 157.601 363.036C160.965 363.652 163.018 364.549 163.317 365.533L146.202 365.999L163.354 365.772Z" fill="white"/>
<path d="M163.354 365.772C163.367 366.763 161.61 367.736 158.462 368.484C155.313 369.231 151.025 369.692 146.524 369.768C142.023 369.843 137.669 369.526 134.402 368.886C131.135 368.246 129.216 367.334 129.06 366.346C128.904 365.358 130.523 364.374 133.568 363.606C136.613 362.839 140.839 362.349 145.336 362.242C149.832 362.135 154.237 362.421 157.601 363.036C160.965 363.652 163.018 364.549 163.317 365.533L146.202 365.999L163.354 365.772Z" fill="white"/>
<ellipse cx="95" cy="306.5" rx="10" ry="13.5" fill="white"/>
<path d="M229 302.5C229 305.288 228.664 307.997 228.046 310.194C227.428 312.392 226.564 313.953 225.59 314.628C224.616 315.303 223.589 315.054 222.671 313.921C221.754 312.788 221 310.836 220.528 308.374C220.056 305.913 219.894 303.084 220.068 300.337C220.242 297.591 220.741 295.085 221.486 293.217C222.232 291.35 223.181 290.228 224.182 290.031C225.183 289.834 226.18 290.573 227.012 292.13L224.5 302.5H229Z" fill="white"/>
<ellipse cx="213.168" cy="320.117" rx="9" ry="18.5" transform="rotate(13.8551 213.168 320.117)" fill="white"/>
<ellipse cx="94.5" cy="192" rx="10.5" ry="11" fill="white"/>
<ellipse cx="94.5" cy="192" rx="10.5" ry="11" fill="white"/>
<ellipse cx="94.5" cy="192" rx="10.5" ry="11" fill="white"/>
<path d="M104 173L104.5 191.5L104 211" stroke="white"/>
<rect x="140" y="128" width="41" height="5" fill="white"/>
<rect x="44" y="222" width="22" height="30" fill="white"/>
<rect x="402" y="222" width="22" height="30" fill="white"/>
<path d="M601.122 336.206H725.722V367H564.988V103.56H723.942V134.354H601.122V216.59H706.854V247.384H601.122V336.206ZM769.415 367V79.352H805.371V367H769.415ZM1051.18 170.31C1068.38 170.31 1082.03 175.65 1092.12 186.33C1102.32 197.01 1107.43 214.276 1107.43 238.128V367H1071.47V239.73C1071.47 226.321 1068.74 216.709 1063.28 210.894C1057.94 205.079 1050.53 202.172 1041.03 202.172C1034.15 202.172 1027.15 203.893 1020.03 207.334C1013.03 210.775 1007.15 216.234 1002.41 223.71C1002.76 227.745 1002.94 232.076 1002.94 236.704V367H967.696V239.73C967.696 226.202 965.086 216.59 959.864 210.894C954.762 205.079 947.464 202.172 937.97 202.172C930.732 202.172 923.434 204.13 916.076 208.046C908.838 211.843 902.845 217.717 898.098 225.668V367H862.142V173.336H892.224L894.894 194.696H897.03C903.794 186.627 911.626 180.575 920.526 176.54C929.426 172.387 939.038 170.31 949.362 170.31C959.805 170.31 969.002 172.446 976.952 176.718C984.903 180.99 991.074 187.754 995.464 197.01C1003.18 187.754 1011.84 180.99 1021.45 176.718C1031.18 172.446 1041.09 170.31 1051.18 170.31ZM1387.95 173.336H1421.05L1369.26 367H1328.32L1284.53 209.292L1240.38 367H1199.27L1147.47 173.336H1181.82L1221.69 328.018L1264.59 173.336H1305.53L1347.72 327.128L1387.95 173.336ZM1513.05 170.31C1530.14 170.31 1544.08 172.624 1554.88 177.252C1565.68 181.761 1573.75 189.297 1579.09 199.858C1584.55 210.301 1587.28 224.422 1587.28 242.222V367H1557.55L1554.88 346.174H1552.75C1547.17 354.125 1540.05 360.117 1531.39 364.152C1522.72 368.187 1513.05 370.204 1502.37 370.204C1490.86 370.204 1480.83 368.068 1472.29 363.796C1463.86 359.524 1457.34 353.353 1452.71 345.284C1448.2 337.215 1445.95 327.662 1445.95 316.626C1445.95 298.945 1451.52 285.298 1462.68 275.686C1473.95 265.955 1491.63 260.081 1515.72 258.064L1552.21 254.326V240.442C1552.21 229.881 1550.61 221.633 1547.41 215.7C1544.32 209.767 1539.51 205.554 1532.99 203.062C1526.58 200.57 1518.04 199.324 1507.36 199.324C1500 199.324 1492.05 200.036 1483.5 201.46C1474.96 202.765 1466.65 204.723 1458.58 207.334V178.32C1466.42 175.828 1475.2 173.87 1484.93 172.446C1494.78 171.022 1504.15 170.31 1513.05 170.31ZM1513.05 343.148C1520.29 343.148 1527.29 341.546 1534.06 338.342C1540.94 335.138 1546.99 329.976 1552.21 322.856V277.288L1518.93 280.492C1506.11 281.679 1496.68 285.001 1490.62 290.46C1484.69 295.8 1481.72 303.335 1481.72 313.066C1481.72 323.034 1484.39 330.569 1489.73 335.672C1495.07 340.656 1502.85 343.148 1513.05 343.148ZM1642.34 173.336H1672.24L1675.09 199.324H1677.23C1682.8 189.949 1690.04 182.948 1698.94 178.32C1707.96 173.573 1717.75 171.2 1728.31 171.2C1733.06 171.2 1737.51 171.615 1741.66 172.446V205.732C1737.63 205.02 1732.53 204.664 1726.35 204.664C1716.98 204.664 1707.84 206.919 1698.94 211.428C1690.16 215.819 1683.28 221.989 1678.29 229.94V367H1642.34V173.336ZM1913.92 281.56H1800.89C1801.36 296.512 1803.68 308.379 1807.83 317.16C1811.98 325.941 1818.21 332.231 1826.52 336.028C1834.83 339.825 1845.8 341.724 1859.45 341.724C1872.15 341.724 1887.1 339.351 1904.31 334.604V363.44C1887.58 368.187 1871.14 370.56 1855 370.56C1834.35 370.56 1817.38 367.178 1804.09 360.414C1790.8 353.531 1780.83 342.733 1774.19 328.018C1767.66 313.185 1764.4 293.842 1764.4 269.99C1764.4 236.645 1771.16 211.725 1784.69 195.23C1798.22 178.617 1817.15 170.31 1841.47 170.31C1865.09 170.31 1883.07 178.557 1895.41 195.052C1907.75 211.547 1913.92 236.823 1913.92 270.88V281.56ZM1841.12 195.408C1828.3 195.408 1818.45 200.155 1811.57 209.648C1804.81 219.141 1801.25 235.399 1800.89 258.42H1879.74C1879.51 242.637 1877.84 230.177 1874.76 221.04C1871.67 211.784 1867.34 205.198 1861.77 201.282C1856.31 197.366 1849.42 195.408 1841.12 195.408Z" fill="white"/>
<path d="M601.122 336.206H598.122V339.206H601.122V336.206ZM725.722 336.206H728.722V333.206H725.722V336.206ZM725.722 367V370H728.722V367H725.722ZM564.988 367H561.988V370H564.988V367ZM564.988 103.56V100.56H561.988V103.56H564.988ZM723.942 103.56H726.942V100.56H723.942V103.56ZM723.942 134.354V137.354H726.942V134.354H723.942ZM601.122 134.354V131.354H598.122V134.354H601.122ZM601.122 216.59H598.122V219.59H601.122V216.59ZM706.854 216.59H709.854V213.59H706.854V216.59ZM706.854 247.384V250.384H709.854V247.384H706.854ZM601.122 247.384V244.384H598.122V247.384H601.122ZM601.122 339.206H725.722V333.206H601.122V339.206ZM722.722 336.206V367H728.722V336.206H722.722ZM725.722 364H564.988V370H725.722V364ZM567.988 367V103.56H561.988V367H567.988ZM564.988 106.56H723.942V100.56H564.988V106.56ZM720.942 103.56V134.354H726.942V103.56H720.942ZM723.942 131.354H601.122V137.354H723.942V131.354ZM598.122 134.354V216.59H604.122V134.354H598.122ZM601.122 219.59H706.854V213.59H601.122V219.59ZM703.854 216.59V247.384H709.854V216.59H703.854ZM706.854 244.384H601.122V250.384H706.854V244.384ZM598.122 247.384V336.206H604.122V247.384H598.122ZM769.415 367H766.415V370H769.415V367ZM769.415 79.352V76.352H766.415V79.352H769.415ZM805.371 79.352H808.371V76.352H805.371V79.352ZM805.371 367V370H808.371V367H805.371ZM772.415 367V79.352H766.415V367H772.415ZM769.415 82.352H805.371V76.352H769.415V82.352ZM802.371 79.352V367H808.371V79.352H802.371ZM805.371 364H769.415V370H805.371V364ZM1092.12 186.33L1089.94 188.39L1089.94 188.396L1089.95 188.403L1092.12 186.33ZM1107.43 367V370H1110.43V367H1107.43ZM1071.47 367H1068.47V370H1071.47V367ZM1063.28 210.894L1061.07 212.923L1061.08 212.935L1061.1 212.947L1063.28 210.894ZM1020.03 207.334L1018.72 204.633L1018.71 204.637L1018.7 204.642L1020.03 207.334ZM1002.41 223.71L999.874 222.102L999.329 222.961L999.418 223.974L1002.41 223.71ZM1002.94 367V370H1005.94V367H1002.94ZM967.696 367H964.696V370H967.696V367ZM959.864 210.894L957.609 212.873L957.631 212.897L957.653 212.921L959.864 210.894ZM916.076 208.046L917.47 210.703L917.478 210.698L917.486 210.694L916.076 208.046ZM898.098 225.668L895.522 224.13L895.098 224.841V225.668H898.098ZM898.098 367V370H901.098V367H898.098ZM862.142 367H859.142V370H862.142V367ZM862.142 173.336V170.336H859.142V173.336H862.142ZM892.224 173.336L895.201 172.964L894.873 170.336H892.224V173.336ZM894.894 194.696L891.917 195.068L892.246 197.696H894.894V194.696ZM897.03 194.696V197.696H898.43L899.329 196.623L897.03 194.696ZM920.526 176.54L921.765 179.272L921.78 179.266L921.795 179.259L920.526 176.54ZM976.952 176.718L978.372 174.075L976.952 176.718ZM995.464 197.01L992.754 198.296L994.765 202.535L997.769 198.931L995.464 197.01ZM1021.45 176.718L1020.25 173.971L1020.23 173.977L1021.45 176.718ZM1051.18 173.31C1067.71 173.31 1080.51 178.413 1089.94 188.39L1094.3 184.27C1083.55 172.887 1069.06 167.31 1051.18 167.31V173.31ZM1089.95 188.403C1099.37 198.266 1104.43 214.596 1104.43 238.128H1110.43C1110.43 213.956 1105.27 195.754 1094.29 184.257L1089.95 188.403ZM1104.43 238.128V367H1110.43V238.128H1104.43ZM1107.43 364H1071.47V370H1107.43V364ZM1074.47 367V239.73H1068.47V367H1074.47ZM1074.47 239.73C1074.47 226.043 1071.71 215.486 1065.47 208.841L1061.1 212.947C1065.77 217.932 1068.47 226.598 1068.47 239.73H1074.47ZM1065.49 208.865C1059.47 202.308 1051.18 199.172 1041.03 199.172V205.172C1049.87 205.172 1056.41 207.851 1061.07 212.923L1065.49 208.865ZM1041.03 199.172C1033.63 199.172 1026.19 201.024 1018.72 204.633L1021.33 210.035C1028.11 206.761 1034.66 205.172 1041.03 205.172V199.172ZM1018.7 204.642C1011.14 208.358 1004.88 214.225 999.874 222.102L1004.94 225.318C1009.43 218.243 1014.91 213.193 1021.35 210.026L1018.7 204.642ZM999.418 223.974C999.765 227.909 999.94 232.152 999.94 236.704H1005.94C1005.94 232 1005.76 227.58 1005.39 223.446L999.418 223.974ZM999.94 236.704V367H1005.94V236.704H999.94ZM1002.94 364H967.696V370H1002.94V364ZM970.696 367V239.73H964.696V367H970.696ZM970.696 239.73C970.696 225.966 968.069 215.405 962.076 208.867L957.653 212.921C962.102 217.775 964.696 226.438 964.696 239.73H970.696ZM962.119 208.915C956.32 202.307 948.114 199.172 937.97 199.172V205.172C946.813 205.172 953.203 207.852 957.609 212.873L962.119 208.915ZM937.97 199.172C930.17 199.172 922.392 201.286 914.667 205.398L917.486 210.694C924.475 206.974 931.293 205.172 937.97 205.172V199.172ZM914.683 205.389C906.892 209.476 900.514 215.769 895.522 224.13L900.674 227.206C905.176 219.665 910.784 214.21 917.47 210.703L914.683 205.389ZM895.098 225.668V367H901.098V225.668H895.098ZM898.098 364H862.142V370H898.098V364ZM865.142 367V173.336H859.142V367H865.142ZM862.142 176.336H892.224V170.336H862.142V176.336ZM889.247 173.708L891.917 195.068L897.871 194.324L895.201 172.964L889.247 173.708ZM894.894 197.696H897.03V191.696H894.894V197.696ZM899.329 196.623C905.827 188.871 913.305 183.107 921.765 179.272L919.288 173.808C909.947 178.042 901.761 184.382 894.731 192.769L899.329 196.623ZM921.795 179.259C930.277 175.3 939.454 173.31 949.362 173.31V167.31C938.623 167.31 928.575 169.473 919.258 173.821L921.795 179.259ZM949.362 173.31C959.388 173.31 968.082 175.358 975.532 179.361L978.372 174.075C969.921 169.534 960.222 167.31 949.362 167.31V173.31ZM975.532 179.361C982.844 183.29 988.599 189.537 992.754 198.296L998.175 195.724C993.548 185.971 986.961 178.69 978.372 174.075L975.532 179.361ZM997.769 198.931C1005.23 189.976 1013.54 183.519 1022.67 179.459L1020.23 173.977C1010.14 178.461 1001.12 185.532 993.16 195.089L997.769 198.931ZM1022.66 179.465C1032.03 175.351 1041.53 173.31 1051.18 173.31V167.31C1040.65 167.31 1030.34 169.541 1020.25 173.971L1022.66 179.465ZM1387.95 173.336V170.336H1385.63L1385.04 172.577L1387.95 173.336ZM1421.05 173.336L1423.95 174.111L1424.96 170.336H1421.05V173.336ZM1369.26 367V370H1371.56L1372.15 367.775L1369.26 367ZM1328.32 367L1325.43 367.803L1326.04 370H1328.32V367ZM1284.53 209.292L1287.42 208.489L1284.54 198.121L1281.64 208.483L1284.53 209.292ZM1240.38 367V370H1242.66L1243.27 367.809L1240.38 367ZM1199.27 367L1196.37 367.775L1196.96 370H1199.27V367ZM1147.47 173.336V170.336H1143.56L1144.57 174.111L1147.47 173.336ZM1181.82 173.336L1184.73 172.587L1184.15 170.336H1181.82V173.336ZM1221.69 328.018L1218.79 328.767L1221.59 339.626L1224.58 328.82L1221.69 328.018ZM1264.59 173.336V170.336H1262.31L1261.7 172.534L1264.59 173.336ZM1305.53 173.336L1308.43 172.542L1307.82 170.336H1305.53V173.336ZM1347.72 327.128L1344.82 327.922L1347.79 338.72L1350.62 327.887L1347.72 327.128ZM1387.95 176.336H1421.05V170.336H1387.95V176.336ZM1418.16 172.561L1366.36 366.225L1372.15 367.775L1423.95 174.111L1418.16 172.561ZM1369.26 364H1328.32V370H1369.26V364ZM1331.21 366.197L1287.42 208.489L1281.64 210.095L1325.43 367.803L1331.21 366.197ZM1281.64 208.483L1237.49 366.191L1243.27 367.809L1287.42 210.101L1281.64 208.483ZM1240.38 364H1199.27V370H1240.38V364ZM1202.16 366.225L1150.37 172.561L1144.57 174.111L1196.37 367.775L1202.16 366.225ZM1147.47 176.336H1181.82V170.336H1147.47V176.336ZM1178.92 174.085L1218.79 328.767L1224.6 327.269L1184.73 172.587L1178.92 174.085ZM1224.58 328.82L1267.48 174.138L1261.7 172.534L1218.8 327.216L1224.58 328.82ZM1264.59 176.336H1305.53V170.336H1264.59V176.336ZM1302.64 174.13L1344.82 327.922L1350.61 326.334L1308.43 172.542L1302.64 174.13ZM1350.62 327.887L1390.85 174.095L1385.04 172.577L1344.82 326.369L1350.62 327.887ZM1554.88 177.252L1553.7 180.009L1553.71 180.015L1553.73 180.02L1554.88 177.252ZM1579.09 199.858L1576.41 201.212L1576.42 201.23L1576.43 201.248L1579.09 199.858ZM1587.28 367V370H1590.28V367H1587.28ZM1557.55 367L1554.58 367.382L1554.91 370H1557.55V367ZM1554.88 346.174L1557.86 345.793L1557.52 343.174H1554.88V346.174ZM1552.75 346.174V343.174H1551.19L1550.29 344.451L1552.75 346.174ZM1531.39 364.152L1532.65 366.871L1531.39 364.152ZM1472.29 363.796L1470.93 366.472L1470.94 366.476L1470.95 366.479L1472.29 363.796ZM1452.71 345.284L1450.09 346.747L1450.1 346.762L1450.11 346.777L1452.71 345.284ZM1462.68 275.686L1464.64 277.959L1464.64 277.957L1462.68 275.686ZM1515.72 258.064L1515.97 261.054L1516 261.051L1516.03 261.048L1515.72 258.064ZM1552.21 254.326L1552.52 257.31L1555.21 257.034V254.326H1552.21ZM1547.41 215.7L1544.74 217.084L1544.76 217.105L1544.77 217.125L1547.41 215.7ZM1532.99 203.062L1531.9 205.858L1531.91 205.861L1531.92 205.865L1532.99 203.062ZM1483.5 201.46L1483.96 204.426L1483.98 204.423L1484 204.419L1483.5 201.46ZM1458.58 207.334H1455.58V211.458L1459.51 210.188L1458.58 207.334ZM1458.58 178.32L1457.67 175.461L1455.58 176.126V178.32H1458.58ZM1484.93 172.446L1484.5 169.477L1484.49 169.478L1484.93 172.446ZM1534.06 338.342L1532.79 335.622L1532.78 335.626L1532.77 335.631L1534.06 338.342ZM1552.21 322.856L1554.63 324.63L1555.21 323.838V322.856H1552.21ZM1552.21 277.288H1555.21V273.985L1551.92 274.302L1552.21 277.288ZM1518.93 280.492L1519.2 283.479L1519.21 283.478L1518.93 280.492ZM1490.62 290.46L1492.63 292.69L1492.63 292.688L1490.62 290.46ZM1489.73 335.672L1487.66 337.841L1487.67 337.853L1487.69 337.865L1489.73 335.672ZM1513.05 173.31C1529.9 173.31 1543.4 175.597 1553.7 180.009L1556.06 174.495C1544.76 169.651 1530.38 167.31 1513.05 167.31V173.31ZM1553.73 180.02C1563.86 184.251 1571.39 191.28 1576.41 201.212L1581.77 198.504C1576.11 187.313 1567.5 179.272 1556.04 174.484L1553.73 180.02ZM1576.43 201.248C1581.58 211.098 1584.28 224.68 1584.28 242.222H1590.28C1590.28 224.164 1587.52 209.503 1581.75 198.468L1576.43 201.248ZM1584.28 242.222V367H1590.28V242.222H1584.28ZM1587.28 364H1557.55V370H1587.28V364ZM1560.53 366.618L1557.86 345.793L1551.91 346.555L1554.58 367.382L1560.53 366.618ZM1554.88 343.174H1552.75V349.174H1554.88V343.174ZM1550.29 344.451C1545.01 351.978 1538.3 357.624 1530.12 361.432L1532.65 366.871C1541.8 362.611 1549.33 356.271 1555.2 347.897L1550.29 344.451ZM1530.12 361.432C1521.9 365.262 1512.67 367.204 1502.37 367.204V373.204C1513.44 373.204 1523.55 371.112 1532.65 366.871L1530.12 361.432ZM1502.37 367.204C1491.23 367.204 1481.68 365.138 1473.63 361.113L1470.95 366.479C1479.99 370.998 1490.49 373.204 1502.37 373.204V367.204ZM1473.65 361.12C1465.73 357.108 1459.64 351.345 1455.31 343.791L1450.11 346.777C1455.03 355.362 1461.99 361.94 1470.93 366.472L1473.65 361.12ZM1455.33 343.821C1451.11 336.278 1448.95 327.249 1448.95 316.626H1442.95C1442.95 328.075 1445.29 338.151 1450.09 346.747L1455.33 343.821ZM1448.95 316.626C1448.95 299.625 1454.28 286.886 1464.64 277.959L1460.72 273.413C1448.77 283.71 1442.95 298.264 1442.95 316.626H1448.95ZM1464.64 277.957C1475.22 268.827 1492.15 263.048 1515.97 261.054L1515.47 255.074C1491.11 257.114 1472.69 263.084 1460.72 273.415L1464.64 277.957ZM1516.03 261.048L1552.52 257.31L1551.91 251.342L1515.42 255.08L1516.03 261.048ZM1555.21 254.326V240.442H1549.21V254.326H1555.21ZM1555.21 240.442C1555.21 229.638 1553.58 220.826 1550.05 214.275L1544.77 217.125C1547.64 222.441 1549.21 230.123 1549.21 240.442H1555.21ZM1550.07 214.316C1546.63 207.7 1541.24 203.001 1534.06 200.259L1531.92 205.865C1537.79 208.107 1542.01 211.834 1544.74 217.084L1550.07 214.316ZM1534.08 200.266C1527.18 197.586 1518.22 196.324 1507.36 196.324V202.324C1517.85 202.324 1525.98 203.554 1531.9 205.858L1534.08 200.266ZM1507.36 196.324C1499.81 196.324 1491.69 197.054 1483.01 198.501L1484 204.419C1492.41 203.018 1500.19 202.324 1507.36 202.324V196.324ZM1483.05 198.494C1474.35 199.824 1465.89 201.818 1457.66 204.48L1459.51 210.188C1467.42 207.628 1475.57 205.707 1483.96 204.426L1483.05 198.494ZM1461.58 207.334V178.32H1455.58V207.334H1461.58ZM1459.49 181.179C1467.14 178.745 1475.76 176.819 1485.36 175.414L1484.49 169.478C1474.63 170.921 1465.69 172.911 1457.67 175.461L1459.49 181.179ZM1485.36 175.415C1495.08 174.009 1504.31 173.31 1513.05 173.31V167.31C1503.99 167.31 1494.47 168.035 1484.5 169.477L1485.36 175.415ZM1513.05 346.148C1520.75 346.148 1528.19 344.441 1535.34 341.053L1532.77 335.631C1526.4 338.651 1519.83 340.148 1513.05 340.148V346.148ZM1535.32 341.062C1542.73 337.612 1549.16 332.091 1554.63 324.63L1549.79 321.082C1544.82 327.861 1539.15 332.664 1532.79 335.622L1535.32 341.062ZM1555.21 322.856V277.288H1549.21V322.856H1555.21ZM1551.92 274.302L1518.64 277.506L1519.21 283.478L1552.5 280.274L1551.92 274.302ZM1518.65 277.505C1505.54 278.719 1495.35 282.154 1488.61 288.232L1492.63 292.688C1498 287.849 1506.68 284.638 1519.2 283.479L1518.65 277.505ZM1488.62 288.23C1481.92 294.261 1478.72 302.687 1478.72 313.066H1484.72C1484.72 303.984 1487.47 297.339 1492.63 292.69L1488.62 288.23ZM1478.72 313.066C1478.72 323.557 1481.54 331.996 1487.66 337.841L1491.81 333.503C1487.24 329.143 1484.72 322.511 1484.72 313.066H1478.72ZM1487.69 337.865C1493.77 343.543 1502.39 346.148 1513.05 346.148V340.148C1503.3 340.148 1496.38 337.769 1491.78 333.479L1487.69 337.865ZM1642.34 173.336V170.336H1639.34V173.336H1642.34ZM1672.24 173.336L1675.22 173.009L1674.93 170.336H1672.24V173.336ZM1675.09 199.324L1672.11 199.651L1672.4 202.324H1675.09V199.324ZM1677.23 199.324V202.324H1678.93L1679.8 200.858L1677.23 199.324ZM1698.94 178.32L1700.33 180.982L1700.33 180.978L1700.34 180.975L1698.94 178.32ZM1741.66 172.446H1744.66V169.987L1742.25 169.504L1741.66 172.446ZM1741.66 205.732L1741.14 208.686L1744.66 209.308V205.732H1741.66ZM1698.94 211.428L1700.28 214.111L1700.29 214.108L1700.3 214.104L1698.94 211.428ZM1678.29 229.94L1675.75 228.347L1675.29 229.077V229.94H1678.29ZM1678.29 367V370H1681.29V367H1678.29ZM1642.34 367H1639.34V370H1642.34V367ZM1642.34 176.336H1672.24V170.336H1642.34V176.336ZM1669.26 173.663L1672.11 199.651L1678.07 198.997L1675.22 173.009L1669.26 173.663ZM1675.09 202.324H1677.23V196.324H1675.09V202.324ZM1679.8 200.858C1685.12 191.919 1691.96 185.33 1700.33 180.982L1697.56 175.658C1688.12 180.566 1680.49 187.979 1674.65 197.79L1679.8 200.858ZM1700.34 180.975C1708.91 176.463 1718.22 174.2 1728.31 174.2V168.2C1717.28 168.2 1707.01 170.683 1697.55 175.665L1700.34 180.975ZM1728.31 174.2C1732.89 174.2 1737.14 174.6 1741.07 175.388L1742.25 169.504C1737.88 168.631 1733.23 168.2 1728.31 168.2V174.2ZM1738.66 172.446V205.732H1744.66V172.446H1738.66ZM1742.18 202.778C1737.91 202.024 1732.62 201.664 1726.35 201.664V207.664C1732.43 207.664 1737.34 208.016 1741.14 208.686L1742.18 202.778ZM1726.35 201.664C1716.48 201.664 1706.88 204.044 1697.59 208.752L1700.3 214.104C1708.81 209.794 1717.48 207.664 1726.35 207.664V201.664ZM1697.6 208.745C1688.35 213.37 1681.04 219.907 1675.75 228.347L1680.84 231.533C1685.51 224.071 1691.97 218.268 1700.28 214.111L1697.6 208.745ZM1675.29 229.94V367H1681.29V229.94H1675.29ZM1678.29 364H1642.34V370H1678.29V364ZM1645.34 367V173.336H1639.34V367H1645.34ZM1913.92 281.56V284.56H1916.92V281.56H1913.92ZM1800.89 281.56V278.56H1797.79L1797.89 281.655L1800.89 281.56ZM1807.83 317.16L1805.12 318.443L1807.83 317.16ZM1826.52 336.028L1827.77 333.3L1826.52 336.028ZM1904.31 334.604H1907.31V330.664L1903.51 331.712L1904.31 334.604ZM1904.31 363.44L1905.13 366.326L1907.31 365.707V363.44H1904.31ZM1804.09 360.414L1802.71 363.078L1802.72 363.083L1802.73 363.088L1804.09 360.414ZM1774.19 328.018L1771.44 329.226L1771.45 329.24L1771.46 329.253L1774.19 328.018ZM1784.69 195.23L1787.01 197.132L1787.02 197.124L1784.69 195.23ZM1895.41 195.052L1893.01 196.849L1895.41 195.052ZM1811.57 209.648L1809.14 207.887L1809.13 207.897L1809.13 207.907L1811.57 209.648ZM1800.89 258.42L1797.89 258.374L1797.84 261.42H1800.89V258.42ZM1879.74 258.42V261.42H1882.79L1882.74 258.375L1879.74 258.42ZM1874.76 221.04L1871.91 221.989L1871.92 222L1874.76 221.04ZM1861.77 201.282L1860.02 203.72L1860.03 203.728L1860.04 203.737L1861.77 201.282ZM1913.92 278.56H1800.89V284.56H1913.92V278.56ZM1797.89 281.655C1798.37 296.819 1800.72 309.144 1805.12 318.443L1810.54 315.877C1806.63 307.614 1804.36 296.205 1803.89 281.465L1797.89 281.655ZM1805.12 318.443C1809.55 327.82 1816.28 334.645 1825.27 338.756L1827.77 333.3C1820.15 329.816 1814.41 324.063 1810.54 315.877L1805.12 318.443ZM1825.27 338.756C1834.12 342.799 1845.57 344.724 1859.45 344.724V338.724C1846.04 338.724 1835.54 336.852 1827.77 333.3L1825.27 338.756ZM1859.45 344.724C1872.5 344.724 1887.73 342.288 1905.1 337.496L1903.51 331.712C1886.47 336.414 1871.79 338.724 1859.45 338.724V344.724ZM1901.31 334.604V363.44H1907.31V334.604H1901.31ZM1903.49 360.554C1887 365.231 1870.84 367.56 1855 367.56V373.56C1871.44 373.56 1888.15 371.142 1905.13 366.326L1903.49 360.554ZM1855 367.56C1834.65 367.56 1818.19 364.224 1805.45 357.74L1802.73 363.088C1816.57 370.132 1834.05 373.56 1855 373.56V367.56ZM1805.47 357.75C1792.83 351.203 1783.31 340.934 1776.92 326.783L1771.46 329.253C1778.35 344.531 1788.78 355.86 1802.71 363.078L1805.47 357.75ZM1776.94 326.81C1770.64 312.493 1767.4 293.606 1767.4 269.99H1761.4C1761.4 294.078 1764.69 313.876 1771.44 329.226L1776.94 326.81ZM1767.4 269.99C1767.4 236.969 1774.11 212.862 1787.01 197.132L1782.37 193.328C1768.22 210.588 1761.4 236.32 1761.4 269.99H1767.4ZM1787.02 197.124C1799.89 181.311 1817.91 173.31 1841.47 173.31V167.31C1816.38 167.31 1796.54 175.923 1782.36 193.336L1787.02 197.124ZM1841.47 173.31C1864.3 173.31 1881.32 181.23 1893.01 196.849L1897.81 193.255C1884.81 175.885 1865.88 167.31 1841.47 167.31V173.31ZM1893.01 196.849C1904.78 212.583 1910.92 237.084 1910.92 270.88H1916.92C1916.92 236.561 1910.72 210.51 1897.81 193.255L1893.01 196.849ZM1910.92 270.88V281.56H1916.92V270.88H1910.92ZM1841.12 192.408C1827.44 192.408 1816.65 197.535 1809.14 207.887L1814 211.409C1820.26 202.774 1829.16 198.408 1841.12 198.408V192.408ZM1809.13 207.907C1801.8 218.186 1798.25 235.239 1797.89 258.374L1803.89 258.466C1804.24 235.558 1807.81 220.097 1814.01 211.389L1809.13 207.907ZM1800.89 261.42H1879.74V255.42H1800.89V261.42ZM1882.74 258.375C1882.5 242.452 1880.83 229.64 1877.6 220.08L1871.92 222C1874.86 230.715 1876.51 242.822 1876.74 258.465L1882.74 258.375ZM1877.61 220.091C1874.4 210.48 1869.78 203.241 1863.49 198.827L1860.04 203.737C1864.91 207.155 1868.95 213.088 1871.91 221.989L1877.61 220.091ZM1863.51 198.844C1857.44 194.484 1849.9 192.408 1841.12 192.408V198.408C1848.95 198.408 1855.18 200.248 1860.02 203.72L1863.51 198.844Z" fill="white"/>
</svg>
