<svg width="165" height="82" viewBox="0 0 165 82" fill="none" xmlns="http://www.w3.org/2000/svg">
<path d="M164.635 70.8536H154.128V81.2785H164.635V70.8536Z" fill="white" fill-opacity="0.4"/>
<path d="M132.788 24.4358L139.047 71.0307L145.298 24.4358H155.051L145.929 81.2788H132.061L123.036 24.4358H132.788Z" fill="white" fill-opacity="0.4"/>
<path d="M5.40659 24.4348H0V31.9893H5.40659V81.2778H14.9121V31.9893H21.5895V24.4348H14.9121V12.8802C14.9121 11.1953 15.2647 9.9042 16.0841 9.02425C16.9074 8.14623 18.1704 7.73123 19.8751 7.73123H21.5875V0H18.1491C13.9242 0 9.8562 0.885682 7.91906 2.70898C5.98579 4.53035 5.40659 7.36039 5.40659 11.3951V24.4348Z" fill="white" fill-opacity="0.4"/>
<path d="M24.5479 81.2788H34.0767V24.4358H24.5479V81.2788Z" fill="white" fill-opacity="0.4"/>
<path d="M78.1027 56.0735H97.9662V38.5553C97.9409 28.0747 92.8598 23.7788 83.2381 23.7788C73.2269 23.7788 68.5371 28.0651 68.5371 38.6225V67.411C68.5642 77.0174 74.4299 81.984 83.2322 81.984C92.0346 81.984 97.941 77.8955 97.9662 67.411V62.8595H88.7628L88.7736 68.2545C88.7736 72.1009 87.3208 74.7638 83.4233 74.7638C79.5238 74.7638 78.1019 72.0778 78.1019 68.2487L78.1027 56.0735ZM78.1027 36.6686C78.1027 33.462 78.9434 30.142 83.3969 30.142C87.8504 30.142 88.755 33.4139 88.755 36.6648V48.4134H78.1027V36.6686Z" fill="white" fill-opacity="0.4"/>
<path d="M55.5174 48.9617C48.2899 42.7348 47.7262 41.8356 47.7262 37.1977C47.7262 33.2437 48.0729 30.8382 51.6528 30.8382C55.2287 30.8382 55.6975 33.2148 55.6975 37.2418V42.4889H64.8796V33.9276C64.8505 27.2051 59.6338 23.7852 51.4416 23.7852C43.385 23.7852 38.1276 26.4462 38.0831 37.1977C38.0769 39.0229 38.0846 39.0229 38.0831 38.3178C38.0986 41.6973 38.1141 47.0519 46.5368 54.2202L48.9505 56.2702C55.1551 61.4615 55.837 62.0878 55.806 68.2609C55.8029 72.0651 55.5677 74.9489 51.5404 74.9489C47.5131 74.9489 47.2613 72.0439 47.2613 70.2495V62.9774H37.6221V70.4819C37.6221 79.7156 43.6795 82 51.5288 82C59.3839 82 65.453 79.6945 65.453 67.8114V66.8238C65.4316 58.5239 63.9168 56.2971 55.5174 48.9617Z" fill="white" fill-opacity="0.4"/>
<path d="M110.699 30.2869V24.4347H102.017V81.2758H111.385V41.6628C111.378 38.6003 112.386 36.5849 114.137 35.3937C115.796 34.2601 117.837 33.8758 120.431 33.8393V23.7833C115.46 23.8832 113.318 24.8573 110.796 30.0794L110.699 30.2869Z" fill="white" fill-opacity="0.4"/>
</svg>
