<svg width="2034" height="842" viewBox="0 0 2034 842" fill="none" xmlns="http://www.w3.org/2000/svg">
<path d="M204 296C204.976 296.441 205.952 296.882 206.957 297.336C220.713 304.145 232.36 316.869 240 330C240.617 329.166 241.235 328.332 241.871 327.473C258.41 305.372 279.537 292.208 306.904 287.685C313.904 286.749 320.96 286.814 328.009 286.815C330.166 286.813 332.322 286.794 334.479 286.775C347.019 286.722 359.117 287.768 371 292.063C372.271 292.517 372.271 292.517 373.568 292.981C394.094 300.683 409.625 315.886 418.875 335.625C421.71 341.937 424.098 348.348 426 355C426.264 355.909 426.529 356.818 426.801 357.754C433.474 383.455 432.408 410.217 432.304 436.526C432.285 442.149 432.284 447.772 432.28 453.394C432.271 464.001 432.246 474.607 432.216 485.213C432.182 497.305 432.166 509.398 432.151 521.49C432.12 546.327 432.065 571.163 432 596C404.61 596 377.22 596 349 596C348.975 590.12 348.95 584.24 348.924 578.182C348.841 558.756 348.752 539.33 348.661 519.904C348.605 508.126 348.552 496.348 348.503 484.57C348.46 474.302 348.413 464.034 348.363 453.765C348.337 448.331 348.312 442.896 348.291 437.461C348.271 432.341 348.247 427.22 348.22 422.099C348.21 420.225 348.203 418.351 348.197 416.477C348.646 389.987 348.646 389.987 337 367C331.654 362.411 325.793 359.723 319 358C318.288 357.814 317.577 357.629 316.844 357.438C312.646 356.792 308.491 356.816 304.25 356.813C303.394 356.8 302.538 356.788 301.656 356.775C291.096 356.751 280.937 358.841 272.766 365.941C259.219 380.175 259.701 398.318 259.681 416.743C259.672 418.706 259.662 420.668 259.651 422.631C259.624 427.921 259.608 433.212 259.595 438.502C259.58 444.045 259.553 449.587 259.527 455.13C259.481 465.609 259.444 476.088 259.411 486.567C259.372 498.505 259.323 510.442 259.273 522.379C259.169 546.919 259.082 571.46 259 596C231.61 596 204.22 596 176 596C175.991 589.965 175.981 583.929 175.972 577.711C175.938 557.746 175.883 537.781 175.816 517.816C175.776 505.715 175.744 493.613 175.729 481.511C175.716 470.957 175.689 460.404 175.645 449.85C175.623 444.267 175.607 438.684 175.608 433.101C175.609 427.835 175.591 422.569 175.559 417.303C175.55 415.381 175.549 413.459 175.554 411.537C175.594 395.82 174.984 378.094 163.223 366.203C154.05 358.625 142.754 356.821 131.25 356.813C130.394 356.8 129.538 356.788 128.656 356.775C116.963 356.749 106.423 359.56 97.6875 367.688C85.5525 380.801 85.552 398.108 85.5676 414.927C85.5586 416.909 85.5483 418.891 85.5367 420.874C85.5093 426.218 85.4999 431.562 85.4939 436.906C85.4845 442.505 85.4583 448.103 85.4339 453.702C85.3903 464.287 85.3617 474.873 85.3386 485.458C85.3115 497.516 85.2675 509.574 85.2223 521.633C85.1296 546.422 85.06 571.211 85 596C57.94 596 30.88 596 3 596C3 495.35 3 394.7 3 291C14.55 291 26.1 291 38 291C43.6179 303.359 43.6179 303.359 45.5352 308.883C45.9522 310.07 46.3692 311.257 46.7988 312.48C47.2158 313.683 47.6329 314.886 48.0625 316.125C50.7633 323.892 53.4771 331.562 57 339C57.3777 338.357 57.7554 337.714 58.1445 337.051C73.7783 311.385 96.9654 295.904 126.016 288.762C151.244 283.551 180.635 285.183 204 296Z" fill="white" fill-opacity="0.4"/>
<path d="M618.894 286.609C622.198 286.625 625.5 286.609 628.803 286.59C664.565 286.554 704.331 292.481 732 317C732.685 317.591 733.369 318.181 734.074 318.789C747.004 330.728 754.43 348.02 758.813 364.75C759.008 365.474 759.203 366.198 759.403 366.944C763.243 382.825 763.293 399.482 763.227 415.722C763.227 417.705 763.227 419.688 763.228 421.672C763.229 426.986 763.217 432.301 763.203 437.616C763.19 443.196 763.189 448.776 763.187 454.356C763.181 464.891 763.164 475.427 763.144 485.962C763.122 497.97 763.111 509.977 763.101 521.985C763.08 546.657 763.044 571.328 763 596C751.78 596 740.56 596 729 596C726.056 589.522 723.297 583.425 721.063 576.75C716.221 562.586 716.221 562.586 710 549C709.345 549.883 708.69 550.766 708.016 551.676C688.39 577.682 659.382 594.237 627 599C626.001 599.183 625.002 599.366 623.973 599.555C585.834 605.601 541.008 600.833 508.836 578.18C489.995 563.699 478.823 545.305 474.41 521.867C472.865 507.296 472.351 491.04 477 477C477.329 475.997 477.658 474.994 477.996 473.961C485.335 454.307 499.753 442.126 518 433C519.11 432.445 520.22 431.889 521.363 431.317C553.894 416.317 592.249 415.001 627.398 411.948C631.414 411.597 635.43 411.234 639.446 410.87C643.351 410.518 647.256 410.169 651.161 409.823C653.007 409.659 654.853 409.494 656.699 409.329C659.263 409.1 661.827 408.877 664.392 408.655C665.134 408.588 665.876 408.521 666.64 408.452C671.775 408.016 676.846 407.947 682 408C679.652 382.001 679.652 382.001 664.938 361.258C652.4 352.258 637.634 350.648 622.625 350.75C621.496 350.742 620.367 350.735 619.203 350.727C604.179 350.761 589.435 352.468 578 363C577.34 363 576.68 363 576 363C575.72 363.582 575.441 364.163 575.152 364.762C574 367 574 367 572.817 368.832C567.088 377.88 566.245 388.569 565 399C538.021 400.432 511.007 400.1 484 400C483.98 397.16 483.965 394.321 483.953 391.481C483.947 390.687 483.941 389.892 483.934 389.074C483.862 365.628 490.801 343.622 505 325C505.553 324.262 506.106 323.523 506.676 322.762C526.364 298.384 559.611 290.932 589.119 287.629C599.035 286.637 608.936 286.551 618.894 286.609Z" fill="white" fill-opacity="0.4"/>
<path d="M1453.27 286.739C1456 286.75 1458.72 286.739 1461.45 286.727C1498.47 286.696 1533.35 297.531 1560.19 323.75C1581.01 344.822 1592.65 373.253 1598 402C1598.25 403.302 1598.25 403.302 1598.5 404.631C1601.21 419.958 1601.26 435.296 1601.25 450.813C1601.25 451.829 1601.25 452.846 1601.25 453.894C1601.24 456.811 1601.23 459.728 1601.2 462.645C1601.2 463.529 1601.19 464.413 1601.19 465.324C1601.18 466.556 1601.18 466.556 1601.16 467.812C1601.15 468.885 1601.15 468.885 1601.14 469.979C1601 472 1601 472 1600 476C1532.02 476 1464.04 476 1394 476C1396.49 493.401 1399.92 511.159 1414.21 522.805C1428.06 532.994 1442.49 536.536 1459.5 536.375C1461.34 536.392 1461.34 536.392 1463.22 536.41C1478.11 536.363 1493.12 532.562 1504.5 522.438C1509.2 516.873 1509.2 516.873 1514 504C1542.38 504 1570.76 504 1600 504C1600 511.57 1599.64 516.815 1597.44 523.75C1597.17 524.616 1596.9 525.482 1596.62 526.375C1592.71 538.489 1587 549.062 1579 559C1578.35 559.83 1577.69 560.66 1577.02 561.516C1555.22 587.527 1519.43 597.099 1486.99 600.297C1467.74 601.932 1448.12 601.855 1429 599C1428.3 598.898 1427.59 598.796 1426.87 598.691C1397.02 594.26 1370.72 584.458 1349 563C1348.29 562.358 1347.57 561.716 1346.84 561.055C1327.64 543.39 1319.17 516.055 1313.75 491.375C1313.52 490.358 1313.52 490.358 1313.29 489.32C1310.38 475.106 1309.62 460.659 1309.69 446.188C1309.69 445.396 1309.69 444.605 1309.69 443.79C1309.86 399.361 1318.03 355.611 1349.37 322.25C1350.56 321.141 1351.77 320.06 1353 319C1353.87 318.246 1354.75 317.492 1355.65 316.715C1370.87 304.103 1389.24 296.009 1408.31 291.313C1409.13 291.11 1409.95 290.907 1410.79 290.698C1424.9 287.412 1438.84 286.672 1453.27 286.739Z" fill="white" fill-opacity="0.4"/>
<path d="M1023 175C1050.06 175 1077.12 175 1105 175C1105.33 249.25 1105.66 323.5 1106 400C1111.35 394.06 1116.49 388.225 1121.5 382.039C1124.38 378.539 1127.34 375.109 1130.31 371.688C1130.86 371.054 1131.41 370.421 1131.98 369.768C1133.1 368.482 1134.22 367.196 1135.34 365.91C1141.46 358.867 1147.56 351.81 1153.44 344.562C1158.59 338.217 1163.97 332.075 1169.34 325.91C1176.27 317.936 1183.14 309.924 1189.77 301.695C1190.51 300.806 1191.24 299.916 1192 299C1192.45 298.346 1192.9 297.692 1193.37 297.019C1195.7 293.895 1197.58 291.432 1201.39 290.273C1204.26 290.017 1207.02 290.009 1209.89 290.092C1211.5 290.09 1211.5 290.09 1213.15 290.088C1216.68 290.094 1220.21 290.156 1223.75 290.219C1226.2 290.234 1228.66 290.245 1231.11 290.253C1237.57 290.284 1244.02 290.362 1250.47 290.451C1257.06 290.533 1263.65 290.569 1270.24 290.609C1283.16 290.695 1296.08 290.83 1309 291C1305.64 295.618 1302.27 299.977 1298.21 304.004C1297.31 304.898 1296.41 305.793 1295.49 306.715C1294.52 307.664 1293.56 308.613 1292.6 309.562C1291.59 310.563 1290.59 311.563 1289.58 312.565C1286.95 315.183 1284.31 317.796 1281.67 320.407C1277.45 324.583 1273.24 328.766 1269.03 332.952C1267.57 334.399 1266.11 335.842 1264.65 337.285C1260.18 341.727 1255.87 346.219 1251.77 351.004C1248.23 355 1244.39 358.713 1240.59 362.469C1239.71 363.348 1238.83 364.228 1237.92 365.135C1234.64 368.397 1231.36 371.654 1228.08 374.911C1224.85 378.115 1221.63 381.323 1218.41 384.531C1217.57 385.362 1216.73 386.192 1215.86 387.048C1211.64 391.258 1207.59 395.545 1203.7 400.069C1200.72 403.45 1197.52 406.606 1194.32 409.781C1193.62 410.48 1192.92 411.179 1192.19 411.899C1189.99 414.102 1187.77 416.301 1185.56 418.5C1184.05 420.005 1182.54 421.51 1181.03 423.016C1177.36 426.68 1173.68 430.341 1170 434C1171.68 438.658 1174.13 441.457 1177.69 444.812C1181.75 448.698 1185.54 452.702 1189.22 456.958C1192.12 460.283 1195.16 463.48 1198.19 466.688C1199.51 468.093 1200.83 469.5 1202.16 470.906C1202.81 471.597 1203.46 472.288 1204.12 473C1206.83 475.882 1209.51 478.782 1212.19 481.688C1212.67 482.213 1213.16 482.739 1213.66 483.281C1215.1 484.853 1216.55 486.427 1218 488C1219.96 490.126 1221.92 492.251 1223.88 494.375C1224.36 494.906 1224.85 495.436 1225.36 495.983C1229.24 500.191 1233.15 504.379 1237.06 508.562C1242.13 513.98 1247.15 519.432 1252.16 524.906C1255.41 528.46 1258.71 531.979 1262 535.5C1267.09 540.938 1272.13 546.41 1277.16 551.906C1280.41 555.46 1283.71 558.979 1287 562.5C1292.11 567.969 1297.2 573.466 1302.25 578.996C1304.27 581.208 1306.3 583.405 1308.35 585.598C1308.9 586.196 1309.46 586.795 1310.03 587.412C1311.12 588.577 1312.21 589.74 1313.29 590.901C1317 594.888 1317 594.888 1317 596C1302.9 596.399 1288.8 596.697 1274.7 596.881C1268.15 596.969 1261.6 597.089 1255.05 597.282C1248.72 597.468 1242.4 597.569 1236.07 597.613C1233.66 597.644 1231.26 597.705 1228.85 597.797C1210.56 598.471 1210.56 598.471 1204.64 594.363C1200.48 590.441 1197.33 585.986 1194.35 581.131C1192.3 577.895 1189.91 574.969 1187.5 572C1186.61 570.866 1185.73 569.731 1184.84 568.594C1181.63 564.505 1178.32 560.504 1175 556.5C1170.29 550.807 1165.65 545.062 1161.11 539.234C1155.51 532.07 1149.75 525.042 1144 518C1137.8 510.399 1131.6 502.797 1125.56 495.062C1119.17 486.942 1112.57 478.979 1106 471C1105.67 512.25 1105.34 553.5 1105 596C1077.94 596 1050.88 596 1023 596C1023 457.07 1023 318.14 1023 175Z" fill="white" fill-opacity="0.4"/>
<path d="M1663 215C1689.07 215 1715.14 215 1742 215C1742 240.08 1742 265.16 1742 291C1768.4 291 1794.8 291 1822 291C1822 313.11 1822 335.22 1822 358C1796.59 358 1771.18 358 1745 358C1745.06 383.859 1745.06 383.859 1745.16 409.717C1745.21 420.266 1745.25 430.815 1745.27 441.365C1745.28 449.049 1745.31 456.733 1745.35 464.417C1745.38 468.483 1745.39 472.548 1745.39 476.613C1745.39 480.447 1745.41 484.281 1745.44 488.115C1745.45 489.515 1745.45 490.915 1745.45 492.315C1745.41 501.513 1745.91 510.559 1751.63 518.177C1753 520 1753 520 1753 522C1753.85 522.42 1753.85 522.42 1754.73 522.848C1756.2 523.593 1757.65 524.37 1759.09 525.184C1772.85 532.722 1787.15 532.394 1802.38 532.188C1812.09 532.095 1812.09 532.095 1822 532C1822 554.11 1822 576.22 1822 599C1802.37 601.31 1802.37 601.31 1793.61 601.301C1792.62 601.305 1791.63 601.309 1790.62 601.314C1788.55 601.319 1786.48 601.32 1784.42 601.316C1781.33 601.313 1778.25 601.336 1775.17 601.361C1757.98 601.417 1740.53 600.325 1724 595.25C1722.71 594.867 1722.71 594.867 1721.4 594.476C1710.09 590.966 1699.88 585.959 1691 578C1690.18 577.283 1689.36 576.567 1688.51 575.828C1670.1 558.725 1663.94 532.388 1662.82 508.082C1662.76 504.07 1662.75 500.06 1662.77 496.047C1662.77 494.527 1662.77 493.008 1662.77 491.488C1662.77 487.419 1662.78 483.35 1662.8 479.281C1662.81 475.007 1662.81 470.734 1662.81 466.46C1662.82 458.393 1662.84 450.326 1662.86 442.259C1662.88 433.064 1662.89 423.869 1662.9 414.674C1662.92 395.783 1662.96 376.891 1663 358C1648.15 358 1633.3 358 1618 358C1618 344.47 1618 330.94 1618 317C1622.24 314.68 1622.24 314.68 1626.56 312.312C1632.53 309.044 1638.47 305.744 1644.38 302.375C1645.42 301.782 1646.46 301.188 1647.53 300.577C1649.58 299.41 1651.62 298.24 1653.66 297.066C1655.05 296.269 1655.05 296.269 1656.48 295.457C1657.3 294.982 1658.13 294.508 1658.98 294.019C1661 293 1661 293 1663 293C1663 267.26 1663 241.52 1663 215Z" fill="white" fill-opacity="0.4"/>
<path d="M961.375 285.875C962.435 285.871 963.494 285.867 964.586 285.863C983.887 285.887 983.887 285.887 986 288C986.094 290.27 986.117 292.543 986.114 294.815C986.114 295.527 986.114 296.239 986.114 296.973C986.113 299.337 986.105 301.702 986.098 304.066C986.096 305.702 986.094 307.337 986.093 308.972C986.09 313.284 986.08 317.597 986.069 321.909C986.058 326.306 986.054 330.703 986.049 335.1C986.038 343.733 986.021 352.367 986 361C984.98 360.992 984.98 360.992 983.94 360.984C980.814 360.963 977.688 360.95 974.562 360.938C973.493 360.929 972.424 360.921 971.322 360.912C953.189 360.857 935.391 364.514 921.953 377.695C901.388 401.963 903.535 435.018 903.494 464.851C903.484 469.476 903.458 474.1 903.434 478.725C903.391 487.447 903.362 496.169 903.339 504.891C903.306 516.702 903.251 528.513 903.197 540.324C903.113 558.883 903.059 577.441 903 596C876.27 596 849.54 596 822 596C822 495.35 822 394.7 822 291C833.22 291 844.44 291 856 291C858.93 298.324 861.859 305.648 864.789 312.973C865.048 313.62 865.308 314.267 865.575 314.934C866.959 318.389 868.336 321.846 869.702 325.308C869.976 326 870.251 326.693 870.533 327.406C871.058 328.733 871.582 330.061 872.103 331.389C873.17 334.425 873.17 334.425 875 337C875.522 336.068 876.044 335.136 876.582 334.176C888.637 313.111 905.121 296.329 929.102 289.738C930.536 289.373 930.536 289.373 932 289C932.75 288.787 933.5 288.575 934.273 288.355C943.2 285.903 952.192 285.842 961.375 285.875Z" fill="white" fill-opacity="0.4"/>
<path d="M876 690C886.89 690 897.78 690 909 690C913.039 700.281 913.039 700.281 914.442 703.853C916.581 709.297 918.72 714.741 920.858 720.185C922.136 723.437 923.414 726.689 924.691 729.941C924.951 730.602 925.211 731.263 925.478 731.944C928.804 740.41 932.13 748.877 935.455 757.343C936.416 759.79 937.377 762.236 938.338 764.683C940.669 770.617 943 776.552 945.329 782.487C949.291 792.58 953.259 802.669 957.27 812.742C957.896 814.318 958.522 815.895 959.148 817.471C960.259 820.268 961.377 823.062 962.498 825.855C962.971 827.044 963.443 828.232 963.93 829.457C964.537 830.973 964.537 830.973 965.156 832.519C966 835 966 835 966 838C956.43 838 946.86 838 937 838C933.053 829.119 929.522 820.057 926 811C903.89 811 881.78 811 859 811C853.555 824.365 853.555 824.365 848 838C838.1 838 828.2 838 818 838C822.22 826.709 826.487 815.438 830.812 804.188C831.132 803.357 831.451 802.527 831.779 801.672C838.596 783.953 845.566 766.295 852.57 748.649C855.475 741.328 858.371 734.004 861.266 726.68C862.581 723.352 863.897 720.024 865.212 716.696C866.067 714.532 866.922 712.368 867.777 710.205C868.965 707.197 870.154 704.19 871.344 701.184C871.7 700.281 872.057 699.378 872.424 698.447C872.913 697.212 872.913 697.212 873.412 695.951C873.696 695.232 873.98 694.514 874.273 693.773C875 692 875 692 876 690Z" fill="white" fill-opacity="0.4"/>
<path d="M410 690C495.348 690 495.348 690 510.75 704.125C520.521 714.38 523.531 726.373 523.312 740.117C522.319 752.459 517.203 763.26 508.312 771.812C497.555 780.954 485.585 783.34 471.84 783.195C470.468 783.192 470.468 783.192 469.068 783.189C465.691 783.179 462.314 783.151 458.938 783.125C447.583 783.063 447.583 783.063 436 783C436 801.15 436 819.3 436 838C427.42 838 418.84 838 410 838C410 789.16 410 740.32 410 690Z" fill="white" fill-opacity="0.4"/>
<path d="M1301 691C1334.33 691 1367.66 691 1402 691C1402 698.59 1402 706.18 1402 714C1377.25 714 1352.5 714 1327 714C1327 726.21 1327 738.42 1327 751C1351.42 751 1375.84 751 1401 751C1401 758.59 1401 766.18 1401 774C1376.58 774 1352.16 774 1327 774C1327 787.53 1327 801.06 1327 815C1351.75 815 1376.5 815 1402 815C1402 822.59 1402 830.18 1402 838C1368.67 838 1335.34 838 1301 838C1301 789.49 1301 740.98 1301 691Z" fill="white" fill-opacity="0.4"/>
<path d="M1155 691C1155.99 691.364 1156.98 691.727 1158 692.102C1171.96 697.512 1184.24 707.022 1192 720C1192 720.66 1192 721.32 1192 722C1185.07 725.63 1178.14 729.26 1171 733C1166 728 1166 728 1164.02 725.414C1161.81 722.769 1159.66 721.199 1156.75 719.375C1155.86 718.805 1154.97 718.236 1154.05 717.649C1147.12 713.9 1141.44 712.529 1133.56 712.688C1132.77 712.684 1131.97 712.681 1131.15 712.678C1117.7 712.798 1106.83 717.555 1097 726.809C1090.89 733.507 1087.76 741.482 1085 750C1084.67 750.99 1084.34 751.98 1084 753C1083.77 756.204 1083.82 759.414 1083.81 762.625C1083.79 763.923 1083.79 763.923 1083.78 765.246C1083.74 779.885 1088.63 793.467 1099 804C1109.14 813.032 1121.66 817.126 1135.1 816.418C1150.72 814.744 1160.18 807.749 1170 796C1174.84 797.765 1179.28 800.195 1183.81 802.625C1184.6 803.045 1185.39 803.466 1186.2 803.899C1188.14 804.93 1190.07 805.964 1192 807C1190.57 811.418 1188.18 814.467 1185.06 817.813C1184.58 818.336 1184.09 818.859 1183.59 819.399C1176.92 826.401 1169.04 832.429 1160 836C1159.14 836.371 1158.27 836.743 1157.38 837.125C1141.52 842.828 1119.5 842.817 1104 836C1103.36 835.726 1102.72 835.453 1102.07 835.17C1082.02 826.416 1068.18 812.305 1060 792C1052.74 772.743 1054.03 749.319 1062.24 730.641C1070.78 712.367 1086.26 699.094 1104.98 691.996C1120.41 686.911 1139.57 684.82 1155 691Z" fill="white" fill-opacity="0.4"/>
<path d="M682 463C683.192 482.638 678.654 503.83 666 519.188C654.064 531.764 636.95 536.687 620.004 537.203C601.289 537.47 581.218 536.81 567 523C560.459 515.213 558.446 507.665 558.696 497.606C559.477 490.922 563.645 486.769 568.692 482.629C585.171 471.001 607.951 470.545 627.25 468.375C629.851 468.074 632.451 467.772 635.051 467.469C646.209 466.176 657.372 464.929 668.547 463.789C669.744 463.665 669.744 463.665 670.964 463.539C674.657 463.173 678.289 462.907 682 463Z" fill="white" fill-opacity="0.4"/>
<path d="M521 113C529.056 119.211 534.905 127.956 537 138C538.168 154.545 537.59 169.518 527 183C521.852 188.746 516.28 191.656 509 194C507.804 194.413 506.608 194.825 505.375 195.25C492.567 198.108 480.361 196.085 469.25 189.25C460.254 182.808 454.29 173.908 452 163C451.726 159.15 451.723 155.297 451.688 151.438C451.659 150.403 451.63 149.369 451.6 148.303C451.5 136.042 455.738 125.885 463.965 116.84C480.052 101.276 502.792 101.845 521 113Z" fill="white" fill-opacity="0.4"/>
<path d="M1453.94 350.75C1455.04 350.742 1456.14 350.735 1457.28 350.727C1473.61 350.765 1488.03 354.486 1500.05 365.961C1509.23 375.551 1513.62 387.106 1515.12 400.125C1515.21 400.815 1515.3 401.504 1515.39 402.215C1515.83 405.864 1516 409.31 1516 413C1475.74 413 1435.48 413 1394 413C1394 406.141 1394.12 400.862 1395.75 394.438C1395.93 393.701 1396.11 392.964 1396.3 392.205C1397.67 386.849 1399.27 381.838 1402 377C1402.41 376.268 1402.81 375.536 1403.23 374.781C1410.11 363.505 1420.43 355.88 1433.18 352.407C1440.1 350.83 1446.86 350.701 1453.94 350.75Z" fill="white" fill-opacity="0.4"/>
<path d="M1955.83 79.4824C1956.61 79.4754 1957.39 79.4684 1958.2 79.4612C1960.79 79.4436 1963.38 79.4553 1965.97 79.4688C1967.77 79.4661 1969.57 79.4622 1971.37 79.4572C1975.14 79.4513 1978.92 79.4599 1982.69 79.4785C1987.52 79.5013 1992.36 79.4882 1997.2 79.4643C2000.91 79.4498 2004.63 79.4544 2008.35 79.4648C2010.13 79.4674 2011.92 79.4642 2013.7 79.4548C2016.19 79.4447 2018.68 79.4602 2021.17 79.4824C2021.91 79.4744 2022.65 79.4663 2023.41 79.4579C2026.62 79.5111 2028.71 79.8196 2031.46 81.5365C2033.6 84.951 2033.55 88.0286 2033.5 91.9339C2033.51 93.1272 2033.51 93.1272 2033.52 94.3446C2033.53 96.971 2033.51 99.5963 2033.5 102.223C2033.5 104.048 2033.5 105.874 2033.5 107.699C2033.5 111.523 2033.49 115.347 2033.47 119.171C2033.44 124.076 2033.44 128.981 2033.45 133.886C2033.46 137.655 2033.45 141.424 2033.44 145.192C2033.44 147.001 2033.44 148.81 2033.44 150.619C2033.44 153.145 2033.43 155.67 2033.4 158.196C2033.41 158.945 2033.41 159.695 2033.42 160.467C2033.38 163.384 2033.34 165.488 2031.71 167.964C2025.95 171.456 2016.14 168.41 2010.04 167.102C1988.23 161.552 1969.09 146.777 1957 128C1949.55 115.395 1942.82 98.8917 1944 84C1947.16 79.4351 1950.66 79.4257 1955.83 79.4824Z" fill="white" fill-opacity="0.4"/>
<path d="M1805.85 81.4337C1821.2 84.5686 1835.32 92.7838 1847 103C1847.66 103.56 1848.32 104.119 1849 104.695C1864.08 118.557 1873.54 139.158 1875.2 159.435C1875.41 165.368 1875.41 165.368 1873.97 167.597C1870.94 169.758 1867.78 169.426 1864.2 169.404C1863 169.414 1863 169.414 1861.79 169.425C1859.16 169.443 1856.54 169.439 1853.91 169.434C1852.09 169.438 1850.26 169.444 1848.44 169.45C1844.61 169.458 1840.79 169.456 1836.96 169.446C1832.06 169.435 1827.15 169.455 1822.25 169.484C1818.48 169.502 1814.71 169.502 1810.94 169.496C1809.13 169.496 1807.33 169.502 1805.52 169.515C1802.99 169.53 1800.46 169.519 1797.93 169.502C1797.19 169.511 1796.44 169.521 1795.67 169.531C1792.42 169.485 1790.31 169.193 1787.54 167.458C1785.42 164.075 1785.44 161.043 1785.48 157.174C1785.48 156.39 1785.47 155.605 1785.46 154.798C1785.44 152.208 1785.46 149.62 1785.47 147.031C1785.47 145.231 1785.46 143.43 1785.46 141.629C1785.45 137.856 1785.46 134.084 1785.48 130.311C1785.5 125.475 1785.49 120.64 1785.46 115.805C1785.45 112.087 1785.45 108.369 1785.46 104.651C1785.47 102.868 1785.46 101.085 1785.45 99.3016C1785.44 96.8093 1785.46 94.3184 1785.48 91.8262C1785.47 91.0895 1785.47 90.3527 1785.46 89.5937C1785.51 86.1615 1785.77 84.3066 1787.86 81.5283C1792.81 77.9972 1800.2 80.5737 1805.85 81.4337Z" fill="white" fill-opacity="0.4"/>
<path d="M1876.82 0.611954C1877.62 0.606697 1878.41 0.60144 1879.23 0.596024C1881.86 0.58281 1884.49 0.591566 1887.13 0.6017C1888.95 0.59968 1890.78 0.596769 1892.61 0.593002C1896.44 0.588577 1900.27 0.595016 1904.1 0.609024C1909.01 0.626116 1913.92 0.616276 1918.83 0.598307C1922.61 0.587474 1926.38 0.590913 1930.15 0.59869C1931.97 0.600694 1933.78 0.598228 1935.59 0.591252C1938.12 0.583646 1940.65 0.595229 1943.18 0.611954C1944.31 0.602845 1944.31 0.602845 1945.46 0.593552C1950.51 0.655478 1950.51 0.655478 1952.96 2.36571C1955.87 6.94168 1954.58 13.9888 1953.61 19.0455C1948.28 41.9933 1934.97 62.9768 1915 75.8751C1906.13 81.3634 1897.41 85.0622 1887.38 87.8126C1886.59 88.0321 1885.8 88.2516 1884.99 88.4777C1879.82 89.8124 1874.32 91.0185 1869 90.0001C1867.4 88.9715 1867.4 88.9715 1866 87.0001C1865.7 84.2865 1865.59 81.8023 1865.61 79.088C1865.61 78.2829 1865.6 77.4777 1865.6 76.6481C1865.58 73.984 1865.59 71.3205 1865.6 68.6564C1865.6 66.807 1865.6 64.9576 1865.59 63.1082C1865.59 59.2311 1865.6 55.3542 1865.61 51.4772C1865.63 46.5035 1865.62 41.5303 1865.6 36.5567C1865.59 32.7374 1865.59 28.9183 1865.6 25.0991C1865.6 23.265 1865.6 21.4309 1865.59 19.5969C1865.58 17.0351 1865.6 14.474 1865.61 11.9122C1865.61 11.1516 1865.6 10.391 1865.59 9.60736C1865.63 6.80716 1865.72 4.53606 1867.04 2.02989C1870.17 0.385987 1873.36 0.584016 1876.82 0.611954Z" fill="white" fill-opacity="0.4"/>
<path d="M1952 160C1954.53 162.528 1954.24 164.109 1954.27 167.558C1954.27 168.333 1954.26 169.108 1954.26 169.907C1954.26 170.723 1954.27 171.539 1954.27 172.38C1954.28 175.087 1954.27 177.794 1954.27 180.5C1954.27 182.376 1954.27 184.252 1954.27 186.127C1954.27 190.062 1954.27 193.996 1954.26 197.93C1954.25 202.981 1954.26 208.032 1954.27 213.083C1954.28 216.957 1954.27 220.831 1954.27 224.705C1954.27 226.568 1954.27 228.431 1954.27 230.294C1954.28 232.894 1954.27 235.494 1954.26 238.094C1954.26 238.869 1954.27 239.644 1954.27 240.443C1954.23 245.772 1954.23 245.772 1952 248C1949.33 248.199 1946.76 248.273 1944.09 248.259C1943.28 248.263 1942.46 248.266 1941.62 248.27C1938.91 248.279 1936.21 248.273 1933.5 248.266C1931.62 248.267 1929.75 248.269 1927.87 248.272C1923.94 248.275 1920 248.27 1916.07 248.261C1911.02 248.25 1905.97 248.256 1900.92 248.268C1897.04 248.275 1893.17 248.273 1889.3 248.268C1887.43 248.267 1885.57 248.268 1883.71 248.273C1881.11 248.278 1878.51 248.27 1875.91 248.259C1875.13 248.263 1874.36 248.267 1873.56 248.271C1868.23 248.229 1868.23 248.229 1866 246C1863.38 228.375 1872.09 210.063 1882 196.063C1883.32 194.361 1884.65 192.673 1886 191C1886.89 189.852 1886.89 189.852 1887.79 188.68C1899.76 174.065 1919.11 163.979 1937.44 160.313C1942.27 159.889 1947.16 159.527 1952 160Z" fill="white" fill-opacity="0.4"/>
<path d="M632 690C640.58 690 649.16 690 658 690C658 731.25 658 772.5 658 815C679.45 815 700.9 815 723 815C723 822.59 723 830.18 723 838C692.97 838 662.94 838 632 838C632 789.16 632 740.32 632 690Z" fill="white" fill-opacity="0.4"/>
<path d="M593 107C595.728 106.972 598.456 106.95 601.184 106.934C602.336 106.921 602.336 106.921 603.512 106.907C612.694 106.865 618.359 108.827 625.176 115.086C629.288 119.401 632.214 123.968 634.891 129.27C635.201 129.874 635.512 130.479 635.832 131.101C636.977 133.335 638.113 135.574 639.25 137.813C641.808 142.825 644.365 147.837 647 153C647.33 137.82 647.66 122.64 648 107C662 107 662 107 665.688 108.688C669.717 112.718 671.337 115.78 671.373 121.572C671.363 122.284 671.352 122.995 671.341 123.728C671.341 124.87 671.341 124.87 671.342 126.036C671.34 128.541 671.317 131.046 671.293 133.551C671.288 135.293 671.283 137.034 671.28 138.776C671.269 143.351 671.239 147.926 671.206 152.501C671.175 157.174 671.162 161.846 671.147 166.518C671.115 175.679 671.063 184.84 671 194C668.449 194.055 665.899 194.094 663.348 194.125C662.273 194.15 662.273 194.15 661.177 194.176C654.054 194.241 648.66 192.507 643.437 187.502C637.853 181.57 634.193 174.638 630.375 167.5C629.095 165.134 627.81 162.77 626.524 160.407C625.966 159.368 625.408 158.33 624.834 157.26C622.681 153.433 620.327 149.723 618 146C617.67 161.84 617.34 177.68 617 194C603 194 603 194 598 191C593.642 186.036 592.854 183.163 592.887 176.705C592.887 175.954 592.886 175.202 592.886 174.428C592.887 171.939 592.895 169.45 592.903 166.961C592.904 165.238 592.906 163.514 592.907 161.791C592.911 157.25 592.92 152.709 592.932 148.169C592.942 143.537 592.946 138.905 592.951 134.274C592.962 125.183 592.979 116.091 593 107Z" fill="white" fill-opacity="0.4"/>
<path d="M112 107C114.257 106.953 116.513 106.919 118.77 106.891C120.026 106.871 121.283 106.85 122.578 106.829C127.151 107.058 128.763 107.85 132 111C135.216 114.66 136.119 117.746 136.158 122.56C136.168 123.481 136.178 124.403 136.189 125.352C136.196 126.346 136.204 127.34 136.211 128.364C136.239 130.468 136.268 132.573 136.297 134.678C136.338 137.996 136.375 141.314 136.402 144.632C136.429 147.834 136.475 151.036 136.524 154.239C136.527 155.226 136.53 156.214 136.533 157.232C136.63 162.634 137.154 166.253 140 171C140 171.66 140 172.32 140 173C146.657 175.267 152.422 175.464 159.375 174.563C162.899 172.465 163.216 170.588 164.391 166.774C165.561 161.448 165.483 156.086 165.512 150.653C165.53 149.4 165.548 148.148 165.566 146.857C165.611 143.558 165.643 140.259 165.67 136.959C165.7 133.58 165.746 130.201 165.791 126.823C165.876 120.215 165.944 113.608 166 107C168.376 106.891 170.748 106.813 173.125 106.75C173.79 106.717 174.456 106.683 175.141 106.649C180.294 106.548 183.103 107.679 187 111C191.011 115.541 190.451 120.785 190.434 126.532C190.439 127.559 190.444 128.587 190.45 129.645C190.456 131.821 190.455 133.996 190.446 136.171C190.438 139.461 190.466 142.749 190.498 146.039C190.594 174.309 190.594 174.309 180 185C170.207 193.882 159.735 196.411 146.735 196.274C136.71 195.54 128.072 192.23 121 185C112.662 175.141 111.55 164.668 111.707 152.117C111.714 150.174 111.714 150.174 111.72 148.192C111.731 144.782 111.761 141.373 111.794 137.963C111.825 134.471 111.839 130.978 111.854 127.485C111.886 120.656 111.937 113.828 112 107Z" fill="white" fill-opacity="0.4"/>
<path d="M304.223 110.461C307.325 112.971 309.594 115.207 311 119C311.196 122.235 311.196 122.235 311.125 125.75C311.107 126.921 311.089 128.091 311.071 129.297C311.047 130.189 311.024 131.081 311 132C305.904 131.433 301.644 130.255 296.813 128.438C288.249 125.405 279.591 124.182 271 128C271 130.64 271 133.28 271 136C275.468 138.449 279.812 139.835 284.75 140.938C295.229 143.445 305.675 145.974 311.664 155.703C313.205 159.506 313.499 162.834 313.438 166.875C313.43 167.584 313.421 168.293 313.413 169.024C313.232 174.607 312.455 178.607 309 183C308.538 183.611 308.075 184.222 307.598 184.852C301.951 191.341 293.419 194.781 285 196C262.587 197.026 262.587 197.026 254 190C249.329 185.063 247.871 182.187 247.938 175.375C247.947 174.187 247.956 172.998 247.965 171.774C247.977 170.859 247.988 169.943 248 169C251.839 167.721 252.702 168.554 256.25 170.313C265.21 174.524 275.036 177.341 284.836 174.047C286.929 173.181 286.929 173.181 288 172C288.041 169.667 288.043 167.333 288 165C282.754 161.658 278.27 160.168 272.188 159.063C262.74 157.131 254.201 154.831 248.121 146.805C244.217 140.52 244.625 134.01 246 127C248.571 118.994 254.314 113.388 261.438 109.188C274.24 102.68 291.962 102.402 304.223 110.461Z" fill="white" fill-opacity="0.4"/>
<path d="M16.747 106.886C17.7077 106.887 18.6685 106.887 19.6584 106.887C20.6929 106.892 21.7273 106.897 22.7931 106.902C24.3849 106.904 24.3849 106.904 26.0088 106.907C29.4018 106.912 32.7947 106.925 36.1876 106.937C38.4865 106.942 40.7853 106.947 43.0841 106.951C48.7228 106.962 54.3615 106.979 60.0001 107C60.1088 109.061 60.186 111.124 60.2501 113.187C60.2966 114.336 60.343 115.485 60.3908 116.668C59.9197 120.686 58.8567 122.188 56.0001 125C52.6668 127.335 49.7048 127.233 45.7033 127.195C43.8954 127.186 43.8954 127.186 42.0509 127.176C40.1695 127.151 40.1695 127.151 38.2501 127.125C36.9804 127.116 35.7107 127.107 34.4025 127.098C31.2683 127.074 28.1342 127.038 25.0001 127C25.0001 132.28 25.0001 137.56 25.0001 143C34.9001 143 44.8001 143 55.0001 143C55.0001 155.556 55.0001 155.556 52.0001 159C48.6012 161.266 47.437 161.237 43.4572 161.195C42.4901 161.19 41.5231 161.185 40.5268 161.18C39.3011 161.162 38.0754 161.144 36.8126 161.125C32.9145 161.084 29.0164 161.042 25.0001 161C25.0001 171.89 25.0001 182.78 25.0001 194C9.00015 194 9.00015 194 4.00015 191C0.92028 187.106 0.6217 184.071 0.611964 179.178C0.606707 178.512 0.60145 177.846 0.596034 177.16C0.582886 174.971 0.591553 172.783 0.60171 170.594C0.599688 169.066 0.596775 167.538 0.593012 166.01C0.588596 162.812 0.594998 159.615 0.609034 156.417C0.626126 152.325 0.616281 148.233 0.598317 144.141C0.58746 140.987 0.590934 137.834 0.5987 134.68C0.600697 133.172 0.598261 131.663 0.591262 130.154C0.583616 128.043 0.595294 125.933 0.611964 123.822C0.614351 122.623 0.616737 121.423 0.619197 120.187C1.18842 115.425 2.98483 112.914 6.50015 109.75C10.0037 107.297 12.5799 106.875 16.747 106.886Z" fill="white" fill-opacity="0.4"/>
<path d="M436 714C442.909 713.897 449.819 713.794 456.938 713.688C459.1 713.642 461.263 713.597 463.492 713.55C465.233 713.535 466.974 713.523 468.715 713.512C469.597 713.487 470.48 713.461 471.389 713.435C478.795 713.429 484.49 715.641 489.885 720.805C494.359 725.691 496.455 729.97 496.25 736.754C495.442 744.015 493.371 749.987 488 755C480.716 759.681 473.558 760.153 465.102 760.098C463.99 760.097 463.99 760.097 462.856 760.095C460.112 760.09 457.369 760.076 454.625 760.063C448.479 760.042 442.332 760.022 436 760C436 744.82 436 729.64 436 714Z" fill="white" fill-opacity="0.4"/>
<path d="M370 107C372.71 106.864 375.413 106.766 378.125 106.688C378.886 106.646 379.646 106.604 380.43 106.561C384.504 106.473 387.174 106.686 390.43 109.27C394.893 114.011 395.292 117.215 395.227 123.614C395.228 124.376 395.228 125.137 395.228 125.922C395.227 128.432 395.211 130.943 395.196 133.453C395.192 135.196 395.189 136.939 395.187 138.683C395.179 143.266 395.16 147.849 395.138 152.433C395.117 157.111 395.108 161.79 395.098 166.469C395.076 175.646 395.042 184.823 395 194C392.29 194.136 389.587 194.235 386.875 194.313C386.115 194.355 385.354 194.396 384.571 194.44C380.536 194.527 377.821 194.318 374.571 191.793C370.063 186.895 369.707 182.831 369.773 176.364C369.773 175.612 369.773 174.861 369.772 174.086C369.774 171.613 369.789 169.141 369.805 166.668C369.809 164.949 369.811 163.23 369.813 161.511C369.821 156.994 369.841 152.479 369.863 147.963C369.883 143.351 369.892 138.739 369.903 134.127C369.924 125.085 369.958 116.042 370 107Z" fill="white" fill-opacity="0.4"/>
<path d="M892 718C894.229 720.229 894.808 721.765 895.892 724.702C896.438 726.171 896.438 726.171 896.995 727.669C897.385 728.733 897.774 729.798 898.176 730.895C898.583 731.993 898.99 733.091 899.409 734.223C900.716 737.751 902.014 741.282 903.312 744.812C904.602 748.304 905.892 751.794 907.184 755.284C907.987 757.457 908.788 759.629 909.588 761.803C911.996 768.337 914.488 774.829 917.067 781.298C918 784 918 784 918 787C900.84 787 883.68 787 866 787C868.013 780.96 870.079 774.989 872.328 769.039C872.64 768.209 872.952 767.379 873.274 766.524C874.264 763.89 875.257 761.258 876.25 758.625C877.548 755.18 878.844 751.735 880.141 748.289C880.618 747.022 880.618 747.022 881.105 745.73C882.76 741.33 884.398 736.926 886.01 732.511C886.331 731.631 886.653 730.752 886.984 729.846C887.598 728.163 888.209 726.479 888.817 724.794C890.89 719.11 890.89 719.11 892 718Z" fill="white" fill-opacity="0.4"/>
<path d="M504.375 127.063C508.775 130.201 511.175 133.899 512.578 139.172C514.022 148.851 514.906 160.705 509 169C505.828 172.727 502.848 175.595 497.887 176.301C491.134 176.337 486.346 175.186 481.25 170.438C475.15 162.183 475.203 151.838 476 142C477.059 136.53 478.885 131.887 483 128C489.766 124.076 497.365 123.107 504.375 127.063Z" fill="white" fill-opacity="0.4"/>
</svg>
