<svg width="209" height="82" viewBox="0 0 209 82" fill="none" xmlns="http://www.w3.org/2000/svg">
<path d="M0.00950599 54.5507L1.32414 26.5748L7.59631 27.7149C7.91943 27.7715 8.1496 28.0543 8.13632 28.3763L7.56089 44.3899L20.9285 25.3346L25.7267 27.4886C25.9701 27.5974 26.1251 27.8411 26.1118 28.1022L25.5319 44.168L38.9748 25.0388L43.7952 27.4756C44.0253 27.5931 44.1625 27.828 44.1537 28.0804L43.4278 45.4778L49.6645 39.1986L53.1569 43.1411L41.6439 56.6482L36.62 55.1121C36.3412 55.025 36.1508 54.7683 36.1553 54.4811L36.3721 38.3936L23.7482 56.7917L18.7862 55.1904C18.5117 55.1033 18.3258 54.8466 18.3302 54.5637L18.5472 37.8104L5.69739 56.7917L0.465422 55.1904C0.177708 55.1033 -0.0126258 54.8336 0.00065325 54.5376L0.00950599 54.5507Z" fill="white" fill-opacity="0.4"/>
<path d="M49.0801 43.0756C49.0801 33.437 56.4323 23.2893 65.6435 23.2893C70.5435 23.2893 73.4429 25.9916 73.4429 30.4432C73.4429 38.4021 65.7188 45.3384 57.5478 47.5273C58.5127 49.2809 60.146 50.2295 62.8948 50.2295C67.9453 50.2295 70.9154 46.361 75.7445 39.2028L79.9363 33.4022L83.8404 37.2316L77.971 45.6996C71.5085 55.1163 66.8298 56.7959 61.4076 56.7959C53.3117 56.7959 49.0801 51.3217 49.0801 43.0713V43.0756ZM66.6838 31.9792C66.6838 30.3735 66.0153 29.4945 64.4573 29.4945C60.2965 29.4945 56.5828 36.7224 56.5828 42.4926V42.8581C61.9298 40.9608 66.6838 35.4822 66.6838 31.9792Z" fill="white" fill-opacity="0.4"/>
<path d="M77.245 45.2167C77.1078 40.1906 77.5903 36.8008 79.9273 33.4066C80.1177 33.1325 80.4895 33.0497 80.7861 33.2064L86.4297 36.2133C85.54 37.819 84.7964 40.5953 84.7964 43.5892C84.7964 47.8232 86.505 50.1599 89.1785 50.1599C92.6709 50.1599 94.8976 46.2174 95.716 38.8417C85.9871 34.8992 78.8562 23.5112 78.8562 11.3879C78.8562 4.16005 82.3486 0 88.1383 0C98.3148 0 103.662 12.998 103.662 31.7618C103.662 32.7103 103.662 33.585 103.587 34.464H104.255C106.557 34.464 109.23 34.0245 110.863 32.9323L113.387 37.0228C110.562 39.3595 106.406 40.3821 103.139 40.3821H102.989C101.28 50.9084 96.2211 56.8961 89.0767 56.8831C82.5921 56.87 77.4132 51.5916 77.2406 45.221L77.245 45.2167ZM96.0132 31.8357C95.9373 17.0884 92.1533 5.98769 88.6606 5.98769C87.1026 5.98769 86.0623 7.5934 86.0623 10.7352C86.0623 18.6202 89.7008 27.6017 96.0132 31.8357Z" fill="white" fill-opacity="0.4"/>
<path d="M108.667 54.9684C108.389 54.8857 108.194 54.6333 108.194 54.3461L108.048 34.3117L108.185 26.3877C108.194 25.9873 108.561 25.6871 108.964 25.7566L115.254 26.8619L114.957 45.9172L125.802 32.8496L128.227 38.6589L113.997 56.5045L108.676 54.9597L108.667 54.9684Z" fill="white" fill-opacity="0.4"/>
<path d="M120.748 42.6406C120.748 33.5155 128.472 25.117 138.051 25.117C139.981 25.117 142.654 25.5565 144.513 25.9221L144.438 25.9961L144.589 25.9221L143.549 40.2342L138.356 40.9348C137.963 40.987 137.608 40.6867 137.604 40.2951L137.533 31.0351H137.016C132.558 31.0351 128.327 35.7086 128.327 41.7659C128.327 47.0226 131 50.234 135.307 50.234C139.171 50.234 142.363 48.4803 147.785 41.0349L152.981 32.8583L154.699 40.5823L148.82 48.4803C144.589 54.7595 139.167 56.8048 133.82 56.8048C126.246 56.8048 120.748 51.6221 120.748 42.6406Z" fill="white" fill-opacity="0.4"/>
<path d="M147.854 45.1209C147.066 39.6641 149.226 32.4971 153.573 28.4371C158.03 24.2727 164.749 23.3763 169.738 30.4911L168.946 35.4779C160.071 24.6644 154.511 36.9531 154.821 43.402C155.025 47.6317 156.99 50.2295 159.81 50.2295C163.152 50.2295 167.087 46.2131 167.83 34.3117L168.574 25.6217L175.275 26.901C175.603 26.962 175.833 27.2579 175.811 27.5886L174.368 47.6013L185.73 32.9279L188.652 38.141L174.147 56.8743L168.348 54.8378C168.083 54.7464 167.91 54.4984 167.91 54.2242V49.133C165.98 53.9501 162.709 56.8743 158.181 56.8743C151.868 56.8743 148.859 52.0572 147.859 45.1209H147.854Z" fill="white" fill-opacity="0.4"/>
<path d="M181.424 34.7556C181.424 17.38 188.032 0.221992 198.505 0.221992C204.073 0.221992 207.043 3.65534 207.043 9.56909C207.043 19.0597 201.178 28.0412 189.072 36.4396C189.444 45.5648 192.117 50.2384 195.907 50.2384C199.469 50.3123 201.922 46.5134 205.264 41.6963L208.592 44.2637C208.854 44.4639 208.924 44.8337 208.752 45.1123C203.851 53.1669 200.187 56.8831 195.238 56.8831C186.549 56.8831 181.424 50.3123 181.424 34.76V34.7556ZM200.289 10.4437C200.289 7.59781 199.324 6.79278 197.987 6.79278C193.826 6.79278 189.816 17.6716 189.077 29.7906C197.248 22.5627 200.293 14.2382 200.293 10.4437H200.289Z" fill="white" fill-opacity="0.4"/>
<path d="M16.79 79.585L18.2862 77.5484C19.344 78.6581 21.0039 79.6285 23.1419 79.6285C25.2798 79.6285 26.227 78.5667 26.227 77.5702C26.227 74.4023 17.2725 76.3692 17.2725 70.8036C17.2725 68.3145 19.5034 66.3911 22.8674 66.3911C25.2621 66.3911 27.1964 67.1396 28.6217 68.4973L27.0813 70.4641C25.8862 69.2893 24.2484 68.7453 22.6373 68.7453C21.026 68.7453 20.0346 69.4938 20.0346 70.6251C20.0346 73.4319 28.967 71.6869 28.967 77.3222C28.967 79.833 27.1698 81.9827 23.0267 81.9827C20.1939 81.9827 18.1489 81.0079 16.79 79.585Z" fill="white" fill-opacity="0.4"/>
<path d="M44.0871 81.7128V68.9499H39.4395V66.6174H51.4305V68.9499H46.7828V81.7128H44.0915H44.0871Z" fill="white" fill-opacity="0.4"/>
<path d="M72.1724 81.7128L71.0437 78.8147H64.0013L62.8726 81.7128H59.8096L65.8382 66.6174H69.1979L75.2266 81.7128H72.1636H72.1724ZM67.5247 69.2893L64.7626 76.4866H70.2868L67.5247 69.2893Z" fill="white" fill-opacity="0.4"/>
<path d="M86.1201 81.7128V66.6174H96.6372V68.9499H88.8113V72.8662H96.4775V75.1986H88.8113V81.7172H86.1201V81.7128Z" fill="white" fill-opacity="0.4"/>
<path d="M108.261 81.7128V66.6174H118.782V68.9499H110.957V72.8662H118.623V75.1986H110.957V81.7172H108.265L108.261 81.7128Z" fill="white" fill-opacity="0.4"/>
<path d="M130.401 81.7128V66.6174H133.092V81.7128H130.401Z" fill="white" fill-opacity="0.4"/>
<path d="M156.273 81.7128L148.261 70.9428V81.7128H145.57V66.6174H148.332L156.18 77.0959V66.6174H158.872V81.7128H156.268H156.273Z" fill="white" fill-opacity="0.4"/>
<path d="M170.659 74.176C170.659 69.4459 174.272 66.3694 178.715 66.3694C181.708 66.3694 183.664 67.7706 184.908 69.5156L182.699 70.7384C181.893 69.6069 180.441 68.7236 178.715 68.7236C175.679 68.7236 173.421 71.0081 173.421 74.176C173.421 77.3439 175.679 79.6502 178.715 79.6502C180.283 79.6502 181.663 78.9279 182.354 78.2926V75.9384H177.773V73.6059H185.046V79.2629C183.527 80.9165 181.385 82 178.715 82C174.272 82 170.659 78.9018 170.659 74.1717V74.176Z" fill="white" fill-opacity="0.4"/>
<path d="M6.81628 8.56389H4.41275V10.2218H7.58646V10.9789C7.58646 11.6448 7.10399 12.0843 6.51528 12.0843H4.46587V15.4218H3.26632C2.48286 15.4218 1.94727 15.0346 1.94727 14.2165V8.16787C1.94727 7.07564 2.56254 6.56216 3.76208 6.56216H8.12648V7.42376C8.12648 7.93724 7.69712 8.56821 6.8207 8.56821L6.81628 8.56389Z" fill="white" fill-opacity="0.4"/>
<path d="M17.4898 15.6263C15.1792 15.6263 13.5459 14.0989 13.5459 11.71V6.56216H14.6037C15.4005 6.56216 16.0291 7.02342 16.0291 8.24617V11.636C16.0291 13.1373 16.5647 13.6247 17.7288 13.6247C18.707 13.6247 19.1939 13.0198 19.1939 11.697V6.56216H20.2519C21.1814 6.56216 21.6771 7.02342 21.6771 8.19397V11.636C21.6771 13.8684 20.2784 15.6307 17.4986 15.6307L17.4898 15.6263Z" fill="white" fill-opacity="0.4"/>
<path d="M30.7986 15.6262C28.8112 15.6262 27.7444 14.8822 27.7444 13.6115V13.0327C27.7444 12.8978 27.886 12.8065 28.0144 12.863C28.5544 13.111 29.7938 13.6333 30.5817 13.6333C31.7325 13.6333 32.0955 13.3634 32.0955 12.7716C32.0955 12.2321 31.5997 12.0537 30.2276 11.7838C28.2667 11.3965 27.5098 10.6916 27.5098 9.34261C27.5098 7.76305 28.9705 6.3488 31.2589 6.3488C33.5474 6.3488 34.3264 7.3366 34.3264 8.2504V8.89447C34.3264 9.0293 34.1848 9.12075 34.0608 9.06414C33.5341 8.82913 32.3523 8.33743 31.6352 8.33743C30.409 8.33743 29.9886 8.65947 29.9886 9.1599C29.9886 9.55584 30.1567 9.77779 31.8299 10.1086C33.6845 10.4827 34.5742 11.2269 34.5742 12.5976C34.5742 14.4339 33.2021 15.6132 30.7986 15.6132V15.6262Z" fill="white" fill-opacity="0.4"/>
<path d="M41.7055 15.4218C41.1434 15.4218 40.5547 14.9475 40.5547 14.0467V6.56216H41.9401C42.4226 6.56216 43.0379 6.98426 43.0379 7.70661V15.4218H41.7055Z" fill="white" fill-opacity="0.4"/>
<path d="M53.3876 15.6262C50.9309 15.6262 49.0498 13.8812 49.0498 11.105C49.0498 8.3287 50.7628 6.35311 53.6621 6.35311C55.8708 6.35311 57.9866 7.97187 57.9866 10.8613C57.9866 13.7507 56.3135 15.6262 53.3876 15.6262ZM53.4141 8.33302C52.1881 8.33302 51.533 9.37303 51.533 10.8613C51.533 12.7368 52.2633 13.6332 53.6222 13.6332C54.7465 13.6332 55.5034 12.7107 55.5034 11.0788C55.5034 9.13812 54.7996 8.33302 53.4141 8.33302Z" fill="white" fill-opacity="0.4"/>
<path d="M70.9154 15.4218C69.8974 15.4218 69.0608 14.9867 68.2508 13.5463L66.7237 10.8223C66.4758 10.4872 66.3076 10.1783 66.281 10.0913V15.4218H65.2629C64.5857 15.4218 63.8643 14.9606 63.8643 14.0598V6.56216H65.0638C66.3829 6.56216 67.2593 7.19313 67.8701 8.38541L69.5433 11.5969V6.56216H70.641C71.2297 6.56216 71.8936 6.98426 71.8936 7.70661V15.4218H70.9154Z" fill="white" fill-opacity="0.4"/>
<path d="M108.048 18.9203V11.6358C108.048 11.3138 108.314 11.0571 108.637 11.0571H116.047C116.396 11.0571 116.662 11.3531 116.636 11.6968C116.317 15.8656 112.936 19.1901 108.695 19.5034C108.345 19.5295 108.044 19.2684 108.044 18.9247L108.048 18.9203Z" fill="white" fill-opacity="0.4"/>
</svg>
