<svg width="1920" height="1080" viewBox="0 0 1920 1080" fill="none" xmlns="http://www.w3.org/2000/svg">
<g clip-path="url(#clip0_1535_70)">
<rect width="1920" height="1080" fill="#232323"/>
<path d="M64.5016 55.5618C67.0294 53.8937 67.0294 53.8937 69.8346 52.3748C75.5299 48.9478 78.5538 45.3719 81.9031 39.7129C82.5221 38.7042 83.1412 37.6955 83.7789 36.6563C85.4174 33.9639 87.0292 31.2586 88.6204 28.538C94.5571 29.0929 99.2648 31.1661 104.558 33.7333C105.1 24.7474 105.1 24.7474 105.15 15.7499C105.207 12.1097 105.762 0.945121 107.5 -1.5C109.51 -0.416512 108.434 -3.31354 110.5 -1.5C112.636 9.71813 110.409 37.6832 108.544 48.8366C111.655 50.4408 111.655 50.4408 114.829 52.0774C117.086 45.7163 117.086 45.7163 118.84 39.2084C119.592 36.4058 120.272 34.9429 122.342 32.8795C124.082 32.605 124.082 32.605 125.856 32.3249C130.521 31.1773 132.086 28.4347 134.496 24.4723C134.966 23.6498 135.435 22.8273 135.919 21.9798C136.887 20.3492 137.859 18.7207 138.836 17.0945C139.253 16.3713 139.67 15.6482 140.1 14.9031C141.246 13.1911 141.246 13.1911 143.22 12.1404C145.692 13.1732 148.061 14.257 150.457 15.4445C156.192 18.3051 156.192 18.3051 162.418 19.6533C164.679 20.571 164.679 20.571 166.493 22.5504C168.339 29.6387 167.16 37.5483 166.659 44.7533C170.403 46.9626 173.323 48.1318 177.639 48.7246C183.403 49.7488 187.123 52.8481 190.983 57.1371C192.266 59.3434 192.266 59.3434 193.084 61.0848C191.82 62.0084 191.82 62.0084 190.531 62.9505C189.759 62.373 188.986 61.7954 188.19 61.2003C187.171 60.4536 186.152 59.707 185.102 58.9377C184.094 58.1928 183.086 57.4479 182.048 56.6804C179.351 54.9838 177.828 54.3005 174.701 54.1513C174.428 55.0702 174.154 55.9891 173.872 56.9359C172.855 60.2004 172.855 60.2004 171.806 62.2153C171.099 64.1576 171.099 64.1576 172.556 66.1224C173.121 66.9291 173.687 67.7359 174.269 68.567C175.166 70.7971 176.032 73.0405 176.842 75.3036C175.291 76.6306 175.291 76.6306 173.709 77.9844C169.478 72.9799 165.848 66.6855 166.312 59.9726C166.789 57.6368 167.345 55.3892 168.073 53.12C167.168 52.5778 166.263 52.0356 165.33 51.4769C161.789 48.5931 161.478 47.3157 160.61 42.907C160.616 40.2155 160.703 37.6757 160.934 35.0087C160.98 34.3237 161.027 33.6387 161.075 32.9329C161.458 27.9075 161.458 27.9075 162.781 26.0461C161.649 25.8233 160.517 25.6005 159.35 25.3709C153.288 24.0345 149.116 21.3673 144.163 17.7182C143.784 18.5005 143.405 19.2828 143.014 20.0889C136.1 34.1467 136.1 34.1467 131.454 36.6734C128.862 37.5148 128.862 37.5148 126.073 37.986C124.262 41.2171 123.421 44.5734 122.594 48.1656C122.27 49.5599 122.27 49.5599 121.939 50.9824C121.78 51.6841 121.621 52.3857 121.458 53.1087C122.568 53.2908 123.679 53.4729 124.823 53.6605C128.943 54.6187 131.666 55.5664 134.606 58.7752C135.306 62.5816 135.206 66.3086 135.097 70.1664C134.684 78.0424 134.684 78.0424 138.268 84.6903C140.466 86.7679 142.712 88.7703 145.024 90.72C145.78 90.1346 146.537 89.5492 147.316 88.9461C148.3 88.1873 149.283 87.4285 150.297 86.6467C151.276 85.8906 152.255 85.1345 153.263 84.3555C155.817 82.4421 155.817 82.4421 157.791 81.3914C162.819 84.2393 163.56 88.3261 165.311 93.5669C167.128 97.0414 168.585 97.7729 172.245 99.0286C177.076 99.1735 178.433 97.223 181.924 94.1434C184.566 92.4109 185.966 92.2796 189.086 92.597C191.229 93.426 193.185 94.4417 195.217 95.508C198.572 96.4641 201.155 95.6816 204.553 95.0034C206.955 94.7897 209.36 94.6074 211.766 94.4568C212.961 94.3796 214.157 94.3025 215.388 94.223C216.492 94.1631 217.596 94.1032 218.733 94.0415C219.667 93.9798 220.602 93.918 221.564 93.8544C223.731 93.914 223.731 93.914 225.384 95.4724C225.723 95.9919 226.063 96.5114 226.412 97.0467C222.504 99.7806 218.213 99.7272 213.61 100.062C212.829 100.125 212.048 100.188 211.243 100.253C209.665 100.38 208.087 100.504 206.508 100.624C203.271 100.883 200.04 101.203 196.809 101.529C192.507 101.807 190.375 99.7426 187.005 97.2516C183.125 99.2215 179.84 101.516 177.607 105.294C175.42 112.417 174.817 119.991 174.169 127.389C175.977 128.892 175.977 128.892 179.556 128.764C183.809 129.106 186.242 130.635 189.527 133.399C188.762 134.475 187.997 135.551 187.209 136.659C186.502 136.468 185.795 136.277 185.067 136.08C183.666 135.718 183.666 135.718 182.237 135.348C181.314 135.105 180.391 134.861 179.44 134.611C176.8 134.136 175.147 134.314 172.558 134.832C170.224 134.016 170.224 134.016 168.483 131.935C168.387 128.611 168.609 125.798 169.043 122.518C169.222 121.062 169.401 119.606 169.579 118.15C170.098 113.982 170.649 109.819 171.214 105.657C170.55 105.256 169.886 104.855 169.202 104.442C163.643 100.842 160.421 98.1691 158.418 91.7678C157.957 89.8595 157.957 89.8595 156.18 88.8349C155.211 89.6975 155.211 89.6975 154.222 90.5776C153.375 91.3197 152.528 92.0619 151.655 92.8266C150.815 93.5675 149.975 94.3085 149.11 95.0719C146.782 96.8771 146.782 96.8771 143.993 97.3484C138.737 93.0856 134.101 88.2036 129.43 83.3152C128.938 84.0787 128.446 84.8423 127.939 85.629C125.059 89.3666 125.059 89.3666 122.006 90.3068C120.778 90.041 119.55 89.7752 118.285 89.5014C116.174 89.0895 116.174 89.0895 113.983 89.5111C111.402 91.5046 109.344 93.6721 107.189 96.1162C105.4 98.1328 105.4 98.1328 103.427 99.1834C102.351 98.4186 101.275 97.6538 100.166 96.8658C101.692 94.7767 103.241 92.7143 104.81 90.6579C105.237 90.0666 105.665 89.4753 106.105 88.8661C108.426 85.868 109.683 84.5041 113.476 83.8402C114.522 83.9066 115.567 83.973 116.645 84.0415C120.536 84.1455 122.578 83.8664 125.655 81.3983C129.066 78.0721 129.513 75.3409 129.649 70.7763C129.621 67.5427 129.483 64.3389 129.264 61.1122C125.8 59.9997 122.512 59.0705 118.898 58.6507C113.33 57.8277 108.821 56.1573 103.955 53.2425C101.343 48.8305 102.987 44.354 104.106 39.5467C102.771 38.9799 101.435 38.414 100.099 37.8483C99.3552 37.5331 98.6114 37.2178 97.845 36.893C95.8308 36.0534 93.8079 35.246 91.7724 34.4596C91.3542 35.2346 91.3542 35.2346 90.9277 36.0254C86.8457 43.4046 82.4763 50.8168 76.1284 56.4656C76.6249 57.8037 77.1374 59.1358 77.6559 60.4655C77.9395 61.2079 78.223 61.9504 78.5151 62.7154C79.702 65.3761 79.702 65.3761 82.2192 67.7593C84.7532 71.541 84.5423 73.0709 83.782 77.3894C83.6185 78.1612 83.4549 78.933 83.2864 79.7282C83.1454 80.5017 83.0043 81.2753 82.859 82.0722C82.1273 86.0035 81.2655 89.8957 80.2811 93.7719C78.7839 93.3149 78.7839 93.3149 77.2566 92.8487C75.7076 86.6317 76.2836 81.0425 77.7972 74.829C78.3708 74.0222 78.9445 73.2153 79.5355 72.3839C78.7812 71.7718 78.027 71.1597 77.2499 70.5291C73.6072 67.119 71.8939 62.7482 69.9713 58.2232C67.5901 60.8072 67.0644 61.9351 67.1609 65.5136C67.3459 66.6795 67.5309 67.8454 67.7215 69.0466C68.6984 75.392 68.6984 75.392 67.6923 78.688C67.041 79.0347 66.3896 79.3814 65.7185 79.7386C62.9913 77.1263 62.6419 75.1855 62.3941 71.4707C62.1767 68.4717 61.9168 65.8179 61.2123 62.8856C60.944 59.3968 62.2888 58.2091 64.5016 55.5618Z" fill="white" fill-opacity="0.6"/>
<path d="M1866.23 112.01C1867.83 114.582 1867.83 114.582 1869.27 117.428C1872.54 123.216 1876.03 126.337 1881.59 129.841C1882.58 130.488 1883.57 131.134 1884.59 131.8C1887.24 133.512 1889.9 135.198 1892.58 136.864C1891.86 142.783 1889.66 147.432 1886.94 152.652C1895.91 153.442 1895.91 153.442 1904.9 153.739C1908.54 153.896 1919.69 154.759 1922.08 156.564C1920.94 158.543 1923.87 157.548 1922 159.563C1910.73 161.389 1882.83 158.392 1871.74 156.221C1870.05 159.286 1870.05 159.286 1868.32 162.414C1874.62 164.845 1874.62 164.845 1881.08 166.778C1883.86 167.607 1885.3 168.327 1887.31 170.453C1887.53 172.199 1887.53 172.199 1887.77 173.981C1888.78 178.676 1891.48 180.315 1895.38 182.834C1896.19 183.326 1897 183.818 1897.83 184.325C1899.43 185.338 1901.03 186.355 1902.63 187.375C1903.34 187.812 1904.06 188.249 1904.79 188.699C1906.47 189.892 1906.47 189.892 1907.46 191.894C1906.36 194.337 1905.21 196.675 1903.96 199.037C1900.94 204.691 1900.94 204.691 1899.42 210.878C1898.45 213.113 1898.45 213.113 1896.42 214.872C1889.28 216.522 1881.41 215.125 1874.22 214.426C1871.91 218.108 1870.66 220.994 1869.95 225.292C1868.76 231.026 1865.56 234.659 1861.17 238.399C1858.93 239.621 1858.93 239.621 1857.16 240.391C1856.28 239.102 1856.28 239.102 1855.37 237.788C1855.97 237.031 1856.57 236.275 1857.18 235.496C1857.96 234.498 1858.73 233.499 1859.53 232.471C1860.3 231.484 1861.08 230.497 1861.87 229.481C1863.64 226.831 1864.37 225.328 1864.6 222.206C1863.69 221.908 1862.78 221.609 1861.84 221.301C1858.61 220.194 1858.61 220.194 1856.62 219.09C1854.7 218.33 1854.7 218.33 1852.69 219.732C1851.87 220.275 1851.05 220.818 1850.2 221.377C1847.95 222.212 1845.68 223.016 1843.4 223.763C1842.11 222.176 1842.11 222.176 1840.8 220.558C1845.92 216.466 1852.32 213.011 1859.01 213.66C1861.34 214.201 1863.57 214.819 1865.81 215.609C1866.38 214.719 1866.95 213.829 1867.53 212.912C1870.51 209.452 1871.8 209.176 1876.23 208.43C1878.92 208.511 1881.46 208.667 1884.12 208.971C1884.8 209.037 1885.48 209.102 1886.19 209.169C1891.2 209.691 1891.2 209.691 1893.02 211.065C1893.28 209.939 1893.53 208.814 1893.79 207.654C1895.3 201.631 1898.08 197.534 1901.86 192.683C1901.09 192.282 1900.32 191.882 1899.52 191.469C1885.66 184.171 1885.66 184.171 1883.26 179.457C1882.49 176.843 1882.49 176.843 1882.1 174.042C1878.92 172.142 1875.59 171.209 1872.02 170.284C1870.64 169.921 1870.64 169.921 1869.22 169.551C1868.53 169.373 1867.83 169.195 1867.11 169.011C1866.9 170.117 1866.69 171.222 1866.47 172.36C1865.39 176.452 1864.37 179.149 1861.08 181.999C1857.26 182.594 1853.54 182.391 1849.68 182.176C1841.82 181.546 1841.82 181.546 1835.08 184.946C1832.94 187.085 1830.88 189.276 1828.86 191.533C1829.43 192.305 1829.99 193.077 1830.57 193.872C1831.31 194.877 1832.04 195.881 1832.79 196.916C1833.52 197.915 1834.25 198.915 1835 199.944C1836.84 202.549 1836.84 202.549 1837.84 204.551C1834.85 209.5 1830.75 210.127 1825.46 211.733C1821.94 213.454 1821.16 214.89 1819.81 218.514C1819.53 223.339 1821.44 224.75 1824.43 228.325C1826.08 231.013 1826.18 232.416 1825.77 235.527C1824.89 237.645 1823.82 239.573 1822.7 241.575C1821.65 244.902 1822.36 247.505 1822.94 250.921C1823.09 253.328 1823.21 255.737 1823.29 258.147C1823.33 259.344 1823.38 260.54 1823.42 261.774C1823.45 262.879 1823.48 263.984 1823.51 265.122C1823.55 266.058 1823.59 266.994 1823.62 267.958C1823.5 270.122 1823.5 270.122 1821.9 271.731C1821.37 272.056 1820.84 272.381 1820.3 272.716C1817.67 268.733 1817.84 264.446 1817.64 259.835C1817.59 259.053 1817.55 258.27 1817.51 257.464C1817.43 255.883 1817.35 254.302 1817.27 252.72C1817.1 249.477 1816.87 246.239 1816.63 243C1816.47 238.693 1818.6 236.618 1821.18 233.317C1819.32 229.385 1817.11 226.038 1813.4 223.701C1806.34 221.319 1798.78 220.508 1791.41 219.656C1789.85 221.423 1789.85 221.423 1789.88 225.003C1789.42 229.246 1787.83 231.635 1784.98 234.843C1783.92 234.049 1782.87 233.255 1781.78 232.436C1781.99 231.735 1782.2 231.033 1782.42 230.31C1782.82 228.92 1782.82 228.92 1783.23 227.502C1783.5 226.586 1783.77 225.67 1784.04 224.726C1784.59 222.1 1784.46 220.443 1784.01 217.841C1784.89 215.53 1784.89 215.53 1787.02 213.847C1790.34 213.843 1793.15 214.142 1796.42 214.666C1797.87 214.886 1799.32 215.105 1800.77 215.323C1804.92 215.956 1809.07 216.622 1813.21 217.301C1813.63 216.648 1814.05 215.996 1814.48 215.323C1818.23 209.865 1820.99 206.718 1827.45 204.893C1829.37 204.484 1829.37 204.484 1830.44 202.736C1829.61 201.744 1829.61 201.744 1828.75 200.731C1828.03 199.864 1827.32 198.997 1826.58 198.103C1825.86 197.243 1825.14 196.383 1824.4 195.497C1822.66 193.12 1822.66 193.12 1822.27 190.319C1826.67 185.183 1831.68 180.683 1836.7 176.149C1835.95 175.636 1835.2 175.123 1834.42 174.594C1830.77 171.613 1830.77 171.613 1829.91 168.535C1830.21 167.315 1830.51 166.094 1830.82 164.837C1831.29 162.738 1831.29 162.738 1830.93 160.537C1829.01 157.902 1826.9 155.785 1824.51 153.563C1822.55 151.72 1822.55 151.72 1821.55 149.718C1822.34 148.664 1823.14 147.609 1823.96 146.523C1826 148.106 1828.02 149.71 1830.03 151.335C1830.61 151.779 1831.19 152.223 1831.79 152.68C1834.72 155.083 1836.05 156.377 1836.61 160.186C1836.52 161.23 1836.42 162.273 1836.32 163.348C1836.11 167.235 1836.33 169.284 1838.72 172.428C1841.95 175.93 1844.66 176.452 1849.22 176.713C1852.46 176.774 1855.66 176.725 1858.9 176.595C1860.1 173.163 1861.12 169.901 1861.64 166.3C1862.62 160.757 1864.41 156.296 1867.46 151.512C1871.94 149.022 1876.37 150.789 1881.15 152.04C1881.75 150.721 1882.35 149.401 1882.95 148.081C1883.29 147.347 1883.62 146.612 1883.97 145.855C1884.87 143.864 1885.73 141.864 1886.57 139.851C1885.81 139.412 1885.81 139.412 1885.03 138.964C1877.76 134.68 1870.48 130.108 1865 123.607C1863.65 124.066 1862.31 124.542 1860.96 125.024C1860.21 125.287 1859.46 125.55 1858.69 125.821C1856 126.934 1856 126.934 1853.55 129.384C1849.7 131.813 1848.17 131.56 1843.88 130.681C1843.11 130.497 1842.34 130.312 1841.55 130.121C1840.78 129.959 1840.01 129.797 1839.22 129.63C1835.31 128.79 1831.44 127.821 1827.6 126.73C1828.1 125.246 1828.1 125.246 1828.6 123.732C1834.86 122.355 1840.43 123.085 1846.6 124.769C1847.39 125.365 1848.18 125.961 1849 126.574C1849.63 125.837 1850.26 125.1 1850.91 124.341C1854.42 120.793 1858.84 119.201 1863.42 117.404C1860.9 114.952 1859.79 114.396 1856.21 114.394C1855.04 114.546 1853.87 114.699 1852.66 114.857C1846.29 115.658 1846.29 115.658 1843.02 114.562C1842.69 113.901 1842.37 113.241 1842.03 112.56C1844.71 109.906 1846.66 109.61 1850.38 109.464C1853.39 109.33 1856.05 109.143 1859 108.52C1862.49 108.348 1863.64 109.725 1866.23 112.01Z" fill="white" fill-opacity="0.6"/>
<path d="M642.687 1032.92C639.899 1034.11 639.899 1034.11 636.865 1035.09C630.644 1037.43 627.023 1040.4 622.705 1045.36C621.914 1046.24 621.122 1047.12 620.307 1048.03C618.209 1050.38 616.134 1052.75 614.077 1055.14C608.339 1053.52 604.084 1050.63 599.342 1047.14C597.183 1055.88 597.183 1055.88 595.507 1064.72C594.792 1068.29 592.227 1079.17 590.075 1081.26C588.295 1079.84 588.828 1082.88 587.124 1080.72C587.053 1069.3 594.302 1042.2 598.154 1031.57C595.384 1029.43 595.384 1029.43 592.559 1027.25C589.189 1033.09 589.189 1033.09 586.286 1039.18C585.039 1041.8 584.107 1043.11 581.697 1044.77C579.937 1044.72 579.937 1044.72 578.14 1044.68C573.345 1044.96 571.31 1047.38 568.222 1050.84C567.612 1051.56 567.002 1052.29 566.373 1053.03C565.125 1054.46 563.874 1055.89 562.62 1057.31C562.079 1057.94 561.538 1058.58 560.98 1059.23C559.543 1060.71 559.543 1060.71 557.412 1061.39C555.168 1059.92 553.034 1058.43 550.892 1056.83C545.769 1052.98 545.769 1052.98 539.89 1050.53C537.832 1049.21 537.832 1049.21 536.406 1046.94C535.873 1039.63 538.463 1032.07 540.259 1025.07C536.977 1022.22 534.316 1020.54 530.179 1019.18C524.695 1017.13 521.597 1013.41 518.577 1008.49C517.714 1006.09 517.714 1006.09 517.224 1004.23C518.635 1003.55 518.635 1003.55 520.073 1002.86C520.728 1003.56 521.383 1004.27 522.059 1005C522.926 1005.92 523.793 1006.84 524.687 1007.79C525.543 1008.7 526.399 1009.62 527.282 1010.56C529.628 1012.71 531.002 1013.66 534.05 1014.37C534.485 1013.52 534.92 1012.67 535.369 1011.79C536.96 1008.76 536.96 1008.76 538.356 1006.97C539.403 1005.19 539.403 1005.19 538.325 1002.99C537.915 1002.09 537.505 1001.2 537.083 1000.28C536.604 997.92 536.158 995.557 535.771 993.184C537.537 992.16 537.537 992.16 539.337 991.114C542.593 996.802 545.024 1003.65 543.354 1010.17C542.462 1012.38 541.508 1014.49 540.382 1016.59C541.174 1017.29 541.966 1017.98 542.782 1018.7C545.743 1022.18 545.818 1023.49 545.874 1027.98C545.381 1030.63 544.837 1033.11 544.127 1035.69C543.958 1036.36 543.788 1037.02 543.613 1037.71C542.327 1042.58 542.327 1042.58 540.689 1044.17C541.762 1044.6 542.836 1045.02 543.941 1045.46C549.662 1047.87 553.283 1051.25 557.494 1055.73C558.008 1055.03 558.522 1054.33 559.052 1053.61C568.395 1041.03 568.395 1041.03 573.422 1039.39C576.123 1039.03 576.123 1039.03 578.951 1039.07C581.318 1036.22 582.752 1033.07 584.214 1029.69C584.786 1028.38 584.786 1028.38 585.369 1027.04C585.652 1026.37 585.935 1025.71 586.226 1025.03C585.167 1024.65 584.108 1024.27 583.017 1023.88C579.138 1022.19 576.631 1020.77 574.32 1017.08C574.32 1013.21 575.093 1009.56 575.898 1005.79C577.729 998.117 577.729 998.117 575.406 990.93C573.621 988.489 571.774 986.114 569.853 983.778C569.003 984.217 568.153 984.656 567.278 985.108C566.173 985.676 565.068 986.245 563.93 986.83C562.83 987.397 561.731 987.963 560.598 988.547C557.741 989.967 557.741 989.967 555.609 990.643C551.179 986.933 551.19 982.779 550.416 977.308C549.257 973.562 547.957 972.579 544.584 970.682C539.859 969.666 538.172 971.339 534.181 973.736C531.269 974.962 529.868 974.838 526.857 973.961C524.9 972.758 523.16 971.405 521.354 969.989C518.228 968.442 515.546 968.744 512.081 968.796C509.68 968.572 507.282 968.316 504.888 968.029C503.698 967.889 502.509 967.749 501.283 967.604C500.187 967.463 499.091 967.322 497.961 967.177C497.031 967.069 496.101 966.961 495.142 966.849C493.022 966.398 493.022 966.398 491.678 964.567C491.439 963.995 491.199 963.422 490.952 962.833C495.291 960.851 499.501 961.68 504.089 962.183C504.868 962.263 505.648 962.342 506.451 962.423C508.026 962.583 509.601 962.747 511.175 962.915C514.406 963.246 517.641 963.515 520.877 963.78C525.159 964.284 526.883 966.7 529.747 969.76C533.919 968.524 537.565 966.862 540.444 963.55C543.883 956.94 545.847 949.6 547.822 942.442C546.316 940.637 546.316 940.637 542.773 940.115C538.652 939.01 536.536 937.065 533.805 933.753C534.752 932.833 535.698 931.913 536.674 930.965C537.335 931.281 537.996 931.597 538.677 931.923C539.989 932.532 539.989 932.532 541.327 933.154C542.191 933.561 543.055 933.967 543.945 934.386C546.455 935.33 548.113 935.454 550.753 935.413C552.901 936.637 552.901 936.637 554.237 938.999C553.73 942.286 553.003 945.013 551.982 948.16C551.542 949.559 551.103 950.959 550.665 952.359C549.401 956.364 548.105 960.359 546.797 964.35C547.378 964.864 547.958 965.378 548.557 965.908C553.373 970.455 556.058 973.667 556.869 980.325C556.978 982.285 556.978 982.285 558.54 983.614C559.649 982.941 559.649 982.941 560.781 982.254C561.748 981.678 562.715 981.101 563.712 980.507C564.672 979.93 565.632 979.353 566.621 978.759C569.238 977.405 569.238 977.405 572.066 977.446C576.464 982.589 580.141 988.229 583.85 993.882C584.472 993.22 585.094 992.558 585.735 991.876C589.243 988.721 589.243 988.721 592.416 988.348C593.576 988.832 594.736 989.316 595.931 989.814C597.932 990.601 597.932 990.601 600.163 990.582C603.062 989.089 605.478 987.329 608.04 985.315C610.164 983.656 610.164 983.656 612.295 982.979C613.215 983.926 614.134 984.873 615.082 985.849C613.204 987.627 611.307 989.375 609.392 991.114C608.865 991.618 608.338 992.122 607.794 992.642C604.969 995.171 603.486 996.285 599.636 996.252C598.619 995.997 597.603 995.743 596.556 995.48C592.748 994.674 590.688 994.579 587.216 996.45C583.259 999.104 582.325 1001.71 581.367 1006.17C580.809 1009.36 580.365 1012.54 579.997 1015.75C583.202 1017.47 586.268 1018.98 589.746 1020.04C595.074 1021.86 599.206 1024.32 603.464 1028.07C605.235 1032.88 602.809 1036.98 600.838 1041.51C602.049 1042.31 603.26 1043.11 604.472 1043.9C605.147 1044.35 605.821 1044.79 606.516 1045.25C608.345 1046.44 610.189 1047.6 612.048 1048.74C612.6 1048.06 612.6 1048.06 613.162 1047.36C618.512 1040.84 624.15 1034.34 631.415 1029.93C631.169 1028.52 630.906 1027.12 630.636 1025.72C630.492 1024.94 630.347 1024.16 630.198 1023.35C629.512 1020.52 629.512 1020.52 627.468 1017.72C625.66 1013.54 626.144 1012.08 627.673 1007.97C627.973 1007.24 628.274 1006.51 628.583 1005.76C628.862 1005.02 629.141 1004.29 629.428 1003.53C630.859 999.795 632.41 996.123 634.08 992.489C635.469 993.209 635.469 993.209 636.887 993.944C637.286 1000.34 635.708 1005.73 633.096 1011.57C632.386 1012.26 631.675 1012.95 630.944 1013.66C631.575 1014.4 632.206 1015.14 632.856 1015.9C635.822 1019.91 636.716 1024.52 637.789 1029.32C640.598 1027.21 641.319 1026.19 641.871 1022.65C641.9 1021.47 641.929 1020.29 641.959 1019.08C642.146 1012.66 642.146 1012.66 643.732 1009.6C644.435 1009.38 645.139 1009.15 645.863 1008.92C648.073 1011.99 648.065 1013.96 647.637 1017.66C647.308 1020.65 647.084 1023.3 647.246 1026.31C646.879 1029.79 645.342 1030.72 642.687 1032.92Z" fill="white" fill-opacity="0.6"/>
<path d="M1910.11 1019.31C1907.89 1021.37 1907.89 1021.37 1905.37 1023.32C1900.3 1027.62 1897.89 1031.64 1895.5 1037.76C1895.05 1038.86 1894.61 1039.96 1894.14 1041.08C1892.96 1044.01 1891.81 1046.94 1890.68 1049.88C1884.73 1050.29 1879.75 1049 1874.11 1047.33C1875.03 1056.28 1875.03 1056.28 1876.43 1065.17C1876.96 1068.77 1878.22 1079.88 1876.9 1082.57C1874.74 1081.83 1876.27 1084.51 1873.94 1083.06C1870.02 1072.33 1867.7 1044.37 1867.74 1033.06C1864.41 1031.98 1864.41 1031.98 1861.01 1030.88C1859.81 1037.52 1859.81 1037.52 1859.13 1044.23C1858.84 1047.12 1858.41 1048.67 1856.7 1051.04C1855.03 1051.59 1855.03 1051.59 1853.32 1052.16C1848.9 1054.04 1847.8 1057 1846.06 1061.3C1845.73 1062.19 1845.4 1063.08 1845.06 1063.99C1844.37 1065.76 1843.67 1067.52 1842.97 1069.28C1842.68 1070.06 1842.38 1070.85 1842.08 1071.65C1841.22 1073.52 1841.22 1073.52 1839.44 1074.88C1836.84 1074.26 1834.33 1073.57 1831.77 1072.79C1825.65 1070.89 1825.65 1070.89 1819.29 1070.57C1816.9 1070.03 1816.9 1070.03 1814.8 1068.37C1811.83 1061.67 1811.71 1053.67 1811.04 1046.48C1806.99 1044.91 1803.92 1044.22 1799.57 1044.34C1793.71 1044.26 1789.54 1041.8 1785.04 1038.19C1783.42 1036.22 1783.42 1036.22 1782.33 1034.63C1783.43 1033.52 1783.43 1033.52 1784.55 1032.38C1785.4 1032.83 1786.26 1033.27 1787.14 1033.73C1788.27 1034.3 1789.39 1034.87 1790.55 1035.46C1791.67 1036.04 1792.78 1036.61 1793.93 1037.2C1796.87 1038.44 1798.48 1038.86 1801.59 1038.51C1801.71 1037.56 1801.83 1036.6 1801.96 1035.63C1802.43 1032.24 1802.43 1032.24 1803.14 1030.08C1803.53 1028.05 1803.53 1028.05 1801.77 1026.35C1801.09 1025.64 1800.4 1024.94 1799.69 1024.21C1798.44 1022.15 1797.23 1020.08 1796.06 1017.98C1797.38 1016.42 1797.38 1016.42 1798.72 1014.83C1803.7 1019.08 1808.3 1024.71 1808.93 1031.41C1808.84 1033.79 1808.65 1036.1 1808.3 1038.45C1809.28 1038.84 1810.26 1039.23 1811.27 1039.63C1815.23 1041.91 1815.74 1043.12 1817.31 1047.33C1817.74 1049.98 1818.07 1052.5 1818.27 1055.17C1818.33 1055.86 1818.4 1056.54 1818.47 1057.25C1818.9 1062.27 1818.9 1062.27 1817.89 1064.32C1819.05 1064.35 1820.2 1064.39 1821.39 1064.43C1827.59 1064.77 1832.14 1066.73 1837.61 1069.53C1837.86 1068.69 1838.11 1067.86 1838.36 1067C1842.92 1052.01 1842.92 1052.01 1847.09 1048.77C1849.51 1047.52 1849.51 1047.52 1852.19 1046.6C1853.46 1043.12 1853.74 1039.68 1853.98 1036C1854.07 1034.57 1854.07 1034.57 1854.17 1033.11C1854.21 1032.39 1854.26 1031.67 1854.3 1030.93C1853.18 1030.93 1852.05 1030.93 1850.89 1030.93C1846.67 1030.65 1843.83 1030.16 1840.41 1027.47C1839.11 1023.82 1838.6 1020.13 1838.09 1016.3C1837.22 1008.47 1837.22 1008.47 1832.61 1002.48C1830.11 1000.79 1827.57 999.175 1824.97 997.625C1824.32 998.324 1823.67 999.024 1823 999.745C1822.15 1000.65 1821.3 1001.56 1820.42 1002.5C1819.58 1003.4 1818.74 1004.3 1817.87 1005.24C1815.66 1007.54 1815.66 1007.54 1813.88 1008.89C1808.46 1006.89 1807.06 1002.98 1804.49 998.092C1802.14 994.957 1800.58 994.47 1796.76 993.822C1791.97 994.46 1790.95 996.604 1788 1000.21C1785.67 1002.34 1784.31 1002.7 1781.18 1002.89C1778.94 1002.42 1776.84 1001.73 1774.66 1001.01C1771.2 1000.61 1768.78 1001.8 1765.53 1003.01C1763.2 1003.61 1760.85 1004.18 1758.5 1004.72C1757.33 1004.99 1756.17 1005.26 1754.96 1005.53C1753.88 1005.77 1752.81 1006.01 1751.69 1006.25C1750.78 1006.47 1749.87 1006.68 1748.93 1006.9C1746.78 1007.19 1746.78 1007.19 1744.9 1005.92C1744.48 1005.46 1744.06 1005 1743.63 1004.53C1747.04 1001.2 1751.29 1000.56 1755.78 999.485C1756.54 999.296 1757.3 999.108 1758.08 998.914C1759.62 998.533 1761.16 998.156 1762.69 997.783C1765.85 997.004 1768.98 996.166 1772.12 995.323C1776.32 994.353 1778.76 996.046 1782.49 997.96C1786 995.389 1788.87 992.594 1790.46 988.505C1791.47 981.122 1790.84 973.55 1790.28 966.145C1788.26 964.954 1788.26 964.954 1784.75 965.658C1780.49 966.008 1777.85 964.892 1774.16 962.695C1774.74 961.51 1775.32 960.324 1775.92 959.103C1776.65 959.178 1777.38 959.252 1778.13 959.329C1779.57 959.46 1779.57 959.46 1781.04 959.594C1781.99 959.685 1782.94 959.776 1783.92 959.87C1786.6 959.912 1788.2 959.469 1790.67 958.539C1793.11 958.967 1793.11 958.967 1795.16 960.74C1795.79 964.005 1796.03 966.818 1796.13 970.124C1796.19 971.59 1796.25 973.056 1796.31 974.522C1796.47 978.719 1796.6 982.916 1796.71 987.114C1797.43 987.403 1798.15 987.691 1798.89 987.988C1804.96 990.643 1808.57 992.76 1811.58 998.754C1812.35 1000.56 1812.35 1000.56 1814.27 1001.29C1815.08 1000.28 1815.08 1000.28 1815.92 999.251C1816.63 998.382 1817.35 997.512 1818.09 996.617C1818.79 995.75 1819.5 994.883 1820.23 993.99C1822.24 991.832 1822.24 991.832 1824.92 990.917C1830.79 994.274 1836.16 998.343 1841.56 1002.41C1841.92 1001.58 1842.28 1000.75 1842.65 999.889C1844.89 995.735 1844.89 995.735 1847.75 994.314C1849.01 994.378 1850.26 994.442 1851.56 994.507C1853.7 994.573 1853.7 994.573 1855.8 993.803C1858.02 991.419 1859.7 988.947 1861.44 986.187C1862.88 983.908 1862.88 983.908 1864.65 982.552C1865.84 983.133 1867.02 983.714 1868.25 984.313C1867.08 986.621 1865.88 988.907 1864.67 991.189C1864.34 991.842 1864.01 992.495 1863.68 993.167C1861.87 996.501 1860.85 998.05 1857.22 999.318C1856.17 999.421 1855.13 999.524 1854.06 999.631C1850.2 1000.16 1848.23 1000.76 1845.59 1003.69C1842.76 1007.53 1842.76 1010.3 1843.37 1014.82C1843.92 1018.01 1844.57 1021.15 1845.31 1024.3C1848.9 1024.84 1852.3 1025.22 1855.93 1025.05C1861.56 1024.96 1866.28 1025.88 1871.55 1027.98C1874.84 1031.91 1873.95 1036.59 1873.62 1041.52C1875.03 1041.86 1876.44 1042.2 1877.85 1042.54C1878.63 1042.74 1879.42 1042.93 1880.22 1043.12C1882.35 1043.63 1884.47 1044.1 1886.61 1044.54C1886.9 1043.71 1886.9 1043.71 1887.19 1042.86C1890.03 1034.92 1893.14 1026.9 1898.49 1020.3C1897.79 1019.06 1897.07 1017.83 1896.34 1016.6C1895.94 1015.91 1895.54 1015.23 1895.13 1014.52C1893.53 1012.08 1893.53 1012.08 1890.66 1010.14C1887.55 1006.82 1887.51 1005.27 1887.56 1000.89C1887.6 1000.1 1887.63 999.311 1887.67 998.499C1887.69 997.713 1887.7 996.926 1887.72 996.116C1887.8 992.119 1888.02 988.138 1888.37 984.154C1889.92 984.363 1889.92 984.363 1891.5 984.576C1894.04 990.462 1894.37 996.07 1893.88 1002.45C1893.45 1003.34 1893.01 1004.22 1892.56 1005.14C1893.4 1005.62 1894.25 1006.11 1895.12 1006.6C1899.26 1009.38 1901.66 1013.42 1904.29 1017.57C1906.22 1014.64 1906.56 1013.44 1905.88 1009.92C1905.51 1008.8 1905.14 1007.68 1904.76 1006.53C1902.77 1000.42 1902.77 1000.42 1903.23 997.006C1903.82 996.559 1904.4 996.111 1905.01 995.65C1908.12 997.788 1908.78 999.647 1909.62 1003.27C1910.32 1006.2 1911.01 1008.77 1912.18 1011.55C1913.01 1014.95 1911.87 1016.34 1910.11 1019.31Z" fill="white" fill-opacity="0.6"/>
<path d="M1004.09 149.746C1002.92 146.952 1002.92 146.952 1001.95 143.913C999.637 137.681 996.685 134.045 991.747 129.703C990.871 128.907 989.995 128.111 989.092 127.292C986.751 125.181 984.392 123.095 982.015 121.026C983.663 115.296 986.575 111.055 990.08 106.331C981.352 104.129 981.352 104.129 972.52 102.409C968.954 101.676 958.087 99.057 956.007 96.8948C957.445 95.1215 954.399 95.6398 956.564 93.947C967.984 93.9324 995.049 101.316 1005.66 105.22C1007.82 102.461 1007.82 102.461 1010.01 99.6469C1004.18 96.2479 1004.18 96.2479 998.113 93.3153C995.5 92.0551 994.188 91.1158 992.545 88.6982C992.599 86.9379 992.599 86.9379 992.653 85.142C992.392 80.345 989.988 78.2984 986.543 75.1935C985.822 74.5796 985.101 73.9656 984.358 73.3331C982.936 72.0783 981.516 70.8205 980.099 69.5593C979.466 69.015 978.833 68.4707 978.181 67.9099C976.712 66.4655 976.712 66.4655 976.046 64.3308C977.52 62.0937 979.025 59.9677 980.637 57.834C984.513 52.7299 984.513 52.7299 986.995 46.8629C988.317 44.8111 988.317 44.8111 990.599 43.3969C997.906 42.8997 1005.46 45.5279 1012.45 47.3585C1015.31 44.0902 1017 41.4384 1018.39 37.3076C1020.47 31.8342 1024.2 28.7548 1029.13 25.7589C1031.54 24.9079 1031.54 24.9079 1033.4 24.4275C1034.07 25.841 1034.07 25.841 1034.76 27.283C1034.05 27.9346 1033.34 28.5863 1032.61 29.2577C1031.68 30.1205 1030.76 30.9832 1029.81 31.872C1028.89 32.7239 1027.97 33.5757 1027.02 34.4534C1024.86 36.7884 1023.9 38.1577 1023.17 41.2022C1024.03 41.6418 1024.88 42.0814 1025.76 42.5343C1028.78 44.1402 1028.78 44.1402 1030.56 45.5452C1032.34 46.6009 1032.34 46.6009 1034.54 45.5343C1035.44 45.1287 1036.33 44.7232 1037.26 44.3054C1039.62 43.8383 1041.98 43.4043 1044.36 43.0291C1045.37 44.7993 1045.37 44.7993 1046.41 46.6052C1040.7 49.8324 1033.85 52.23 1027.34 50.5271C1025.13 49.6245 1023.02 48.6602 1020.93 47.5236C1020.23 48.3123 1019.53 49.1009 1018.81 49.9134C1015.31 52.8569 1014 52.9256 1009.51 52.9592C1006.86 52.453 1004.38 51.896 1001.81 51.1738C1001.14 51.0008 1000.48 50.8279 999.794 50.6497C994.927 49.3398 994.927 49.3398 993.344 47.6938C992.915 48.7648 992.485 49.8359 992.043 50.9394C989.604 56.648 986.208 60.2518 981.702 64.4409C982.4 64.9586 983.098 65.4764 983.818 66.0098C996.347 75.4147 996.347 75.4147 997.966 80.4495C998.311 83.1525 998.311 83.1525 998.256 85.9804C1001.09 88.3611 1004.24 89.811 1007.61 91.2901C1008.92 91.8681 1008.92 91.8681 1010.26 92.4577C1010.92 92.7441 1011.58 93.0304 1012.26 93.3255C1012.64 92.2681 1013.03 91.2108 1013.43 90.1214C1015.13 86.2513 1016.57 83.751 1020.27 81.4583C1024.14 81.4778 1027.78 82.2688 1031.55 83.0925C1039.22 84.9613 1039.22 84.9613 1046.41 82.6746C1048.86 80.901 1051.25 79.0659 1053.59 77.1565C1053.16 76.3047 1052.72 75.4529 1052.28 74.5754C1051.71 73.4677 1051.15 72.3599 1050.57 71.2187C1050.01 70.1165 1049.45 69.0143 1048.87 67.8787C1047.46 65.014 1047.46 65.014 1046.8 62.8794C1050.53 58.4672 1054.68 58.4989 1060.16 57.7523C1063.91 56.6119 1064.9 55.3166 1066.81 51.9532C1067.85 47.2335 1066.19 45.5378 1063.81 41.5348C1062.6 38.617 1062.73 37.217 1063.62 34.2101C1064.84 32.2592 1066.2 30.5258 1067.62 28.7267C1069.19 25.6082 1068.9 22.9252 1068.86 19.46C1069.1 17.0602 1069.36 14.6633 1069.66 12.2706C1069.81 11.0819 1069.96 9.89318 1070.11 8.66845C1070.25 7.57272 1070.4 6.477 1070.55 5.34807C1070.66 4.41853 1070.78 3.489 1070.89 2.53129C1071.35 0.413026 1071.35 0.413026 1073.19 -0.921462C1073.77 -1.15827 1074.34 -1.39508 1074.93 -1.63907C1076.89 2.70935 1076.04 6.91517 1075.51 11.5005C1075.43 12.2797 1075.35 13.0589 1075.26 13.8618C1075.09 15.436 1074.92 17.0098 1074.75 18.5831C1074.4 21.8121 1074.11 25.0458 1073.83 28.2811C1073.31 32.5599 1070.88 34.2719 1067.81 37.1205C1069.02 41.2987 1070.67 44.9531 1073.97 47.849C1080.56 51.3209 1087.89 53.3209 1095.04 55.3317C1096.85 53.8339 1096.85 53.8339 1097.39 50.2942C1098.52 46.178 1100.47 44.0719 1103.8 41.3574C1104.71 42.3088 1105.63 43.2602 1106.57 44.2404C1106.25 44.8997 1105.93 45.559 1105.6 46.2383C1104.99 47.5473 1104.99 47.5473 1104.36 48.8828C1103.95 49.7445 1103.54 50.6063 1103.11 51.4941C1102.16 54.0002 1102.02 55.6576 1102.05 58.2972C1100.82 60.4391 1100.82 60.4391 1098.45 61.7633C1095.16 61.2397 1092.44 60.4991 1089.3 59.4634C1087.9 59.0165 1086.5 58.5704 1085.11 58.1248C1081.11 56.8411 1077.12 55.5257 1073.14 54.198C1072.62 54.776 1072.1 55.3539 1071.57 55.9494C1067 60.7428 1063.77 63.4119 1057.11 64.1907C1055.15 64.2894 1055.15 64.2894 1053.81 65.8449C1054.48 66.9574 1054.48 66.9574 1055.16 68.0923C1055.73 69.0626 1056.31 70.0328 1056.89 71.0324C1057.47 71.9953 1058.04 72.9583 1058.63 73.9504C1059.97 76.5734 1059.97 76.5734 1059.91 79.4013C1054.75 83.7741 1049.09 87.4222 1043.42 91.1032C1044.08 91.7287 1044.74 92.3542 1045.42 92.9986C1048.55 96.5224 1048.55 96.5224 1048.91 99.697C1048.42 100.854 1047.93 102.012 1047.43 103.204C1046.63 105.202 1046.63 105.202 1046.64 107.432C1048.12 110.339 1049.86 112.764 1051.87 115.336C1053.52 117.468 1053.52 117.468 1054.18 119.602C1053.23 120.517 1052.28 121.432 1051.3 122.375C1049.53 120.488 1047.79 118.583 1046.06 116.66C1045.56 116.13 1045.06 115.6 1044.54 115.054C1042.03 112.216 1040.92 110.727 1040.97 106.877C1041.23 105.862 1041.49 104.847 1041.76 103.801C1042.58 99.9973 1042.69 97.9384 1040.84 94.4565C1038.2 90.4869 1035.6 89.5402 1031.14 88.5592C1027.96 87.9859 1024.78 87.526 1021.57 87.1416C1019.84 90.3385 1018.31 93.3974 1017.23 96.87C1015.38 102.189 1012.91 106.309 1009.14 110.548C1004.32 112.295 1000.22 109.848 995.709 107.855C994.904 109.062 994.099 110.27 993.295 111.477C992.847 112.149 992.4 112.822 991.938 113.514C990.739 115.338 989.57 117.175 988.419 119.029C989.103 119.584 989.103 119.584 989.8 120.15C996.293 125.532 1002.76 131.202 1007.14 138.489C1008.54 138.25 1009.95 137.994 1011.35 137.731C1012.13 137.591 1012.91 137.45 1013.72 137.305C1016.55 136.633 1016.55 136.633 1019.36 134.603C1023.55 132.815 1025.01 133.307 1029.12 134.856C1029.84 135.16 1030.57 135.464 1031.32 135.777C1032.06 136.06 1032.79 136.342 1033.55 136.633C1037.27 138.082 1040.94 139.652 1044.56 141.34C1043.84 142.726 1043.84 142.726 1043.09 144.14C1036.7 144.507 1031.31 142.903 1025.49 140.261C1024.8 139.547 1024.12 138.834 1023.41 138.099C1022.67 138.726 1021.93 139.354 1021.16 140C1017.13 142.946 1012.52 143.817 1007.72 144.866C1009.82 147.685 1010.83 148.411 1014.36 148.981C1015.54 149.016 1016.72 149.051 1017.94 149.087C1024.35 149.306 1024.35 149.306 1027.4 150.907C1027.62 151.611 1027.84 152.316 1028.07 153.042C1025 155.236 1023.02 155.219 1019.33 154.772C1016.34 154.428 1013.68 154.191 1010.67 154.338C1007.19 153.954 1006.28 152.412 1004.09 149.746Z" fill="white" fill-opacity="0.6"/>
<path d="M124.733 692.023C124.295 689.027 124.295 689.027 124.109 685.842C123.422 679.231 121.466 674.976 117.762 669.542C117.111 668.554 116.461 667.565 115.79 666.547C114.047 663.921 112.281 661.314 110.492 658.719C113.513 653.578 117.387 650.194 121.957 646.49C114.05 642.187 114.05 642.187 105.923 638.326C102.65 636.73 92.7754 631.492 91.2985 628.88C93.1321 627.52 90.0525 627.265 92.5711 626.164C103.636 628.988 128.016 642.867 137.325 649.286C140.098 647.15 140.098 647.15 142.926 644.97C138.123 640.228 138.123 640.228 132.973 635.879C130.755 634.009 129.718 632.773 128.728 630.023C129.217 628.331 129.217 628.331 129.716 626.605C130.656 621.894 128.835 619.314 126.27 615.45C125.724 614.676 125.178 613.902 124.616 613.105C123.55 611.536 122.488 609.965 121.429 608.391C120.951 607.707 120.473 607.022 119.981 606.317C118.917 604.552 118.917 604.552 118.803 602.319C120.787 600.519 122.773 598.834 124.864 597.167C129.888 593.187 129.888 593.187 133.75 588.121C135.54 586.462 135.54 586.462 138.102 585.659C145.304 586.994 151.966 591.417 158.279 594.927C161.867 592.474 164.165 590.326 166.533 586.668C169.905 581.883 174.29 579.829 179.811 578.153C182.353 577.927 182.353 577.927 184.277 577.925C184.577 579.461 184.577 579.461 184.884 581.028C184.033 581.483 183.182 581.937 182.306 582.405C181.197 583.012 180.089 583.618 178.947 584.242C177.845 584.839 176.743 585.436 175.607 586.051C172.927 587.773 171.662 588.862 170.201 591.631C170.917 592.268 171.633 592.906 172.371 593.563C174.895 595.868 174.895 595.868 176.275 597.673C177.734 599.137 177.734 599.137 180.131 598.651C181.102 598.482 182.072 598.312 183.072 598.137C185.472 598.271 187.871 598.438 190.264 598.665C190.807 600.632 190.807 600.632 191.362 602.639C185.036 604.347 177.796 604.965 171.914 601.697C170.001 600.274 168.201 598.817 166.455 597.196C165.58 597.785 164.705 598.375 163.804 598.983C159.69 600.966 158.401 600.706 154.041 599.622C151.606 598.474 149.343 597.319 147.026 595.978C146.425 595.646 145.824 595.313 145.206 594.97C140.817 592.492 140.817 592.492 139.693 590.504C139.011 591.435 138.329 592.365 137.626 593.324C133.844 598.247 129.659 600.894 124.254 603.832C124.801 604.507 125.349 605.182 125.913 605.877C135.711 618.101 135.711 618.101 136.028 623.38C135.691 626.085 135.691 626.085 134.935 628.81C137.092 631.821 139.775 634.007 142.677 636.279C143.802 637.164 143.802 637.164 144.95 638.067C145.518 638.509 146.086 638.95 146.671 639.405C147.307 638.476 147.943 637.548 148.599 636.591C151.214 633.267 153.227 631.202 157.38 629.901C161.124 630.882 164.457 632.554 167.904 634.289C174.861 638.003 174.861 638.003 182.402 637.578C185.216 636.469 187.982 635.284 190.728 634.017C190.519 633.084 190.309 632.151 190.094 631.19C189.824 629.977 189.554 628.764 189.276 627.515C189.006 626.307 188.737 625.1 188.459 623.857C187.81 620.733 187.81 620.733 187.695 618.499C192.408 615.153 196.423 616.217 201.911 616.854C205.828 616.682 207.109 615.673 209.799 612.891C211.979 608.578 210.788 606.522 209.48 602.054C209.032 598.926 209.507 597.603 211.118 594.912C212.777 593.324 214.527 591.983 216.355 590.595C218.644 587.962 219.03 585.292 219.858 581.927C220.683 579.661 221.538 577.406 222.423 575.162C222.86 574.047 223.297 572.932 223.747 571.783C224.161 570.758 224.575 569.733 225.002 568.677C225.342 567.805 225.683 566.933 226.033 566.034C227.006 564.097 227.006 564.097 229.119 563.261C229.733 563.174 230.347 563.088 230.98 562.998C231.798 567.697 229.93 571.56 228.28 575.87C228.006 576.605 227.732 577.339 227.449 578.095C226.896 579.578 226.338 581.06 225.777 582.54C224.639 585.582 223.558 588.643 222.482 591.707C220.91 595.721 218.135 596.776 214.45 598.772C214.588 603.121 215.273 607.069 217.747 610.694C223.27 615.695 229.873 619.454 236.297 623.179C238.425 622.179 238.425 622.179 239.828 618.884C241.941 615.177 244.358 613.623 248.254 611.82C248.904 612.969 249.554 614.118 250.224 615.302C249.751 615.861 249.278 616.421 248.79 616.997C247.868 618.112 247.868 618.112 246.927 619.249C246.315 619.981 245.703 620.714 245.073 621.469C243.523 623.658 242.983 625.231 242.354 627.795C240.626 629.563 240.626 629.563 238.002 630.256C234.951 628.933 232.498 627.539 229.712 625.755C228.469 624.974 227.227 624.195 225.983 623.416C222.429 621.179 218.893 618.913 215.364 616.637C214.719 617.068 214.074 617.499 213.41 617.944C207.792 621.451 204.005 623.234 197.358 622.333C195.434 621.941 195.434 621.941 193.753 623.115C194.123 624.359 194.123 624.359 194.501 625.628C194.813 626.709 195.126 627.791 195.448 628.906C195.763 629.981 196.078 631.056 196.402 632.163C197.049 635.037 197.049 635.037 196.293 637.763C190.203 640.715 183.816 642.842 177.408 644.998C177.89 645.767 178.373 646.537 178.87 647.33C181.034 651.523 181.034 651.523 180.59 654.687C179.828 655.686 179.067 656.686 178.282 657.715C177.014 659.452 177.014 659.452 176.466 661.614C177.176 664.798 178.266 667.581 179.565 670.569C180.633 673.044 180.633 673.044 180.747 675.277C179.598 675.927 178.449 676.577 177.266 677.247C176.021 674.979 174.81 672.701 173.613 670.408C173.259 669.771 172.905 669.133 172.54 668.475C170.81 665.101 170.108 663.385 171.116 659.668C171.619 658.75 172.123 657.831 172.642 656.884C174.387 653.405 175 651.437 174.07 647.603C172.505 643.103 170.221 641.54 166.145 639.481C163.205 638.135 160.246 636.901 157.231 635.73C154.754 638.395 152.517 640.979 150.604 644.073C147.497 648.767 144.072 652.141 139.368 655.311C134.265 655.805 130.908 652.418 127.03 649.365C125.95 650.334 124.871 651.304 123.792 652.273C123.191 652.813 122.59 653.353 121.971 653.909C120.356 655.377 118.767 656.867 117.191 658.376C117.716 659.084 117.716 659.084 118.251 659.806C123.202 666.632 128.061 673.733 130.484 681.878C131.906 681.996 133.33 682.097 134.754 682.191C135.546 682.249 136.339 682.308 137.156 682.367C140.069 682.421 140.069 682.421 143.294 681.153C147.794 680.462 149.09 681.302 152.678 683.822C153.308 684.298 153.937 684.773 154.586 685.263C155.227 685.719 155.867 686.175 156.527 686.645C159.777 688.975 162.936 691.406 166.029 693.942C164.98 695.104 164.98 695.104 163.91 696.289C157.623 695.055 152.806 692.162 147.821 688.156C147.334 687.294 146.846 686.433 146.344 685.545C145.47 685.968 144.596 686.391 143.695 686.828C139.062 688.68 134.377 688.377 129.463 688.199C130.793 691.451 131.592 692.406 134.873 693.837C136.008 694.164 137.142 694.491 138.311 694.827C144.471 696.634 144.471 696.634 147.029 698.944C147.067 699.681 147.105 700.417 147.143 701.177C143.621 702.538 141.715 702.031 138.246 700.68C135.438 699.605 132.924 698.715 129.97 698.109C126.697 696.872 126.192 695.15 124.733 692.023Z" fill="white" fill-opacity="0.6"/>
<path d="M1180.21 507.167C1183.21 506.751 1183.21 506.751 1186.39 506.589C1193.01 505.952 1197.28 504.028 1202.74 500.365C1203.74 499.722 1204.73 499.078 1205.75 498.416C1208.39 496.692 1211.01 494.946 1213.62 493.177C1218.74 496.236 1222.09 500.136 1225.76 504.733C1230.12 496.859 1230.12 496.859 1234.05 488.761C1235.67 485.501 1240.98 475.666 1243.6 474.208C1244.95 476.052 1245.23 472.975 1246.31 475.501C1243.4 486.545 1229.34 510.819 1222.85 520.08C1224.97 522.868 1224.97 522.868 1227.12 525.713C1231.9 520.946 1231.9 520.946 1236.29 515.829C1238.18 513.625 1239.42 512.597 1242.18 511.628C1243.87 512.13 1243.87 512.13 1245.59 512.642C1250.29 513.617 1252.89 511.816 1256.77 509.28C1257.55 508.74 1258.32 508.2 1259.13 507.644C1260.7 506.59 1262.28 505.539 1263.86 504.492C1264.55 504.02 1265.24 503.547 1265.95 503.06C1267.72 502.009 1267.72 502.009 1269.96 501.912C1271.74 503.909 1273.41 505.908 1275.06 508.012C1279 513.065 1279 513.065 1284.04 516.965C1285.69 518.768 1285.69 518.768 1286.47 521.336C1285.08 528.527 1280.61 535.156 1277.05 541.442C1279.48 545.049 1281.61 547.363 1285.25 549.758C1290.01 553.166 1292.03 557.566 1293.66 563.1C1293.87 565.644 1293.87 565.644 1293.86 567.568C1292.32 567.857 1292.32 567.857 1290.75 568.151C1290.3 567.297 1289.85 566.443 1289.39 565.563C1288.79 564.45 1288.19 563.337 1287.58 562.19C1286.99 561.084 1286.4 559.977 1285.8 558.837C1284.09 556.144 1283.01 554.871 1280.26 553.389C1279.61 554.1 1278.97 554.811 1278.31 555.544C1275.98 558.051 1275.98 558.051 1274.17 559.417C1272.69 560.865 1272.69 560.865 1273.16 563.266C1273.32 564.238 1273.49 565.209 1273.65 566.21C1273.5 568.609 1273.32 571.007 1273.07 573.398C1271.1 573.927 1271.1 573.927 1269.09 574.467C1267.43 568.128 1266.87 560.883 1270.18 555.026C1271.61 553.124 1273.09 551.335 1274.72 549.601C1274.14 548.722 1273.55 547.843 1272.95 546.937C1271 542.808 1271.27 541.521 1272.39 537.169C1273.55 534.743 1274.73 532.489 1276.08 530.181C1276.42 529.583 1276.76 528.985 1277.11 528.369C1279.62 523.999 1279.62 523.999 1281.61 522.89C1280.69 522.201 1279.76 521.512 1278.81 520.802C1273.91 516.983 1271.3 512.779 1268.4 507.351C1267.72 507.894 1267.04 508.436 1266.34 508.995C1254.05 518.701 1254.05 518.701 1248.76 518.978C1246.06 518.621 1246.06 518.621 1243.34 517.844C1240.32 519.978 1238.11 522.645 1235.82 525.53C1234.92 526.648 1234.92 526.648 1234.01 527.789C1233.57 528.354 1233.12 528.919 1232.66 529.5C1233.58 530.143 1234.51 530.786 1235.46 531.449C1238.76 534.089 1240.81 536.118 1242.08 540.281C1241.07 544.017 1239.38 547.337 1237.62 550.771C1233.85 557.7 1233.85 557.7 1234.22 565.244C1235.31 568.066 1236.47 570.841 1237.72 573.596C1238.65 573.394 1239.59 573.192 1240.55 572.983C1241.76 572.722 1242.98 572.462 1244.23 572.193C1245.44 571.933 1246.65 571.672 1247.89 571.404C1251.02 570.778 1251.02 570.778 1253.26 570.681C1256.57 575.418 1255.47 579.425 1254.79 584.908C1254.94 588.827 1255.94 590.115 1258.7 592.825C1263 595.038 1265.06 593.863 1269.54 592.589C1272.67 592.164 1273.99 592.649 1276.67 594.28C1278.24 595.952 1279.57 597.711 1280.95 599.549C1283.56 601.858 1286.23 602.265 1289.59 603.117C1291.85 603.96 1294.09 604.832 1296.33 605.733C1297.44 606.179 1298.55 606.624 1299.7 607.083C1300.72 607.505 1301.74 607.926 1302.8 608.361C1303.67 608.708 1304.54 609.055 1305.43 609.412C1307.36 610.4 1307.36 610.4 1308.18 612.519C1308.26 613.134 1308.35 613.749 1308.43 614.382C1303.73 615.165 1299.88 613.267 1295.58 611.585C1294.85 611.305 1294.11 611.026 1293.36 610.738C1291.88 610.173 1290.4 609.604 1288.93 609.032C1285.9 607.871 1282.84 606.767 1279.79 605.668C1275.78 604.066 1274.75 601.283 1272.78 597.583C1268.43 597.689 1264.48 598.343 1260.84 600.79C1255.79 606.275 1251.98 612.849 1248.21 619.245C1249.2 621.381 1249.2 621.381 1252.48 622.808C1256.17 624.95 1257.71 627.378 1259.48 631.288C1258.33 631.929 1257.17 632.571 1255.98 633.231C1255.43 632.754 1254.87 632.277 1254.3 631.785C1253.19 630.854 1253.19 630.854 1252.06 629.905C1251.33 629.287 1250.61 628.67 1249.86 628.034C1247.68 626.468 1246.11 625.916 1243.55 625.268C1241.8 623.526 1241.8 623.526 1241.12 620.897C1242.47 617.857 1243.88 615.413 1245.69 612.641C1246.47 611.405 1247.26 610.168 1248.05 608.931C1250.32 605.393 1252.61 601.874 1254.91 598.362C1254.48 597.714 1254.06 597.066 1253.62 596.399C1250.15 590.754 1248.4 586.954 1249.35 580.314C1249.76 578.393 1249.76 578.393 1248.6 576.703C1247.35 577.064 1247.35 577.064 1246.08 577.432C1244.99 577.737 1243.91 578.041 1242.79 578.355C1241.71 578.662 1240.64 578.968 1239.53 579.284C1236.65 579.91 1236.65 579.91 1233.93 579.133C1231.02 573.021 1228.94 566.618 1226.84 560.194C1226.06 560.671 1225.29 561.147 1224.49 561.639C1220.28 563.77 1220.28 563.77 1217.12 563.303C1216.13 562.534 1215.14 561.765 1214.11 560.972C1212.39 559.691 1212.39 559.691 1210.23 559.127C1207.04 559.813 1204.25 560.883 1201.25 562.159C1198.77 563.208 1198.77 563.208 1196.53 563.305C1195.89 562.151 1195.25 560.998 1194.59 559.809C1196.87 558.581 1199.15 557.388 1201.46 556.208C1202.1 555.859 1202.74 555.51 1203.4 555.15C1206.78 553.445 1208.51 552.756 1212.21 553.791C1213.13 554.302 1214.04 554.813 1214.99 555.339C1218.45 557.109 1220.42 557.738 1224.26 556.837C1228.77 555.306 1230.35 553.034 1232.44 548.973C1233.81 546.043 1235.06 543.093 1236.26 540.087C1233.61 537.59 1231.04 535.334 1227.96 533.398C1223.29 530.256 1219.94 526.805 1216.81 522.078C1216.35 516.971 1219.77 513.64 1222.85 509.784C1221.89 508.697 1220.93 507.611 1219.96 506.525C1219.43 505.92 1218.89 505.315 1218.34 504.691C1216.89 503.066 1215.41 501.465 1213.91 499.878C1213.2 500.398 1213.2 500.398 1212.47 500.927C1205.61 505.827 1198.47 510.632 1190.31 512.993C1190.18 514.415 1190.07 515.838 1189.97 517.261C1189.9 518.053 1189.84 518.845 1189.77 519.662C1189.7 522.574 1189.7 522.574 1190.94 525.809C1191.6 530.314 1190.75 531.604 1188.2 535.173C1187.72 535.799 1187.24 536.425 1186.74 537.07C1186.28 537.707 1185.82 538.344 1185.35 539C1182.99 542.233 1180.54 545.373 1177.98 548.447C1176.83 547.389 1176.83 547.389 1175.65 546.31C1176.93 540.033 1179.86 535.237 1183.9 530.283C1184.77 529.802 1185.63 529.321 1186.52 528.826C1186.11 527.948 1185.69 527.071 1185.26 526.167C1183.44 521.52 1183.78 516.837 1184 511.926C1180.74 513.231 1179.77 514.022 1178.32 517.293C1177.98 518.425 1177.65 519.557 1177.3 520.723C1175.45 526.869 1175.45 526.869 1173.12 529.41C1172.38 529.442 1171.65 529.474 1170.89 529.507C1169.55 525.975 1170.07 524.073 1171.45 520.614C1172.55 517.814 1173.46 515.307 1174.08 512.358C1175.35 509.094 1177.07 508.602 1180.21 507.167Z" fill="white" fill-opacity="0.6"/>
<path d="M1382.71 1033C1379.95 1034.24 1379.95 1034.24 1376.94 1035.29C1370.77 1037.76 1367.21 1040.8 1362.99 1045.85C1362.22 1046.74 1361.45 1047.64 1360.65 1048.56C1358.6 1050.96 1356.57 1053.37 1354.57 1055.8C1348.8 1054.3 1344.48 1051.49 1339.67 1048.11C1337.69 1056.89 1337.69 1056.89 1336.2 1065.77C1335.56 1069.35 1333.22 1080.28 1331.11 1082.41C1329.3 1081.02 1329.89 1084.05 1328.15 1081.93C1327.84 1070.52 1334.53 1043.27 1338.16 1032.56C1335.35 1030.48 1335.35 1030.48 1332.48 1028.35C1329.23 1034.27 1329.23 1034.27 1326.45 1040.41C1325.26 1043.06 1324.36 1044.39 1321.98 1046.1C1320.22 1046.09 1320.22 1046.09 1318.42 1046.08C1313.63 1046.46 1311.65 1048.92 1308.63 1052.44C1308.04 1053.18 1307.44 1053.91 1306.83 1054.67C1305.61 1056.13 1304.39 1057.58 1303.17 1059.03C1302.64 1059.67 1302.11 1060.32 1301.57 1060.99C1300.16 1062.49 1300.16 1062.49 1298.04 1063.21C1295.77 1061.8 1293.6 1060.35 1291.43 1058.79C1286.23 1055.04 1286.23 1055.04 1280.3 1052.71C1278.22 1051.44 1278.22 1051.44 1276.74 1049.2C1276.06 1041.91 1278.49 1034.29 1280.15 1027.26C1276.81 1024.48 1274.11 1022.85 1269.95 1021.57C1264.42 1019.64 1261.25 1015.98 1258.13 1011.13C1257.22 1008.74 1257.22 1008.74 1256.69 1006.89C1258.08 1006.18 1258.08 1006.18 1259.51 1005.46C1260.18 1006.16 1260.85 1006.85 1261.54 1007.57C1262.42 1008.47 1263.31 1009.37 1264.22 1010.29C1265.1 1011.19 1265.97 1012.09 1266.87 1013.01C1269.26 1015.12 1270.66 1016.04 1273.72 1016.69C1274.14 1015.83 1274.55 1014.96 1274.98 1014.07C1276.51 1011.02 1276.51 1011.02 1277.87 1009.2C1278.88 1007.39 1278.88 1007.39 1277.76 1005.22C1277.33 1004.33 1276.9 1003.44 1276.46 1002.53C1275.93 1000.19 1275.44 997.832 1275 995.468C1276.75 994.408 1276.75 994.408 1278.53 993.326C1281.9 998.945 1284.47 1005.74 1282.93 1012.29C1282.09 1014.52 1281.18 1016.65 1280.1 1018.77C1280.9 1019.45 1281.71 1020.13 1282.54 1020.83C1285.57 1024.25 1285.67 1025.56 1285.82 1030.05C1285.38 1032.71 1284.89 1035.2 1284.23 1037.8C1284.08 1038.46 1283.92 1039.13 1283.76 1039.82C1282.57 1044.72 1282.57 1044.72 1280.97 1046.34C1282.05 1046.75 1283.13 1047.15 1284.25 1047.56C1290.02 1049.86 1293.71 1053.16 1298.01 1057.56C1298.51 1056.84 1299.01 1056.13 1299.52 1055.4C1308.6 1042.64 1308.6 1042.64 1313.6 1040.89C1316.29 1040.47 1316.29 1040.47 1319.12 1040.46C1321.43 1037.56 1322.79 1034.38 1324.19 1030.97C1324.73 1029.64 1324.73 1029.64 1325.29 1028.29C1325.56 1027.63 1325.83 1026.96 1326.1 1026.27C1325.04 1025.91 1323.97 1025.56 1322.87 1025.19C1318.96 1023.58 1316.42 1022.21 1314.04 1018.57C1313.96 1014.7 1314.65 1011.03 1315.38 1007.24C1317.05 999.537 1317.05 999.537 1314.58 992.4C1312.75 989.996 1310.85 987.659 1308.88 985.363C1308.04 985.82 1307.2 986.276 1306.34 986.746C1305.24 987.337 1304.15 987.928 1303.03 988.537C1301.94 989.126 1300.85 989.715 1299.73 990.322C1296.9 991.8 1296.9 991.8 1294.79 992.52C1290.28 988.901 1290.21 984.749 1289.32 979.295C1288.08 975.573 1286.76 974.617 1283.35 972.79C1278.61 971.871 1276.95 973.578 1273.01 976.057C1270.13 977.342 1268.72 977.247 1265.7 976.433C1263.71 975.27 1261.95 973.954 1260.11 972.575C1256.95 971.092 1254.28 971.45 1250.82 971.573C1248.41 971.398 1246.01 971.192 1243.61 970.954C1242.42 970.838 1241.23 970.722 1240 970.603C1238.9 970.485 1237.8 970.366 1236.67 970.245C1235.73 970.155 1234.8 970.066 1233.84 969.974C1231.71 969.567 1231.71 969.567 1230.33 967.764C1230.08 967.197 1229.83 966.629 1229.57 966.045C1233.87 963.974 1238.09 964.716 1242.69 965.126C1243.47 965.189 1244.25 965.252 1245.06 965.317C1246.64 965.445 1248.21 965.576 1249.79 965.711C1253.03 965.975 1256.27 966.178 1259.51 966.376C1263.8 966.792 1265.57 969.173 1268.5 972.173C1272.64 970.852 1276.26 969.114 1279.07 965.745C1282.37 959.065 1284.18 951.686 1286.01 944.489C1284.47 942.715 1284.47 942.715 1280.91 942.266C1276.77 941.246 1274.61 939.345 1271.82 936.09C1272.74 935.151 1273.67 934.212 1274.63 933.244C1275.29 933.546 1275.96 933.849 1276.65 934.16C1277.97 934.743 1277.97 934.743 1279.32 935.337C1280.2 935.725 1281.07 936.114 1281.97 936.514C1284.5 937.407 1286.16 937.496 1288.79 937.401C1290.97 938.581 1290.97 938.581 1292.35 940.915C1291.91 944.211 1291.24 946.953 1290.29 950.12C1289.87 951.528 1289.46 952.937 1289.05 954.345C1287.87 958.376 1286.66 962.396 1285.43 966.413C1286.03 966.916 1286.62 967.418 1287.23 967.935C1292.13 972.382 1294.88 975.538 1295.83 982.177C1295.98 984.135 1295.98 984.135 1297.57 985.432C1298.67 984.736 1298.67 984.736 1299.78 984.026C1300.74 983.43 1301.69 982.833 1302.68 982.219C1303.63 981.622 1304.57 981.026 1305.55 980.412C1308.14 979.004 1308.14 979.004 1310.97 978.987C1315.47 984.038 1319.26 989.602 1323.09 995.177C1323.69 994.502 1324.3 993.828 1324.93 993.133C1328.37 989.906 1328.37 989.906 1331.54 989.469C1332.71 989.928 1333.88 990.388 1335.08 990.861C1337.1 991.607 1337.1 991.607 1339.33 991.543C1342.2 989.99 1344.58 988.181 1347.1 986.115C1349.18 984.412 1349.18 984.412 1351.3 983.692C1352.24 984.619 1353.18 985.547 1354.15 986.503C1352.31 988.32 1350.45 990.107 1348.57 991.884C1348.05 992.399 1347.53 992.914 1347 993.445C1344.23 996.031 1342.77 997.175 1338.92 997.221C1337.9 996.988 1336.87 996.754 1335.82 996.514C1332 995.786 1329.94 995.733 1326.5 997.675C1322.6 1000.41 1321.72 1003.03 1320.86 1007.52C1320.36 1010.71 1319.99 1013.9 1319.68 1017.12C1322.92 1018.77 1326.02 1020.22 1329.52 1021.21C1334.88 1022.92 1339.07 1025.29 1343.4 1028.95C1345.27 1033.73 1342.93 1037.88 1341.05 1042.44C1342.28 1043.22 1343.51 1043.99 1344.73 1044.76C1345.42 1045.2 1346.1 1045.63 1346.8 1046.07C1348.66 1047.22 1350.52 1048.34 1352.41 1049.45C1352.94 1048.75 1352.94 1048.75 1353.49 1048.04C1358.71 1041.41 1364.21 1034.8 1371.38 1030.24C1371.11 1028.84 1370.82 1027.44 1370.52 1026.05C1370.36 1025.27 1370.2 1024.49 1370.03 1023.69C1369.29 1020.87 1369.29 1020.87 1367.19 1018.11C1365.29 1013.97 1365.75 1012.5 1367.19 1008.36C1367.48 1007.62 1367.76 1006.89 1368.05 1006.13C1368.32 1005.39 1368.58 1004.65 1368.85 1003.88C1370.21 1000.12 1371.68 996.419 1373.28 992.751C1374.68 993.443 1374.68 993.443 1376.11 994.148C1376.64 1000.53 1375.18 1005.96 1372.69 1011.85C1371.99 1012.55 1371.29 1013.26 1370.58 1013.98C1371.22 1014.71 1371.87 1015.43 1372.54 1016.18C1375.58 1020.13 1376.57 1024.72 1377.74 1029.49C1380.51 1027.33 1381.21 1026.3 1381.69 1022.75C1381.69 1021.57 1381.7 1020.39 1381.7 1019.17C1381.76 1012.75 1381.76 1012.75 1383.28 1009.66C1383.98 1009.42 1384.68 1009.19 1385.4 1008.94C1387.67 1011.96 1387.7 1013.93 1387.35 1017.64C1387.08 1020.63 1386.91 1023.29 1387.14 1026.3C1386.84 1029.79 1385.32 1030.74 1382.71 1033Z" fill="white" fill-opacity="0.6"/>
</g>
<defs>
<clipPath id="clip0_1535_70">
<rect width="1920" height="1080" fill="white"/>
</clipPath>
</defs>
</svg>
