<svg viewBox="0 0 245 55" fill="none" xmlns="http://www.w3.org/2000/svg">
<g filter="url(#filter0_b_12_2)">
<path d="M46.5302 23.5629C42.5143 23.5629 39.6838 26.4004 39.6838 30.2712C39.6838 34.142 42.5143 36.9821 46.5302 36.9821C47.0075 36.9821 47.4619 36.9388 47.901 36.8625L47.0151 34.1776C46.8577 34.1904 46.6978 34.1954 46.5302 34.1954C44.6263 34.1954 43.3114 33.1113 42.9002 31.4088V31.3579H53.3259V30.2738C53.3259 26.403 50.5462 23.5654 46.5302 23.5654V23.5629ZM50.0816 28.9021H42.9763V28.8512C43.4662 27.3013 44.7279 26.347 46.5277 26.347C48.3275 26.347 49.5917 27.3013 50.0791 28.8512V28.9021H50.0816ZM65.658 25.6751H65.6072C64.7822 24.3849 63.2642 23.5603 61.3603 23.5603C58.3217 23.5603 55.08 25.754 55.08 30.2687C55.08 34.1395 57.9104 36.9796 61.9264 36.9796C65.9423 36.9796 68.722 34.2947 68.722 30.1669V18.3204H65.658V25.6751ZM61.9238 34.114C59.6849 34.114 58.1668 32.5133 58.1668 30.2687C58.1668 28.0241 59.6849 26.4233 61.9238 26.4233C64.1628 26.4233 65.658 28.0241 65.658 30.2687C65.658 32.5133 64.1654 34.114 61.9238 34.114ZM74.1798 36.6436H71.1158V23.8937H74.1798V36.6436ZM76.2284 30.2687C76.2284 26.3979 79.0589 23.5603 83.0748 23.5603C86.5247 23.5603 89.048 25.6497 89.6648 28.6705H86.5754C86.0347 27.3013 84.7477 26.4259 83.0748 26.4259C80.8358 26.4259 79.3178 28.0266 79.3178 30.2712C79.3178 32.5158 80.8358 34.1166 83.0748 34.1166C84.7477 34.1166 86.0347 33.2386 86.5754 31.872H89.6648C89.048 34.8902 86.5247 36.9821 83.0748 36.9821C79.0589 36.9821 76.2284 34.1445 76.2284 30.2712V30.2687ZM102.256 36.6411V34.2667H102.205C101.51 35.8929 99.8621 36.977 97.6993 36.977C94.6606 36.977 91.419 34.7833 91.419 30.2661C91.419 26.3953 94.2494 23.5578 98.2653 23.5578C99.0675 23.5578 99.8215 23.6672 100.512 23.8733L99.4229 26.5786C99.065 26.4768 98.6766 26.4208 98.2628 26.4208C96.0238 26.4208 94.5058 28.0215 94.5058 30.2661C94.5058 32.5107 96.0238 34.1115 98.2628 34.1115C100.502 34.1115 101.994 32.5107 101.994 30.2661C101.994 30.0142 101.974 29.7724 101.936 29.5357L104.337 28.5229L104.805 28.3269L105.058 28.22V36.6385H102.256V36.6411ZM110.524 36.6436H107.46V18.3229H110.524V36.6462V36.6436ZM21.8203 32.4293H18.7842V21.9392C18.7842 20.6133 19.6473 19.5063 20.9318 19.1856C22.2163 18.865 23.4957 19.4401 24.1151 20.6108L24.1532 20.6871L28.2097 29.551L32.3044 20.6108C32.9238 19.4376 34.2032 18.865 35.4877 19.1831C36.7722 19.5038 37.6353 20.6082 37.6353 21.9367V36.6436H34.5992V22.891L29.9968 32.9484C29.677 33.6457 28.9764 34.0962 28.2097 34.0962C27.4431 34.0962 26.7424 33.6457 26.4226 32.9484L21.8203 22.891V32.4267V32.4293ZM172.715 23.8988H177.65V26.5175H172.715V31.4088C172.715 33.1113 173.591 33.7832 174.853 33.7832H177.65V36.6462H174.853C171.763 36.6462 169.654 34.9436 169.654 31.4088V26.5175H167.552V23.8988H169.654V19.6412H172.718V23.8988H172.715ZM130.35 31.6684C130.35 34.9462 127.852 36.9847 124.095 36.9847C120.338 36.9847 117.916 34.9971 117.84 31.7727H121.059C121.084 33.1139 122.089 34.0173 124.095 34.0173C126.1 34.0173 127.131 33.1139 127.131 31.7727C127.131 28.2633 118.172 31.4877 118.172 24.7539C118.172 21.6313 120.541 19.4376 124.12 19.4376C125.382 19.4376 126.494 19.715 127.405 20.2138L125.552 22.6416C125.164 22.4889 124.694 22.4049 124.146 22.4049C122.292 22.4049 121.366 23.4102 121.366 24.6495C121.366 28.1589 130.35 24.9066 130.35 31.6684V31.6684ZM138.877 23.5654C134.861 23.5654 132.03 26.403 132.03 30.2738C132.03 34.1445 134.861 36.9847 138.877 36.9847C142.893 36.9847 145.723 34.1471 145.723 30.2738C145.723 26.4004 142.893 23.5654 138.877 23.5654V23.5654ZM138.877 34.1191C136.638 34.1191 135.12 32.5184 135.12 30.2738C135.12 28.0292 136.638 26.4284 138.877 26.4284C141.116 26.4284 142.611 28.0266 142.611 30.2738C142.611 32.5209 141.118 34.1191 138.877 34.1191ZM191.653 23.5654C187.637 23.5654 184.806 26.403 184.806 30.2738C184.806 34.1445 187.637 36.9847 191.653 36.9847C195.668 36.9847 198.499 34.1471 198.499 30.2738C198.499 26.4004 195.668 23.5654 191.653 23.5654V23.5654ZM191.653 34.1191C189.414 34.1191 187.896 32.5184 187.896 30.2738C187.896 28.0292 189.414 26.4284 191.653 26.4284C193.892 26.4284 195.387 28.0266 195.387 30.2738C195.387 32.5209 193.894 34.1191 191.653 34.1191ZM147.769 18.3255H150.833V36.6487H147.769V18.3229V18.3255ZM212.814 30.0142V36.6462H209.75V30.0142C209.75 27.5889 208.463 26.4284 206.531 26.4284C204.599 26.4284 203.312 27.5889 203.312 30.0142V32.4293H200.248V30.0142C200.248 25.7566 202.771 23.5629 206.528 23.5629C210.285 23.5629 212.811 25.7311 212.811 30.0142H212.814ZM225.247 32.8034C225.247 35.2287 223.163 36.9847 219.919 36.9847C216.675 36.9847 214.641 35.2567 214.565 32.8823H217.655C217.68 33.7348 218.429 34.3023 219.868 34.3023C221.49 34.3023 222.161 33.6814 222.161 32.8059C222.161 30.5613 214.824 33.091 214.824 27.7212C214.824 25.3214 216.807 23.5654 219.896 23.5654C222.986 23.5654 224.889 25.3214 224.968 27.566H221.93C221.853 26.7923 221.132 26.2503 219.947 26.2503C218.581 26.2503 217.914 26.8687 217.914 27.7212C217.914 29.9658 225.25 27.566 225.25 32.8059L225.247 32.8034ZM182.755 36.6462H179.691V23.8962H182.755V36.6462ZM159.51 36.9821C155.753 36.9821 153.229 34.7884 153.229 30.5308V28.1157H156.293V30.5308C156.293 32.9561 157.58 34.1166 159.512 34.1166C161.444 34.1166 162.731 32.9561 162.731 30.5308V23.8988H165.795V30.5308C165.795 34.8139 163.272 36.9821 159.512 36.9821H159.51Z" fill="white" fill-opacity="0.4"/>
<path d="M22.019 35.0381C22.019 35.9873 21.2498 36.7585 20.303 36.7585C19.3561 36.7585 18.5869 35.9873 18.5869 35.0381C18.5869 34.0889 19.3561 33.3177 20.303 33.3177C21.2498 33.3177 22.019 34.0889 22.019 35.0381ZM50.0697 32.9004C49.1228 32.9004 48.3537 33.6715 48.3537 34.6207C48.3537 35.57 49.1228 36.3411 50.0697 36.3411C51.0166 36.3411 51.7857 35.57 51.7857 34.6207C51.7857 33.6715 51.0166 32.9004 50.0697 32.9004ZM72.6524 19.079C71.7056 19.079 70.9364 19.8501 70.9364 20.7994C70.9364 21.7486 71.7056 22.5197 72.6524 22.5197C73.5993 22.5197 74.3685 21.7486 74.3685 20.7994C74.3685 19.8501 73.5993 19.079 72.6524 19.079ZM102.348 24.7491C101.401 24.7491 100.632 25.5202 100.632 26.4694C100.632 27.4187 101.401 28.1898 102.348 28.1898C103.295 28.1898 104.064 27.4187 104.064 26.4694C104.064 25.5202 103.295 24.7491 102.348 24.7491ZM181.23 19.079C180.283 19.079 179.514 19.8501 179.514 20.7994C179.514 21.7486 180.283 22.5197 181.23 22.5197C182.177 22.5197 182.946 21.7486 182.946 20.7994C182.946 19.8501 182.177 19.079 181.23 19.079ZM201.787 33.3152C200.84 33.3152 200.071 34.0863 200.071 35.0356C200.071 35.9848 200.84 36.7559 201.787 36.7559C202.734 36.7559 203.503 35.9848 203.503 35.0356C203.503 34.0863 202.734 33.3152 201.787 33.3152ZM156.485 25.5023C156.485 24.5531 155.715 23.782 154.769 23.782C153.822 23.782 153.053 24.5531 153.053 25.5023C153.053 26.4516 153.822 27.2227 154.769 27.2227C155.715 27.2227 156.485 26.4516 156.485 25.5023ZM128.726 21.1531C127.779 21.1531 127.01 21.9242 127.01 22.8735C127.01 23.8227 127.779 24.5938 128.726 24.5938C129.673 24.5938 130.442 23.8227 130.442 22.8735C130.442 21.9242 129.673 21.1531 128.726 21.1531Z" fill="white" fill-opacity="0.4"/>
<path d="M226.783 34.0275H229.136V34.399H228.187V36.6436H227.735V34.399H226.786V34.0275H226.783ZM232.137 36.6462L232.132 34.8113L231.149 36.3382H230.941L229.954 34.8444V36.6487H229.52V34.03H229.89L231.053 35.8216L232.193 34.03H232.563L232.568 36.6487H232.137V36.6462Z" fill="white" fill-opacity="0.4"/>
</g>
<defs>
<filter id="filter0_b_12_2" x="-21.4131" y="-21.6796" width="293.981" height="98.6643" filterUnits="userSpaceOnUse" color-interpolation-filters="sRGB">
<feFlood flood-opacity="0" result="BackgroundImageFix"/>
<feGaussianBlur in="BackgroundImageFix" stdDeviation="20"/>
<feComposite in2="SourceAlpha" operator="in" result="effect1_backgroundBlur_12_2"/>
<feBlend mode="normal" in="SourceGraphic" in2="effect1_backgroundBlur_12_2" result="shape"/>
</filter>
</defs>
</svg>
