<svg width="2334" height="473" viewBox="0 0 2334 473" fill="none" xmlns="http://www.w3.org/2000/svg">
<path fill-rule="evenodd" clip-rule="evenodd" d="M0.00299814 235.805C0.387882 89.1821 37.1351 52.6181 183.758 53.003C330.381 53.3879 366.944 90.1351 366.559 236.757C366.175 383.38 329.409 419.944 182.787 419.559C36.1637 419.175 -0.381886 382.428 0.00299814 235.805ZM192.56 173.118C157.636 173.118 129.324 201.398 129.324 236.282C129.324 271.166 157.636 299.445 192.56 299.445V337.086C136.823 337.086 91.6408 291.954 91.6408 236.282C91.6408 180.609 136.823 135.477 192.56 135.477V173.118ZM237.239 299.73C237.239 273.521 218.753 256.101 200.411 256.101V218.459C243.559 218.459 274.922 256.958 274.922 299.73H237.239Z" fill="#FED338"/>
<rect x="61.4878" y="115.67" width="250.681" height="245.952" fill="#FED338"/>
<path d="M205.729 293.236L212.752 298.114H198.707L205.729 293.236Z" fill="#181B20"/>
<rect x="190.728" y="300.125" width="15.6776" height="4.33569" fill="#181B20"/>
<ellipse cx="137.275" cy="298.114" rx="9.46062" ry="5.41961" fill="#181B20"/>
<path d="M144.292 300.917C144.299 301.454 143.349 301.982 141.647 302.387C139.944 302.792 137.627 303.042 135.193 303.083C132.76 303.123 130.406 302.952 128.64 302.605C126.874 302.258 125.836 301.763 125.752 301.228C125.668 300.693 126.543 300.159 128.189 299.743C129.835 299.327 132.12 299.062 134.551 299.004C136.981 298.946 139.363 299.101 141.181 299.434C143 299.768 144.11 300.254 144.271 300.788L135.019 301.04L144.292 300.917Z" fill="#181B20"/>
<path d="M144.292 300.917C144.299 301.454 143.349 301.982 141.647 302.387C139.944 302.792 137.627 303.042 135.193 303.083C132.76 303.123 130.406 302.952 128.64 302.605C126.874 302.258 125.836 301.763 125.752 301.228C125.668 300.693 126.543 300.159 128.189 299.743C129.835 299.327 132.12 299.062 134.551 299.004C136.981 298.946 139.363 299.101 141.181 299.434C143 299.768 144.11 300.254 144.271 300.788L135.019 301.04L144.292 300.917Z" fill="#181B20"/>
<ellipse cx="104.568" cy="269.661" rx="5.40607" ry="7.31647" fill="#181B20"/>
<path d="M177.01 267.493C177.01 269.005 176.828 270.472 176.494 271.663C176.16 272.854 175.693 273.7 175.166 274.066C174.64 274.432 174.084 274.297 173.588 273.683C173.093 273.069 172.685 272.011 172.43 270.677C172.175 269.343 172.087 267.81 172.181 266.321C172.275 264.833 172.545 263.474 172.948 262.462C173.351 261.45 173.864 260.842 174.405 260.736C174.946 260.629 175.485 261.029 175.935 261.873L174.577 267.493H177.01Z" fill="#181B20"/>
<ellipse cx="4.86616" cy="10.0248" rx="4.86616" ry="10.0248" transform="matrix(0.970765 0.240033 -0.238903 0.971043 173.015 262.549)" fill="#181B20"/>
<path d="M168.858 281.638C167.535 287.014 164.429 290.87 161.921 290.25C159.412 289.629 161.435 292.025 162.758 286.648C167.759 276.002 172.942 259.284 173.892 263.305C176.401 263.925 170.181 276.262 168.858 281.638Z" fill="#181B20"/>
<ellipse cx="104.298" cy="207.607" rx="5.67637" ry="5.96157" fill="#181B20"/>
<ellipse cx="104.298" cy="207.607" rx="5.67637" ry="5.96157" fill="#181B20"/>
<ellipse cx="104.298" cy="207.607" rx="5.67637" ry="5.96157" fill="#181B20"/>
<path d="M109.434 197.309L109.704 207.336L109.434 217.904" stroke="#181B20"/>
<rect x="128.896" y="172.921" width="22.1649" height="2.7098" fill="#181B20"/>
<rect x="76.9973" y="223.865" width="11.8933" height="16.2588" fill="#181B20"/>
<rect x="270.535" y="223.865" width="11.8933" height="16.2588" fill="#181B20"/>
<path d="M116.189 161.18C113.672 161.783 110.419 162.929 108.945 163.592C104.894 165.521 100.596 169.982 98.3863 174.624C95.3783 180.713 94.703 185.898 94.6416 201.693C94.6416 213.329 94.4574 215.861 93.598 217.609C92.4316 220.081 88.073 223.035 85.0036 223.517C83.8986 223.698 81.9955 224 80.7677 224.181L78.6191 224.482L78.8033 230.933C78.9261 236.298 79.1716 237.384 79.9083 237.203C80.5836 237.082 80.5836 237.263 79.7855 237.866C78.0053 239.253 78.4964 240.097 81.1361 240.097C87.0908 240.097 93.598 244.317 94.2733 248.657C94.4574 249.743 94.703 257.399 94.8258 265.719C95.0099 278.017 95.2555 281.393 96.1763 284.106C98.018 289.773 100.596 294.054 103.85 296.948C109.559 302.012 115.759 304.001 126.38 304.122C132.887 304.182 140.866 304.484 141.971 303.157C143.138 301.71 137 301.53 137 303.157C137 303.64 137.307 304.001 137.614 304.001C138.473 304.001 138.35 303.278 137.245 301.59C136.57 300.505 136.754 300.625 138.043 301.952L139.762 303.881L144.673 303.037C162.967 299.902 175.675 291.22 181.875 277.716C186.541 267.407 187.953 257.942 187.953 236.298C187.953 205.07 190.347 193.735 198.696 185.476C202.256 181.919 207.72 179.146 214.657 177.337C218.708 176.252 221.409 176.011 229.697 175.951C238.967 175.89 240.01 176.011 242.282 177.217C245.351 178.844 247.131 180.713 248.543 183.728C249.403 185.778 249.648 188.792 249.955 202.417C250.324 217.067 250.446 218.996 251.613 221.407C254.007 226.652 257.506 229.486 263.768 231.415C265.241 231.837 265.855 232.259 265.302 232.44C256.831 235.153 255.112 236.419 252.411 241.543L250.262 245.703L249.894 262.041C249.525 280.007 249.341 280.971 245.535 284.528C241.299 288.507 240.808 288.628 217.972 288.809L197.406 288.99L195.381 292.366C194.214 294.235 191.697 297.551 189.733 299.841C187.707 302.072 186.111 304.062 186.111 304.242C186.111 304.906 195.872 304.604 196.24 304.001C196.486 303.64 197.161 303.519 197.836 303.7C199.125 304.122 199.494 303.097 198.266 302.615C197.652 302.374 197.652 302.253 198.266 302.253C198.757 302.193 199.248 302.735 199.432 303.398C199.739 304.604 200.108 304.664 220.12 304.423C233.503 304.242 241.606 303.941 243.816 303.459C251.858 301.59 258.795 296.827 261.803 290.979C265.118 284.528 265.425 282.479 265.855 264.814C266.285 247.331 266.469 246.186 269.415 243.593C271.196 242.026 274.818 240.699 278.685 240.217L282.184 239.795L282.368 232.199C282.553 223.698 282.614 223.819 277.703 223.819C273.16 223.819 267.635 219.961 266.53 215.982C266.223 214.836 265.916 208.024 265.916 200.91C265.916 188.37 265.345 180.667 264.117 179.461C264.13 179.143 264.037 178.267 263.473 177.289C263.473 175.059 260.33 170.223 257.015 167.209C251.429 162.145 243.816 159.914 231.846 159.914C219.015 159.914 208.149 162.024 199.309 166.244C186.295 172.454 178.621 182.462 174.754 198.378C173.71 202.417 172.689 207.546 173.671 208.51C174.899 209.897 175.982 206.155 174.754 205.13C174.017 204.527 173.772 204.587 173.526 205.25C173.342 205.733 173.219 206.396 173.281 206.697C173.342 206.999 173.281 208.988 173.035 211.159C172.79 213.329 172.483 223.759 172.298 234.369C171.991 254.264 171.623 258.605 169.536 265.538C168.308 269.457 160.724 283.843 169.352 271.265L170.395 272.953L168.922 271.747C167.694 270.723 167.51 270.662 167.878 271.567C168.063 272.169 168.063 272.592 167.817 272.592C166.651 272.411 165.674 277.627 166.349 278.832C166.963 279.918 167.694 275.184 166.835 274.882C166.16 274.641 168.225 270.691 162.66 277.837C156.215 284.528 147.804 287.603 132.887 288.688C122.328 289.412 115.575 287 112.813 281.454C112.137 280.127 111.339 276.751 110.971 273.918C110.603 271.084 110.05 268.371 109.743 267.889C109.375 267.286 109.601 271.016 110.093 271.317C110.645 271.619 110.541 264.935 110.419 256.555C110.296 246.065 110.173 244.98 108.822 242.026C108.024 240.338 106.428 238.047 105.2 237.022C102.868 235.032 98.3249 232.862 96.4219 232.862C94.2119 232.862 95.2555 231.897 98.5705 230.873C102.684 229.546 106.919 225.989 108.761 222.191C109.866 219.961 110.234 217.85 110.48 213.088C110.664 208.747 110.541 206.938 110.05 206.938C109.682 206.938 109.375 206.637 109.375 206.275C109.375 205.974 109.62 205.793 109.927 205.974C110.173 206.155 110.541 201.874 110.725 196.388C110.971 186.863 111.094 186.38 112.813 183.004C114.163 180.412 115.33 179.086 117.601 177.699C120.609 175.89 120.793 175.89 130.186 175.71C138.166 175.529 139.885 175.348 140.56 174.504C141.236 173.66 141.297 173.66 141.297 174.564C141.297 175.468 142.341 175.589 152.224 175.589L163.09 175.529L165.791 171.309C167.265 168.957 169.966 165.4 171.869 163.471L175.184 159.914L147.988 159.974C123.003 159.974 120.363 160.095 116.189 161.18ZM206.676 174.865C206.185 175.348 205.141 174.263 205.141 173.298C205.141 172.514 200.672 174.07 201.409 175.094C201.9 175.697 206 175.66 206.676 174.865ZM197.158 183.262C197.771 184.83 203.361 178.905 202.317 177.639C201.397 176.554 201.397 176.554 201.704 177.94C201.888 178.965 201.826 179.206 201.335 178.724C200.599 178 201.09 176.192 202.011 176.192C199.309 174.865 183.776 190.13 197.158 183.262ZM200.23 178.905C201.028 179.749 201.397 180.412 201.028 180.412C200.66 180.412 199.923 179.749 199.371 178.905C198.818 178.061 198.45 177.398 198.573 177.398C198.696 177.398 199.432 178.061 200.23 178.905ZM262.908 179.327C264.32 181.316 264.32 181.316 262.97 180.171C261.619 179.025 261.619 179.025 261.619 180.171C261.619 181.135 261.496 181.135 261.005 180.412C260.698 179.93 260.268 179.749 260.023 179.99C259.777 180.231 259.9 180.774 260.268 181.135C260.698 181.557 261.005 182.221 261.005 182.703C261.005 183.245 260.575 183.004 259.839 182.16C258.55 180.593 262.061 185.434 263.841 185.434C264.394 185.434 264.639 181.904 264.394 181.362C263.841 179.915 261.435 177.277 262.908 179.327ZM198.389 182.281C198.389 182.763 197.959 182.582 197.222 181.859C196.608 181.256 196.24 180.532 196.363 180.231C196.731 179.628 198.389 181.316 198.389 182.281ZM109.252 207.541C109.682 208.204 109.805 208.747 109.498 208.747C109.252 208.747 108.7 208.204 108.27 207.541C107.84 206.878 107.717 206.336 108.024 206.336C108.27 206.336 108.822 206.878 109.252 207.541ZM106.305 209.41C107.226 211.098 106.612 210.797 105.385 208.988C104.832 208.084 104.648 207.602 105.016 207.782C105.385 208.024 105.999 208.747 106.305 209.41ZM108.147 209.531C108.147 209.832 107.902 209.832 107.533 209.651C107.226 209.471 106.919 208.807 106.919 208.265C106.919 207.36 107.042 207.36 107.533 208.144C107.84 208.626 108.147 209.29 108.147 209.531ZM104.464 212.907C104.464 213.329 103.973 213.088 103.297 212.304C102.622 211.52 102.254 210.616 102.438 210.375C102.806 209.772 104.402 211.761 104.464 212.907ZM81.75 234.972C82.3639 235.696 82.3639 235.876 81.5658 235.876C81.0747 235.876 80.5222 235.454 80.2766 234.972C80.0925 234.49 80.1539 234.068 80.4608 234.068C80.7677 234.068 81.3202 234.49 81.75 234.972ZM266.604 235.454C258.869 236.474 270.029 236.479 269.477 236.479C268.863 236.479 268.372 236.057 268.372 235.454C268.372 234.912 268.556 234.731 268.863 235.032C269.108 235.334 267.17 233.488 266.604 235.454ZM256.933 247.876C257.854 249.564 263.768 242.749 262.54 240.941C261.987 240.036 261.803 239.554 262.172 239.735C262.54 239.976 258.315 238.102 256.933 247.876ZM261.005 243.834C261.005 244.196 260.575 244.136 260.084 243.714C259.593 243.292 259.163 242.689 259.163 242.387C259.163 242.026 259.593 242.086 260.084 242.508C260.575 242.93 261.005 243.533 261.005 243.834ZM175.613 266.804C175.675 267.105 175.429 267.105 175.061 266.924C174.754 266.744 174.447 265.96 174.508 265.236C174.508 263.97 174.57 263.97 175.061 265.116C175.368 265.779 175.613 266.563 175.613 266.804ZM109.436 269.155C110.112 270.421 110.112 270.481 109.191 269.698C108.577 269.276 108.147 268.673 108.147 268.371C108.147 267.467 108.7 267.769 109.436 269.155ZM107.533 272.471C107.472 273.074 105.139 270.12 105.078 269.396C105.078 269.095 105.63 269.577 106.305 270.421C106.981 271.265 107.533 272.169 107.533 272.471ZM104.525 273.978C105.016 274.882 105.016 275.063 104.525 274.822C104.157 274.581 103.543 273.858 103.175 273.134C102.684 272.23 102.684 272.049 103.175 272.29C103.543 272.531 104.157 273.255 104.525 273.978ZM144.673 296.465C144.735 297.37 144.428 297.731 143.937 297.551C142.955 297.189 142.893 296.164 143.814 296.164C144.182 296.164 144.305 295.742 144.121 295.139C143.875 294.536 143.937 294.295 144.182 294.596C144.428 294.838 144.673 295.682 144.673 296.465ZM207.044 295.501C206.308 295.983 206.308 296.224 206.922 297.008C207.413 297.611 207.474 297.973 207.106 297.973C206.737 297.973 206.246 297.671 206.062 297.37C205.51 296.465 206.185 294.958 207.106 294.958C207.72 294.958 207.658 295.139 207.044 295.501ZM141.113 301.228C140.683 302.253 138.842 302.554 138.842 301.59C138.842 301.288 139.271 301.168 139.762 301.349C140.806 301.771 141.052 300.685 140.069 300.083C139.762 299.902 139.455 299.419 139.455 298.997C139.455 298.575 139.885 298.696 140.438 299.299C140.99 299.841 141.297 300.746 141.113 301.228ZM200.906 302.313C201.397 303.218 201.397 303.398 200.906 303.157C200.537 302.916 199.923 302.193 199.555 301.469C199.064 300.565 199.064 300.384 199.555 300.625C199.923 300.866 200.537 301.59 200.906 302.313Z" fill="#181B20"/>
<path d="M538.988 357V94.628H645.432C653.264 94.628 661.333 95.696 669.64 97.832C677.947 99.7307 685.541 103.647 692.424 109.58C699.544 115.276 705.24 123.82 709.512 135.212C713.784 146.604 715.92 161.675 715.92 180.424C715.92 199.173 713.665 214.363 709.156 225.992C704.884 237.621 699.188 246.521 692.068 252.692C684.948 258.863 677.235 263.016 668.928 265.152C660.621 267.288 652.671 268.356 645.076 268.356C641.279 268.356 636.057 268.237 629.412 268C623.004 267.763 616.24 267.407 609.12 266.932C602 266.457 595.355 265.983 589.184 265.508C583.013 265.033 578.267 264.559 574.944 264.084V357H538.988ZM574.944 236.316H640.092C647.687 236.316 654.451 234.655 660.384 231.332C666.555 227.772 671.301 222.076 674.624 214.244C678.184 206.175 679.964 195.02 679.964 180.78C679.964 166.777 678.184 155.86 674.624 148.028C671.301 140.196 666.792 134.737 661.096 131.652C655.4 128.329 649.111 126.668 642.228 126.668H574.944V236.316ZM839.669 359.136C825.192 359.136 812.613 357.593 801.933 354.508C791.49 351.423 782.828 346.32 775.945 339.2C769.062 331.843 763.96 321.875 760.637 309.296C757.314 296.717 755.653 280.816 755.653 261.592C755.653 241.656 757.314 225.399 760.637 212.82C763.96 200.004 769.062 190.036 775.945 182.916C782.828 175.796 791.609 170.931 802.289 168.32C812.969 165.472 825.429 164.048 839.669 164.048C853.909 164.048 866.369 165.472 877.049 168.32C887.729 171.168 896.51 176.152 903.393 183.272C910.276 190.392 915.378 200.36 918.701 213.176C922.024 225.755 923.685 241.893 923.685 261.592C923.685 281.053 922.024 297.192 918.701 310.008C915.378 322.587 910.276 332.436 903.393 339.556C896.748 346.676 888.085 351.779 877.405 354.864C866.725 357.712 854.146 359.136 839.669 359.136ZM839.669 329.944C847.501 329.944 854.384 329.232 860.317 327.808C866.488 326.384 871.59 323.417 875.625 318.908C879.66 314.161 882.745 307.16 884.881 297.904C887.017 288.648 888.085 276.425 888.085 261.236C888.085 246.047 887.017 233.943 884.881 224.924C882.745 215.668 879.66 208.785 875.625 204.276C871.59 199.767 866.488 196.8 860.317 195.376C854.384 193.715 847.501 192.884 839.669 192.884C831.6 192.884 824.48 193.715 818.309 195.376C812.376 196.8 807.392 199.767 803.357 204.276C799.56 208.785 796.593 215.668 794.457 224.924C792.558 233.943 791.609 246.047 791.609 261.236C791.609 276.425 792.558 288.648 794.457 297.904C796.593 307.16 799.56 314.161 803.357 318.908C807.392 323.417 812.376 326.384 818.309 327.808C824.48 329.232 831.6 329.944 839.669 329.944ZM977.858 357V85.372H1013.46V187.188C1021.76 181.017 1031.85 175.559 1043.72 170.812C1055.58 165.828 1067.81 163.336 1080.39 163.336C1094.15 163.336 1105.31 166.184 1113.85 171.88C1122.63 177.576 1129.04 185.408 1133.07 195.376C1137.11 205.107 1139.13 216.143 1139.13 228.484V357H1103.53V232.756C1103.53 225.399 1101.98 218.991 1098.9 213.532C1096.05 207.836 1091.9 203.445 1086.44 200.36C1081.22 197.275 1074.93 195.732 1067.57 195.732C1060.45 195.732 1053.8 196.444 1047.63 197.868C1041.7 199.292 1036 201.309 1030.55 203.92C1025.09 206.531 1019.39 209.497 1013.46 212.82V357H977.858ZM1198.52 441.372V166.54H1227.71L1234.12 185.764C1238.63 182.441 1243.97 179.119 1250.14 175.796C1256.55 172.473 1263.43 169.744 1270.79 167.608C1278.39 165.235 1285.98 164.048 1293.57 164.048C1305.68 164.048 1316 166.54 1324.55 171.524C1333.33 176.508 1340.45 183.509 1345.91 192.528C1351.37 201.309 1355.28 211.633 1357.65 223.5C1360.27 235.367 1361.57 248.064 1361.57 261.592C1361.57 282.715 1359.2 300.633 1354.45 315.348C1349.94 329.825 1342.7 340.861 1332.73 348.456C1323 355.813 1309.95 359.492 1293.57 359.492C1283.61 359.492 1273.4 358.068 1262.96 355.22C1252.52 352.135 1242.9 348.1 1234.12 343.116V441.372H1198.52ZM1282.89 329.588C1290.96 329.588 1298.2 327.571 1304.61 323.536C1311.02 319.501 1316.12 312.619 1319.92 302.888C1323.95 292.92 1325.97 279.155 1325.97 261.592C1325.97 244.979 1323.95 231.688 1319.92 221.72C1315.88 211.515 1310.66 204.276 1304.25 200.004C1297.85 195.495 1290.85 193.24 1283.25 193.24C1273.28 193.24 1264.15 194.783 1255.84 197.868C1247.77 200.953 1240.53 204.157 1234.12 207.48V316.06C1241.48 320.095 1249.31 323.417 1257.62 326.028C1266.16 328.401 1274.59 329.588 1282.89 329.588ZM1420.69 134.5C1416.42 134.5 1414.29 132.483 1414.29 128.448V98.544C1414.29 94.272 1416.42 92.136 1420.69 92.136H1447.04C1448.94 92.136 1450.36 92.7293 1451.31 93.916C1452.26 95.1027 1452.73 96.6453 1452.73 98.544V128.448C1452.73 132.483 1450.84 134.5 1447.04 134.5H1420.69ZM1415.71 357V166.54H1451.31V357H1415.71ZM1548.58 357L1493.05 166.54H1529.71L1571.37 323.892L1616.22 166.54H1646.48L1691.34 323.892L1731.21 166.54H1767.88L1713.05 357H1673.54L1630.82 215.668L1587.39 357H1548.58ZM1840.55 359.136C1826.55 359.136 1814.92 354.983 1805.66 346.676C1796.64 338.132 1792.13 326.384 1792.13 311.432V296.48C1792.13 281.765 1797.12 269.78 1807.08 260.524C1817.29 251.031 1832.6 246.284 1853.01 246.284H1912.46V226.348C1912.46 218.991 1911.16 212.82 1908.54 207.836C1906.17 202.615 1901.66 198.699 1895.02 196.088C1888.37 193.477 1878.52 192.172 1865.47 192.172H1807.08V171.168C1815.63 169.269 1825.6 167.608 1836.99 166.184C1848.62 164.76 1862.15 163.929 1877.57 163.692C1893.24 163.692 1906.29 165.709 1916.73 169.744C1927.41 173.541 1935.36 179.949 1940.58 188.968C1945.81 197.749 1948.42 209.497 1948.42 224.212V357H1920.29L1914.24 335.996C1912.82 336.945 1909.85 338.725 1905.34 341.336C1900.83 343.709 1895.02 346.32 1887.9 349.168C1881.01 352.016 1873.42 354.389 1865.11 356.288C1857.04 358.187 1848.86 359.136 1840.55 359.136ZM1856.92 333.148C1860.48 333.385 1864.64 333.029 1869.38 332.08C1874.37 331.131 1879.23 330.063 1883.98 328.876C1888.96 327.452 1893.47 326.028 1897.51 324.604C1901.78 323.18 1905.22 321.993 1907.83 321.044C1910.68 319.857 1912.22 319.145 1912.46 318.908V264.084L1862.62 266.22C1850.28 266.932 1841.38 270.017 1835.92 275.476C1830.7 280.935 1828.09 288.055 1828.09 296.836V305.38C1828.09 312.263 1829.51 317.84 1832.36 322.112C1835.21 326.147 1838.77 328.995 1843.04 330.656C1847.55 332.317 1852.18 333.148 1856.92 333.148ZM2007.48 357V166.54H2034.89L2043.08 198.58C2051.15 188.849 2060.16 180.661 2070.13 174.016C2080.1 167.371 2091.73 164.048 2105.02 164.048C2108.11 164.048 2111.07 164.285 2113.92 164.76C2116.77 164.997 2119.5 165.472 2122.11 166.184V202.852C2118.79 202.377 2115.34 202.021 2111.78 201.784C2108.22 201.309 2104.55 201.072 2100.75 201.072C2092.68 201.072 2085.44 202.021 2079.03 203.92C2072.62 205.819 2066.45 208.785 2060.52 212.82C2054.82 216.617 2049.01 221.364 2043.08 227.06V357H2007.48ZM2241.37 359.136C2221.2 359.136 2205.06 356.169 2192.96 350.236C2181.09 344.303 2172.55 334.335 2167.33 320.332C2162.34 306.092 2159.85 286.512 2159.85 261.592C2159.85 236.197 2162.34 216.499 2167.33 202.496C2172.55 188.256 2181.09 178.288 2192.96 172.592C2204.83 166.896 2220.85 164.048 2241.02 164.048C2258.58 164.048 2272.7 165.947 2283.38 169.744C2294.3 173.304 2302.25 179.831 2307.23 189.324C2312.46 198.58 2315.07 211.515 2315.07 228.128C2315.07 239.757 2312.69 249.013 2307.95 255.896C2303.44 262.779 2296.91 267.763 2288.37 270.848C2280.06 273.933 2270.09 275.476 2258.46 275.476H2195.45C2195.69 289.241 2197.23 300.277 2200.08 308.584C2203.16 316.653 2208.5 322.587 2216.1 326.384C2223.93 329.944 2235.32 331.724 2250.27 331.724H2309.73V353.084C2299.52 354.508 2289.08 355.813 2278.4 357C2267.72 358.424 2255.38 359.136 2241.37 359.136ZM2195.09 253.048H2255.26C2264.75 253.048 2271.75 251.268 2276.26 247.708C2280.77 244.148 2283.03 237.621 2283.03 228.128C2283.03 218.635 2281.6 211.159 2278.75 205.7C2276.14 200.241 2271.75 196.325 2265.58 193.952C2259.41 191.579 2251.22 190.392 2241.02 190.392C2229.39 190.392 2220.13 192.172 2213.25 195.732C2206.61 199.292 2201.86 205.581 2199.01 214.6C2196.4 223.619 2195.09 236.435 2195.09 253.048Z" fill="white"/>
<path d="M538.988 357H535.988V360H538.988V357ZM538.988 94.628V91.628H535.988V94.628H538.988ZM669.64 97.832L668.893 100.737L668.932 100.748L668.972 100.757L669.64 97.832ZM692.424 109.58L690.465 111.852L690.507 111.888L690.55 111.923L692.424 109.58ZM709.156 225.992L706.359 224.907L706.349 224.932L706.34 224.958L709.156 225.992ZM692.068 252.692L690.103 250.425L690.103 250.425L692.068 252.692ZM629.412 268L629.301 270.998L629.305 270.998L629.412 268ZM589.184 265.508L588.954 268.499L588.954 268.499L589.184 265.508ZM574.944 264.084L575.368 261.114L571.944 260.625V264.084H574.944ZM574.944 357V360H577.944V357H574.944ZM574.944 236.316H571.944V239.316H574.944V236.316ZM660.384 231.332L661.85 233.95L661.867 233.94L661.883 233.931L660.384 231.332ZM674.624 214.244L671.879 213.033L671.871 213.053L671.862 213.072L674.624 214.244ZM674.624 148.028L671.862 149.2L671.877 149.235L671.893 149.269L674.624 148.028ZM661.096 131.652L659.584 134.243L659.625 134.267L659.667 134.29L661.096 131.652ZM574.944 126.668V123.668H571.944V126.668H574.944ZM541.988 357V94.628H535.988V357H541.988ZM538.988 97.628H645.432V91.628H538.988V97.628ZM645.432 97.628C652.989 97.628 660.807 98.6583 668.893 100.737L670.387 94.9265C661.859 92.7336 653.539 91.628 645.432 91.628V97.628ZM668.972 100.757C676.77 102.539 683.928 106.216 690.465 111.852L694.383 107.308C687.155 101.077 679.124 96.9223 670.308 94.9074L668.972 100.757ZM690.55 111.923C697.129 117.186 702.559 125.215 706.703 136.265L712.321 134.159C707.921 122.425 701.959 113.366 694.298 107.237L690.55 111.923ZM706.703 136.265C710.8 147.189 712.92 161.861 712.92 180.424H718.92C718.92 161.488 716.769 146.019 712.321 134.159L706.703 136.265ZM712.92 180.424C712.92 198.971 710.684 213.752 706.359 224.907L711.953 227.077C716.646 214.973 718.92 199.376 718.92 180.424H712.92ZM706.34 224.958C702.19 236.256 696.738 244.675 690.103 250.425L694.033 254.959C701.638 248.368 707.578 238.987 711.972 227.026L706.34 224.958ZM690.103 250.425C683.299 256.322 675.995 260.237 668.181 262.247L669.675 268.057C678.475 265.795 686.597 261.403 694.033 254.959L690.103 250.425ZM668.181 262.247C660.087 264.328 652.389 265.356 645.076 265.356V271.356C652.953 271.356 661.155 270.248 669.675 268.057L668.181 262.247ZM645.076 265.356C641.331 265.356 636.151 265.239 629.519 265.002L629.305 270.998C635.964 271.236 641.226 271.356 645.076 271.356V265.356ZM629.523 265.002C623.148 264.766 616.413 264.412 609.32 263.939L608.92 269.925C616.067 270.402 622.86 270.759 629.301 270.998L629.523 265.002ZM609.32 263.939C602.208 263.465 595.573 262.991 589.414 262.517L588.954 268.499C595.136 268.975 601.792 269.45 608.92 269.925L609.32 263.939ZM589.414 262.517C583.264 262.044 578.594 261.575 575.368 261.114L574.52 267.054C577.939 267.542 582.763 268.023 588.954 268.499L589.414 262.517ZM571.944 264.084V357H577.944V264.084H571.944ZM574.944 354H538.988V360H574.944V354ZM574.944 239.316H640.092V233.316H574.944V239.316ZM640.092 239.316C648.139 239.316 655.418 237.551 661.85 233.95L658.918 228.714C653.483 231.758 647.235 233.316 640.092 233.316V239.316ZM661.883 233.931C668.722 229.985 673.859 223.728 677.386 215.416L671.862 213.072C668.743 220.424 664.387 225.559 658.885 228.733L661.883 233.931ZM677.369 215.455C681.169 206.841 682.964 195.211 682.964 180.78H676.964C676.964 194.829 675.199 205.509 671.879 213.033L677.369 215.455ZM682.964 180.78C682.964 166.586 681.169 155.178 677.355 146.787L671.893 149.269C675.199 156.542 676.964 166.969 676.964 180.78H682.964ZM677.386 146.856C673.881 138.596 668.983 132.512 662.525 129.014L659.667 134.29C664.601 136.962 668.721 141.796 671.862 149.2L677.386 146.856ZM662.608 129.061C656.432 125.458 649.618 123.668 642.228 123.668V129.668C648.604 129.668 654.368 131.2 659.584 134.243L662.608 129.061ZM642.228 123.668H574.944V129.668H642.228V123.668ZM571.944 126.668V236.316H577.944V126.668H571.944ZM801.933 354.508L801.083 357.385L801.092 357.388L801.1 357.39L801.933 354.508ZM775.945 339.2L773.754 341.249L773.771 341.267L773.788 341.285L775.945 339.2ZM760.637 309.296L757.736 310.062L757.736 310.062L760.637 309.296ZM760.637 212.82L763.537 213.586L763.541 213.573L760.637 212.82ZM775.945 182.916L778.102 185.001L778.102 185.001L775.945 182.916ZM802.289 168.32L803.001 171.234L803.032 171.227L803.062 171.219L802.289 168.32ZM877.049 168.32L876.276 171.219L876.276 171.219L877.049 168.32ZM903.393 183.272L901.236 185.357L903.393 183.272ZM918.701 213.176L915.797 213.929L915.8 213.942L918.701 213.176ZM918.701 310.008L921.601 310.774L921.605 310.761L918.701 310.008ZM903.393 339.556L901.236 337.471L901.218 337.49L901.2 337.509L903.393 339.556ZM877.405 354.864L878.178 357.763L878.208 357.755L878.238 357.746L877.405 354.864ZM860.317 327.808L859.642 324.885L859.63 324.888L859.617 324.891L860.317 327.808ZM875.625 318.908L877.861 320.908L877.886 320.88L877.911 320.851L875.625 318.908ZM884.881 224.924L881.958 225.599L881.96 225.607L881.962 225.615L884.881 224.924ZM875.625 204.276L877.861 202.276L877.861 202.276L875.625 204.276ZM860.317 195.376L859.508 198.265L859.575 198.284L859.642 198.299L860.317 195.376ZM818.309 195.376L819.009 198.293L819.049 198.284L819.089 198.273L818.309 195.376ZM803.357 204.276L801.121 202.276L801.091 202.309L801.062 202.344L803.357 204.276ZM794.457 224.924L791.534 224.249L791.527 224.278L791.521 224.306L794.457 224.924ZM794.457 297.904L791.518 298.507L791.526 298.543L791.534 298.579L794.457 297.904ZM803.357 318.908L801.014 320.782L801.066 320.847L801.121 320.908L803.357 318.908ZM818.309 327.808L817.609 330.725L817.622 330.728L817.634 330.731L818.309 327.808ZM839.669 356.136C825.393 356.136 813.108 354.614 802.766 351.626L801.1 357.39C812.118 360.573 824.99 362.136 839.669 362.136V356.136ZM802.783 351.631C792.786 348.677 784.59 343.826 778.102 337.115L773.788 341.285C781.066 348.814 790.194 354.168 801.083 357.385L802.783 351.631ZM778.136 337.151C771.677 330.246 766.769 320.764 763.537 308.53L757.736 310.062C761.15 322.985 766.448 333.439 773.754 341.249L778.136 337.151ZM763.537 308.53C760.304 296.289 758.653 280.668 758.653 261.592H752.653C752.653 280.964 754.324 297.145 757.736 310.062L763.537 308.53ZM758.653 261.592C758.653 241.793 760.306 225.82 763.537 213.586L757.736 212.054C754.323 224.978 752.653 241.519 752.653 261.592H758.653ZM763.541 213.573C766.776 201.095 771.68 191.644 778.102 185.001L773.788 180.831C766.444 188.428 761.143 198.913 757.733 212.067L763.541 213.573ZM778.102 185.001C784.548 178.332 792.809 173.726 803.001 171.234L801.577 165.406C790.409 168.136 781.107 173.26 773.788 180.831L778.102 185.001ZM803.062 171.219C813.429 168.454 825.619 167.048 839.669 167.048V161.048C825.239 161.048 812.508 162.49 801.516 165.421L803.062 171.219ZM839.669 167.048C853.719 167.048 865.908 168.454 876.276 171.219L877.822 165.421C866.829 162.49 854.099 161.048 839.669 161.048V167.048ZM876.276 171.219C886.492 173.943 894.775 178.673 901.236 185.357L905.55 181.187C898.246 173.631 888.966 168.393 877.822 165.421L876.276 171.219ZM901.236 185.357C907.658 192 912.562 201.451 915.797 213.929L921.605 212.423C918.195 199.269 912.894 188.784 905.55 181.187L901.236 185.357ZM915.8 213.942C919.033 226.178 920.685 242.034 920.685 261.592H926.685C926.685 241.753 925.015 225.331 921.601 212.41L915.8 213.942ZM920.685 261.592C920.685 280.906 919.034 296.771 915.797 309.255L921.605 310.761C925.014 297.613 926.685 281.2 926.685 261.592H920.685ZM915.8 309.242C912.569 321.475 907.667 330.818 901.236 337.471L905.55 341.641C912.884 334.054 918.188 323.698 921.601 310.774L915.8 309.242ZM901.2 337.509C894.974 344.179 886.807 349.025 876.572 351.982L878.238 357.746C889.363 354.532 898.521 349.173 905.586 341.603L901.2 337.509ZM876.632 351.965C866.268 354.729 853.961 356.136 839.669 356.136V362.136C854.332 362.136 867.182 360.695 878.178 357.763L876.632 351.965ZM839.669 332.944C847.674 332.944 854.8 332.217 861.017 330.725L859.617 324.891C853.967 326.247 847.328 326.944 839.669 326.944V332.944ZM860.992 330.731C867.735 329.175 873.393 325.901 877.861 320.908L873.389 316.908C869.787 320.933 865.24 323.593 859.642 324.885L860.992 330.731ZM877.911 320.851C882.377 315.596 885.612 308.078 887.804 298.579L881.958 297.229C879.878 306.242 876.942 312.726 873.339 316.965L877.911 320.851ZM887.804 298.579C890.012 289.01 891.085 276.535 891.085 261.236H885.085C885.085 276.316 884.022 288.286 881.958 297.229L887.804 298.579ZM891.085 261.236C891.085 245.941 890.013 233.575 887.8 224.233L881.962 225.615C884.021 234.31 885.085 246.152 885.085 261.236H891.085ZM887.804 224.249C885.613 214.755 882.372 207.318 877.861 202.276L873.389 206.276C876.947 210.253 879.877 216.581 881.958 225.599L887.804 224.249ZM877.861 202.276C873.393 197.283 867.735 194.009 860.992 192.453L859.642 198.299C865.24 199.591 869.787 202.251 873.389 206.276L877.861 202.276ZM861.126 192.487C854.869 190.735 847.704 189.884 839.669 189.884V195.884C847.298 195.884 853.898 196.694 859.508 198.265L861.126 192.487ZM839.669 189.884C831.402 189.884 824.01 190.734 817.529 192.479L819.089 198.273C824.949 196.695 831.797 195.884 839.669 195.884V189.884ZM817.609 192.459C811.088 194.024 805.566 197.308 801.121 202.276L805.593 206.276C809.217 202.226 813.664 199.576 819.009 198.293L817.609 192.459ZM801.062 202.344C796.827 207.373 793.718 214.783 791.534 224.249L797.38 225.599C799.467 216.553 802.292 210.198 805.652 206.208L801.062 202.344ZM791.521 224.306C789.561 233.616 788.609 245.954 788.609 261.236H794.609C794.609 246.139 795.555 234.269 797.393 225.542L791.521 224.306ZM788.609 261.236C788.609 276.522 789.562 288.97 791.518 298.507L797.396 297.301C795.555 288.326 794.609 276.329 794.609 261.236H788.609ZM791.534 298.579C793.72 308.051 796.822 315.542 801.014 320.782L805.7 317.034C802.297 312.781 799.466 306.269 797.38 297.229L791.534 298.579ZM801.121 320.908C805.566 325.876 811.088 329.16 817.609 330.725L819.009 324.891C813.664 323.608 809.217 320.958 805.593 316.908L801.121 320.908ZM817.634 330.731C824.077 332.218 831.431 332.944 839.669 332.944V326.944C831.768 326.944 824.882 326.246 818.984 324.885L817.634 330.731ZM977.858 357H974.858V360H977.858V357ZM977.858 85.372V82.372H974.858V85.372H977.858ZM1013.46 85.372H1016.46V82.372H1013.46V85.372ZM1013.46 187.188H1010.46V193.154L1015.25 189.596L1013.46 187.188ZM1043.72 170.812L1044.83 173.597L1044.86 173.588L1044.88 173.578L1043.72 170.812ZM1113.85 171.88L1112.19 174.376L1112.2 174.387L1112.22 174.397L1113.85 171.88ZM1133.07 195.376L1130.29 196.502L1130.3 196.513L1130.3 196.525L1133.07 195.376ZM1139.13 357V360H1142.13V357H1139.13ZM1103.53 357H1100.53V360H1103.53V357ZM1098.9 213.532L1096.21 214.874L1096.25 214.942L1096.29 215.008L1098.9 213.532ZM1086.44 200.36L1084.91 202.943L1084.94 202.957L1084.96 202.972L1086.44 200.36ZM1047.63 197.868L1046.96 194.945L1046.95 194.948L1046.93 194.951L1047.63 197.868ZM1030.55 203.92L1031.84 206.626L1031.84 206.626L1030.55 203.92ZM1013.46 212.82L1011.99 210.202L1010.46 211.062V212.82H1013.46ZM1013.46 357V360H1016.46V357H1013.46ZM980.858 357V85.372H974.858V357H980.858ZM977.858 88.372H1013.46V82.372H977.858V88.372ZM1010.46 85.372V187.188H1016.46V85.372H1010.46ZM1015.25 189.596C1023.3 183.611 1033.15 178.27 1044.83 173.597L1042.6 168.027C1030.55 172.848 1020.23 178.424 1011.67 184.78L1015.25 189.596ZM1044.88 173.578C1056.39 168.745 1068.22 166.336 1080.39 166.336V160.336C1067.4 160.336 1054.78 162.911 1042.56 168.046L1044.88 173.578ZM1080.39 166.336C1093.76 166.336 1104.28 169.103 1112.19 174.376L1115.51 169.384C1106.34 163.265 1094.55 160.336 1080.39 160.336V166.336ZM1112.22 174.397C1120.47 179.748 1126.48 187.087 1130.29 196.502L1135.85 194.25C1131.6 183.728 1124.8 175.404 1115.48 169.363L1112.22 174.397ZM1130.3 196.525C1134.16 205.835 1136.13 216.47 1136.13 228.484H1142.13C1142.13 215.815 1140.05 204.379 1135.85 194.227L1130.3 196.525ZM1136.13 228.484V357H1142.13V228.484H1136.13ZM1139.13 354H1103.53V360H1139.13V354ZM1106.53 357V232.756H1100.53V357H1106.53ZM1106.53 232.756C1106.53 224.972 1104.89 218.037 1101.51 212.056L1096.29 215.008C1099.08 219.944 1100.53 225.826 1100.53 232.756H1106.53ZM1101.58 212.19C1098.47 205.969 1093.9 201.132 1087.91 197.748L1084.96 202.972C1089.89 205.758 1093.63 209.703 1096.21 214.874L1101.58 212.19ZM1087.96 197.777C1082.19 194.366 1075.35 192.732 1067.57 192.732V198.732C1074.5 198.732 1080.24 200.183 1084.91 202.943L1087.96 197.777ZM1067.57 192.732C1060.25 192.732 1053.38 193.464 1046.96 194.945L1048.31 200.791C1054.23 199.424 1060.65 198.732 1067.57 198.732V192.732ZM1046.93 194.951C1040.8 196.424 1034.9 198.511 1029.25 201.214L1031.84 206.626C1037.11 204.107 1042.6 202.16 1048.33 200.785L1046.93 194.951ZM1029.25 201.214C1023.73 203.855 1017.98 206.852 1011.99 210.202L1014.92 215.438C1020.81 212.143 1026.45 209.206 1031.84 206.626L1029.25 201.214ZM1010.46 212.82V357H1016.46V212.82H1010.46ZM1013.46 354H977.858V360H1013.46V354ZM1198.52 441.372H1195.52V444.372H1198.52V441.372ZM1198.52 166.54V163.54H1195.52V166.54H1198.52ZM1227.71 166.54L1230.56 165.591L1229.88 163.54H1227.71V166.54ZM1234.12 185.764L1231.28 186.713L1232.58 190.626L1235.9 188.179L1234.12 185.764ZM1250.14 175.796L1248.76 173.133L1248.74 173.143L1248.72 173.155L1250.14 175.796ZM1270.79 167.608L1271.63 170.489L1271.66 170.481L1271.69 170.471L1270.79 167.608ZM1324.55 171.524L1323.03 174.115L1323.05 174.124L1323.07 174.133L1324.55 171.524ZM1345.91 192.528L1343.34 194.081L1343.35 194.097L1343.36 194.112L1345.91 192.528ZM1357.65 223.5L1354.71 224.088L1354.72 224.117L1354.72 224.145L1357.65 223.5ZM1354.45 315.348L1351.6 314.427L1351.59 314.441L1351.59 314.456L1354.45 315.348ZM1332.73 348.456L1334.54 350.849L1334.55 350.842L1332.73 348.456ZM1262.96 355.22L1262.11 358.097L1262.14 358.106L1262.17 358.114L1262.96 355.22ZM1234.12 343.116L1235.6 340.507L1231.12 337.964V343.116H1234.12ZM1234.12 441.372V444.372H1237.12V441.372H1234.12ZM1304.61 323.536L1306.21 326.075L1306.21 326.075L1304.61 323.536ZM1319.92 302.888L1317.14 301.762L1317.13 301.78L1317.12 301.797L1319.92 302.888ZM1319.92 221.72L1317.13 222.823L1317.13 222.834L1317.14 222.846L1319.92 221.72ZM1304.25 200.004L1302.53 202.457L1302.56 202.479L1302.59 202.5L1304.25 200.004ZM1255.84 197.868L1254.79 195.056L1254.78 195.061L1254.77 195.066L1255.84 197.868ZM1234.12 207.48L1232.74 204.817L1231.12 205.656V207.48H1234.12ZM1234.12 316.06H1231.12V317.836L1232.68 318.69L1234.12 316.06ZM1257.62 326.028L1256.72 328.89L1256.77 328.905L1256.82 328.919L1257.62 326.028ZM1201.52 441.372V166.54H1195.52V441.372H1201.52ZM1198.52 169.54H1227.71V163.54H1198.52V169.54ZM1224.87 167.489L1231.28 186.713L1236.97 184.815L1230.56 165.591L1224.87 167.489ZM1235.9 188.179C1240.27 184.958 1245.49 181.709 1251.56 178.437L1248.72 173.155C1242.45 176.528 1236.99 179.925 1232.34 183.349L1235.9 188.179ZM1251.52 178.459C1257.75 175.232 1264.45 172.574 1271.63 170.489L1269.95 164.727C1262.42 166.914 1255.35 169.715 1248.76 173.133L1251.52 178.459ZM1271.69 170.471C1279 168.184 1286.3 167.048 1293.57 167.048V161.048C1285.66 161.048 1277.77 162.285 1269.9 164.745L1271.69 170.471ZM1293.57 167.048C1305.27 167.048 1315.04 169.453 1323.03 174.115L1326.06 168.933C1316.96 163.627 1306.09 161.048 1293.57 161.048V167.048ZM1323.07 174.133C1331.38 178.852 1338.13 185.482 1343.34 194.081L1348.47 190.975C1342.76 181.537 1335.27 174.164 1326.03 168.915L1323.07 174.133ZM1343.36 194.112C1348.6 202.54 1352.4 212.515 1354.71 224.088L1360.6 222.912C1358.16 210.751 1354.13 200.078 1348.45 190.944L1343.36 194.112ZM1354.72 224.145C1357.28 235.777 1358.57 248.257 1358.57 261.592H1364.57C1364.57 247.871 1363.25 234.956 1360.58 222.855L1354.72 224.145ZM1358.57 261.592C1358.57 282.508 1356.22 300.096 1351.6 314.427L1357.31 316.269C1362.18 301.17 1364.57 282.921 1364.57 261.592H1358.57ZM1351.59 314.456C1347.22 328.466 1340.29 338.926 1330.92 346.07L1334.55 350.842C1345.11 342.797 1352.66 331.185 1357.31 316.24L1351.59 314.456ZM1330.93 346.063C1321.87 352.911 1309.52 356.492 1293.57 356.492V362.492C1310.38 362.492 1324.14 358.716 1334.54 350.849L1330.93 346.063ZM1293.57 356.492C1283.89 356.492 1273.96 355.11 1263.75 352.326L1262.17 358.114C1272.85 361.026 1283.32 362.492 1293.57 362.492V356.492ZM1263.81 352.343C1253.57 349.318 1244.17 345.369 1235.6 340.507L1232.64 345.725C1241.64 350.831 1251.46 354.952 1262.11 358.097L1263.81 352.343ZM1231.12 343.116V441.372H1237.12V343.116H1231.12ZM1234.12 438.372H1198.52V444.372H1234.12V438.372ZM1282.89 332.588C1291.49 332.588 1299.29 330.431 1306.21 326.075L1303.01 320.997C1297.11 324.711 1290.44 326.588 1282.89 326.588V332.588ZM1306.21 326.075C1313.33 321.589 1318.77 314.085 1322.71 303.979L1317.12 301.797C1313.47 311.152 1308.7 317.413 1303.01 320.997L1306.21 326.075ZM1322.7 304.014C1326.94 293.533 1328.97 279.327 1328.97 261.592H1322.97C1322.97 278.982 1320.96 292.307 1317.14 301.762L1322.7 304.014ZM1328.97 261.592C1328.97 244.781 1326.94 231.061 1322.7 220.594L1317.14 222.846C1320.97 232.315 1322.97 245.177 1322.97 261.592H1328.97ZM1322.71 220.617C1318.54 210.075 1313.01 202.235 1305.92 197.508L1302.59 202.5C1308.32 206.317 1313.23 212.954 1317.13 222.823L1322.71 220.617ZM1305.98 197.551C1299.08 192.698 1291.48 190.24 1283.25 190.24V196.24C1290.21 196.24 1296.61 198.292 1302.53 202.457L1305.98 197.551ZM1283.25 190.24C1272.97 190.24 1263.47 191.832 1254.79 195.056L1256.88 200.68C1264.82 197.734 1273.59 196.24 1283.25 196.24V190.24ZM1254.77 195.066C1246.61 198.184 1239.27 201.433 1232.74 204.817L1235.5 210.143C1241.79 206.882 1248.93 203.723 1256.91 200.67L1254.77 195.066ZM1231.12 207.48V316.06H1237.12V207.48H1231.12ZM1232.68 318.69C1240.22 322.823 1248.23 326.222 1256.72 328.89L1258.52 323.166C1250.39 320.612 1242.74 317.366 1235.56 313.43L1232.68 318.69ZM1256.82 328.919C1265.6 331.36 1274.3 332.588 1282.89 332.588V326.588C1274.88 326.588 1266.72 325.443 1258.42 323.137L1256.82 328.919ZM1451.31 93.916L1448.97 95.7901L1448.97 95.7901L1451.31 93.916ZM1415.71 357H1412.71V360H1415.71V357ZM1415.71 166.54V163.54H1412.71V166.54H1415.71ZM1451.31 166.54H1454.31V163.54H1451.31V166.54ZM1451.31 357V360H1454.31V357H1451.31ZM1420.69 131.5C1418.98 131.5 1418.25 131.092 1417.95 130.806C1417.68 130.55 1417.29 129.958 1417.29 128.448H1411.29C1411.29 130.973 1411.96 133.406 1413.83 135.168C1415.66 136.899 1418.14 137.5 1420.69 137.5V131.5ZM1417.29 128.448V98.544H1411.29V128.448H1417.29ZM1417.29 98.544C1417.29 96.8704 1417.7 96.1663 1418.01 95.8593C1418.32 95.5524 1419.02 95.136 1420.69 95.136V89.136C1418.1 89.136 1415.6 89.7876 1413.77 91.6167C1411.94 93.4457 1411.29 95.9456 1411.29 98.544H1417.29ZM1420.69 95.136H1447.04V89.136H1420.69V95.136ZM1447.04 95.136C1448.27 95.136 1448.73 95.4892 1448.97 95.7901L1453.65 92.0419C1451.99 89.9694 1449.6 89.136 1447.04 89.136V95.136ZM1448.97 95.7901C1449.39 96.3233 1449.73 97.1527 1449.73 98.544H1455.73C1455.73 96.138 1455.12 93.882 1453.65 92.0419L1448.97 95.7901ZM1449.73 98.544V128.448H1455.73V98.544H1449.73ZM1449.73 128.448C1449.73 130.047 1449.35 130.688 1449.13 130.931C1448.93 131.14 1448.43 131.5 1447.04 131.5V137.5C1449.45 137.5 1451.79 136.851 1453.49 135.043C1455.16 133.269 1455.73 130.884 1455.73 128.448H1449.73ZM1447.04 131.5H1420.69V137.5H1447.04V131.5ZM1418.71 357V166.54H1412.71V357H1418.71ZM1415.71 169.54H1451.31V163.54H1415.71V169.54ZM1448.31 166.54V357H1454.31V166.54H1448.31ZM1451.31 354H1415.71V360H1451.31V354ZM1548.58 357L1545.7 357.84L1546.33 360H1548.58V357ZM1493.05 166.54V163.54H1489.05L1490.17 167.38L1493.05 166.54ZM1529.71 166.54L1532.61 165.772L1532.02 163.54H1529.71V166.54ZM1571.37 323.892L1568.47 324.66L1571.26 335.211L1574.25 324.714L1571.37 323.892ZM1616.22 166.54V163.54H1613.96L1613.34 165.718L1616.22 166.54ZM1646.48 166.54L1649.37 165.718L1648.75 163.54H1646.48V166.54ZM1691.34 323.892L1688.45 324.714L1691.51 335.433L1694.25 324.629L1691.34 323.892ZM1731.21 166.54V163.54H1728.88L1728.3 165.803L1731.21 166.54ZM1767.88 166.54L1770.76 167.37L1771.86 163.54H1767.88V166.54ZM1713.05 357V360H1715.31L1715.94 357.83L1713.05 357ZM1673.54 357L1670.67 357.868L1671.31 360H1673.54V357ZM1630.82 215.668L1633.69 214.8L1630.84 205.378L1627.95 214.787L1630.82 215.668ZM1587.39 357V360H1589.6L1590.25 357.881L1587.39 357ZM1551.46 356.16L1495.93 165.7L1490.17 167.38L1545.7 357.84L1551.46 356.16ZM1493.05 169.54H1529.71V163.54H1493.05V169.54ZM1526.81 167.308L1568.47 324.66L1574.27 323.124L1532.61 165.772L1526.81 167.308ZM1574.25 324.714L1619.11 167.362L1613.34 165.718L1568.48 323.07L1574.25 324.714ZM1616.22 169.54H1646.48V163.54H1616.22V169.54ZM1643.6 167.362L1688.45 324.714L1694.22 323.07L1649.37 165.718L1643.6 167.362ZM1694.25 324.629L1734.12 167.277L1728.3 165.803L1688.43 323.155L1694.25 324.629ZM1731.21 169.54H1767.88V163.54H1731.21V169.54ZM1764.99 165.71L1710.17 356.17L1715.94 357.83L1770.76 167.37L1764.99 165.71ZM1713.05 354H1673.54V360H1713.05V354ZM1676.41 356.132L1633.69 214.8L1627.95 216.536L1670.67 357.868L1676.41 356.132ZM1627.95 214.787L1584.52 356.119L1590.25 357.881L1633.69 216.549L1627.95 214.787ZM1587.39 354H1548.58V360H1587.39V354ZM1805.66 346.676L1803.6 348.854L1803.63 348.882L1803.66 348.909L1805.66 346.676ZM1807.08 260.524L1809.13 262.722L1809.13 262.721L1807.08 260.524ZM1912.46 246.284V249.284H1915.46V246.284H1912.46ZM1908.54 207.836L1905.81 209.077L1905.85 209.154L1905.89 209.228L1908.54 207.836ZM1807.08 192.172H1804.08V195.172H1807.08V192.172ZM1807.08 171.168L1806.43 168.239L1804.08 168.761V171.168H1807.08ZM1836.99 166.184L1836.62 163.206L1836.62 163.207L1836.99 166.184ZM1877.57 163.692V160.692H1877.55L1877.53 160.692L1877.57 163.692ZM1916.73 169.744L1915.65 172.542L1915.69 172.557L1915.73 172.571L1916.73 169.744ZM1940.58 188.968L1937.99 190.471L1938 190.486L1938.01 190.501L1940.58 188.968ZM1948.42 357V360H1951.42V357H1948.42ZM1920.29 357L1917.41 357.831L1918.04 360H1920.29V357ZM1914.24 335.996L1917.12 335.165L1915.99 331.225L1912.58 333.5L1914.24 335.996ZM1905.34 341.336L1906.74 343.991L1906.79 343.963L1906.84 343.932L1905.34 341.336ZM1887.9 349.168L1886.78 346.383L1886.77 346.389L1886.75 346.396L1887.9 349.168ZM1865.11 356.288L1864.44 353.363L1864.44 353.366L1864.43 353.368L1865.11 356.288ZM1856.92 333.148L1857.12 330.155L1857.02 330.148H1856.92V333.148ZM1869.38 332.08L1868.82 329.133L1868.81 329.136L1868.8 329.138L1869.38 332.08ZM1883.98 328.876L1884.71 331.786L1884.76 331.774L1884.81 331.761L1883.98 328.876ZM1897.51 324.604L1896.56 321.758L1896.54 321.766L1896.51 321.775L1897.51 324.604ZM1907.83 321.044L1908.86 323.863L1908.92 323.84L1908.99 323.813L1907.83 321.044ZM1912.46 318.908L1914.58 321.029L1915.46 320.151V318.908H1912.46ZM1912.46 264.084H1915.46V260.953L1912.33 261.087L1912.46 264.084ZM1862.62 266.22L1862.49 263.223L1862.47 263.224L1862.45 263.225L1862.62 266.22ZM1835.92 275.476L1833.8 273.355L1833.78 273.378L1833.75 273.402L1835.92 275.476ZM1832.36 322.112L1829.86 323.776L1829.89 323.809L1829.91 323.842L1832.36 322.112ZM1843.04 330.656L1841.95 333.452L1841.98 333.462L1842 333.471L1843.04 330.656ZM1840.55 356.136C1827.19 356.136 1816.3 352.193 1807.66 344.443L1803.66 348.909C1813.53 357.772 1825.91 362.136 1840.55 362.136V356.136ZM1807.72 344.498C1799.42 336.634 1795.13 325.741 1795.13 311.432H1789.13C1789.13 327.027 1793.86 339.63 1803.6 348.854L1807.72 344.498ZM1795.13 311.432V296.48H1789.13V311.432H1795.13ZM1795.13 296.48C1795.13 282.523 1799.82 271.361 1809.13 262.722L1805.04 258.326C1794.41 268.199 1789.13 281.007 1789.13 296.48H1795.13ZM1809.13 262.721C1818.57 253.94 1833.01 249.284 1853.01 249.284V243.284C1832.19 243.284 1816.01 248.122 1805.04 258.327L1809.13 262.721ZM1853.01 249.284H1912.46V243.284H1853.01V249.284ZM1915.46 246.284V226.348H1909.46V246.284H1915.46ZM1915.46 226.348C1915.46 218.65 1914.1 211.969 1911.2 206.444L1905.89 209.228C1908.21 213.671 1909.46 219.331 1909.46 226.348H1915.46ZM1911.28 206.595C1908.51 200.5 1903.3 196.118 1896.11 193.296L1893.92 198.88C1900.03 201.279 1903.84 204.73 1905.81 209.077L1911.28 206.595ZM1896.11 193.296C1888.94 190.477 1878.64 189.172 1865.47 189.172V195.172C1878.41 195.172 1887.8 196.477 1893.92 198.88L1896.11 193.296ZM1865.47 189.172H1807.08V195.172H1865.47V189.172ZM1810.08 192.172V171.168H1804.08V192.172H1810.08ZM1807.74 174.097C1816.16 172.224 1826.04 170.576 1837.36 169.161L1836.62 163.207C1825.16 164.639 1815.09 166.315 1806.43 168.239L1807.74 174.097ZM1837.35 169.162C1848.85 167.754 1862.27 166.928 1877.62 166.692L1877.53 160.692C1862.02 160.931 1848.39 161.766 1836.62 163.206L1837.35 169.162ZM1877.57 166.692C1893 166.692 1905.66 168.683 1915.65 172.542L1917.81 166.946C1906.92 162.736 1893.47 160.692 1877.57 160.692V166.692ZM1915.73 172.571C1925.8 176.152 1933.16 182.124 1937.99 190.471L1943.18 187.465C1937.57 177.774 1929.03 170.931 1917.74 166.917L1915.73 172.571ZM1938.01 190.501C1942.86 198.658 1945.42 209.813 1945.42 224.212H1951.42C1951.42 209.182 1948.76 196.841 1943.16 187.435L1938.01 190.501ZM1945.42 224.212V357H1951.42V224.212H1945.42ZM1948.42 354H1920.29V360H1948.42V354ZM1923.18 356.169L1917.12 335.165L1911.36 336.827L1917.41 357.831L1923.18 356.169ZM1912.58 333.5C1911.25 334.388 1908.36 336.121 1903.84 338.74L1906.84 343.932C1911.34 341.33 1914.39 339.503 1915.91 338.492L1912.58 333.5ZM1903.94 338.681C1899.56 340.989 1893.85 343.556 1886.78 346.383L1889.01 351.953C1896.18 349.084 1902.1 346.43 1906.74 343.991L1903.94 338.681ZM1886.75 346.396C1880.04 349.171 1872.61 351.497 1864.44 353.363L1865.78 359.213C1874.23 357.282 1881.99 354.861 1889.04 351.94L1886.75 346.396ZM1864.43 353.368C1856.58 355.213 1848.62 356.136 1840.55 356.136V362.136C1849.09 362.136 1857.51 361.16 1865.8 359.208L1864.43 353.368ZM1856.73 336.141C1860.62 336.401 1865.05 336.006 1869.97 335.022L1868.8 329.138C1864.22 330.053 1860.35 330.369 1857.12 330.155L1856.73 336.141ZM1869.95 335.027C1874.98 334.067 1879.9 332.987 1884.71 331.786L1883.25 325.966C1878.56 327.138 1873.75 328.194 1868.82 329.133L1869.95 335.027ZM1884.81 331.761C1889.84 330.323 1894.4 328.881 1898.51 327.433L1896.51 321.775C1892.54 323.175 1888.09 324.581 1883.16 325.991L1884.81 331.761ZM1898.46 327.45C1902.74 326.022 1906.21 324.826 1908.86 323.863L1906.81 318.225C1904.23 319.161 1900.82 320.338 1896.56 321.758L1898.46 327.45ZM1908.99 323.813C1910.42 323.215 1911.56 322.723 1912.38 322.344C1912.79 322.156 1913.15 321.98 1913.45 321.822C1913.6 321.741 1914.15 321.457 1914.58 321.029L1910.34 316.787C1910.47 316.66 1910.57 316.579 1910.62 316.547C1910.67 316.51 1910.7 316.488 1910.71 316.483C1910.72 316.474 1910.7 316.488 1910.63 316.528C1910.48 316.607 1910.23 316.728 1909.87 316.896C1909.15 317.229 1908.09 317.686 1906.68 318.275L1908.99 323.813ZM1915.46 318.908V264.084H1909.46V318.908H1915.46ZM1912.33 261.087L1862.49 263.223L1862.75 269.217L1912.59 267.081L1912.33 261.087ZM1862.45 263.225C1849.79 263.955 1840.01 267.141 1833.8 273.355L1838.04 277.597C1842.75 272.894 1850.77 269.909 1862.79 269.215L1862.45 263.225ZM1833.75 273.402C1827.91 279.51 1825.09 287.417 1825.09 296.836H1831.09C1831.09 288.692 1833.49 282.36 1838.09 277.55L1833.75 273.402ZM1825.09 296.836V305.38H1831.09V296.836H1825.09ZM1825.09 305.38C1825.09 312.658 1826.59 318.869 1829.86 323.776L1834.86 320.448C1832.43 316.811 1831.09 311.868 1831.09 305.38H1825.09ZM1829.91 323.842C1833.07 328.319 1837.09 331.56 1841.95 333.452L1844.13 327.86C1840.45 326.429 1837.35 323.974 1834.81 320.382L1829.91 323.842ZM1842 333.471C1846.84 335.253 1851.82 336.148 1856.92 336.148V330.148C1852.54 330.148 1848.26 329.382 1844.08 327.841L1842 333.471ZM2007.48 357H2004.48V360H2007.48V357ZM2007.48 166.54V163.54H2004.48V166.54H2007.48ZM2034.89 166.54L2037.8 165.797L2037.22 163.54H2034.89V166.54ZM2043.08 198.58L2040.17 199.323L2041.63 205.027L2045.39 200.495L2043.08 198.58ZM2070.13 174.016L2071.8 176.512L2071.8 176.512L2070.13 174.016ZM2113.92 164.76L2113.43 167.719L2113.55 167.739L2113.67 167.75L2113.92 164.76ZM2122.11 166.184H2125.11V163.893L2122.9 163.29L2122.11 166.184ZM2122.11 202.852L2121.68 205.822L2125.11 206.311V202.852H2122.11ZM2111.78 201.784L2111.39 204.758L2111.49 204.771L2111.59 204.777L2111.78 201.784ZM2079.03 203.92L2079.89 206.796L2079.89 206.796L2079.03 203.92ZM2060.52 212.82L2062.18 215.316L2062.2 215.309L2062.21 215.301L2060.52 212.82ZM2043.08 227.06L2041 224.896L2040.08 225.781V227.06H2043.08ZM2043.08 357V360H2046.08V357H2043.08ZM2010.48 357V166.54H2004.48V357H2010.48ZM2007.48 169.54H2034.89V163.54H2007.48V169.54ZM2031.98 167.283L2040.17 199.323L2045.98 197.837L2037.8 165.797L2031.98 167.283ZM2045.39 200.495C2053.28 190.976 2062.08 182.987 2071.8 176.512L2068.47 171.52C2058.25 178.335 2049.01 186.723 2040.77 196.665L2045.39 200.495ZM2071.8 176.512C2081.22 170.231 2092.26 167.048 2105.02 167.048V161.048C2091.21 161.048 2078.98 164.511 2068.47 171.52L2071.8 176.512ZM2105.02 167.048C2107.95 167.048 2110.75 167.273 2113.43 167.719L2114.41 161.801C2111.39 161.297 2108.26 161.048 2105.02 161.048V167.048ZM2113.67 167.75C2116.35 167.973 2118.9 168.417 2121.32 169.078L2122.9 163.29C2120.1 162.527 2117.19 162.022 2114.17 161.77L2113.67 167.75ZM2119.11 166.184V202.852H2125.11V166.184H2119.11ZM2122.53 199.882C2119.13 199.396 2115.61 199.033 2111.98 198.791L2111.59 204.777C2115.07 205.01 2118.44 205.358 2121.68 205.822L2122.53 199.882ZM2112.18 198.81C2108.48 198.317 2104.67 198.072 2100.75 198.072V204.072C2104.42 204.072 2107.97 204.302 2111.39 204.758L2112.18 198.81ZM2100.75 198.072C2092.45 198.072 2084.92 199.048 2078.18 201.044L2079.89 206.796C2085.97 204.995 2092.91 204.072 2100.75 204.072V198.072ZM2078.18 201.044C2071.45 203.037 2065 206.143 2058.83 210.339L2062.21 215.301C2067.9 211.427 2073.8 208.601 2079.89 206.796L2078.18 201.044ZM2058.86 210.324C2052.99 214.237 2047.04 219.101 2041 224.896L2045.15 229.224C2050.98 223.627 2056.66 218.998 2062.18 215.316L2058.86 210.324ZM2040.08 227.06V357H2046.08V227.06H2040.08ZM2043.08 354H2007.48V360H2043.08V354ZM2192.96 350.236L2191.62 352.919L2191.63 352.925L2191.64 352.93L2192.96 350.236ZM2167.33 320.332L2164.49 321.323L2164.5 321.352L2164.52 321.38L2167.33 320.332ZM2167.33 202.496L2164.51 201.463L2164.5 201.477L2164.5 201.49L2167.33 202.496ZM2192.96 172.592L2194.26 175.297L2194.26 175.297L2192.96 172.592ZM2283.38 169.744L2282.38 172.571L2282.41 172.584L2282.45 172.596L2283.38 169.744ZM2307.23 189.324L2304.58 190.718L2304.6 190.759L2304.62 190.798L2307.23 189.324ZM2307.95 255.896L2305.48 254.193L2305.46 254.222L2305.44 254.252L2307.95 255.896ZM2288.37 270.848L2287.35 268.026L2287.33 268.031L2287.32 268.036L2288.37 270.848ZM2195.45 275.476V272.476H2192.4L2192.45 275.528L2195.45 275.476ZM2200.08 308.584L2197.24 309.557L2197.26 309.607L2197.28 309.655L2200.08 308.584ZM2216.1 326.384L2214.76 329.067L2214.81 329.092L2214.86 329.115L2216.1 326.384ZM2309.73 331.724H2312.73V328.724H2309.73V331.724ZM2309.73 353.084L2310.14 356.055L2312.73 355.694V353.084H2309.73ZM2278.4 357L2278.07 354.018L2278.03 354.022L2278 354.026L2278.4 357ZM2195.09 253.048H2192.09V256.048H2195.09V253.048ZM2276.26 247.708L2278.12 250.063L2278.12 250.063L2276.26 247.708ZM2278.75 205.7L2276.05 206.994L2276.07 207.041L2276.09 207.088L2278.75 205.7ZM2265.58 193.952L2266.66 191.152L2266.66 191.152L2265.58 193.952ZM2213.25 195.732L2211.87 193.067L2211.85 193.077L2211.83 193.088L2213.25 195.732ZM2199.01 214.6L2196.15 213.697L2196.14 213.731L2196.13 213.766L2199.01 214.6ZM2241.37 356.136C2221.45 356.136 2205.82 353.199 2194.28 347.542L2191.64 352.93C2204.31 359.14 2220.95 362.136 2241.37 362.136V356.136ZM2194.3 347.553C2183.2 342.003 2175.13 332.672 2170.14 319.284L2164.52 321.38C2169.97 335.997 2178.98 346.603 2191.62 352.919L2194.3 347.553ZM2170.16 319.341C2165.33 305.56 2162.85 286.365 2162.85 261.592H2156.85C2156.85 286.659 2159.35 306.624 2164.49 321.323L2170.16 319.341ZM2162.85 261.592C2162.85 236.333 2165.34 217.032 2170.15 203.502L2164.5 201.49C2159.35 215.966 2156.85 236.062 2156.85 261.592H2162.85ZM2170.14 203.529C2175.14 189.902 2183.2 180.603 2194.26 175.297L2191.66 169.887C2178.98 175.973 2169.96 186.61 2164.51 201.463L2170.14 203.529ZM2194.26 175.297C2205.56 169.871 2221.08 167.048 2241.02 167.048V161.048C2220.61 161.048 2204.09 163.921 2191.66 169.887L2194.26 175.297ZM2241.02 167.048C2258.41 167.048 2272.15 168.933 2282.38 172.571L2284.39 166.917C2273.26 162.96 2258.76 161.048 2241.02 161.048V167.048ZM2282.45 172.596C2292.68 175.933 2299.99 181.97 2304.58 190.718L2309.89 187.929C2304.52 177.692 2295.91 170.675 2284.31 166.892L2282.45 172.596ZM2304.62 190.798C2309.48 199.419 2312.07 211.767 2312.07 228.128H2318.07C2318.07 211.263 2315.43 197.741 2309.85 187.85L2304.62 190.798ZM2312.07 228.128C2312.07 239.379 2309.77 247.972 2305.48 254.193L2310.42 257.599C2315.62 250.055 2318.07 240.135 2318.07 228.128H2312.07ZM2305.44 254.252C2301.32 260.534 2295.35 265.138 2287.35 268.026L2289.39 273.67C2298.47 270.388 2305.55 265.023 2310.46 257.54L2305.44 254.252ZM2287.32 268.036C2279.44 270.965 2269.84 272.476 2258.46 272.476V278.476C2270.34 278.476 2280.68 276.902 2289.41 273.66L2287.32 268.036ZM2258.46 272.476H2195.45V278.476H2258.46V272.476ZM2192.45 275.528C2192.69 289.45 2194.25 300.835 2197.24 309.557L2202.92 307.611C2200.21 299.72 2198.68 289.033 2198.45 275.424L2192.45 275.528ZM2197.28 309.655C2200.62 318.412 2206.48 324.928 2214.76 329.067L2217.44 323.701C2210.53 320.245 2205.7 314.894 2202.88 307.513L2197.28 309.655ZM2214.86 329.115C2223.27 332.938 2235.16 334.724 2250.27 334.724V328.724C2235.48 328.724 2224.59 326.95 2217.34 323.653L2214.86 329.115ZM2250.27 334.724H2309.73V328.724H2250.27V334.724ZM2306.73 331.724V353.084H2312.73V331.724H2306.73ZM2309.31 350.113C2299.14 351.533 2288.72 352.835 2278.07 354.018L2278.73 359.982C2289.44 358.792 2299.91 357.483 2310.14 356.055L2309.31 350.113ZM2278 354.026C2267.49 355.429 2255.28 356.136 2241.37 356.136V362.136C2255.47 362.136 2267.95 361.419 2278.79 359.974L2278 354.026ZM2195.09 256.048H2255.26V250.048H2195.09V256.048ZM2255.26 256.048C2265.02 256.048 2272.83 254.236 2278.12 250.063L2274.4 245.353C2270.67 248.3 2264.48 250.048 2255.26 250.048V256.048ZM2278.12 250.063C2283.71 245.648 2286.03 237.949 2286.03 228.128H2280.03C2280.03 237.294 2277.83 242.648 2274.4 245.353L2278.12 250.063ZM2286.03 228.128C2286.03 218.389 2284.57 210.37 2281.41 204.312L2276.09 207.088C2278.63 211.948 2280.03 218.88 2280.03 228.128H2286.03ZM2281.46 204.406C2278.49 198.188 2273.47 193.773 2266.66 191.152L2264.51 196.752C2270.03 198.878 2273.8 202.294 2276.05 206.994L2281.46 204.406ZM2266.66 191.152C2260.01 188.595 2251.41 187.392 2241.02 187.392V193.392C2251.03 193.392 2258.81 194.563 2264.51 196.752L2266.66 191.152ZM2241.02 187.392C2229.13 187.392 2219.34 189.204 2211.87 193.067L2214.63 198.397C2220.93 195.14 2229.65 193.392 2241.02 193.392V187.392ZM2211.83 193.088C2204.33 197.106 2199.17 204.131 2196.15 213.697L2201.87 215.503C2204.55 207.032 2208.88 201.478 2214.67 198.376L2211.83 193.088ZM2196.13 213.766C2193.4 223.187 2192.09 236.334 2192.09 253.048H2198.09C2198.09 236.536 2199.4 224.05 2201.89 215.434L2196.13 213.766Z" fill="white"/>
</svg>
