<svg width="16" height="17" viewBox="0 0 16 17" fill="none" xmlns="http://www.w3.org/2000/svg">
<path d="M1.74514 1.05212C1.69764 1.12557 1.66069 1.22105 1.66069 1.26511C1.66069 1.31652 1.63958 1.412 1.61319 1.48544C1.47596 1.86001 1.14345 3.07918 1.12234 3.29952C1.1065 3.4464 1.13817 3.4464 7.99428 3.46844C11.7839 3.47578 14.9823 3.46844 15.1037 3.4464C15.3571 3.39499 15.3729 3.35827 15.7001 2.12441C15.8374 1.59561 15.906 1.36059 15.9746 1.18432C16.001 1.11088 16.0063 1.02275 15.9904 0.986024C15.9746 0.949302 13.0823 0.919924 8.89153 0.927269C2.27821 0.927269 1.81903 0.934613 1.74514 1.05212Z" fill="white"/>
<path d="M0.674373 4.89334C0.647983 4.94476 0.595203 5.10633 0.558257 5.24588C0.521311 5.38542 0.463254 5.58372 0.436864 5.68654C0.405196 5.78936 0.357694 5.9436 0.336582 6.03173C0.310192 6.12721 0.26269 6.28878 0.231022 6.39895C0.194076 6.51646 0.151852 6.67069 0.13074 6.75148C0.109628 6.83227 0.0621265 6.99385 0.0304586 7.10401C-0.0117653 7.25825 -0.0117653 7.317 0.0410146 7.33904C0.0726825 7.36107 1.10189 7.3831 2.32111 7.39045C4.50619 7.41248 4.53786 7.41248 4.52203 7.55937C4.51675 7.64016 4.48508 7.7797 4.45869 7.86783C4.42702 7.96331 4.3848 8.11754 4.35313 8.22037C4.32674 8.32319 4.27924 8.47742 4.25285 8.56555C4.22646 8.66103 4.10507 9.09435 3.98367 9.54236C3.86228 9.98303 3.73561 10.431 3.70922 10.5339C3.67755 10.6367 3.63532 10.7836 3.61421 10.8644C3.5931 10.9451 3.55088 11.092 3.51921 11.1949C3.49282 11.2977 3.39254 11.6576 3.29753 12.0027C3.20253 12.3479 3.10225 12.7078 3.07586 12.8106C3.04419 12.9134 2.99669 13.0677 2.97558 13.1558C2.94919 13.2513 2.90696 13.3982 2.88057 13.4863C2.85418 13.5818 2.75918 13.9343 2.66417 14.2795C2.56917 14.6247 2.47417 14.9772 2.44778 15.0654C2.42139 15.1608 2.37916 15.3077 2.35277 15.3959C2.33166 15.4913 2.28416 15.6456 2.25249 15.7484C2.07304 16.3653 1.96748 16.784 1.99387 16.8207C2.0097 16.8427 2.41611 16.8794 2.90168 16.9015C3.6881 16.9308 3.79366 16.9235 3.88339 16.806C3.93617 16.7399 3.98367 16.6371 3.98367 16.5783C3.98367 16.5269 4.00478 16.4241 4.03117 16.3506C4.05756 16.2845 4.13146 16.0275 4.19479 15.7851C4.25813 15.5427 4.33202 15.271 4.35841 15.1755C4.3848 15.0874 4.4323 14.9332 4.45869 14.8303C4.49036 14.7275 4.53786 14.5659 4.56425 14.4631C4.59592 14.3603 4.63814 14.2061 4.66453 14.1106C4.69092 14.0225 4.73842 13.8315 4.77537 13.692C4.81232 13.5524 4.88621 13.2954 4.93899 13.1264C4.99705 12.9502 5.03927 12.7812 5.03927 12.7372C5.03927 12.6931 5.06038 12.605 5.08677 12.5315C5.13427 12.392 5.16594 12.2965 5.40345 11.4666C5.42984 11.3785 5.47734 11.1875 5.51429 11.048C5.55123 10.9084 5.62513 10.6514 5.67791 10.4824C5.73596 10.3062 5.77819 10.1373 5.77819 10.0932C5.77819 10.0491 5.7993 9.96099 5.82569 9.88755C5.86791 9.77004 5.90486 9.65253 6.03681 9.18983C6.0632 9.1017 6.1582 8.74916 6.25321 8.40398C6.34821 8.05879 6.44321 7.70626 6.4696 7.61078C6.49599 7.52265 6.5435 7.36841 6.56989 7.26559C6.60155 7.16277 6.64378 7.00854 6.67017 6.91306C6.69656 6.82493 6.79156 6.47239 6.88657 6.12721C6.98157 5.78202 7.07657 5.43683 7.10296 5.35604C7.12935 5.27525 7.15574 5.12837 7.16102 5.02554L7.17685 4.84193L3.952 4.8199C1.40801 4.80521 0.716597 4.82724 0.674373 4.89334Z" fill="white"/>
<path d="M8.39086 4.86401C8.33808 4.91542 8.2378 5.18716 8.15335 5.50297C8.12696 5.58376 8.03724 5.92895 7.94223 6.27414C7.84723 6.61932 7.74695 6.9792 7.72056 7.08202C7.68889 7.18484 7.64139 7.34642 7.60972 7.44924C7.58333 7.55207 7.54111 7.69161 7.51472 7.75771C7.48833 7.83115 7.46721 7.91929 7.46721 7.96335C7.46721 8.00742 7.42499 8.17634 7.36693 8.35261C7.21915 8.80796 6.83386 10.1961 6.83386 10.2622C6.83386 10.2915 6.78635 10.4751 6.72302 10.6661C6.58579 11.0921 6.54357 11.2316 6.4644 11.5621C6.42745 11.7017 6.36939 11.9147 6.33245 12.0395C6.29022 12.157 6.22161 12.4067 6.17411 12.5903C6.12661 12.7739 6.05799 13.0016 6.0316 13.1044C5.99993 13.2073 5.95243 13.3615 5.93132 13.4496C5.90493 13.5451 5.85743 13.7067 5.82576 13.8169C5.78881 13.9344 5.74659 14.0886 5.72548 14.1694C5.70437 14.2502 5.66214 14.4044 5.6252 14.5146C5.51964 14.8818 5.47214 15.036 5.22407 15.9247C5.04462 16.571 4.99712 16.8134 5.04462 16.8574C5.09212 16.8942 6.72302 16.9015 6.89191 16.8574C6.91303 16.8501 6.95525 16.7399 6.9922 16.6077C7.05025 16.3874 7.08192 16.2919 7.19804 15.8733C7.22443 15.7852 7.29832 15.5134 7.36165 15.271C7.49888 14.7496 7.54111 14.6027 7.615 14.353C7.64139 14.2502 7.73639 13.9197 7.82084 13.6186L7.9739 13.0677L9.33034 13.0457C10.0745 13.0383 10.6868 13.0457 10.6868 13.0677C10.6868 13.1044 10.4651 13.9344 10.3596 14.2796C10.2909 14.5072 10.2593 14.6174 10.0534 15.3812C9.95843 15.7264 9.86342 16.0716 9.84231 16.1524C9.71036 16.6077 9.67341 16.784 9.6998 16.8207C9.71564 16.8428 10.1168 16.8795 10.5971 16.9015C11.4521 16.9456 11.4627 16.9456 11.5735 16.7767C11.6368 16.6812 11.6896 16.5637 11.6896 16.5196C11.6896 16.4682 11.7846 16.1083 11.9007 15.7117C12.0168 15.3151 12.1118 14.9626 12.1118 14.9259C12.1118 14.8965 12.1593 14.7055 12.2227 14.5146C12.3599 14.0813 12.3916 13.9784 12.5341 13.4349C12.5974 13.1926 12.6713 12.9208 12.6977 12.8254C12.7241 12.7372 12.7716 12.583 12.798 12.4802C12.8297 12.3773 12.8772 12.2158 12.9035 12.1129C12.9352 12.0101 12.9827 11.8486 13.0091 11.7457C13.0408 11.6429 13.083 11.4887 13.1094 11.3932C13.1358 11.3051 13.2572 10.8644 13.3786 10.4237C13.5 9.97572 13.6266 9.53506 13.653 9.43224C13.6847 9.32942 13.7322 9.16784 13.7639 9.06502C13.7902 8.96219 13.8377 8.80062 13.8694 8.69779C13.9486 8.42605 13.9908 8.26447 14.1175 7.77974C14.1808 7.53738 14.2811 7.19953 14.3339 7.03061C14.3919 6.85435 14.4342 6.68542 14.4342 6.64136C14.4342 6.59729 14.4553 6.50916 14.4817 6.43571C14.5239 6.3182 14.5714 6.17131 14.6981 5.72331C14.7297 5.62048 14.772 5.46625 14.8036 5.37077C14.83 5.28264 14.8617 5.12841 14.867 5.02559L14.8828 4.84198L11.6632 4.82729C9.88981 4.81994 8.41725 4.83463 8.39086 4.86401ZM12.1963 7.45659C12.2121 7.50065 12.2016 7.61817 12.1699 7.71364C12.0907 7.94866 12.038 8.13962 11.9007 8.66107C11.7846 9.10174 11.7424 9.24863 11.6315 9.63054C11.5946 9.74805 11.5524 9.90228 11.5313 9.98307C11.5102 10.0639 11.4679 10.2181 11.431 10.3283L11.3729 10.5339H10.0534C8.64421 10.5339 8.64948 10.5339 8.78143 10.1814C8.83949 10.0198 8.98728 9.53506 9.10339 9.10174C9.12978 9.02095 9.18256 8.83734 9.22478 8.69779C9.27229 8.55825 9.35673 8.26447 9.42007 8.04414C9.62591 7.30236 9.47285 7.3758 10.8979 7.3758C11.7529 7.3758 12.1699 7.40518 12.1963 7.45659Z" fill="white"/>
</svg>
