<svg width="152" height="110" viewBox="0 0 152 110" fill="none" xmlns="http://www.w3.org/2000/svg">
<path d="M16.8004 1.4502C16.3504 1.9502 16.0004 2.6002 16.0004 2.9002C16.0004 3.2502 15.8004 3.9002 15.5504 4.4002C14.2504 6.9502 11.1004 15.2502 10.9004 16.7502C10.7504 17.7502 11.0504 17.7502 76.0004 17.9002C111.9 17.9502 142.2 17.9002 143.35 17.7502C145.75 17.4002 145.9 17.1502 149 8.7502C150.3 5.1502 150.95 3.5502 151.6 2.3502C151.85 1.8502 151.9 1.2502 151.75 1.0002C151.6 0.750195 124.2 0.550195 84.5004 0.600195C21.8504 0.600195 17.5004 0.650195 16.8004 1.4502Z" fill="white"/>
<path d="M6.65026 27.6002C6.40026 27.9502 5.90026 29.0502 5.55026 30.0002C5.20026 30.9502 4.65026 32.3002 4.40026 33.0002C4.10026 33.7002 3.65026 34.7502 3.45026 35.3502C3.20026 36.0002 2.75026 37.1002 2.45026 37.8502C2.10026 38.6502 1.70026 39.7002 1.50026 40.2502C1.30026 40.8002 0.850263 41.9002 0.550263 42.6502C0.150263 43.7002 0.150263 44.1002 0.650263 44.2502C0.950263 44.4002 10.7003 44.5502 22.2503 44.6002C42.9503 44.7502 43.2503 44.7502 43.1003 45.7502C43.0503 46.3002 42.7503 47.2502 42.5003 47.8502C42.2003 48.5002 41.8003 49.5502 41.5003 50.2502C41.2503 50.9502 40.8003 52.0002 40.5503 52.6002C40.3003 53.2502 39.1503 56.2002 38.0003 59.2502C36.8503 62.2502 35.6503 65.3002 35.4003 66.0002C35.1003 66.7002 34.7003 67.7002 34.5003 68.2502C34.3003 68.8002 33.9003 69.8002 33.6003 70.5002C33.3503 71.2002 32.4003 73.6502 31.5003 76.0002C30.6003 78.3502 29.6503 80.8002 29.4003 81.5002C29.1003 82.2002 28.6503 83.2502 28.4503 83.8502C28.2003 84.5002 27.8003 85.5002 27.5503 86.1002C27.3003 86.7502 26.4003 89.1502 25.5003 91.5002C24.6003 93.8502 23.7003 96.2502 23.4503 96.8502C23.2003 97.5002 22.8003 98.5002 22.5503 99.1002C22.3503 99.7502 21.9003 100.8 21.6003 101.5C19.9003 105.7 18.9003 108.55 19.1503 108.8C19.3003 108.95 23.1503 109.2 27.7503 109.35C35.2003 109.55 36.2003 109.5 37.0503 108.7C37.5503 108.25 38.0003 107.55 38.0003 107.15C38.0003 106.8 38.2003 106.1 38.4503 105.6C38.7003 105.15 39.4003 103.4 40.0003 101.75C40.6003 100.1 41.3003 98.2502 41.5503 97.6002C41.8003 97.0002 42.2503 95.9502 42.5003 95.2502C42.8003 94.5502 43.2503 93.4502 43.5003 92.7502C43.8003 92.0502 44.2003 91.0002 44.4503 90.3502C44.7003 89.7502 45.1503 88.4502 45.5003 87.5002C45.8503 86.5502 46.5503 84.8002 47.0503 83.6502C47.6003 82.4502 48.0003 81.3002 48.0003 81.0002C48.0003 80.7002 48.2003 80.1002 48.4503 79.6002C48.9003 78.6502 49.2003 78.0002 51.4503 72.3502C51.7003 71.7502 52.1503 70.4502 52.5003 69.5002C52.8503 68.5502 53.5503 66.8002 54.0503 65.6502C54.6003 64.4502 55.0003 63.3002 55.0003 63.0002C55.0003 62.7002 55.2003 62.1002 55.4503 61.6002C55.8503 60.8002 56.2003 60.0002 57.4503 56.8502C57.7003 56.2502 58.6003 53.8502 59.5003 51.5002C60.4003 49.1502 61.3003 46.7502 61.5503 46.1002C61.8003 45.5002 62.2503 44.4502 62.5003 43.7502C62.8003 43.0502 63.2003 42.0002 63.4503 41.3502C63.7003 40.7502 64.6003 38.3502 65.5003 36.0002C66.4003 33.6502 67.3003 31.3002 67.5503 30.7502C67.8003 30.2002 68.0503 29.2002 68.1003 28.5002L68.2503 27.2502L37.7003 27.1002C13.6003 27.0002 7.05026 27.1502 6.65026 27.6002Z" fill="white"/>
<path d="M79.7504 27.4C79.2504 27.75 78.3004 29.6 77.5004 31.75C77.2504 32.3 76.4004 34.65 75.5004 37C74.6004 39.35 73.6504 41.8 73.4004 42.5C73.1004 43.2 72.6504 44.3 72.3504 45C72.1004 45.7 71.7004 46.65 71.4504 47.1C71.2004 47.6 71.0004 48.2 71.0004 48.5C71.0004 48.8 70.6004 49.95 70.0504 51.15C68.6504 54.25 65.0004 63.7 65.0004 64.15C65.0004 64.35 64.5504 65.6 63.9504 66.9C62.6504 69.8 62.2504 70.75 61.5004 73C61.1504 73.95 60.6004 75.4 60.2504 76.25C59.8504 77.05 59.2004 78.75 58.7504 80C58.3004 81.25 57.6504 82.8 57.4004 83.5C57.1004 84.2 56.6504 85.25 56.4504 85.85C56.2004 86.5 55.7504 87.6 55.4504 88.35C55.1004 89.15 54.7004 90.2 54.5004 90.75C54.3004 91.3 53.9004 92.35 53.5504 93.1C52.5504 95.6 52.1004 96.65 49.7504 102.7C48.0504 107.1 47.6004 108.75 48.0504 109.05C48.5004 109.3 63.9504 109.35 65.5504 109.05C65.7504 109 66.1504 108.25 66.5004 107.35C67.0504 105.85 67.3504 105.2 68.4504 102.35C68.7004 101.75 69.4004 99.9 70.0004 98.25C71.3004 94.7 71.7004 93.7 72.4004 92C72.6504 91.3 73.5504 89.05 74.3504 87L75.8004 83.25L88.6504 83.1C95.7004 83.05 101.5 83.1 101.5 83.25C101.5 83.5 99.4004 89.15 98.4004 91.5C97.7504 93.05 97.4504 93.8 95.5004 99C94.6004 101.35 93.7004 103.7 93.5004 104.25C92.2504 107.35 91.9004 108.55 92.1504 108.8C92.3004 108.95 96.1004 109.2 100.65 109.35C108.75 109.65 108.85 109.65 109.9 108.5C110.5 107.85 111 107.05 111 106.75C111 106.4 111.9 103.95 113 101.25C114.1 98.55 115 96.15 115 95.9C115 95.7 115.45 94.4 116.05 93.1C117.35 90.15 117.65 89.45 119 85.75C119.6 84.1 120.3 82.25 120.55 81.6C120.8 81 121.25 79.95 121.5 79.25C121.8 78.55 122.25 77.45 122.5 76.75C122.8 76.05 123.25 74.95 123.5 74.25C123.8 73.55 124.2 72.5 124.45 71.85C124.7 71.25 125.85 68.25 127 65.25C128.15 62.2 129.35 59.2 129.6 58.5C129.9 57.8 130.35 56.7 130.65 56C130.9 55.3 131.35 54.2 131.65 53.5C132.4 51.65 132.8 50.55 134 47.25C134.6 45.6 135.55 43.3 136.05 42.15C136.6 40.95 137 39.8 137 39.5C137 39.2 137.2 38.6 137.45 38.1C137.85 37.3 138.3 36.3 139.5 33.25C139.8 32.55 140.2 31.5 140.5 30.85C140.75 30.25 141.05 29.2 141.1 28.5L141.25 27.25L110.75 27.15C93.9504 27.1 80.0004 27.2 79.7504 27.4ZM115.8 45.05C115.95 45.35 115.85 46.15 115.55 46.8C114.8 48.4 114.3 49.7 113 53.25C111.9 56.25 111.5 57.25 110.45 59.85C110.1 60.65 109.7 61.7 109.5 62.25C109.3 62.8 108.9 63.85 108.55 64.6L108 66H95.5004C82.1504 66 82.2004 66 83.4504 63.6C84.0004 62.5 85.4004 59.2 86.5004 56.25C86.7504 55.7 87.2504 54.45 87.6504 53.5C88.1004 52.55 88.9004 50.55 89.5004 49.05C91.4504 44 90.0004 44.5 103.5 44.5C111.6 44.5 115.55 44.7 115.8 45.05Z" fill="white"/>
</svg>
