<svg width="1694" height="723" viewBox="0 0 1694 723" fill="none" xmlns="http://www.w3.org/2000/svg">
<path d="M874.89 0.962936C631.074 -0.205816 421.378 38.5137 391.103 42.3593C342.694 48.4669 326.822 81.7575 326.822 81.7575L233.096 287.307C249.647 285.308 270.986 282.707 296.359 279.615C302.052 -110.445 1286.21 40.2103 1319.17 62.1903C1179.75 16.6845 1021.17 1.64156 874.89 0.962936Z" fill="white" fill-opacity="0.4"/>
<mask id="mask0_425_1906" style="mask-type:luminance" maskUnits="userSpaceOnUse" x="34" y="41" width="1405" height="407">
<path d="M34.4458 41.7565H1438.98V447.124H34.4458V41.7565Z" fill="white"/>
</mask>
<g mask="url(#mask0_425_1906)">
<path d="M656.257 55.2921C656.257 55.2921 911.61 11.4451 1315.66 83.8699C1311.85 80.062 1393.81 148.679 1437.62 289.683C1435.74 287.798 349.404 194.411 34.9351 440.263C40.6657 432.647 170.246 297.299 559.025 263.028C947.842 228.719 1410.97 318.298 1355.7 186.795C1300.43 55.2921 999.304 55.2921 656.257 55.2921Z" fill="white" fill-opacity="0.4"/>
</g>
<path d="M238.866 285.424L205.99 315.887C205.99 315.887 184.086 287.799 109.248 290.664C34.448 293.492 75.4297 210.586 119.729 209.643C164.066 208.701 206.933 201.085 203.615 223.932C200.26 246.817 199.807 276.828 193.134 279.693C186.461 282.558 193.587 214.432 138.316 224.913C83.0454 235.394 94.0166 257.788 107.853 263.029C121.652 268.269 141.671 254.923 158.336 274.453C175 293.982 224.087 304.463 238.866 285.424Z" fill="white" fill-opacity="0.4"/>
<path d="M1434.23 288.778L1467.11 319.241C1467.11 319.241 1489.01 291.153 1563.81 294.019C1638.65 296.846 1597.67 213.941 1553.33 212.998C1509.03 212.055 1466.13 204.44 1469.48 227.287C1472.8 250.172 1473.29 280.182 1479.96 283.048C1486.64 285.913 1479.47 217.786 1534.74 228.267C1590.01 238.748 1579.08 261.143 1565.24 266.383C1551.45 271.624 1531.43 258.278 1514.76 277.807C1498.06 297.336 1449.01 307.818 1434.23 288.778Z" fill="white" fill-opacity="0.4"/>
<mask id="mask1_425_1906" style="mask-type:luminance" maskUnits="userSpaceOnUse" x="280" y="292" width="1387" height="185">
<path d="M280.788 292.7H1666.32V476.081H280.788V292.7Z" fill="white"/>
</mask>
<g mask="url(#mask1_425_1906)">
<path d="M897.85 293.493C712.735 294.133 510.202 314.417 286.745 382.129L287.122 382.054C630.772 299.751 1027.96 301.448 1313.1 322.108C1312.15 322.146 1311.7 322.146 1310.76 322.183C1272.53 324.144 1249.34 329.761 1198.52 334.286C1147.66 338.848 1096.54 344.654 1057.22 351.741C1037.53 355.285 1020.83 359.131 1008.47 363.354C1002.28 365.465 997.194 367.689 993.273 370.064C989.352 372.477 986.487 375.041 985.318 378.397C984.112 381.865 985.657 385.56 988.523 388.274C1350.01 610.186 1596.5 189.285 1655.95 474.762C1658.74 474.573 1661.5 474.385 1664.17 474.347C1652.03 388.651 1607.88 367.538 1590.58 338.734C1585.19 329.761 1578.02 325.539 1570.71 324.86C1563.4 324.219 1556.16 326.858 1549.75 330.365C1502.43 365.804 1444.86 387.973 1389.74 398.416C1332.4 408.746 1267.48 412.969 1206.89 412.893C915.382 360.375 1258.5 337.038 1404.79 322.9C1250.74 311.929 1082.97 292.889 897.85 293.493Z" fill="white" fill-opacity="0.4"/>
</g>
<mask id="mask2_425_1906" style="mask-type:luminance" maskUnits="userSpaceOnUse" x="397" y="33" width="268" height="218">
<path d="M397.55 33.7656H664.703V250.399H397.55V33.7656Z" fill="white"/>
</mask>
<g mask="url(#mask2_425_1906)">
<path fill-rule="evenodd" clip-rule="evenodd" d="M522.493 45.343L508.619 94.9206L543.078 116.109L463.151 125.723L462.66 104.082L397.55 131.981L457.382 112.716L456.93 130.549L544.511 124.78L549.299 150.757L499.985 167.609L550.731 215.754L471.294 235.962L664.666 250.402L517.215 234.039L562.72 217.677L513.407 170.022L560.308 157.995L553.634 129.116L596.69 127.155L597.896 142.575L617.991 125.723L639.783 153.396L662.743 139.22L639.783 148.344L618.707 119.728L602.684 132.698L600.271 122.103L556.01 123.084L582.815 105.025L579.686 89.1522L603.137 79.2744L602.684 65.3248L625.908 65.8149L599.329 61.2153L599.103 75.4288L577.801 85.5329L578.517 101.895L553.597 117.051L545.943 102.385L558.385 88.926L550.015 61.9694L564.643 67.2476L546.433 57.1436L554.351 87.6819L542.135 99.9726L545.491 110.077L513.633 93.224L517.931 71.0932L529.204 68.1901L526.791 54.9569L568.677 39.5746L524.189 50.1688L523.926 62.6857L522.606 49.3016L531.127 44.2496L522.154 33.8063L523.812 40.7811L522.493 45.343Z" fill="white" fill-opacity="0.4"/>
</g>
<path d="M83.9238 554.924C49.653 554.924 0 577.959 0 636.585C0 686.728 38.908 722.809 82.4157 722.809C106.696 722.809 133.577 711.046 147.639 691.064C154.313 681.601 138.704 672.402 133.049 680.847C121.022 696.191 102.624 705.164 82.9058 705.164C47.8433 705.164 18.1722 675.456 18.1722 636.811C18.1722 586.404 57.0802 572.342 84.4516 572.342C101.606 572.342 117.214 577.205 131.013 591.796C138.176 599.449 151.749 588.968 144.058 580.259C127.695 562.879 107.223 554.924 83.9238 554.924Z" fill="white" fill-opacity="0.4"/>
<path d="M198.05 663.424H247.703L297.092 716.922C299.128 719.222 301.692 720.24 303.991 720.24C310.929 720.24 317.036 711.795 309.873 704.632L270.739 662.406C302.22 657.052 316.282 638.352 316.282 612.527C316.282 582.554 293.774 557.482 249.513 557.482H188.851C183.233 557.482 179.388 561.064 179.388 566.455V711.531C179.388 717.186 183.987 720.24 188.587 720.24C193.45 720.24 198.05 717.186 198.05 711.267V663.424ZM198.05 647.325V574.637H249.739C279.448 574.637 297.092 591.527 297.356 613.545C297.356 632.207 282.765 647.325 249.739 647.325H198.05Z" fill="white" fill-opacity="0.4"/>
<path d="M414.279 554.924C410.961 554.924 407.38 556.469 405.834 559.787L330.355 708.218C327.301 714.854 333.673 720.245 339.554 720.245C342.646 720.245 345.474 718.963 347.246 715.645L366.172 679.037H462.386L480.822 715.382C482.632 718.963 485.95 720.245 489.267 720.245C495.677 720.245 501.558 715.118 497.977 707.954L422.498 559.787C420.688 556.469 417.634 554.924 414.279 554.924ZM414.279 582.333L454.469 662.939H373.863L414.279 582.333Z" fill="white" fill-opacity="0.4"/>
<path d="M601.082 554.924C566.812 554.924 517.159 577.959 517.159 636.585C517.159 686.728 556.067 722.809 599.574 722.809C623.854 722.809 650.735 711.046 664.798 691.064C671.471 681.601 655.863 672.402 650.208 680.847C638.181 696.191 619.782 705.164 600.065 705.164C565.002 705.164 535.331 675.456 535.331 636.811C535.331 586.404 574.239 572.342 601.61 572.342C618.764 572.342 634.373 577.205 648.172 591.796C655.335 599.449 668.908 588.968 661.216 580.259C644.854 562.879 624.382 554.924 601.082 554.924Z" fill="white" fill-opacity="0.4"/>
<path d="M807.088 560.574L739.79 620.444L714.983 645.516V566.191C714.983 560.31 710.345 557.482 705.482 557.482C700.882 557.482 696.283 560.31 696.283 566.191V711.267C696.283 717.186 700.882 720.24 705.482 720.24C710.119 720.24 714.983 717.186 714.983 711.267V666.252L742.09 642.462L812.441 716.659C815.005 719.222 818.097 720.24 820.66 720.24C827.824 720.24 833.177 712.813 826.014 704.632L755.135 630.925L820.66 573.355C827.824 566.946 821.942 557.482 814.251 557.482C811.951 557.482 809.388 558.5 807.088 560.574Z" fill="white" fill-opacity="0.4"/>
<path d="M1002.07 554.924C967.795 554.924 918.142 577.959 918.142 636.585C918.142 686.728 957.05 722.809 1000.56 722.809C1024.84 722.809 1051.72 711.046 1065.78 691.064C1072.45 681.601 1056.85 672.402 1051.19 680.847C1039.16 696.191 1020.77 705.164 1001.05 705.164C965.985 705.164 936.314 675.456 936.314 636.811C936.314 586.404 975.222 572.342 1002.59 572.342C1019.75 572.342 1035.36 577.205 1049.15 591.796C1056.32 599.449 1069.89 588.968 1062.2 580.259C1045.84 562.879 1025.36 554.924 1002.07 554.924Z" fill="white" fill-opacity="0.4"/>
<path d="M1116.19 663.424H1165.85L1215.24 716.922C1217.27 719.222 1219.84 720.24 1222.14 720.24C1229.07 720.24 1235.18 711.795 1228.02 704.632L1188.88 662.406C1220.36 657.052 1234.43 638.352 1234.43 612.527C1234.43 582.554 1211.92 557.482 1167.66 557.482H1106.99C1101.38 557.482 1097.53 561.064 1097.53 566.455V711.531C1097.53 717.186 1102.13 720.24 1106.73 720.24C1111.59 720.24 1116.19 717.186 1116.19 711.267V663.424ZM1116.19 647.325V574.637H1167.88C1197.59 574.637 1215.24 591.527 1215.5 613.545C1215.5 632.207 1200.91 647.325 1167.88 647.325H1116.19Z" fill="white" fill-opacity="0.4"/>
<path d="M1284.09 703.35V647.815H1380.3C1391.05 647.815 1390.52 631.453 1380.3 631.453H1284.09V573.883H1385.13C1395.91 573.883 1396.4 557.482 1385.39 557.482H1277.41C1270.25 557.482 1265.65 562.61 1265.65 568.491V708.967C1265.65 715.113 1270.25 720.24 1277.41 720.24H1385.13C1397.42 720.24 1395.91 703.35 1385.13 703.35H1284.09Z" fill="white" fill-opacity="0.4"/>
<path d="M1490.58 691.323L1434.52 563.138C1433.01 559.292 1429.66 557.482 1426.07 557.482C1419.7 557.482 1413.03 562.874 1415.59 570.301L1480.85 717.186C1482.63 720.994 1485.98 722.804 1489.3 722.804C1493.15 722.804 1497.22 720.768 1498.76 717.413L1555.05 601.744L1611.11 717.186C1612.89 720.994 1616.2 722.804 1619.56 722.804C1623.14 722.804 1626.72 720.768 1628.49 716.922L1693.49 570.791C1695.79 562.346 1689.91 557.482 1683.76 557.482C1680.18 557.482 1676.34 559.556 1674.83 563.628L1619.79 691.059L1564.02 577.2C1561.95 573.619 1558.37 571.809 1554.56 571.809C1550.98 571.809 1547.62 573.619 1546.12 577.464L1490.58 691.323Z" fill="white" fill-opacity="0.4"/>
<path d="M842.76 490.706H803.739C800.195 490.706 800.195 495.909 803.739 495.909H820.478V535.835C820.478 537.72 821.911 538.625 823.155 538.625C824.437 538.625 826.02 537.72 826.02 535.835L825.945 495.909H842.76C846.454 495.909 846.454 490.706 842.76 490.706Z" fill="white" fill-opacity="0.4"/>
<path d="M857.31 512.347V493.421C857.31 491.687 855.877 490.706 854.52 490.706C853.163 490.706 851.881 491.611 851.881 493.421V535.835C851.881 537.645 853.314 538.625 854.746 538.625C856.028 538.625 857.31 537.72 857.31 535.835V517.098H885.021V535.76C885.021 537.645 886.378 538.625 887.735 538.625C889.092 538.625 890.525 537.645 890.525 535.76V493.421C890.525 491.611 889.168 490.706 887.81 490.706C886.378 490.706 885.021 491.611 885.021 493.421V512.347H857.31Z" fill="white" fill-opacity="0.4"/>
<path d="M908.915 533.649V517.324H937.229C940.396 517.324 940.245 512.498 937.229 512.498H908.915V495.532H938.661C941.828 495.532 941.979 490.706 938.737 490.706H906.954C904.843 490.706 903.486 492.214 903.486 493.949V535.307C903.486 537.117 904.843 538.625 906.954 538.625H938.661C942.281 538.625 941.828 533.649 938.661 533.649H908.915Z" fill="white" fill-opacity="0.4"/>
</svg>
