<svg viewBox="0 0 273 82" fill="none" xmlns="http://www.w3.org/2000/svg">
<path d="M110 63.3213C110 58.3624 106.987 53.956 103.599 53.956C99.8579 53.956 96.7109 58.3063 96.7109 63.4507C96.7109 68.7419 99.7029 73.0361 103.397 73.0361C106.927 73.0361 109.988 68.5175 109.988 63.3126M107.555 63.4507C107.555 68.8498 105.993 72.1039 103.422 72.1039C100.594 72.1039 99.1433 69.208 99.1433 63.6709C99.1433 58.22 100.758 55.0393 103.539 55.0393C106.143 55.0565 107.577 58.0517 107.577 63.4594L107.555 63.4507Z" fill="white" fill-opacity="0.4"/>
<path d="M113.927 62.0826C114.487 60.6756 115.584 59.8211 116.872 59.8211C118.159 59.8211 119.024 60.6843 119.3 62.0826C119.838 60.8137 121.215 59.8211 122.455 59.8211C123.88 59.8211 125.073 61.064 125.331 62.7429C125.473 63.9125 125.527 65.0911 125.495 66.2689V71.5859L126.567 71.7802V72.6865H122.55V71.7802L123.717 71.5859V64.5642C123.717 62.2768 123.157 61.3101 121.779 61.3101C121.373 61.3526 120.979 61.4802 120.625 61.6846C120.27 61.889 119.963 62.1658 119.722 62.4969V71.5859L120.893 71.7802V72.6865H116.777V71.7802L117.944 71.5859V63.9815C117.944 62.3286 117.268 61.3101 116.123 61.3101C115.421 61.3101 114.977 61.6122 113.927 62.8249V71.5859L115.094 71.7802V72.6865H110.982V71.7802L112.149 71.5859V63.5974C112.149 62.0826 111.938 61.5863 111.357 61.5863C111.228 61.5913 111.101 61.619 110.982 61.6683V60.7317L113.105 59.6312C113.685 60.3107 113.98 61.1895 113.927 62.0826Z" fill="white" fill-opacity="0.4"/>
<path d="M136.615 71.4306L136.082 70.8782C135.754 71.3486 135.591 71.4867 135.358 71.4867C135.031 71.4867 134.82 70.9645 134.82 70.1617V64.2319C134.82 62.717 134.583 62.0308 133.908 61.3101C133.335 60.7391 132.652 60.2914 131.901 59.9946C131.149 59.6977 130.345 59.5579 129.538 59.5838C128.462 59.5838 127.816 60.1923 127.816 61.1806C127.808 61.4765 127.916 61.7637 128.118 61.9801C128.319 62.1966 128.597 62.3249 128.892 62.3372C129.641 62.3372 129.943 61.5949 130.296 60.9605C130.433 60.7145 130.576 60.6023 130.761 60.6023C132.349 60.6023 133.051 62.6695 133.051 64.2405C130.834 65.0648 127.188 66.3984 127.188 69.851C127.188 71.8061 128.402 73.1828 130.106 73.1828C131.441 73.1828 132.655 72.1902 133.24 70.6753C133.24 72.3024 133.8 73.1828 134.756 73.1828C135.251 73.1828 135.948 72.5225 136.624 71.4565M133.051 65.1468V70.0236C132.349 70.9904 131.579 71.5126 130.898 71.5126C129.844 71.5126 129.073 70.52 129.073 69.1691C129.069 66.5753 131.363 65.7726 133.042 65.1123L133.051 65.1468Z" fill="white" fill-opacity="0.4"/>
<path d="M139.723 61.6985C140.106 61.1555 140.605 60.7052 141.183 60.3803C141.762 60.0555 142.406 59.8645 143.068 59.8211C145.543 59.8211 146.271 62.1905 146.271 64.6678V71.573L147.368 71.7672V72.6736H143.309V71.7672L144.48 71.573V64.8922C144.48 62.2207 143.825 61.1159 142.263 61.1159C141.402 61.1159 140.394 61.8625 139.71 62.9932V71.586L140.881 71.7802V72.6865H136.77V71.7802L137.936 71.586V56.4807C137.936 55.6521 137.678 55.186 137.234 55.186C137.074 55.2098 136.917 55.2563 136.77 55.3241V54.3401L139.71 53.0195V61.6985" fill="white" fill-opacity="0.4"/>
<path d="M157.417 71.4306L156.879 70.8782C156.552 71.3486 156.388 71.4867 156.156 71.4867C155.829 71.4867 155.618 70.9645 155.618 70.1617V64.2319C155.618 62.717 155.385 62.0308 154.709 61.3101C154.137 60.7391 153.454 60.2914 152.702 59.9946C151.951 59.6977 151.147 59.5579 150.34 59.5838C149.259 59.5838 148.618 60.1923 148.618 61.1806C148.61 61.4765 148.718 61.7637 148.919 61.9801C149.121 62.1966 149.399 62.3249 149.694 62.3372C150.443 62.3372 150.749 61.5949 151.097 60.9605C151.235 60.7145 151.377 60.6023 151.567 60.6023C153.155 60.6023 153.857 62.6695 153.857 64.2405C151.636 65.0648 147.989 66.3984 147.989 69.851C147.989 71.8061 149.203 73.1828 150.912 73.1828C152.243 73.1828 153.457 72.1902 154.042 70.6753C154.042 72.3024 154.602 73.1828 155.562 73.1828C156.053 73.1828 156.75 72.5225 157.43 71.4565M153.857 65.1468V70.0236C153.155 70.9904 152.38 71.5126 151.704 71.5126C150.654 71.5126 149.883 70.52 149.883 69.1691C149.871 66.5753 152.161 65.7726 153.844 65.1123L153.857 65.1468Z" fill="white" fill-opacity="0.4"/>
<path d="M59.7326 12.3043V17.4833C59.7326 18.7176 59.7799 19.0801 60.0296 19.4988C60.1831 19.7549 60.4012 19.9659 60.6619 20.1106C60.9227 20.2553 61.2169 20.3286 61.5148 20.3231C61.858 20.3343 62.1963 20.2387 62.483 20.0493C62.7698 19.86 62.991 19.5862 63.1163 19.2657C63.2713 18.8902 63.3057 18.5407 63.3057 17.4747V12.3043H64.2657V17.4358C64.2657 18.7867 64.1796 19.3175 63.8826 19.8785C63.6487 20.2929 63.3016 20.6317 62.8821 20.8549C62.4626 21.0782 61.9882 21.1767 61.5148 21.1388C60.2793 21.1388 59.4097 20.595 59.0136 19.5937C58.7925 18.8973 58.7077 18.1645 58.7639 17.4358V12.3043H59.7196" fill="white" fill-opacity="0.4"/>
<path d="M71.5958 20.9704H70.6746L66.6537 13.9227V20.9704H65.7324V12.2956H66.6537L70.6746 19.3433V12.2956H71.5958V20.9704Z" fill="white" fill-opacity="0.4"/>
<path d="M74.3209 12.2956H73.3652V20.9704H74.3209V12.2956Z" fill="white" fill-opacity="0.4"/>
<path d="M78.6653 19.2268L81.1278 12.2956H81.9672L78.8805 20.9704H78.2821L75.5312 12.2956H76.4654L78.6653 19.2268Z" fill="white" fill-opacity="0.4"/>
<path d="M86.7848 16.1324V16.9524H84.2233V20.1504H87.1679V20.9704H83.2676V12.2956H86.7848V13.1156H84.2233V16.1324H86.7848Z" fill="white" fill-opacity="0.4"/>
<path d="M88.5322 20.9704H89.4965V17.0042H90.2973L92.368 20.9704H93.371L91.1712 16.8747C91.4916 16.7582 91.7763 16.5604 91.9978 16.3007C92.4006 15.7735 92.6158 15.1263 92.6091 14.4622C92.6091 13.599 92.2862 12.8567 91.7481 12.5503C91.2932 12.3358 90.7888 12.2492 90.2887 12.3H88.5322V20.9747M89.4965 16.1885V13.1157H90.491C91.2573 13.1157 91.5759 13.517 91.5759 14.4838C91.5973 14.7426 91.5651 15.0031 91.4814 15.2489C91.3977 15.4948 91.2642 15.7206 91.0894 15.9123C90.9548 16.0226 90.7988 16.1037 90.6314 16.1505C90.4639 16.1973 90.2886 16.2088 90.1165 16.1842L89.4965 16.1885Z" fill="white" fill-opacity="0.4"/>
<path d="M97.3576 14.0004C97.095 13.2581 96.7463 12.9473 96.2125 12.9473C95.6012 12.9473 95.1707 13.5041 95.1707 14.2766C95.1707 14.9758 95.4074 15.3253 96.3761 16.0029C96.8442 16.2904 97.2641 16.6501 97.6202 17.0689C97.9565 17.5066 98.1287 18.0489 98.1067 18.601C98.1067 20.1115 97.194 21.1387 95.8681 21.1387C95.4407 21.1487 95.02 21.0309 94.6597 20.8003C94.2993 20.5697 94.0156 20.2368 93.8447 19.844L94.4431 18.9808C94.6928 19.8138 95.2094 20.2755 95.8422 20.2755C96.5956 20.2755 97.0993 19.6368 97.0993 18.7003C97.109 18.4991 97.079 18.2979 97.011 18.1083C96.9431 17.9187 96.8385 17.7445 96.7032 17.5954C96.4527 17.3158 96.1626 17.0744 95.8422 16.879C94.611 16.0159 94.2193 15.3685 94.2193 14.3672C94.2193 13.0725 95.0803 12.0799 96.2039 12.0799C96.5804 12.0728 96.9506 12.1776 97.2677 12.3812C97.5849 12.5847 97.8349 12.8778 97.9861 13.2235L97.3748 13.9529" fill="white" fill-opacity="0.4"/>
<path d="M100.574 12.2956H99.6182V20.9704H100.574V12.2956Z" fill="white" fill-opacity="0.4"/>
<path d="M105.226 20.9704H104.27V13.1156H102.187V12.2956H107.236V13.1156H105.226V20.9704Z" fill="white" fill-opacity="0.4"/>
<path d="M113.971 12.2956L111.616 17.1207V20.9704H110.66V17.1207L108.267 12.2956H109.261L111.185 16.0806L113.075 12.2956H113.971Z" fill="white" fill-opacity="0.4"/>
<path d="M130.463 12.1274C128.336 12.1274 127.045 13.8062 127.045 16.564C127.045 18.1868 127.355 19.2657 128.074 20.0987C128.379 20.427 128.748 20.6888 129.158 20.8678C129.569 21.0469 130.011 21.1393 130.459 21.1393C130.906 21.1393 131.349 21.0469 131.759 20.8678C132.17 20.6888 132.539 20.427 132.844 20.0987C133.541 19.2787 133.873 18.1738 133.873 16.646C133.873 13.8106 132.607 12.1447 130.463 12.1447M130.463 12.9647C131.935 12.9647 132.835 14.3587 132.835 16.646C132.835 18.9334 131.935 20.3403 130.463 20.3403C128.991 20.3403 128.087 18.9593 128.087 16.5942C128.087 14.3414 128.995 12.9474 130.463 12.9474V12.9647Z" fill="white" fill-opacity="0.4"/>
<path d="M138.848 16.1842V17.0042H136.61V20.9704H135.658V12.2956H139.111V13.1156H136.61V16.1842H138.848Z" fill="white" fill-opacity="0.4"/>
<path d="M30.9702 11.5576H20.8147V12.6841L21.4992 12.8179C24.6246 13.4177 25.1068 13.5127 25.1068 17.2372V39.4376L8.44641 11.5576H0V12.7617L0.796424 12.8308C4.03378 13.0984 4.45137 13.1329 4.45137 16.8574V44.5648C4.45137 47.9225 3.88311 48.0174 1.16235 48.3886L0 48.5612V49.8559H11.6795V48.5612L10.388 48.367C7.58971 47.957 7.08603 47.8836 7.08603 44.5648V21.143L25.2359 49.8732H27.7414V17.0214C27.7414 13.7242 28.1977 13.5947 30.7205 12.8696L31.2371 12.7186V11.5576H30.9874" fill="white" fill-opacity="0.4"/>
<path d="M59.3973 48.0692C55.7725 48.0692 54.722 46.0797 54.722 39.2089V30.4306C56.2675 28.6568 57.5203 27.9231 59.027 27.9231C62.8671 27.9231 65.7687 32.5971 65.7687 38.7903C65.7687 44.4353 63.2675 48.0865 59.3973 48.0865M61.0418 24.108C58.3856 24.108 56.4096 25.1222 54.722 27.3405V8.85166L54.3862 8.98114L47.3906 11.5706V12.8653L47.7092 12.7747C48.0285 12.6693 48.3632 12.6183 48.6993 12.6237C49.8057 12.6237 50.1975 13.0941 50.1975 15.7353V39.7009C50.1975 44.7936 49.922 46.6709 48.7295 49.7524L48.652 49.9596L50.0296 50.7062L53.1722 46.9601C54.7048 49.5021 56.952 50.8011 59.8751 50.8011C65.6869 50.8011 70.2416 44.6641 70.2416 36.8223C70.2416 29.2092 66.5436 24.0907 61.0418 24.0907V24.108Z" fill="white" fill-opacity="0.4"/>
<path d="M151.222 44.0944C149.724 45.8595 148.045 46.8738 146.598 46.8738C144.351 46.8738 142.724 45.0439 142.724 42.5148C142.724 37.8322 147.386 36.2483 151.136 34.9751L151.226 34.9449V44.0944M137.928 43.87C137.909 45.465 138.442 47.0174 139.435 48.2634L138.811 48.1901C138.686 47.97 130.61 33.2704 130.45 32.9769C131.914 31.0477 135.793 27.88 138.75 27.5131C139.547 27.4182 140.137 27.3448 140.27 27.5476C140.83 28.4108 142.125 28.3072 142.125 28.3072C142.423 28.2727 144.002 28.5101 145.384 26.2702C145.384 26.2702 145.458 25.9551 146.271 25.9508C149.797 25.9508 151.144 30.0033 151.2 32.6834C146.168 34.3148 137.924 37.0424 137.924 43.87H137.928ZM158.377 45.6179L158.213 45.825C157.456 46.7659 157.154 46.9255 156.767 46.9255C156.194 46.9255 155.798 45.9588 155.798 44.5734V32.9208C155.798 29.7616 155.273 28.3159 153.646 26.9736C150.655 24.5327 146.878 23.2711 143.025 23.4261C138.466 23.2491 127.252 29.6365 124.307 37.0942V8.8948L123.967 9.01996L117.238 11.5663V12.9516L117.557 12.861C117.89 12.7623 118.235 12.7115 118.581 12.71C119.442 12.71 119.843 13.0897 119.843 15.2994V48.2677L117.26 48.6389V50.1451H126.95V48.6389L124.346 48.2677C124.346 42.6572 124.647 41.2071 127.79 36.7446C128.147 37.4135 133.584 47.6679 133.894 48.2548L131.428 48.6001V50.1451H142.018C142.916 50.524 143.88 50.7206 144.855 50.7234C147.649 50.7234 150.262 49.0662 151.743 46.4551C151.98 49.1741 153.271 50.7234 155.389 50.7234C156.586 50.7234 158.205 49.4287 159.828 47.2017L159.961 47.0162L158.377 45.6179Z" fill="white" fill-opacity="0.4"/>
<path d="M39.3738 26.4946C41.7588 26.4946 43.3603 28.3547 43.3603 31.1255C43.3603 32.5497 42.8738 33.3999 40.2133 34.0818L33.3253 35.8081C33.4028 30.0724 35.693 26.5119 39.3523 26.5119M47.351 42.7047L47.196 42.9335C45.2243 45.8639 43.5411 47.0032 41.2078 47.0032C37.428 47.0032 34.38 43.6499 33.5578 38.6479L48.8448 34.5263L48.819 34.3105C48.057 27.9231 44.514 24.108 39.348 24.108C33.5449 24.108 28.8223 30.5256 28.8223 38.4105C28.8223 45.5963 33.3597 50.8141 39.6106 50.8141C43.6831 50.8141 46.6019 48.6994 48.7889 44.1635L48.875 43.9865L47.351 42.7047Z" fill="white" fill-opacity="0.4"/>
<path d="M94.6182 44.2066C93.1243 45.9675 91.4411 46.986 89.9946 46.986C87.7474 46.986 86.1201 45.1518 86.1201 42.6227C86.1201 37.9444 90.7824 36.3605 94.5321 35.0874L94.6225 35.0572V44.2066M112.338 34.7464C106.797 32.3339 106.349 31.9627 106.349 29.7703C106.349 28.044 107.912 26.5853 109.888 26.5723C109.888 26.5723 111.511 26.4817 111.752 27.2672C111.808 27.5304 112.527 29.7401 115.153 29.2179C116.328 28.9805 116.698 27.9232 116.733 27.0988C116.798 25.5754 114.968 24.039 112.187 24.039C106.59 24.039 102.35 27.3405 102.35 31.7211C102.35 35.8124 105.708 37.3316 108.954 38.8119C111.795 40.1066 114.477 41.3237 114.477 44.198C114.477 46.4508 112.501 48.2851 110.069 48.2851C107.636 48.2851 106.771 47.068 106.59 45.2338C106.41 43.3996 104.916 42.9723 103.689 42.9335C102.324 42.899 101.244 43.9045 101.145 45.523C101.131 45.7652 101.168 46.0076 101.252 46.2351C100.714 46.8522 100.443 46.9731 100.111 46.9731C99.5431 46.9731 99.1427 46.002 99.1427 44.6166V33.8185V32.977C99.1427 29.8178 98.6218 28.3763 96.9902 27.0341C94.334 24.6086 88.9054 22.6665 84.411 23.6074C81.9098 24.1339 77.8674 27.1636 75.9818 32.3123C75.8354 28.3332 75.4308 26.7018 74.036 24.0131L73.924 23.7973L68.9561 26.1364V27.1377L69.4899 27.0125L69.7869 26.9651C71.298 26.9651 71.9739 28.8769 71.9739 33.1668V48.1987L69.3263 48.5785V49.8733H79.301V48.5785L76.4984 48.1987C76.4984 47.7931 76.5587 42.3767 76.5587 42.3767C77.213 30.1587 79.9338 28.8942 81.1005 28.1346C82.0777 27.5175 83.4811 27.4139 83.6103 27.6081C84.1699 28.4713 85.4657 28.3677 85.4657 28.3677C85.8144 28.3332 87.4159 28.5317 88.7246 26.335C88.7246 26.335 88.7978 26.0156 89.6114 26.0156C93.1329 25.9897 94.4847 30.0638 94.5407 32.7439H94.5966V32.7698C89.5641 34.4184 81.3157 37.1546 81.3157 43.9822C81.3157 47.9916 84.1398 50.7968 88.2037 50.7968C90.9977 50.7968 93.6108 49.1396 95.0917 46.5285C95.3285 49.2475 96.62 50.7968 98.7337 50.7968C99.7282 50.7968 101.02 49.9078 102.359 48.3196C103.775 49.8646 106.336 50.7968 109.591 50.7968C114.636 50.7968 118.58 47.3442 118.58 42.8989C118.58 39.4593 116.251 36.4123 112.338 34.7464Z" fill="white" fill-opacity="0.4"/>
<path d="M181.882 0H179.88V82H181.882V0Z" fill="white" fill-opacity="0.4"/>
<path d="M271.964 27.47L265.8 54.3013C262.575 67.8658 242.893 77.503 224.317 77.503C206.601 77.503 197.195 67.4472 199.843 56.0966L206.033 29.2697C209.258 15.7009 228.923 6.06371 247.499 6.06371C265.218 6.06371 274.612 16.1238 271.964 27.47ZM247.856 28.9503C249.062 23.3743 243.982 22.6406 239.195 22.7744C232.806 22.96 230.585 25.8904 229.969 28.2166L223.942 54.6163C222.741 60.1966 227.816 60.9433 232.604 60.7965C238.988 60.611 241.192 57.6849 241.825 55.35L247.856 28.9503Z" fill="white" fill-opacity="0.4"/>
<path d="M251.679 59.2903C249.255 71.4608 236.181 73.869 226.594 74.2919C210.105 75.0343 200.561 66.7609 202.916 56.5497L209.089 29.7185C210.036 25.7177 213.222 21.1387 217.936 18.3464C218.052 18.2816 218.367 18.2342 218.276 18.5578L209.343 57.3525C207.768 64.1628 214.742 69.113 228.01 68.2628C240.322 67.4644 244.184 63.4377 245.075 59.4068L252.243 27.9015C253.788 20.8711 245.523 19.0369 236.96 19.6325C236.594 19.6627 236.482 19.3347 236.9 19.2009C243.142 17.3451 261.266 17.0516 259.212 26.2011L251.679 59.2903Z" fill="white" fill-opacity="0.4"/>
<path d="M212.619 57.3784C210.553 66.5193 228.685 66.2258 234.932 64.383C235.362 64.2621 235.242 63.9514 234.859 63.9514C226.305 64.5513 218.043 62.7171 219.589 55.678L226.753 24.1728C227.644 20.1461 231.488 16.1152 243.826 15.3168C257.094 14.4536 264.06 19.4254 262.488 26.2271L253.59 65.026C253.487 65.3583 253.818 65.3152 253.93 65.2461C258.665 62.4322 261.825 57.8532 262.751 53.8524L268.898 27.0169C271.275 16.8143 261.731 8.53233 245.221 9.27465C235.599 9.70623 222.551 12.1101 220.131 24.272L212.619 57.3784Z" fill="white" fill-opacity="0.4"/>
</svg>
